<?xml version="1.0" standalone="no"?>
<!DOCTYPE svg PUBLIC "-//W3C//DTD SVG 1.1//EN" "http://www.w3.org/Graphics/SVG/1.1/DTD/svg11.dtd" >
<!--
2021-5-21: Created with FontForge (http://fontforge.org)
-->
<svg xmlns="http://www.w3.org/2000/svg" xmlns:xlink="http://www.w3.org/1999/xlink" version="1.1">
<metadata>
Created by FontForge 20200314 at Fri May 21 16:25:44 2021
 By Nimesh Sherpa

</metadata>
<defs>
<font id="btc-font" horiz-adv-x="512" >
  <font-face 
    font-family="btc-font"
    font-weight="400"
    font-stretch="normal"
    units-per-em="512"
    panose-1="2 0 5 3 0 0 0 0 0 0"
    ascent="448"
    descent="-64"
    bbox="-0.588016 -66 683 448.504"
    underline-thickness="25.6"
    underline-position="-51.2"
    unicode-range="U+0020-F21C"
  />
    <missing-glyph />
    <glyph glyph-name="space" unicode=" " horiz-adv-x="200" 
 />
    <glyph glyph-name="a" unicode="&#xf1a4;" horiz-adv-x="472" 
d="M383 -64l-50 142h-195l-50 -142h-88l191 512h90l191 -512h-89v0zM311 149l-48 139c-3 9 -9 24 -15 44s-10 35 -12 44c-6 -29 -16 -60 -28 -94l-46 -133h149v0z" />
    <glyph glyph-name="alfresco" unicode="&#xf100;" 
d="M178 111l65 64h-97v0c-54 0 -98 -43 -98 -97s44 -98 98 -98c4 0 8 1 12 1c-21 42 -15 95 20 130zM255 80v92l-68 -69v0c-38 -38 -38 -100 0 -138s99 -38 137 0c3 3 6 6 8 9c-44 15 -77 56 -77 106zM334 111l-65 64v-97c0 -54 44 -98 98 -98s97 44 97 98c0 4 -1 8 -1 12
c-42 -21 -94 -14 -129 21zM483 260c-3 3 -6 6 -9 8c-15 -44 -56 -77 -106 -77h-92l69 -68v0c38 -38 100 -38 138 0s38 99 0 137zM366 400c-4 0 -8 -1 -12 -1c21 -42 15 -94 -20 -129l-65 -65h97c54 0 98 44 98 98s-44 97 -98 97zM325 419c-38 38 -99 38 -137 0
c-3 -3 -6 -6 -8 -9c44 -15 77 -56 77 -106v-92l68 69c38 38 38 100 0 138zM178 270l3 -3l62 -62v0v97c0 54 -44 98 -98 98s-97 -44 -97 -98c0 -4 1 -8 1 -12c42 21 94 15 129 -20zM38 117c1 2 1 5 2 7l1 1c1 2 2 5 3 7l1 1c1 2 3 5 4 7v1c1 2 3 3 4 5l1 2c1 2 2 3 4 5l1 2
l5 5h1l5 5l2 1c2 2 4 4 6 5v1c2 1 4 3 6 4h1c2 1 5 3 7 4l1 1c2 1 5 2 7 3v0c2 1 6 2 8 3h1c2 1 5 2 8 3h1c2 1 5 1 7 1l1 1h8c1 0 1 1 2 1h8h92l-69 68c-38 38 -100 38 -138 0s-38 -99 0 -137c3 -3 6 -6 9 -8v1z" />
    <glyph glyph-name="align-center" unicode="&#xf19c;" 
d="M68 396h376v-51h-376v51v0zM85 158h342v-51h-342v51v0zM34 277h444v-51h-444v51v0zM0 39h512v-51h-512v51v0z" />
    <glyph glyph-name="align-jusify" unicode="&#xf19d;" 
d="M0 396h512v-51h-512v51v0zM0 158h512v-51h-512v51v0zM0 277h512v-51h-512v51v0zM0 39h512v-51h-512v51v0z" />
    <glyph glyph-name="align-left" unicode="&#xf19e;" 
d="M0 396h410v-51h-410v51v0zM0 158h375v-51h-375v51v0zM0 277h478v-51h-478v51v0zM0 39h512v-51h-512v51v0z" />
    <glyph glyph-name="align-right" unicode="&#xf19f;" 
d="M102 396h410v-51h-410v51v0zM137 158h375v-51h-375v51v0zM34 277h478v-51h-478v51v0zM0 39h512v-51h-512v51v0z" />
    <glyph glyph-name="android" unicode="&#xf196;" horiz-adv-x="435" 
d="M32 281v0v0v0c18 0 32 -14 32 -31v-131c0 -17 -14 -31 -32 -31s-32 14 -32 31v131c0 17 14 31 32 31zM133 40v0h-23c-19 0 -34 14 -34 33v203h283v-203c0 -19 -15 -33 -34 -33h-23v-70c0 -17 -13 -31 -31 -31s-32 14 -32 31v70h-43v-70c0 -17 -14 -31 -32 -31
s-31 14 -31 31v70zM403 281v0c18 0 32 -14 32 -31v-131c0 -17 -14 -31 -32 -31s-32 14 -32 31v131c0 17 14 31 32 31zM129 446v0c2 0 3 0 4 -2l23 -41c19 8 39 13 61 13s43 -5 62 -13l23 41c1 2 2 2 4 2c1 0 1 -1 2 -1c2 -1 3 -4 2 -6l-23 -40c43 -22 72 -64 72 -112h-283
c0 48 29 90 72 112l-23 40c-1 2 0 5 2 6c1 0 1 1 2 1zM152 362c-6 0 -12 -6 -12 -12s6 -12 12 -12s12 6 12 12s-6 12 -12 12v0zM283 362c-6 0 -12 -6 -12 -12s6 -12 12 -12s12 6 12 12s-6 12 -12 12v0z" />
    <glyph glyph-name="annotate" unicode="&#xf101;" 
d="M0 221v0l22 15c1 -2 4 -6 8 -11c7 -9 15 -19 24 -30c25 -31 51 -64 78 -93c30 -33 60 -60 88 -82c59 -46 105 -61 133 -39c39 29 28 68 -26 130c-10 12 -21 23 -37 40c-67 70 -81 86 -90 114c-15 44 -1 78 31 88c29 9 65 -5 87 -35c44 -59 94 -106 128 -117
c30 -10 55 31 27 59c-4 4 -29 27 -36 34c-15 15 -27 29 -36 42c-27 36 -33 67 -9 92l2 2c27 18 55 10 80 -11c9 -7 15 -14 19 -19l-22 -17c-1 1 -1 3 -3 5c-3 4 -7 7 -11 10c-17 15 -33 19 -48 9l2 2c-12 -12 -9 -30 11 -57c9 -12 19 -23 34 -38c7 -7 31 -30 36 -35
c48 -48 3 -123 -54 -104c-40 14 -95 64 -142 127c-16 22 -40 30 -57 25s-23 -23 -13 -54c7 -22 21 -38 84 -103c16 -17 28 -29 38 -41c63 -73 77 -127 21 -169c-42 -31 -98 -14 -166 39c-29 23 -60 51 -91 85c-28 30 -55 62 -80 94c-9 11 -16 22 -23 31c-2 3 -5 5 -7 8
c-1 2 -2 3 -2 4z" />
    <glyph glyph-name="app" unicode="&#xf1d7;" horiz-adv-x="506" 
d="M394 356c0 6 5 11 11 11s11 -5 11 -11s-5 -10 -11 -10s-11 4 -11 10zM359 356c0 4 2 7 5 9s8 2 11 0s5 -5 5 -9c0 -6 -5 -10 -11 -10s-10 4 -10 10zM323 356c0 4 2 7 5 9s8 2 11 0s5 -5 5 -9s-2 -7 -5 -9s-8 -2 -11 0s-5 5 -5 9zM484 83v0v34h-47l13 -34h34zM432 61v0
l-30 78l-42 109c-2 6 -9 12 -13 17c0 -6 -1 -14 1 -20l38 -106l28 -78l6 -17c0 -1 1 -2 1 -3v-2c0 -15 13 -29 25 -38c3 15 3 33 -7 45l-2 1c-1 1 -1 1 -1 2zM308 83v0h73l-12 34h-49zM260 19v0s70 194 70 195c2 4 -2 7 -4 8c-3 1 -8 0 -9 -3l-71 -195v-15zM210 83v0h32
l10 26v0l3 8h-45v-34zM344 184v0l-16 -45h32zM26 331v0h414v51h-415v-51h1zM490 139v0c9 0 16 -7 16 -16v-46c0 -9 -7 -16 -16 -16h-32c13 -16 18 -41 12 -66l-3 -10c-2 -5 -5 -10 -10 -12c-3 -1 -6 -1 -7 -1c-4 0 -7 2 -10 4l-8 5c-11 8 -35 29 -35 58l-8 22h-89l-19 -51
l-1 -4l-28 -28c-3 -4 -8 -6 -13 -6c-1 0 -4 0 -7 1c-7 3 -11 9 -11 16l1 37c0 1 1 2 1 3v1l11 31h-30c-9 0 -17 7 -17 16v46c0 9 7 15 15 16h1h1h59l32 88c2 7 7 13 13 16c4 2 9 3 14 3c-1 6 -2 12 -2 18c0 8 7 19 16 24l3 2v0c10 4 20 1 29 -8c9 -8 11 -14 14 -22
c0 -1 1 -2 1 -3l45 -118h12v167h-414h-1v-194h109v0h27c7 0 13 -6 13 -13s-6 -12 -16 -12h-66l-79 -1c-7 0 -13 6 -13 13v296c0 7 5 12 12 13h1h440c7 0 12 -6 12 -13v-256h25z" />
    <glyph glyph-name="apple" unicode="&#xf102;" horiz-adv-x="415" 
d="M347 176v0c1 -77 67 -103 68 -103c0 -2 -10 -37 -35 -73c-21 -31 -43 -61 -78 -62c-34 -1 -45 20 -84 20s-52 -20 -84 -21c-33 -1 -59 33 -81 64c-43 63 -76 180 -31 258c22 38 61 63 104 64c33 1 65 -23 85 -23s58 28 97 24c16 0 64 -7 94 -51c-2 -1 -56 -33 -55 -97z
M283 365v0c-18 -22 -48 -37 -76 -35c-4 29 11 59 27 78c18 21 50 38 75 39c3 -30 -9 -60 -26 -82z" />
    <glyph glyph-name="approved-content" unicode="&#xf216;" horiz-adv-x="429" 
d="M232 397l17 -23c6 -8 18 -12 27 -8l26 13c13 6 30 -3 31 -18l2 -29c1 -10 10 -18 20 -19l29 -3c15 -1 23 -18 17 -31l-12 -26c-4 -9 -1 -21 7 -27l24 -16c12 -9 12 -27 0 -36l-24 -16c-8 -6 -11 -18 -7 -27l12 -26c6 -13 -2 -30 -17 -31l-29 -3c-10 -1 -19 -9 -20 -19
l-2 -29c-1 -15 -18 -24 -31 -18l-26 13c-9 4 -21 0 -27 -8l-17 -23c-9 -12 -26 -12 -35 0l-17 23c-6 8 -17 12 -26 8l-27 -13c-13 -6 -29 3 -30 18l-3 29c-1 10 -9 18 -19 19l-30 3c-15 1 -23 18 -17 31l12 26c4 9 1 21 -7 27l-24 16c-12 9 -12 27 0 36l24 16
c8 6 11 18 7 27l-12 26c-6 13 2 30 17 31l30 3c10 1 18 9 19 19l3 29c1 15 17 24 30 18l27 -13c9 -4 20 0 26 8l17 23c9 12 26 12 35 0zM310 241c5 5 5 13 0 18s-13 5 -18 0l-108 -108l-50 50c-5 5 -13 5 -18 0s-5 -13 0 -18l59 -59c2 -2 6 -4 9 -4s7 2 9 4z" />
    <glyph glyph-name="archive" unicode="&#xf103;" 
d="M480 304v0v-352h-448v352h-32v128h512v-128h-32zM32 400v0v-64h448v64h-448zM64 304v0v-320h384v320h-384zM160 224c0 27 22 48 48 48h96c26 0 48 -22 48 -48c0 -27 -22 -48 -48 -48h-96c-26 0 -48 22 -48 48v0zM192 224v0c0 -9 7 -16 16 -16h96c9 0 16 7 16 16
s-7 16 -16 16h-96c-9 0 -16 -7 -16 -16z" />
    <glyph glyph-name="archive-nav" unicode="&#xf204;" horiz-adv-x="427" 
d="M1 384h425c1 0 1 0 1 -1v-84h-11h-21h-363h-21h-11v84c0 1 0 1 1 1zM395 277v-274c0 -2 -1 -3 -3 -3h-357c-2 0 -3 1 -3 3v274h363zM128 189v-26c0 -2 1 -3 3 -3h165c2 0 3 1 3 3v26c0 2 -1 3 -3 3h-165c-2 0 -3 -1 -3 -3z" />
    <glyph glyph-name="audio" unicode="&#xf104;" 
d="M0 244c0 8 0 8 8 8v0c8 0 8 0 8 -8v-104c0 -8 0 -8 -8 -8v0c-8 0 -8 0 -8 8v104zM55 320c0 8 0 8 8 8v0c8 0 8 0 8 -8v-256c0 -8 0 -8 -8 -8v0c-8 0 -8 0 -8 8v256zM110 280c0 8 0 8 8 8v0c8 0 8 0 8 -8v-180c0 -8 0 -8 -8 -8v0c-8 0 -8 0 -8 8v180zM165 264c0 8 0 8 8 8
v0c8 0 8 0 8 -8v-144c0 -8 0 -8 -8 -8v0c-8 0 -8 0 -8 8v144zM220 320c0 8 0 8 8 8v0c8 0 8 0 8 -8v-256c0 -8 0 -8 -8 -8v0c-8 0 -8 0 -8 8v256zM272 304c0 8 0 8 8 8v0c8 0 8 0 8 -8v-216c0 -8 0 -8 -8 -8v0c-8 0 -8 0 -8 8v216zM330 360c0 8 0 8 8 8v0c8 0 8 0 8 -8v-335
c0 -8 0 -8 -8 -8v0c-8 0 -8 0 -8 8v335zM385 264c0 8 0 8 8 8v0c8 0 8 0 8 -8v-144c0 -8 0 -8 -8 -8v0c-8 0 -8 0 -8 8v144zM440 280c0 8 0 8 8 8v0c8 0 8 0 8 -8v-180c0 -8 0 -8 -8 -8v0c-8 0 -8 0 -8 8v180zM496 244c0 8 0 8 8 8v0c8 0 8 0 8 -8v-104c0 -8 0 -8 -8 -8v0
c-8 0 -8 0 -8 8v104z" />
    <glyph glyph-name="automation" unicode="&#xf205;" horiz-adv-x="510" 
d="M255 -6c79 0 146 47 176 115l30 -5c-33 -82 -112 -140 -206 -140c-107 0 -197 76 -218 176l-9 -17c-4 -7 -14 -10 -21 -6s-9 14 -5 21l30 51c2 4 6 6 10 7s8 0 11 -3l47 -36c6 -5 8 -15 3 -21s-15 -8 -21 -3l-16 13c19 -87 96 -152 189 -152zM76 258l-30 4v2
c32 84 114 145 209 145c112 0 204 -83 220 -190l7 13c4 7 13 9 20 5s10 -13 6 -20l-30 -51c-2 -4 -6 -6 -10 -7s-9 0 -12 3l-47 36c-6 5 -7 14 -2 20s14 8 20 3l20 -15c-10 97 -92 173 -192 173c-81 0 -151 -50 -179 -121zM282 317l72 -73c6 -6 9 -11 10 -16l1 -4h1v-132
c0 -27 -13 -41 -40 -41h-139c-27 0 -40 14 -40 41v197c0 27 13 41 40 41h75v-1l3 -1c5 -1 11 -5 17 -11zM232 300h-45c-6 0 -8 -1 -9 -1c0 -1 -2 -3 -2 -10v-197c0 -7 2 -9 2 -10c1 0 3 -2 9 -2h139c6 0 8 2 9 2c0 1 1 3 1 10v103h-64c-10 0 -21 2 -29 10s-11 19 -11 29v66z
M332 224l-70 72v-62c0 -6 1 -8 1 -8s3 -2 9 -2h60z" />
    <glyph glyph-name="az" unicode="&#xf1af;" 
d="M189 74l-31 75h-99l-30 -75h-29l97 236h24l97 -236h-29v0zM149 173l-29 73c-4 9 -7 21 -11 34c-2 -10 -6 -22 -11 -34l-29 -73h80v0zM232 150v24h83v-24h-83v0zM512 74h-169v21l130 189h-126v25h161v-21l-130 -189h134v-25v0z" />
    <glyph glyph-name="azure" unicode="&#xf105;" horiz-adv-x="504" 
d="M504 203v0h-281v204l281 41v-245zM204 404v0v-201h-204v171zM0 184v0h204v-204l-204 30v174zM223 -23v0v207h281v-248z" />
    <glyph glyph-name="bar-chart" unicode="&#xf1dd;" 
d="M0 220h142v-284h-142v284zM185 334h142v-398h-142v398v0zM370 448h142v-512h-142v512z" />
    <glyph glyph-name="blogger" unicode="&#xf106;" 
d="M84 448h344c46 0 84 -38 84 -84v-344c0 -46 -38 -84 -84 -84h-344c-46 0 -84 38 -84 84v344c0 46 38 84 84 84v0zM198 350v0c-55 0 -99 -44 -99 -99v-116c0 -54 44 -99 99 -99h114c55 0 99 45 99 99l1 80l-1 5l-3 5l-4 4c-6 5 -35 -1 -43 6c-6 5 -6 15 -8 27
c-3 24 -5 26 -9 34c-14 29 -50 51 -76 54h-70zM200 269h54c10 0 19 -9 19 -19s-9 -19 -19 -19h-54c-10 0 -19 9 -19 19s9 19 19 19v0zM200 156h111c10 0 19 -9 19 -19s-9 -19 -19 -19h-111c-10 0 -19 9 -19 19s9 19 19 19v0z" />
    <glyph glyph-name="bold" unicode="&#xf1a5;" horiz-adv-x="376" 
d="M0 448h158c72 0 124 -10 156 -31s49 -54 49 -99c0 -31 -7 -55 -21 -75s-33 -31 -57 -35v-4c32 -7 56 -20 70 -40s21 -47 21 -80c0 -47 -17 -83 -50 -109s-79 -39 -136 -39h-190v512v0zM108 245h62c29 0 50 5 63 14s20 24 20 45c0 20 -7 33 -21 42s-37 13 -68 13h-56v-114
v0zM108 159v-133h70c30 0 51 6 65 17s21 28 21 52c0 42 -30 64 -90 64h-66v0z" />
    <glyph glyph-name="bookmark" unicode="&#xf107;" horiz-adv-x="384" 
d="M74 419v0c-24 0 -44 -20 -44 -44v-381l162 117l162 -117v381c0 24 -20 44 -44 44h-236zM0 -64v0v439c0 40 33 73 74 73h236c41 0 74 -33 74 -73v-412v-27l-192 138z" />
    <glyph glyph-name="bookmark-all" unicode="&#xf108;" horiz-adv-x="400" 
d="M80 367v27c0 30 24 54 53 54h214c29 0 53 -24 53 -54v-377l-80 59v35l53 -40v323c0 15 -11 27 -26 27h-214c-15 0 -26 -12 -26 -27v-27h160c29 0 53 -24 53 -54v-377l-160 118l-160 -118v377c0 30 24 54 53 54h27v0zM27 313v0v-323l133 94l133 -94v323
c0 15 -11 27 -26 27h-214c-15 0 -26 -12 -26 -27z" />
    <glyph glyph-name="bookmark-all-fill" unicode="&#xf109;" horiz-adv-x="400" 
d="M80 367v27c0 30 24 54 53 54h214c29 0 53 -24 53 -54v-377l-80 59v35l53 -40v323c0 15 -11 27 -26 27h-214c-15 0 -26 -12 -26 -27v-27h160c29 0 53 -24 53 -54v-377l-160 118l-160 -118v377c0 30 24 54 53 54h27v0z" />
    <glyph glyph-name="bookmark-fill" unicode="&#xf10a;" horiz-adv-x="384" 
d="M0 -64v439c0 40 33 73 74 73h236c41 0 74 -33 74 -73v-412v-27l-192 138zM0 -64v439c0 40 33 73 74 73h236c41 0 74 -33 74 -73v-412v-27l-192 138z" />
    <glyph glyph-name="box" unicode="&#xf10b;" 
d="M275 251v0v0c55 0 100 -45 100 -101s-45 -102 -100 -102c-38 0 -71 22 -88 54c-17 -32 -50 -54 -88 -54c-54 0 -98 45 -99 100v0v168v0c0 11 9 20 20 20s20 -9 20 -20v0v-85c17 13 37 20 59 20c38 0 71 -22 88 -54c17 32 50 54 88 54zM99 89v0v0c33 0 60 27 60 61
s-27 60 -60 60s-59 -26 -59 -60s26 -61 59 -61zM275 89v0c33 0 60 27 60 61s-27 60 -60 60s-60 -26 -60 -60s27 -61 60 -61zM508 80v0v0c6 -9 5 -21 -4 -28s-21 -5 -28 4v0l-43 60l-44 -60v0c-7 -9 -19 -11 -28 -4s-10 19 -4 28v0l51 70l-51 69v0c-6 9 -5 21 4 28
s21 5 28 -4v0l44 -60l43 60v0c7 9 19 11 28 4s10 -19 4 -28v0l-51 -69z" />
    <glyph glyph-name="broadcast" unicode="&#xf1b3;" 
d="M75 372v0l17 -12c-44 -43 -72 -102 -72 -168s28 -125 72 -168l-17 -12c-46 46 -75 110 -75 180s29 134 75 180zM437 372c46 -46 75 -110 75 -180s-29 -134 -75 -180l-17 12c44 43 72 102 72 168s-28 125 -72 168l17 12v0zM169 305v0l17 -12c-32 -22 -53 -59 -53 -101
s21 -79 53 -101l-17 -12c-34 26 -56 67 -56 113s22 87 56 113zM343 305c34 -26 56 -67 56 -113s-22 -87 -56 -113l-17 12c32 22 53 59 53 101s-21 79 -53 101l17 12v0zM256 141c-28 0 -51 23 -51 51s23 51 51 51s51 -23 51 -51s-23 -51 -51 -51v0z" />
    <glyph glyph-name="broadcast-screen" unicode="&#xf1b5;" 
d="M0 230c0 10 9 19 19 19h322c10 0 19 -9 19 -19v-227c0 -10 -9 -19 -19 -19h-322c-10 0 -19 9 -19 19v227v0zM19 230v-227h322v227h-322v0zM57 41h57v-19h-57v19v0zM133 41h38v-19h-38v19v0zM190 41h57v-19h-57v19v0zM265 41h38v-19h-38v19v0zM57 69l95 132l47 -75l38 19
l66 -76h-246v0zM261 88l-30 33l-39 -20l-41 66l-57 -79h167v0zM427 287c-16 0 -29 12 -29 28s13 28 29 28s28 -12 28 -28s-12 -28 -28 -28v0zM379 211v19h10l-10 9v10c0 11 -9 19 -19 19h-60l-26 41l-30 -41h-23l54 75l47 -75l38 19l67 -76h-48v0zM161 268v132h351v-246
h-133v19h114v208h-313v-113h-19v0zM379 135h76v-19h-76v19v0z" />
    <glyph glyph-name="browser" unicode="&#xf1db;" 
d="M27 260v-214c0 -11 9 -21 20 -21h418c11 0 20 10 20 21v214h-458zM485 333v0c0 11 -9 21 -20 21h-418c-11 0 -20 -10 -20 -21v-46h458v46zM498 366v0c9 -9 14 -20 14 -33v-287c0 -26 -21 -47 -47 -47h-418c-26 0 -47 21 -47 47v287c0 26 21 47 47 47h418
c13 0 24 -5 33 -14zM73 308c8 0 15 7 15 15v0v0c0 8 -7 15 -15 15s-15 -7 -15 -15c0 -3 0 -7 2 -9c3 -4 8 -6 13 -6zM116 308c5 0 10 2 13 6c2 2 2 6 2 9c0 8 -7 15 -15 15c-4 0 -7 -2 -10 -5c-2 -2 -3 -4 -4 -7v0c0 -1 -1 -2 -1 -3v0v0c0 -8 7 -15 15 -15zM160 308
c8 0 15 7 15 15v0v0c0 8 -7 15 -15 15c-4 0 -8 -2 -11 -5c-2 -2 -3 -4 -4 -7v0v-3v0v0c0 -8 7 -15 15 -15z" />
    <glyph glyph-name="btc" unicode="&#xf1b7;" 
d="M504 411l-5 5v-331l5 6h-496l5 -6v331l-5 -5h496zM0 424h5h502h5v-5v-337v-5h-5h-502h-5v5v337v5zM324 244l-109 -76c-6 -4 -15 -1 -15 7v154c0 8 9 11 15 7l109 -76c3 -2 4 -5 4 -8s-1 -6 -4 -8v0zM264 68v-101c0 -4 -4 -7 -8 -7s-8 3 -8 7v101h16v0zM249 59
c4 4 9 4 12 1l63 -63c3 -3 3 -8 -1 -12s-9 -4 -12 -1l-63 63c-3 3 -3 8 1 12v0zM263 59v0c4 -4 4 -9 1 -12l-63 -63c-3 -3 -8 -3 -12 1s-4 9 -1 12l63 63c3 3 8 3 12 -1z" />
    <glyph glyph-name="calendar" unicode="&#xf10c;" horiz-adv-x="489" 
d="M400 426h22c37 0 67 -30 67 -67v-356c0 -37 -30 -67 -67 -67h-355c-37 0 -67 30 -67 67v356c0 37 30 67 67 67h22v-45c0 -12 10 -22 22 -22h22c12 0 23 10 23 22v45h177v-45c0 -12 11 -22 23 -22h22c12 0 22 10 22 22v45zM22 292v-289c0 -25 20 -45 45 -45h355
c25 0 45 20 45 45v289h-445zM89 147h44v-44h-44v44zM178 237h44v-45h-44v45zM178 147h44v-44h-44v44zM267 237h44v-45h-44v45zM267 147h44v-44h-44v44zM356 237h44v-45h-44v45zM356 147h44v-44h-44v44zM89 58h44v-44h-44v44zM178 58h44v-44h-44v44zM267 58h44v-44h-44v44z
M111 448h22v-67h-22v67zM356 448h22v-67h-22v67z" />
    <glyph glyph-name="calendar-nav" unicode="&#xf206;" horiz-adv-x="384" 
d="M53 395c0 6 5 10 11 10s11 -4 11 -10v-32h64v32c0 6 4 10 10 10s11 -4 11 -10v-32h64v32c0 6 5 10 11 10s10 -4 10 -10v-32h64v32c0 6 5 10 11 10s11 -4 11 -10v-32h10c24 0 43 -19 43 -43v-299c0 -24 -19 -42 -43 -42h-298c-24 0 -43 18 -43 42v299c0 24 19 43 43 43h10
v32zM296 235c-6 0 -11 -5 -11 -11v-32c0 -6 5 -11 11 -11h32c6 0 11 5 11 11v32c0 6 -5 11 -11 11h-32zM296 155c-6 0 -11 -5 -11 -11v-32c0 -6 5 -11 11 -11h32c6 0 11 5 11 11v32c0 6 -5 11 -11 11h-32zM205 64v-32c0 -6 5 -11 11 -11h32c6 0 11 5 11 11v32
c0 6 -5 11 -11 11h-32c-6 0 -11 -5 -11 -11zM216 155c-6 0 -11 -5 -11 -11v-32c0 -6 5 -11 11 -11h32c6 0 11 5 11 11v32c0 6 -5 11 -11 11h-32zM205 224v-32c0 -6 5 -11 11 -11h32c6 0 11 5 11 11v32c0 6 -5 11 -11 11h-32c-6 0 -11 -5 -11 -11zM136 75
c-6 0 -11 -5 -11 -11v-32c0 -6 5 -11 11 -11h32c6 0 11 5 11 11v32c0 6 -5 11 -11 11h-32zM125 144v-32c0 -6 5 -11 11 -11h32c6 0 11 5 11 11v32c0 6 -5 11 -11 11h-32c-6 0 -11 -5 -11 -11zM136 235c-6 0 -11 -5 -11 -11v-32c0 -6 5 -11 11 -11h32c6 0 11 5 11 11v32
c0 6 -5 11 -11 11h-32zM45 64v-32c0 -6 5 -11 11 -11h32c6 0 11 5 11 11v32c0 6 -5 11 -11 11h-32c-6 0 -11 -5 -11 -11zM56 155c-6 0 -11 -5 -11 -11v-32c0 -6 5 -11 11 -11h32c6 0 11 5 11 11v32c0 6 -5 11 -11 11h-32z" />
    <glyph glyph-name="camcorder" unicode="&#xf10d;" horiz-adv-x="465" 
d="M56 332h214c31 0 56 -25 56 -56v-168c0 -31 -25 -56 -56 -56h-214c-31 0 -56 25 -56 56v168c0 31 25 56 56 56zM465 285v-209l-116 57v95zM23 276v-168c0 -18 15 -32 33 -32h214c18 0 33 14 33 32v168c0 18 -15 32 -33 32h-214c-18 0 -33 -14 -33 -32zM372 147l70 -34
v135l-70 -34v-67z" />
    <glyph glyph-name="camcorder-fill" unicode="&#xf199;" 
d="M302 347v0c16 0 32 -6 44 -18s18 -27 18 -43v-188c0 -16 -6 -31 -18 -43s-28 -18 -44 -18h-241c-34 0 -61 27 -61 61v188c0 34 27 61 61 61h241zM512 307v-230l-121 63v104z" />
    <glyph glyph-name="canvas-add" unicode="&#xf218;" horiz-adv-x="424" 
d="M197 408c9 0 16 -7 16 -16v-24h24c8 0 15 -3 21 -9c5 -5 8 -11 9 -18h85c11 0 22 -4 30 -12s13 -19 13 -30v-64c0 -9 -7 -16 -16 -16s-16 7 -16 16v64c0 3 -1 5 -3 7s-5 3 -8 3h-88c-2 -5 -6 -10 -10 -14c-8 -8 -19 -12 -30 -12h-53c-11 0 -23 4 -31 12c-4 4 -7 9 -9 14
h-88c-3 0 -6 -1 -8 -3s-3 -4 -3 -7v-160c0 -3 1 -6 3 -8s5 -3 8 -3h66h1h34c9 0 16 -7 16 -16s-7 -16 -16 -16h-24l-36 -84c-3 -8 -13 -11 -21 -8s-11 13 -8 21l30 71h-42c-11 0 -23 4 -31 12s-12 20 -12 31v160c0 11 4 22 12 30s20 12 31 12h85c1 7 4 13 9 18
c6 6 12 9 20 9h24v24c0 9 7 16 16 16zM160 336v-11c0 -3 1 -5 3 -7s5 -3 8 -3h53c3 0 6 1 8 3s3 4 3 7v11h-75zM215 193c23 23 53 36 86 36s64 -13 87 -36s36 -53 36 -86s-13 -64 -36 -87s-54 -36 -87 -36s-63 13 -86 36s-36 54 -36 87s13 63 36 86zM301 197
c-24 0 -47 -9 -64 -26s-26 -40 -26 -64s9 -47 26 -64s40 -27 64 -27s47 10 64 27s27 40 27 64s-10 47 -27 64s-40 26 -64 26zM301 176c9 0 16 -7 16 -16v-37h38c9 0 16 -7 16 -16s-7 -16 -16 -16h-38v-38c0 -9 -7 -16 -16 -16s-16 7 -16 16v38h-37c-9 0 -16 7 -16 16
s7 16 16 16h37v37c0 9 7 16 16 16z" />
    <glyph glyph-name="canvas-nav" unicode="&#xf207;" horiz-adv-x="427" 
d="M213 443c12 0 23 -8 26 -19l16 -51h-83l16 51c3 11 13 19 25 19zM292 75h56l8 -25h28c15 0 27 -12 27 -27s-12 -27 -27 -27h-12l7 -20c4 -14 -4 -29 -18 -33s-29 3 -33 17l-11 36h-207l-11 -36c-4 -14 -20 -21 -34 -17s-21 19 -17 33l6 20h-11c-15 0 -27 12 -27 27
s12 27 27 27h28l8 25h56l-8 -25h173zM43 352h341c24 0 43 -19 43 -43v-170c0 -24 -19 -43 -43 -43h-341c-24 0 -43 19 -43 43v170c0 24 19 43 43 43z" />
    <glyph glyph-name="chat" unicode="&#xf10e;" 
d="M461 105v0c2 -22 10 -48 33 -65c-9 -1 -61 -2 -87 11c-9 4 -20 9 -30 15c-16 -3 -33 -5 -50 -5c-102 0 -185 64 -185 143s83 141 185 141s185 -62 185 -141c0 -38 -19 -73 -51 -99zM149 273v0c-14 -21 -21 -45 -21 -70c0 -51 31 -97 80 -125c-21 -11 -46 -17 -73 -17
c-9 0 -18 1 -27 2c-9 -6 -19 -10 -27 -14c-20 -10 -60 -9 -67 -9c18 13 23 35 24 53c-24 19 -38 45 -38 74c0 59 60 107 135 107c5 0 9 -1 14 -1z" />
    <glyph glyph-name="chat-nav" unicode="&#xf208;" horiz-adv-x="404" 
d="M0 320c0 35 28 64 62 64h280c34 0 62 -29 62 -64v-192c0 -35 -28 -64 -62 -64h-173c-1 0 -1 -1 -1 -1l-53 -54c-9 -9 -22 -12 -34 -7s-19 17 -19 30v32v0c-34 0 -62 29 -62 64v192zM101 192c17 0 30 13 30 30s-13 31 -30 31s-30 -14 -30 -31s13 -30 30 -30zM232 222
c0 17 -13 31 -30 31s-30 -14 -30 -31s13 -30 30 -30s30 13 30 30zM303 192c17 0 30 13 30 30s-13 31 -30 31s-30 -14 -30 -31s13 -30 30 -30z" />
    <glyph glyph-name="circle-fill" unicode="&#xf10f;" 
d="M0 192c0 141 115 256 256 256s256 -115 256 -256s-115 -256 -256 -256s-256 115 -256 256z" />
    <glyph glyph-name="close" unicode="&#xf110;" horiz-adv-x="384" 
d="M383 22l-22 -22l-169 170l-169 -169l-22 22l169 169l-170 169l22 22l169 -170l171 171l22 -22l-171 -171z" />
    <glyph glyph-name="cloud" unicode="&#xf111;" 
d="M397 309c55 0 99 -43 99 -98s-44 -99 -99 -99c-9 0 -17 1 -25 3l-3 -5c-16 -29 -56 -47 -92 -29l-7 4l-4 -8c-12 -29 -41 -49 -75 -49c-35 0 -65 22 -76 53l-2 6c-7 -1 -14 -3 -22 -3c-41 0 -75 34 -75 75c0 28 15 52 37 65l7 3l-3 7c-5 11 -8 23 -8 35c0 48 40 87 89 87
c29 0 54 -13 70 -34l6 -8l6 7c15 15 35 24 57 24c30 0 56 -17 70 -41l3 -6l7 3c12 5 26 8 40 8zM397 325c-14 0 -28 -2 -40 -7c-17 26 -47 43 -80 43c-24 0 -45 -9 -62 -23c-19 21 -46 34 -77 34c-58 0 -105 -46 -105 -103c0 -12 3 -24 7 -35c-24 -16 -40 -44 -40 -75
c0 -50 41 -91 91 -91c4 0 8 0 12 1c15 -34 49 -57 88 -57c37 0 70 20 86 51c42 -16 83 4 103 34c6 -1 11 -1 17 -1c63 0 115 52 115 115s-52 114 -115 114z" />
    <glyph glyph-name="cloud-fill" unicode="&#xf112;" 
d="M402 323v0c61 0 110 -50 110 -112s-49 -111 -110 -111c-7 0 -15 1 -22 2c-14 -25 -41 -42 -71 -42c-13 0 -24 3 -35 8c-14 -33 -47 -56 -85 -56c-40 0 -73 26 -86 61c-6 -1 -12 -2 -18 -2c-47 0 -85 38 -85 86c0 32 17 61 43 76c-5 12 -8 25 -8 39c0 55 44 100 99 100
c32 0 61 -15 79 -39c17 17 40 28 65 28c34 0 63 -19 79 -47c14 6 29 9 45 9z" />
    <glyph glyph-name="cloud-sf" unicode="&#xf113;" 
d="M397 309c55 0 99 -43 99 -98s-44 -99 -99 -99c-9 0 -17 1 -25 3l-3 -5c-16 -29 -56 -47 -92 -29l-7 4l-4 -8c-12 -29 -41 -49 -75 -49c-35 0 -65 22 -76 53l-2 6c-7 -1 -14 -3 -22 -3c-41 0 -75 34 -75 75c0 28 15 52 37 65l7 3l-3 7c-5 11 -8 23 -8 35c0 48 40 87 89 87
c29 0 54 -13 70 -34l6 -8l6 7c15 15 35 24 57 24c30 0 56 -17 70 -41l3 -6l7 3c12 5 26 8 40 8zM397 325c-14 0 -28 -2 -40 -7c-17 26 -47 43 -80 43c-24 0 -45 -9 -62 -23c-19 21 -46 34 -77 34c-58 0 -105 -46 -105 -103c0 -12 3 -24 7 -35c-24 -16 -40 -44 -40 -75
c0 -50 41 -91 91 -91c4 0 8 0 12 1c15 -34 49 -57 88 -57c37 0 70 20 86 51c42 -16 83 4 103 34c6 -1 11 -1 17 -1c63 0 115 52 115 115s-52 114 -115 114zM159 153c-2 1 -5 2 -7 4c0 0 -2 1 -1 3l5 13c1 2 2 1 3 1c1 -1 2 -2 4 -3c14 -9 28 -8 32 -8c11 0 17 6 17 13v0
c0 8 -10 11 -22 15l-2 1c-16 5 -34 11 -34 31v0c0 19 15 33 38 33h3c13 0 26 -3 35 -9c1 -1 1 -2 1 -3s-5 -12 -5 -13c-1 -2 -3 -1 -3 -1c-8 4 -20 8 -31 8c-10 0 -16 -5 -16 -12v0c0 -8 11 -11 23 -15l2 -1c16 -5 33 -12 33 -31v-1c0 -21 -15 -33 -40 -33
c-12 0 -23 2 -35 8v0v0zM335 296l-5 -14c0 -1 -1 -2 -3 -1c-1 0 -2 1 -4 1h-6c-3 0 -5 0 -7 -1s-4 -1 -6 -3s-4 -4 -5 -7c-3 -7 -3 -16 -3 -16h22c2 0 2 -1 2 -2l-2 -14c0 -2 -3 -2 -3 -2h-23l-15 -88c-2 -9 -5 -17 -7 -23s-5 -11 -9 -15s-7 -7 -12 -9s-12 -2 -18 -2
c-3 0 -6 0 -10 1c-3 1 -4 0 -6 1c-1 0 -1 2 -1 3s4 13 5 14c1 2 3 1 3 1c1 -1 1 -1 3 -1s4 -1 6 -1c3 0 6 0 8 1c3 1 4 3 6 5s3 6 5 10s3 10 4 17l16 86h-15c-2 0 -3 1 -3 2l3 14c0 2 2 2 2 2h16l1 5c2 14 7 24 14 31s16 10 29 10c4 0 7 -1 10 -1s5 0 7 -1c0 0 2 -1 1 -3v0
v0z" />
    <glyph glyph-name="cloud-sf-fill" unicode="&#xf1ae;" 
d="M402 323v0c61 0 110 -50 110 -112s-49 -111 -110 -111c-7 0 -15 1 -22 2c-14 -25 -41 -42 -71 -42c-13 0 -24 3 -35 8c-14 -33 -47 -56 -85 -56c-40 0 -73 26 -86 61c-6 -1 -12 -2 -18 -2c-47 0 -85 38 -85 86c0 32 17 61 43 76c-5 12 -8 25 -8 39c0 55 44 100 99 100
c32 0 61 -15 79 -39c17 17 40 28 65 28c34 0 63 -19 79 -47c14 6 29 9 45 9zM159 153v0c12 -6 23 -8 35 -8c25 0 40 12 40 33v1c0 19 -17 26 -33 31l-2 1c-12 4 -23 7 -23 15v0c0 7 6 12 16 12c11 0 23 -4 31 -8c0 0 2 -1 3 1c0 1 5 12 5 13s0 2 -1 3c-9 6 -22 9 -35 9h-3
c-23 0 -38 -14 -38 -33v0c0 -20 18 -26 34 -31l2 -1c12 -4 22 -7 22 -15v0c0 -7 -6 -13 -17 -13c-4 0 -18 -1 -32 8c-2 1 -3 2 -4 3c-1 0 -2 1 -3 -1l-5 -13c-1 -2 1 -3 1 -3c2 -2 5 -3 7 -4zM335 296v0c1 2 -1 3 -1 3c-2 1 -4 1 -7 1s-6 1 -10 1c-13 0 -22 -3 -29 -10
s-12 -17 -14 -31l-1 -5h-16s-2 0 -2 -2l-3 -14c0 -1 1 -2 3 -2h15l-16 -86c-1 -7 -2 -13 -4 -17s-3 -8 -5 -10s-3 -4 -6 -5c-2 -1 -5 -1 -8 -1c-2 0 -4 1 -6 1s-2 0 -3 1c0 0 -2 1 -3 -1c-1 -1 -5 -13 -5 -14s0 -3 1 -3c2 -1 3 0 6 -1c4 -1 7 -1 10 -1c6 0 13 0 18 2
s8 5 12 9s7 9 9 15s5 14 7 23l15 88h23s3 0 3 2l2 14c0 1 0 2 -2 2h-22s0 9 3 16c1 3 3 5 5 7s4 2 6 3s4 1 7 1h6s3 -1 4 -1c2 -1 3 0 3 1z" />
    <glyph glyph-name="cmis" unicode="&#xf114;" horiz-adv-x="400" 
d="M101 448h40c1 0 3 -1 4 -1c13 -2 26 -6 36 -15c5 -4 9 -10 14 -15c10 -10 22 -18 35 -22c10 -3 20 -4 30 -4h38c5 0 10 0 15 -1c23 -4 44 -15 60 -33c12 -14 20 -29 24 -47c1 -5 2 -11 3 -17v-14c0 -2 -1 -3 -1 -5c-3 -24 -12 -45 -28 -62c-7 -8 -17 -14 -26 -19
c0 0 -1 0 -1 -1s1 -1 1 -1c7 -4 14 -9 20 -14c16 -15 27 -33 32 -55c1 -5 2 -10 3 -16v-14c0 -2 -1 -4 -1 -6c-2 -14 -5 -27 -12 -39c-11 -20 -27 -34 -48 -44c-12 -5 -23 -9 -36 -9c-14 0 -28 -1 -42 -1h-14c-23 -2 -42 -14 -57 -31c-10 -12 -23 -20 -38 -24
c-4 -1 -8 -1 -12 -2h-38c-2 0 -2 1 -4 1c-15 2 -29 8 -40 19c-16 16 -22 35 -20 57c2 17 9 32 22 43c14 12 30 17 48 18h24c9 0 18 -2 27 -5c11 -4 20 -10 28 -18c4 -4 7 -8 11 -12c16 -15 35 -21 56 -22h42c15 0 28 3 41 10c14 8 26 20 33 35c7 14 10 30 8 46
c-2 18 -9 35 -22 48c-16 17 -37 25 -60 25h-29c-7 0 -15 0 -22 -1c-9 -1 -19 -4 -27 -8c-11 -6 -21 -14 -29 -24l-6 -6c-14 -13 -31 -19 -50 -19h-23s-15 1 -23 3c-18 6 -33 17 -42 34c-6 12 -8 24 -7 37c1 12 4 23 11 33c12 17 28 27 49 30c4 1 8 1 12 1c12 0 22 1 34 -1
c15 -2 29 -8 40 -19c5 -4 9 -9 13 -13c17 -16 37 -24 60 -24h39c4 0 7 -1 11 0c21 3 38 13 52 29c15 18 21 40 18 64c-3 23 -14 42 -33 56c-13 10 -29 15 -45 15h-39c-6 0 -12 0 -17 -1c-19 -3 -34 -12 -48 -25c-4 -4 -8 -9 -12 -13c-13 -11 -28 -17 -45 -18
c-9 -1 -17 -1 -26 -1c-5 0 -10 0 -15 1c-17 3 -32 11 -43 24c-16 19 -20 42 -13 66c7 22 22 35 43 43c6 2 11 3 17 4zM0 181v18c0 2 1 4 1 6c5 33 21 59 49 76c14 9 30 13 47 14c14 1 28 1 42 1c5 0 9 1 14 1c23 2 42 14 57 31s33 25 55 26h26c7 0 14 -1 21 -3
c20 -6 35 -17 44 -36c5 -10 7 -21 7 -32c0 -21 -9 -38 -25 -51c-13 -11 -29 -17 -46 -17h-23c-5 0 -10 0 -15 1c-15 3 -28 9 -39 20c-4 4 -8 9 -12 13c-16 15 -35 22 -56 23c-16 1 -33 1 -49 1h-2c-23 -2 -41 -12 -56 -30c-12 -14 -17 -31 -18 -49c-1 -15 3 -29 10 -43
c8 -16 20 -28 36 -36c12 -6 25 -8 38 -8h30c6 0 12 0 18 1c23 3 41 14 56 31s33 25 56 26h24c13 0 26 -2 38 -9c14 -8 24 -19 30 -34c4 -9 5 -18 5 -28c0 -13 -4 -24 -11 -35c-14 -21 -33 -31 -57 -32c-12 -1 -23 -1 -35 0c-15 1 -29 7 -41 17c-5 4 -9 9 -14 14
c-17 17 -37 25 -61 26h-39c-4 0 -10 0 -14 1c-25 3 -47 14 -64 33c-13 15 -21 32 -25 52c-1 4 -1 7 -2 11z" />
    <glyph glyph-name="collapse" unicode="&#xf115;" 
d="M440 304h-376v-224h376v224zM0 368h512v-352h-512v352z" />
    <glyph glyph-name="comment" unicode="&#xf116;" horiz-adv-x="383" 
d="M191 32c-106 0 -191 72 -191 161s85 162 191 162s192 -73 192 -162c0 -44 -21 -83 -54 -112c1 -26 9 -60 35 -81c-10 -1 -63 -2 -90 13c-11 6 -25 13 -38 23c-14 -3 -30 -4 -45 -4zM306 80l-1 11l9 8c29 26 46 59 46 94c0 75 -75 139 -169 139s-168 -64 -168 -139
s74 -138 168 -138c13 0 27 1 40 4l10 2l9 -6c3 -2 5 -5 8 -7c4 -2 8 -4 13 -7c3 -2 13 -7 14 -7c7 -4 18 -7 32 -9c-7 16 -10 35 -11 55z" />
    <glyph glyph-name="comment-fill" unicode="&#xf117;" 
d="M256 404c141 0 256 -91 256 -202c0 -47 -21 -92 -59 -128l-3 -3v-5c2 -18 10 -40 42 -86c-29 6 -80 20 -115 41l-4 2l-4 -2c-35 -14 -73 -21 -113 -21c-141 0 -256 91 -256 202s115 202 256 202v0z" />
    <glyph glyph-name="company" unicode="&#xf1ab;" horiz-adv-x="496" 
d="M0 9h496v-22h-496v22zM158 182h113v-195h-113v195v0zM181 160v-151h78v151h-78v0zM226 150h33v-22h-33v22v0zM226 117h33v-22h-33v22v0zM226 85h33v-22h-33v22v0zM226 52h33v-22h-33v22v0zM68 246v44h90v-44h22v-259h-135v259h23v0zM68 225v-217h90v217h-90v0zM68 214h33
v-22h-33v22v0zM68 181h33v-21h-33v21v0zM68 149h33v-22h-33v22v0zM68 116h33v-21h-33v21v0zM68 84h33v-22h-33v22v0zM68 51h33v-21h-33v21v0zM90 268v-22h45v22h-45v0zM101 307l12 69l11 -69v-17h-23v17v0zM248 311l113 87v-411h-113v324v0zM270 301v-293h68v341l-68 -48v0z
M304 290h34v-22h-34v22v0zM304 257h34v-21h-34v21v0zM304 225h34v-22h-34v22v0zM339 225h113v-238h-113v238v0zM362 203v-195h67v195h-67v0zM395 182h34v-22h-34v22v0zM395 149h34v-21h-34v21v0zM395 117h34v-22h-34v22v0zM395 84h34v-21h-34v21v0zM395 52h34v-22h-34v22v0z
" />
    <glyph glyph-name="company-fill" unicode="&#xf1b2;" horiz-adv-x="449" 
d="M0 -38v28h449v-28h-449zM309 186h140v-224h-140v224v0zM365 130v-28h56v28h-56v0zM365 74v-28h56v28h-56v0zM365 18v-28h56v28h-56v0zM140 341l141 98v-477h-141v379v0zM196 299v-28h57v28h-57v0zM196 243v-28h57v28h-57v0zM196 186v-28h57v28h-57v0zM0 243h112v-281
h-112v281v0zM28 186v-28h56v28h-56v0zM28 130v-28h56v28h-56v0zM28 74v-28h56v28h-56v0zM28 18v-28h56v28h-56v0z" />
    <glyph glyph-name="company-nav" unicode="&#xf209;" horiz-adv-x="405" 
d="M365 181v-121c0 -22 -19 -41 -41 -41h-81v112c0 10 -10 10 -10 10h-61s-10 0 -10 -10v-112h-81c-22 0 -40 19 -40 41v121l153 116c6 5 11 5 17 0zM190 380c7 6 18 6 25 0l183 -142c9 -7 10 -20 3 -29s-19 -10 -28 -3l-166 129c-3 3 -5 2 -8 0l-166 -129
c-9 -7 -22 -6 -29 3s-5 22 4 29z" />
    <glyph glyph-name="content" unicode="&#xf118;" 
d="M14 312v0h484c8 0 14 -6 14 -14v-308c0 -8 -6 -14 -14 -14h-484c-8 0 -14 6 -14 14v308c0 8 6 14 14 14zM40 360h432v-24h-432v24v0zM432 406v-24h-352v24h352z" />
    <glyph glyph-name="content-nav" unicode="&#xf20a;" horiz-adv-x="491" 
d="M0 320c0 24 19 43 43 43h76c13 0 25 -6 33 -16l23 -27c8 -10 20 -16 33 -16h162c24 0 42 -19 42 -43v-16h-294c-26 0 -51 -13 -64 -36l-54 -90v201zM54 21c-33 0 -53 37 -36 65l63 107c8 13 22 20 37 20h330c33 0 54 -36 37 -64l-64 -107c-8 -13 -22 -21 -37 -21h-330z
" />
    <glyph glyph-name="copy" unicode="&#xf119;" 
d="M272 208v0h128v-32h-128v-128h-32v128h-128v32h128v128h32v-128zM0 384c0 35 29 64 64 64h384c35 0 64 -29 64 -64v-384c0 -35 -29 -64 -64 -64h-384c-35 0 -64 29 -64 64v384v0zM32 384v0v-384c0 -17 14 -32 32 -32h384c17 0 32 14 32 32v384c0 17 -14 32 -32 32h-384
c-17 0 -32 -14 -32 -32z" />
    <glyph glyph-name="cq5" unicode="&#xf11a;" 
d="M256 -64c-142 0 -256 114 -256 257c0 141 115 255 257 255s255 -115 255 -258c0 -140 -115 -254 -256 -254v0zM256 -38v0c126 0 230 104 230 230c0 127 -104 230 -230 230c-127 0 -231 -105 -230 -231c1 -127 104 -229 230 -229zM335 46c-8 0 -17 5 -24 3
s-10 -13 -17 -18c-29 -24 -70 -18 -91 13c-4 5 -6 7 -12 5c-25 -7 -47 -1 -65 17s-24 39 -17 64c2 6 1 8 -4 12c-37 25 -37 78 0 103c4 3 6 5 4 11c-15 51 31 97 82 83c6 -2 9 -1 12 4c25 37 78 37 103 0c3 -4 5 -6 11 -4c52 14 96 -31 82 -83c-1 -5 0 -7 4 -10
c38 -26 38 -78 0 -104c-6 -4 -4 -7 -3 -12c12 -43 -21 -84 -65 -84v0zM133 247v0c16 -15 25 -32 25 -53c0 -20 -9 -38 -24 -53c44 -3 65 -25 68 -68c15 16 32 24 53 24c20 0 36 -10 52 -24c-1 21 6 37 19 50s30 18 49 18c-33 36 -32 70 -1 105c-44 4 -61 21 -68 68
c-35 -32 -69 -32 -104 0c-4 -44 -26 -65 -69 -67zM255 362v0c-19 -1 -34 -8 -45 -24c-2 -3 -4 -5 0 -8c35 -29 50 -30 85 -2l1 1c7 3 5 6 2 10c-11 15 -25 22 -43 23zM140 199v0c1 15 -12 26 -23 40c-3 3 -5 0 -7 -1c-28 -18 -32 -58 -8 -82c11 -11 11 -10 21 1s17 22 17 42
zM369 193v0c-1 -19 12 -31 22 -45c2 -3 4 0 6 1c16 11 25 26 25 45s-9 35 -25 45c-2 1 -4 3 -6 0c-11 -14 -23 -26 -22 -46zM254 79v0c-20 2 -32 -13 -46 -23c-3 -2 0 -4 1 -6c19 -32 71 -32 90 0c1 2 4 4 1 6c-14 11 -26 25 -46 23zM137 132v0c-8 3 -11 -2 -12 -10
c-3 -18 2 -34 15 -46s30 -15 47 -10c3 1 6 1 6 6c1 33 -22 59 -56 60zM316 77v0c1 -3 -2 -9 5 -11c19 -5 35 -2 49 12s17 30 12 49c-1 4 -3 5 -7 5c-34 1 -58 -21 -59 -55zM172 324v0c-32 0 -55 -31 -46 -62c1 -3 0 -7 6 -7c30 -1 54 18 59 47c3 18 0 22 -19 22zM336 324v0
h-7c-12 -1 -13 -3 -13 -15c1 -25 19 -53 57 -54c6 0 8 2 9 7c8 31 -14 62 -46 62z" />
    <glyph glyph-name="create-header" unicode="&#xf20b;" horiz-adv-x="384" 
d="M213 363v-150h150c12 0 21 -9 21 -21s-9 -21 -21 -21h-150v-150c0 -12 -9 -21 -21 -21s-21 9 -21 21v150h-150c-12 0 -21 9 -21 21s9 21 21 21h150v150c0 12 9 21 21 21s21 -9 21 -21z" />
    <glyph glyph-name="crm-integration" unicode="&#xf1c2;" horiz-adv-x="511" 
d="M342 36l-35 61l16 9l35 -60zM121 90l-9 17l64 38l10 -16zM444 163l-80 8l1 19l81 -8zM183 241l-61 48l12 15l60 -48zM334 260l-15 11l53 68l15 -11zM369 -39c-22 0 -41 15 -46 35v1v0c-1 3 -1 7 -1 11c0 26 21 47 47 47s47 -21 47 -47c0 -22 -15 -40 -35 -45l-1 -1
c-3 -1 -7 -1 -11 -1zM342 -0c4 -11 14 -20 27 -20c2 0 5 0 7 1h1c12 3 20 14 20 27c0 15 -13 28 -28 28s-28 -13 -28 -28c0 -2 0 -5 1 -7v-1zM76 18c-31 0 -57 25 -57 56c0 26 17 48 41 55h1c5 1 10 2 15 2c31 0 56 -26 56 -57c0 -26 -17 -47 -41 -54v0c-5 -1 -10 -2 -15 -2
v0zM65 110c-16 -5 -27 -19 -27 -36c0 -3 0 -7 1 -10c4 -16 19 -27 36 -27c21 0 38 16 38 37s-17 38 -38 38c-3 0 -6 0 -9 -1zM265 79c-50 0 -92 34 -104 80c-15 58 20 118 77 133c9 2 18 4 28 4c50 0 92 -35 104 -81c15 -58 -20 -117 -77 -132v0c-9 -2 -18 -4 -28 -4z
M266 277c-8 0 -16 -1 -23 -3c-47 -13 -76 -62 -63 -110c10 -38 45 -66 86 -66c8 0 16 1 23 3c47 13 75 62 62 110c-10 38 -44 66 -85 66v0zM473 131c-18 0 -33 12 -37 28v0c-1 3 -1 7 -1 10c0 21 17 38 38 38s38 -17 38 -38s-17 -38 -38 -38v0zM454 164c2 -8 10 -14 19 -14
h4c8 2 14 9 14 18c0 10 -9 19 -19 19s-19 -9 -19 -19c0 -2 1 -2 1 -4zM76 263c-34 0 -64 22 -73 56c-2 6 -3 12 -3 19c0 35 24 64 56 73v0c40 11 82 -13 93 -53c2 -6 3 -13 3 -20c0 -35 -24 -64 -56 -73v0c-6 -2 -13 -2 -20 -2v0zM76 395c-5 0 -10 -1 -15 -2v0
c-24 -6 -42 -29 -42 -55c0 -5 1 -9 2 -14c7 -24 29 -42 55 -42c5 0 10 1 15 2v0c24 7 42 28 42 54c0 31 -26 57 -57 57v0zM403 315v0c-27 0 -49 22 -49 49s22 49 49 49c23 0 41 -15 47 -36v0c1 -4 2 -9 2 -13c0 -22 -15 -41 -36 -47v0c-4 -1 -9 -2 -13 -2v0zM403 395
c-17 0 -30 -14 -30 -31s13 -30 30 -30c3 0 5 0 8 1v0c13 4 22 15 22 29c0 3 0 5 -1 8v0c-4 13 -15 23 -29 23v0v0z" />
    <glyph glyph-name="csv" unicode="&#xf11b;" 
d="M328 236h-144c-4 0 -8 4 -8 8v40c0 4 4 8 8 8h144c4 0 8 -4 8 -8v-40c0 -4 -4 -8 -8 -8zM504 236h-144c-4 0 -8 4 -8 8v40c0 4 4 8 8 8h144c4 0 8 -4 8 -8v-40c0 -4 -4 -8 -8 -8zM328 164h-144c-4 0 -8 4 -8 8v40c0 4 4 8 8 8h144c4 0 8 -4 8 -8v-40c0 -4 -4 -8 -8 -8z
M504 164h-144c-4 0 -8 4 -8 8v40c0 4 4 8 8 8h144c4 0 8 -4 8 -8v-40c0 -4 -4 -8 -8 -8zM328 92h-144c-4 0 -8 4 -8 8v40c0 4 4 8 8 8h144c4 0 8 -4 8 -8v-40c0 -4 -4 -8 -8 -8zM504 92h-144c-4 0 -8 4 -8 8v40c0 4 4 8 8 8h144c4 0 8 -4 8 -8v-40c0 -4 -4 -8 -8 -8zM328 20
h-144c-4 0 -8 4 -8 8v40c0 4 4 8 8 8h144c4 0 8 -4 8 -8v-40c0 -4 -4 -8 -8 -8zM504 20h-144c-4 0 -8 4 -8 8v40c0 4 4 8 8 8h144c4 0 8 -4 8 -8v-40c0 -4 -4 -8 -8 -8zM328 308h-144c-4 0 -8 4 -8 8v40c0 4 4 8 8 8h144c4 0 8 -4 8 -8v-40c0 -4 -4 -8 -8 -8zM504 308h-144
c-4 0 -8 4 -8 8v40c0 4 4 8 8 8h144c4 0 8 -4 8 -8v-40c0 -4 -4 -8 -8 -8zM152 236h-144c-4 0 -8 4 -8 8v40c0 4 4 8 8 8h144c4 0 8 -4 8 -8v-40c0 -4 -4 -8 -8 -8zM152 164h-144c-4 0 -8 4 -8 8v40c0 4 4 8 8 8h144c4 0 8 -4 8 -8v-40c0 -4 -4 -8 -8 -8zM152 92h-144
c-4 0 -8 4 -8 8v40c0 4 4 8 8 8h144c4 0 8 -4 8 -8v-40c0 -4 -4 -8 -8 -8zM152 20h-144c-4 0 -8 4 -8 8v40c0 4 4 8 8 8h144c4 0 8 -4 8 -8v-40c0 -4 -4 -8 -8 -8zM152 308h-144c-4 0 -8 4 -8 8v40c0 4 4 8 8 8h144c4 0 8 -4 8 -8v-40c0 -4 -4 -8 -8 -8z" />
    <glyph glyph-name="custom-apps" unicode="&#xf1fd;" horiz-adv-x="425" 
d="M216 12l3 6c0 1 -1 2 -1 3l-31 10v7l-1 3c-1 5 -1 10 -1 15h-163v-32c0 -7 5 -12 12 -12h182zM327 174l3 -1l10 -30c1 0 1 -1 2 -1l28 15l6 -4l3 -2c4 -3 7 -6 11 -10s7 -8 10 -12l6 -8l-15 -28c0 -1 1 -2 1 -3l31 -9l1 -7v-3c1 -10 1 -20 0 -30l-1 -10l-31 -10
c0 -1 -1 -1 -1 -2l15 -28l-4 -6l-2 -3c-3 -4 -6 -7 -10 -11s-7 -7 -11 -10l-8 -6l-28 15c-1 0 -2 -1 -3 -1l-10 -31l-7 -1h-3c-5 -1 -10 -1 -15 -1s-10 0 -15 1l-10 1l-9 30c-1 0 -2 2 -3 2l-28 -15l-6 4l-2 2c-4 3 -8 6 -12 10s-7 7 -10 11l-6 8h-170c-19 0 -34 15 -34 34
v390c0 19 15 34 34 34h259c19 0 34 -15 34 -34v-240zM305 176v185h-283v-283h165l1 3l30 9c0 1 1 2 1 3l-15 28l4 6l2 2c3 4 6 8 10 12s8 7 12 10l8 6l28 -15c1 0 2 1 3 1l9 30l7 1l3 1c5 1 10 1 15 1v0zM305 383v31c0 7 -5 12 -12 12h-259c-7 0 -12 -5 -12 -12v-31h283z
M305 -42h9l8 28l5 1c4 1 8 3 11 5l5 2l25 -13c2 2 4 3 6 5s4 5 6 7l-13 25l2 5c2 3 4 7 5 11l1 5l28 8v17l-28 9l-1 5c-1 4 -3 8 -5 11l-2 5l13 25l-6 6l-6 6l-25 -14l-5 3c-3 2 -7 3 -11 4l-5 2l-8 28h-17l-9 -28l-5 -2c-4 -1 -8 -2 -11 -4l-5 -3l-25 14l-6 -6l-6 -6
l14 -25l-3 -5c-2 -3 -3 -7 -4 -11l-2 -5l-28 -9v-17l28 -8l1 -5c1 -4 3 -8 5 -11l2 -5l-13 -25l6 -6l6 -6l25 13l5 -2c3 -2 7 -4 11 -5l5 -1l9 -28h8zM251 58c0 29 23 52 52 52s52 -23 52 -52s-23 -52 -52 -52s-52 23 -52 52zM272 58c0 -17 14 -31 31 -31s31 14 31 31
s-14 31 -31 31s-31 -14 -31 -31z" />
    <glyph glyph-name="custom-naming" unicode="&#xf1c5;" 
d="M248 304h16c4 0 8 -4 8 -8v-16c0 -4 -4 -8 -8 -8h-16c-4 0 -8 4 -8 8v16c0 4 4 8 8 8zM224 224v72c0 13 11 24 24 24h16c13 0 24 -11 24 -24v-72h-64zM304 208v88c0 22 -18 40 -40 40h-16c-22 0 -40 -18 -40 -40v-88h96zM304 240h176c9 0 16 -7 16 -16v-128
c0 -9 -7 -16 -16 -16h-448c-9 0 -16 7 -16 16v128c0 9 7 16 16 16h176v-32h96v32zM224 256h-192c-18 0 -32 -14 -32 -32v-128c0 -18 14 -32 32 -32h448c18 0 32 14 32 32v128c0 18 -14 32 -32 32h-192v-32h-64v32zM422 112h-46v80h46v-14h-29v-17h27v-14h-27v-21h29v-14z
M304 112l-19 63h-1c1 -13 1 -22 1 -26v-37h-15v80h23l19 -61v0l20 61h24v-80h-16v38v6s1 9 1 19h-1l-21 -63h-15v0zM242 112l-6 19h-29l-6 -19h-18l28 80h21l28 -80h-18zM232 145c-5 17 -8 28 -9 30s-2 3 -2 5c-1 -5 -4 -17 -10 -35h21zM173 112h-22l-35 60v0
c1 -11 1 -17 1 -22v-38h-15v80h21l35 -60v0c-1 10 -1 18 -1 22v38h16v-80z" />
    <glyph glyph-name="dash" unicode="&#xf11c;" 
d="M0 135v0v114c0 4 3 7 8 7h496c5 0 8 -3 8 -7v-114c0 -4 -3 -7 -8 -7h-496c-5 0 -8 3 -8 7z" />
    <glyph glyph-name="date" unicode="&#xf1b0;" 
d="M28 347v-338c0 -16 13 -29 29 -29h398c16 0 29 13 29 29v338c0 16 -13 29 -29 29h-398c-16 0 -29 -13 -29 -29v0zM0 347c0 31 26 57 57 57h398c31 0 57 -26 57 -57v-338c0 -31 -26 -57 -57 -57h-398c-31 0 -57 26 -57 57v338v0zM114 432h28v-85h-28v85v0zM370 432h28v-85
h-28v85v0zM0 291v0v-28h512v28h-512z" />
    <glyph glyph-name="delete" unicode="&#xf1f6;" 
d="M55 448l201 -201l201 201l55 -55l-201 -201l201 -201l-55 -55l-201 201l-201 -201l-55 55l201 201l-201 201z" />
    <glyph glyph-name="doc-pages" unicode="&#xf11d;" 
d="M140 377h-93c-13 0 -24 -10 -24 -23v-324c0 -13 11 -23 24 -23h93v370v0zM163 377v0v-370h302c13 0 24 10 24 23v324c0 13 -11 23 -24 23h-302zM0 354c0 25 21 46 47 46h418c26 0 47 -21 47 -46v-324c0 -25 -21 -46 -47 -46h-418c-26 0 -47 21 -47 46v324v0zM47 354h69
v-70h-69v70v0zM70 331v0v-23h23v23h-23zM47 261h69v-69h-69v69v0zM70 238v0v-23h23v23h-23zM47 169h69v-69h-69v69v0zM70 146v0v-23h23v23h-23zM47 76h69v-69h-69v69v0zM70 53v0v-23h23v23h-23z" />
    <glyph glyph-name="dock" unicode="&#xf11e;" 
d="M256 169l211 108c15 8 34 1 42 -14s1 -34 -14 -42l-222 -113c-6 -3 -11 -4 -17 -3c-6 -1 -11 0 -17 3l-222 113c-15 8 -22 27 -14 42s27 22 42 14z" />
    <glyph glyph-name="document" unicode="&#xf11f;" horiz-adv-x="424" 
d="M28 -7c0 -16 13 -29 29 -29h310c16 0 29 13 29 29v284c0 9 -6 25 -12 31l-80 89c-10 12 -34 23 -50 23h-197c-16 0 -29 -13 -29 -29v-398v0zM57 448h197c23 0 55 -14 71 -32l80 -89c10 -12 19 -34 19 -50v-284c0 -31 -26 -57 -57 -57h-310c-31 0 -57 26 -57 57v398
c0 31 26 57 57 57v0zM240 306v0v128h29v-128c0 -8 6 -14 14 -14h127v-29h-127c-23 0 -43 20 -43 43z" />
    <glyph glyph-name="documentum" unicode="&#xf120;" horiz-adv-x="511" 
d="M460 166h-74c-10 0 -33 2 -49 7c-5 2 -20 6 -34 15c-13 8 -25 20 -37 35c-17 22 -27 42 -33 69c-3 13 -4 25 -5 41c0 7 -2 23 -2 23c-10 52 -57 92 -112 92c-63 0 -114 -51 -114 -114c0 -56 40 -101 93 -111c0 0 19 -3 28 -3c36 0 71 -11 103 -36c23 -18 55 -45 59 -119
v-75c0 -28 23 -51 51 -51h126c28 0 50 23 50 51v125c0 28 -22 51 -50 51zM115 -63c63 0 114 50 114 113s-51 114 -114 114s-114 -51 -114 -114s51 -113 114 -113zM511 333c0 63 -51 113 -114 113s-114 -50 -114 -113s51 -114 114 -114s114 51 114 114z" />
    <glyph glyph-name="dot-handle" unicode="&#xf1d6;" horiz-adv-x="102" 
d="M0 444c0 2 0 2 2 2h98c2 0 2 0 2 -2v-98c0 -2 0 -2 -2 -2h-98c-2 0 -2 0 -2 2v98zM0 241c0 2 0 2 2 2h98c2 0 2 0 2 -2v-98c0 -2 0 -2 -2 -2h-98c-2 0 -2 0 -2 2v98zM0 38c0 2 0 2 2 2h98c2 0 2 0 2 -2v-98c0 -2 0 -2 -2 -2h-98c-2 0 -2 0 -2 2v98z" />
    <glyph glyph-name="download" unicode="&#xf121;" 
d="M246 -3v0v243h26v-243l65 64l16 -16l-94 -93l-94 93l16 16zM298 112v26h134c34 0 50 38 54 52c-4 24 -20 47 -44 51l-27 5l7 23c5 16 5 23 8 43c-3 44 -37 94 -98 94c-34 0 -60 -12 -86 -46l-6 -5l-7 4c-13 22 -38 22 -42 22c-32 0 -49 -26 -49 -47v-17h-25
c-52 0 -91 -39 -91 -90s39 -89 88 -89h3h103v-26l-114 1c-60 6 -106 54 -106 114c0 62 51 113 115 115c6 36 38 63 76 63c17 0 34 -6 47 -16c23 27 58 43 94 43c68 0 124 -54 124 -120c0 -15 -2 -31 -8 -45c37 -7 64 -39 64 -77c0 -43 -36 -78 -80 -78h-134v0z" />
    <glyph glyph-name="draft" unicode="&#xf122;" 
d="M442 -41v0c26 0 47 21 47 47v244h-151h-24v24v151h-244c-26 0 -47 -21 -47 -47v-372c0 -26 21 -47 47 -47h372zM479 273l-142 142v-142h142zM496 290v0c9 -9 16 -27 16 -40v-244c0 -39 -31 -70 -70 -70h-372c-39 0 -70 31 -70 70v372c0 39 31 70 70 70h244
c13 0 31 -7 40 -16zM117 250c-6 0 -12 6 -12 12v69c0 6 6 12 12 12h163v-23h-152v-47h152v-23h-163zM105 41v23h186v-23h-186zM105 111v23h303v-23h-303zM105 181v23h280v-23h-280z" />
    <glyph glyph-name="dropbox" unicode="&#xf123;" 
d="M151 432v0l105 -89l-152 -94l-104 84zM0 165v0l104 84l152 -95l-105 -88zM256 154v0l152 95l104 -84l-151 -99zM512 333v0l-104 -84l-152 94l105 89zM256 135v0l106 -88l45 30v-34l-151 -91l-151 91v34l46 -30z" />
    <glyph glyph-name="dual-pane" unicode="&#xf124;" 
d="M0 408h243v-432h-243v432v0zM27 381v0v-378h189v378h-189zM269 408h243v-432h-243v432v0zM296 381v0v-378h189v378h-189zM54 354h135v-27h-135v27v0zM54 300h108v-27h-108v27v0zM54 246h135v-27h-135v27v0zM54 192h108v-27h-108v27v0zM54 138h81v-27h-81v27v0zM54 84h108
v-27h-108v27v0zM323 354h108v-27h-108v27v0zM323 300h81v-27h-81v27v0zM323 246h108v-27h-108v27v0zM323 192h135v-27h-135v27v0zM323 138h108v-27h-108v27v0zM323 84h54v-27h-54v27v0z" />
    <glyph glyph-name="dynamics" unicode="&#xf1ac;" horiz-adv-x="496" 
d="M496 -33v0c0 -7 -4 -11 -9 -11c-1 0 -3 0 -5 1c-39 13 -78 24 -119 30c-32 4 -65 8 -97 9c-79 3 -156 -6 -232 -28c-8 -2 -16 -6 -24 -8c-3 -1 -7 -2 -10 -3v38c13 15 26 29 39 44c66 79 119 167 158 264c16 40 29 81 36 124c0 1 1 2 1 3c11 0 12 0 12 -11v-353
c0 -10 -1 -11 -11 -12c-56 -6 -110 -21 -160 -47c-16 -8 -26 -15 -42 -24c-1 -1 -8 -5 -10 -8c2 1 5 2 7 3c55 34 114 55 178 64c13 2 25 3 38 4c8 1 9 2 9 10v99c0 5 1 9 5 13c48 52 84 111 111 176c1 1 1 3 2 4c10 -1 10 -1 10 -11v-310v-6s-4 -5 -6 -5c-6 0 -12 1 -17 2
c-109 20 -214 11 -315 -36c-7 -3 -14 -7 -21 -12c1 0 4 0 5 1c56 25 114 40 175 47c59 6 118 2 175 -12c10 -2 14 0 14 10c0 51 -1 102 -1 153c0 4 2 7 5 10c31 29 61 59 93 90c4 -1 6 -4 6 -10v-292z" />
    <glyph glyph-name="earth" unicode="&#xf125;" 
d="M83 358c4 3 7 5 7 5l8 4l6 -1l8 1l2 1h9l8 3l6 -2l3 1l6 -3l6 4l6 2l5 2l1 -1s2 6 3 6s8 -8 8 -8l3 3l2 -2l4 1l11 -4l5 -1l1 -4l8 3h6l4 5l8 -4l12 1h6l2 -4l3 4l1 6h9l7 -1l-1 -6l6 -2l3 4l-1 7l9 -4s1 -5 1 -6s3 -4 3 -4l-10 -4l-8 -1l-2 -6h-7s-1 -2 -1 -3s1 -3 1 -3
l-5 -1s-5 -6 -5 -7s-3 -6 -3 -6l4 -1l4 -7h3l8 -3l1 -2l13 -4v-7s4 -6 4 -6l4 2l1 4l-1 6l6 3v9l-4 6l3 3v9l9 -1l3 2l7 -6l5 -1s-1 -5 -1 -6s7 -5 7 -5l7 8l7 -10l3 -6l-2 -2l5 -4l6 -1l7 -5v-5l-7 -2l-6 -3l-10 1l-10 -1l-7 -6l14 3l-1 -5l2 -5l8 -3l-4 -4l-7 -4l-4 1
l-4 2l-6 -1l-4 -4l2 -3l-7 -2l-6 -7l-3 -5l-4 1l1 -8l-7 -7l-9 -7v-5l3 -9l-3 -5l-3 3l-2 10l-3 1l-3 -1l-7 2l-6 -1v-3h-4l-8 1l-5 -3l-8 -6l2 -5l-2 -3v-7l-1 -4l6 -8h7l5 1l4 9l4 1l3 2l3 -2l-2 -5l-2 -6l-4 -6h8l7 -1l3 -2l-3 -5v-8l4 -5l4 1l5 1l3 -1l5 -4l3 6v3l3 1
l7 3l2 1l2 -1l-3 -2l2 -2l4 2l-1 3l2 -2l4 -1l2 -1l4 -1h8l5 1l4 -3l1 -4l6 -3l3 -3l11 -1l7 -4l3 -7l2 -3l-1 -3l4 -1l4 -3l8 -2l3 -5l4 1l11 -2l8 -5l5 -2l3 -3l-2 -7l-3 -5l-5 -2l-5 -6l-2 -1l-1 -8l-3 -7l-5 -6l-2 -7l-5 -1l-9 -2l-10 -4l-2 -4l1 -7l-4 -3l-4 -7l-5 -2
l-5 -6l-6 -1l-7 3v-2l3 -4l2 -4l-4 -4l-5 -1l-7 -1v-5l-2 -3h-3l-2 1l-1 -2l3 -3l-1 -2l-2 -2l-1 -3l-4 -3l-1 -3l3 -4l2 -3l-5 -4l-1 -2c-2 0 -2 -12 5 -22c106 25 184 120 184 233c0 59 -21 112 -56 154l-3 -1l-11 2l-4 -2l-8 -4l-7 2h-7l1 -4l-2 -6l-5 -8l-10 5l-8 3
l-8 9l-2 5l-5 5l2 5l5 3l-5 4l-5 -1s-3 3 -3 4s2 4 2 4l5 -1l1 3l-7 1h-3v5s-2 6 -2 6l-10 10s-10 5 -10 5l-11 -1h-4l-6 5l1 3l-4 4l5 1l12 -1l2 3l-7 2v3l10 -1l4 2c-2 1 -6 1 -8 2l-11 -2l-12 -4l-6 -5l-5 -6v-9l11 -9l10 -8s12 -8 12 -9s2 -7 2 -7l10 -3l-1 -7l-12 5
l2 -5l6 -5l-11 2l5 -6l-3 -3l-10 2l-5 4l-8 4l-8 -1l8 7l5 -2l2 8l-1 8h-7l-9 7l-4 -1l-14 3l-4 5l-1 10l8 1l10 -4l4 4l1 9l-12 1l-12 2l3 7h-9l-8 14l1 3c-66 -1 -126 -29 -169 -74zM62 334c-29 -40 -46 -89 -46 -142c0 -133 107 -240 240 -240c16 0 31 1 46 4
c-13 7 -12 22 -13 22c2 0 -2 7 -2 7l3 4l-1 3l2 4l-1 9l3 9l-2 9l4 8l2 12v9l3 9v8l1 8v7l-4 3l-8 4l-4 4l-1 4l-3 7l-2 6l-9 6v5l3 4l-2 3l3 6l4 6l4 5l-1 5l3 7l-3 1v2l-4 2l-2 -1l1 -2l-3 -1l-3 2l-4 1l-4 4l-2 -1l-1 2v4l-5 4h-6l-6 5l-6 3l-8 -1l-11 3l-10 5l-2 5v3
l-10 13l-1 3l-5 5l-4 9l-4 1l1 -5l2 -3l4 -8l5 -9l-1 -3l-1 1l-5 5v4l-6 4l1 3l-2 5l-4 6l-2 5l-7 3c-1 1 -8 16 -8 16v12l4 13l-4 9l-7 3v2l3 5l-7 8l-6 5l-1 1l-6 8l-9 4l-12 2l-6 2l-2 -2v-2l-11 -6l1 4l3 3l-6 -3l-5 -3l1 -3l-10 -7s-10 -6 -10 -7s-10 -5 -10 -5l-9 -3
l10 5l9 5l8 9l-7 1l-6 -3v4h-3l-3 4s2 7 5 15zM257 432h6l-3 -1l-3 1v0zM435 351c-20 22 -42 41 -69 55c14 -10 40 -30 69 -55zM256 -64c-141 0 -256 115 -256 256s115 256 256 256s256 -115 256 -256s-115 -256 -256 -256zM167 237l-1 1zM293 203l3 -2l-4 -2l-6 -1l-2 4
l-4 2l-7 3l-4 -2h-3l6 4l6 -1l5 -2h3l4 -3h3zM308 199h-4h-4l2 -4l-7 1v-2l8 -1l5 1l6 1l-1 2zM363 294l3 -3l3 -4l-3 -2l-5 1l-1 2l-6 1l-7 -1v2l4 4v3l2 4h2h1l-2 -5l4 -1zM253 406l-5 6h9l8 -5l19 -3l4 -4l-5 -4l-16 2h-9zM238 397l9 -3l-2 -7l-5 -4s-9 5 -9 6s7 8 7 8z
M252 399l6 -2l4 -2l-6 -4l-3 -3l5 -6l-3 -3h-6l-3 3l3 2v8l1 6zM225 389l4 -8l6 -2s-3 -3 -3 -4s-3 -3 -3 -3l-9 4l-12 -5h-7l-6 4l5 3l-4 2l-5 4l-6 -2l-5 -2l-2 6l3 9l8 4l6 -3s3 1 4 1s3 -3 3 -3l9 -1l2 1l8 2zM190 403l-4 4l3 4l9 4l10 6l12 -2l-2 -7l8 -7l-8 -4h-2
l-7 -3l-8 3zM232 412l8 1s5 -6 5 -7s-3 -5 -3 -5l-5 -1l-7 4l-2 7zM240 414l-8 3l-6 2l1 4s8 0 8 -1s6 -5 6 -5zM251 417l-4 3l-3 1v-2l4 -4z" />
    <glyph glyph-name="earthviewer" unicode="&#xf126;" 
d="M256 448v0c141 0 256 -115 256 -256s-115 -256 -256 -256s-256 115 -256 256s115 256 256 256zM52 74v0c18 -30 43 -57 72 -77c8 -5 16 -9 25 -12c0 0 -17 62 47 34c59 -26 161 -29 199 -17c6 4 12 9 18 14l28 33s-110 -20 -164 -13c-95 12 -228 101 -242 78
c-1 -1 5 -18 17 -40zM477 115v0c1 0 1 0 2 1c5 13 8 28 10 42c-64 -2 -157 90 -157 90s-97 126 -179 126c-31 0 -57 -14 -78 -32c-14 -17 -25 -34 -34 -54c49 26 117 18 190 -44c114 -97 228 -137 246 -129zM478 258v0c-45 113 -120 153 -182 166c-13 2 -27 4 -40 4
c-17 0 -35 -2 -51 -6c178 -15 159 -145 236 -178c47 -20 37 14 37 14z" />
    <glyph glyph-name="ebook" unicode="&#xf127;" horiz-adv-x="511" 
d="M0 365l245 -103c4 -2 12 -2 16 0l250 103l-39 -283c-1 -5 -4 -10 -8 -12l-196 -102c-8 -4 -22 -4 -30 0l-183 98c-4 2 -8 7 -9 12l-46 287v0zM79 340l-4 64l159 -130l-155 66v0zM428 337v0l-155 -63l158 130zM135 420l99 -134l-99 79v55v0zM376 420v0v-51l-99 -83z" />
    <glyph glyph-name="edit" unicode="&#xf128;" 
d="M485 341v0c30 -36 -10 -72 -10 -72l-135 -134l-17 17l135 134s17 17 9 36l-346 -346l-121 -40l40 121l391 391l81 -81zM364 253v0l-47 47l-236 -236l47 -47zM384 273l94 94l-47 47l-94 -94l47 -47v0zM108 -3v0l-47 47l-21 -68z" />
    <glyph glyph-name="edit-box" unicode="&#xf1c6;" horiz-adv-x="454" 
d="M138 145l25 -24l-27 -10h-2c-3 0 -6 2 -6 5v2zM395 319l-7 7l19 19l7 -7c11 -11 17 -26 17 -43s-6 -31 -17 -42l-81 -83l-18 19l80 83c6 6 10 14 10 23s-4 18 -10 24v0zM446 422c5 -5 8 -11 8 -18s-3 -14 -8 -19l-19 -18l-43 43l19 19c5 5 11 7 18 7s14 -2 19 -7l6 -7v0z
M407 345l-201 -201l-26 -10l-29 28l10 27l201 201l45 -45v0zM286 401l-24 -23h-181c-32 0 -58 -26 -58 -58v0v-256v0c0 -32 26 -58 58 -58h256c32 0 59 26 59 58v0v85l23 24v-109v0c0 -45 -37 -81 -82 -81h-255h-1c-45 0 -81 36 -81 81v0v256v0c0 45 36 81 81 81h205z" />
    <glyph glyph-name="education" unicode="&#xf1e1;" horiz-adv-x="501" 
d="M232 354c12 4 26 4 38 0l221 -76c6 -2 10 -7 10 -14v-3v-3v-106c0 -9 -7 -16 -16 -16s-16 7 -16 16v87l-53 -23v-97c0 -16 -6 -34 -21 -44c-29 -20 -81 -46 -144 -46s-115 26 -144 46c-15 10 -22 28 -22 44v97l-75 32c-6 3 -10 9 -10 16s5 12 11 14zM259 324
c-6 2 -11 2 -17 0l-182 -62l180 -78c7 -3 14 -3 21 0l180 78zM274 155c-15 -6 -31 -6 -46 0l-111 47v-83c0 -8 3 -14 8 -17c25 -18 72 -41 126 -41s100 23 125 41c5 3 8 9 8 17v83z" />
    <glyph glyph-name="egnyte" unicode="&#xf129;" horiz-adv-x="456" 
d="M228 234l-155 118l-73 -55l184 -140l1 -1v-220h86v221l185 140l-73 55l-155 -118zM335 124l-26 -36l117 -89l26 36l-117 89zM206 448h44v-147h-44v147zM4 35l26 -36l117 89l-26 36l-117 -89z" />
    <glyph glyph-name="email" unicode="&#xf1c7;" horiz-adv-x="419" 
d="M0 308c0 26 20 47 46 47h326c26 0 47 -21 47 -47v-232c0 -26 -21 -47 -47 -47h-326c-26 0 -46 21 -46 47v232zM23 287v-211c0 -13 10 -24 23 -24h326c13 0 24 11 24 24v211l-161 -104c-15 -10 -37 -10 -52 0zM24 314l172 -111c7 -5 20 -5 27 0l172 111
c-3 10 -12 18 -23 18h-326c-11 0 -19 -8 -22 -18z" />
    <glyph glyph-name="email-envelope" unicode="&#xf1b9;" 
d="M165 211l13 -14l-151 -151h-9v19zM334 197l13 14l147 -146v-19h-9zM256 147l210 192h28l-238 -220l-238 220h28zM18 339h476v-293h-476v293zM18 357c-10 0 -18 -8 -18 -18v-293c0 -10 8 -18 18 -18h476c10 0 18 8 18 18v293c0 10 -8 18 -18 18h-476z" />
    <glyph glyph-name="endQuote" unicode="&#xf12b;" horiz-adv-x="485" 
d="M19 61v28c39 14 70 37 92 68s33 62 33 95c0 7 -1 13 -3 16c-1 2 -3 4 -5 4s-5 -2 -9 -5c-12 -9 -27 -13 -45 -13c-22 0 -41 8 -57 26s-25 39 -25 63c0 26 9 48 28 67s43 28 70 28c31 0 58 -12 81 -38s35 -61 35 -105c0 -51 -16 -96 -47 -136s-81 -73 -148 -98v0zM291 61
v28c39 14 69 37 91 68s33 62 33 95c0 7 -1 13 -3 16c-1 2 -2 4 -4 4s-5 -2 -9 -5c-12 -9 -28 -13 -46 -13c-22 0 -41 8 -57 26s-24 39 -24 63c0 26 9 48 28 67s42 28 69 28c31 0 59 -12 82 -38s34 -61 34 -105c0 -51 -15 -96 -46 -136s-81 -73 -148 -98v0z" />
    <glyph glyph-name="epub" unicode="&#xf12c;" 
d="M256 30l-161 159l161 160l54 -53l-108 -107l54 -53l161 160l-140 138c-11 11 -31 11 -42 0l-226 -224c-11 -11 -11 -30 0 -41l226 -224c11 -11 31 -11 42 0l226 224c11 11 11 30 0 41l-32 33l-215 -213z" />
    <glyph glyph-name="eraser" unicode="&#xf1d9;" 
d="M0 -64v27h512v-27h-512zM198 1l128 129l-132 132l-129 -128l13 -16c11 -14 26 -33 47 -54c24 -24 44 -39 57 -50zM354 444l154 -154c5 -5 5 -13 0 -18l-306 -306l-30 21c-65 46 -137 133 -139 154l303 303c5 5 13 5 18 0z" />
    <glyph glyph-name="error" unicode="&#xf12d;" 
d="M224 96v-64h64v64h-64zM256 -64c-141 0 -256 115 -256 256s115 256 256 256s256 -115 256 -256s-115 -256 -256 -256v0zM224 352v-224h64v224h-64z" />
    <glyph glyph-name="evernote" unicode="&#xf12e;" horiz-adv-x="432" 
d="M42 350v0v0c-12 0 -22 -2 -30 -6c0 0 -3 -1 -5 -2h1l93 91h1l-2 -3c-3 -7 -5 -15 -5 -24v0v-51c0 -3 -2 -5 -5 -5h-48v0zM420 359v0v0c7 -35 15 -173 11 -219c-7 -73 -18 -116 -23 -130c-23 -72 -43 -74 -99 -74c-72 0 -95 11 -95 68c0 63 30 64 81 63c7 0 0 -8 0 -20
s5 -17 -2 -17c-15 0 -35 2 -35 -18c0 -25 12 -23 43 -23c38 0 46 4 46 39c0 57 -16 66 -38 69c-25 3 -49 6 -61 10c-30 11 -28 50 -28 61c0 2 -3 2 -3 0c0 -16 -1 -38 -9 -62c-3 -7 -4 -12 -4 -12c-9 -19 -25 -12 -50 -9s-79 14 -102 24c-11 5 -15 9 -20 20
c-14 28 -28 122 -30 135c-2 17 -2 26 -2 26c0 11 2 21 8 30c3 4 7 7 13 10s14 5 24 5h49c11 0 19 9 19 19v22s-1 24 -1 30c0 10 3 17 7 23c6 8 16 13 25 16c12 3 58 6 88 -6c11 -4 22 -17 24 -31c17 1 46 1 70 -2c30 -4 55 -9 67 -13c11 -4 23 -14 27 -34zM321 207v0v0
c13 0 25 -4 35 -8c0 14 -3 36 -26 37c-21 1 -27 -16 -29 -30c6 1 13 1 20 1z" />
    <glyph glyph-name="expand" unicode="&#xf12f;" 
d="M464 352h-416v-320h416v320zM0 400h512v-416h-512v416z" />
    <glyph glyph-name="eye" unicode="&#xf1a9;" 
d="M349 325c-3 -20 -19 -36 -39 -36c-22 0 -41 19 -41 41c0 20 15 36 33 40c-14 7 -30 10 -46 10c-59 0 -107 -48 -107 -108s48 -108 107 -108s107 48 107 108c0 19 -5 37 -14 53zM256 96c-136 0 -256 110 -256 176s120 176 256 176s256 -110 256 -176s-120 -176 -256 -176z
M256 421c-130 0 -229 -106 -229 -149s99 -149 229 -149s229 106 229 149s-99 149 -229 149z" />
    <glyph glyph-name="eye-fill" unicode="&#xf1e8;" 
d="M305 295c-15 7 -32 11 -49 11v0c-63 0 -114 -51 -114 -114s51 -113 114 -113s114 50 114 113c0 20 -6 40 -15 56c-3 -21 -20 -37 -42 -37c-23 0 -43 19 -43 42c0 21 15 38 35 42zM256 22c-141 0 -256 112 -256 170s115 171 256 171s256 -113 256 -171
s-115 -170 -256 -170z" />
    <glyph glyph-name="eye-invisible" unicode="&#xf1ef;" 
d="M297 276l-119 -119c-7 12 -11 27 -11 42c0 48 40 87 89 87c15 0 29 -4 41 -10zM111 93c1 0 1 -1 2 -1l24 24c-3 2 -5 3 -8 5c-34 22 -63 50 -89 78c29 31 65 62 105 84c35 20 74 33 111 33c23 0 46 -5 68 -13l26 26c-30 13 -62 20 -94 20c-44 0 -87 -14 -127 -37
c-48 -27 -92 -65 -125 -102c-6 -6 -6 -16 0 -22c30 -34 66 -69 107 -95zM383 121c-37 -24 -80 -39 -127 -39c-24 0 -47 4 -69 11l28 28c12 -6 26 -9 41 -9c49 0 89 39 89 87c0 15 -4 29 -11 41l39 39c37 -22 71 -50 99 -80c-26 -28 -55 -56 -89 -78zM508 210
c-30 34 -69 68 -111 94l66 65c6 6 6 16 0 22s-16 6 -22 0l-376 -378c-6 -6 -6 -15 0 -21s15 -6 21 0l75 75c29 -12 61 -19 95 -19c55 0 103 18 145 45c41 26 77 61 107 95c5 6 6 16 0 22z" />
    <glyph glyph-name="eye-visible" unicode="&#xf1f0;" 
d="M129 115c-34 22 -63 49 -89 77c29 31 65 63 105 85c35 20 74 32 111 32s76 -12 111 -32c40 -22 76 -54 105 -85c-26 -28 -55 -55 -89 -77c-37 -24 -80 -40 -127 -40s-90 16 -127 40zM256 279c-49 0 -89 -39 -89 -87s40 -87 89 -87s89 39 89 87s-40 87 -89 87zM256 42
c-55 0 -103 18 -145 45c-41 26 -77 61 -107 95c-6 6 -6 15 0 21c33 37 77 76 125 103c40 23 83 37 127 37s88 -14 128 -37c48 -27 91 -66 124 -103c6 -6 5 -16 0 -22c-30 -34 -66 -68 -107 -94c-42 -27 -90 -45 -145 -45z" />
    <glyph glyph-name="facebook" unicode="&#xf130;" 
d="M28 448h454c16 0 28 -12 30 -28v-454c-2 -16 -14 -28 -30 -30h-130v200h66l10 77h-76v49c0 22 6 37 38 37h41v69c-7 1 -32 3 -60 3c-59 0 -99 -36 -99 -102v-56h-66v-77h66v-200h-244c-16 2 -28 14 -28 30v454c0 16 12 28 28 28z" />
    <glyph glyph-name="file" unicode="&#xf131;" horiz-adv-x="448" 
d="M60 -39v0v65v15h15h134v61h-134h-15v15v306c0 13 11 25 24 25h340c13 0 24 -12 24 -25v-462c0 -13 -11 -25 -24 -25h-340c-13 0 -24 12 -24 25zM209 11h-118v-43h327v451h-327v-287h118c16 0 30 -13 30 -30v-61c0 -17 -13 -30 -30 -30zM209 102v0h-179v-61h179v61zM0 41
v0v61c0 17 13 30 30 30h179c16 0 30 -13 30 -30v-61c0 -17 -13 -30 -30 -30h-179c-16 0 -30 13 -30 30z" />
    <glyph glyph-name="file-alt" unicode="&#xf1d8;" horiz-adv-x="384" 
d="M353 -19v303h-120c-9 0 -16 7 -16 16v116h-173c-7 0 -13 -6 -13 -13v-422c0 -7 6 -13 13 -13h296c7 0 13 6 13 13zM248 395v-78h80zM244 444l135 -132c3 -3 5 -7 5 -12v-319c0 -25 -19 -45 -44 -45h-296c-25 0 -44 20 -44 45v422c0 25 19 45 44 45h189c4 0 8 -1 11 -4z
M73 54v32h210v-32h-210zM73 148v32h112v-32h-112z" />
    <glyph glyph-name="file-fill" unicode="&#xf20c;" horiz-adv-x="419" 
d="M81 425h303c19 0 35 -16 35 -35v-396c0 -19 -16 -35 -35 -35h-303c-19 0 -34 16 -34 35v35h174c19 0 35 16 35 35v70c0 19 -16 35 -35 35h-174v221c0 19 15 35 34 35zM0 134c0 12 0 11 12 11h209c12 0 12 1 12 -11v-70c0 -12 0 -12 -12 -12h-209c-12 0 -12 0 -12 12v70z
" />
    <glyph glyph-name="files" unicode="&#xf1c8;" horiz-adv-x="409" 
d="M287 447l122 -123v-316c0 -17 -14 -31 -31 -31h-10v-10c0 -17 -14 -30 -31 -30h-306c-17 0 -31 13 -31 30v419c0 17 14 31 31 31h10c0 17 14 30 31 30h215zM286 419v0v-84c0 -6 5 -10 11 -10h83zM348 -33v0v11h-276c-17 0 -31 13 -31 30v388h-10c-6 0 -10 -4 -10 -10
v-419c0 -6 4 -10 10 -10h306c6 0 11 4 11 10zM378 -2c6 0 11 4 11 10v296h-92c-17 0 -31 14 -31 31v92h-194c-6 0 -11 -4 -11 -10v-409c0 -6 5 -10 11 -10h306zM123 59v21h163v-21h-163zM123 121v20h204v-20h-204zM123 182v20h204v-20h-204zM123 243v21h204v-21h-204z" />
    <glyph glyph-name="filter" unicode="&#xf1cb;" 
d="M0 336h512v-32h-512v32zM96 208h320v-32h-320v32zM192 80h128v-32h-128v32z" />
    <glyph glyph-name="filter-fill" unicode="&#xf1ce;" 
d="M0 378c0 39 31 70 70 70h372c39 0 70 -31 70 -70v0v-372c0 -39 -31 -70 -70 -70h-372c-39 0 -70 31 -70 70v0v372zM70 285v-23h372v23h-372zM140 192v-23h232v23h-232zM209 99v-23h94v23h-94z" />
    <glyph glyph-name="flag" unicode="&#xf132;" horiz-adv-x="384" 
d="M0 -64v512h32v-512h-32zM279 349c-17 0 -34 4 -54 13c-14 6 -25 12 -49 25c-22 12 -31 17 -42 22c-13 5 -22 7 -29 7c-18 0 -39 -5 -60 -14c-8 -3 -14 -7 -20 -10l-6 -3c-1 0 -1 -1 -1 -1l14 26v-252c-6 -3 -11 -6 -16 -8l-16 9v19c6 3 13 6 20 9c28 12 57 20 85 20
c17 0 34 -4 54 -13c14 -6 25 -12 49 -25c22 -12 31 -17 42 -22c13 -5 22 -7 29 -7c18 0 39 5 60 14c8 3 13 6 13 6v200c-28 -12 -45 -15 -73 -15zM105 448c52 0 122 -67 174 -67s105 33 105 33v-268s-53 -34 -105 -34s-122 67 -174 67s-105 -33 -105 -33v268s53 34 105 34z
" />
    <glyph glyph-name="flag-fill" unicode="&#xf133;" horiz-adv-x="384" 
d="M0 -64v512h32v-512h-32zM0 414c0 0 53 34 105 34s122 -67 174 -67s105 33 105 33v-268s-53 -34 -105 -34s-122 67 -174 67s-105 -33 -105 -33v268v0z" />
    <glyph glyph-name="folder" unicode="&#xf1e2;" 
d="M463 -9h-414c-15 0 -27 11 -27 26v242h468v-241c0 -15 -12 -27 -27 -27zM67 392h95c9 -9 32 -30 42 -41l3 -3h256c15 0 27 -12 27 -27v-41h-468v67c0 25 20 45 45 45zM463 369h-247l-42 42l-3 3h-104c-37 0 -67 -30 -67 -67v-330c0 -27 22 -48 49 -48h414
c27 0 49 22 49 49v303c0 27 -22 48 -49 48z" />
    <glyph glyph-name="folder-open" unicode="&#xf219;" horiz-adv-x="441" 
d="M384 235h3c40 0 66 -43 47 -79l-57 -107c-9 -17 -27 -28 -47 -28h-277c-29 0 -53 25 -53 54v234c0 29 24 54 53 54h66c16 0 31 -7 41 -20l19 -23c6 -8 15 -12 25 -12h127c29 0 53 -25 53 -54v-19zM53 341c-18 0 -32 -14 -32 -32v-195l50 93c9 17 27 28 47 28h245v19
c0 18 -14 32 -32 32h-127c-16 0 -32 7 -42 20l-19 23c-6 8 -14 12 -24 12h-66zM118 213c-12 0 -22 -6 -28 -16l-57 -107c-12 -21 4 -47 28 -47h269c12 0 22 6 28 16l57 107c11 21 -4 47 -28 47h-269z" />
    <glyph glyph-name="folders" unicode="&#xf1ba;" horiz-adv-x="513" 
d="M83 250h-17v-215c0 -14 11 -24 25 -24h25v16h-25c-5 0 -8 3 -8 8v215zM50 317v16h-33v66c0 9 7 17 16 17h87c11 -11 23 -22 33 -33h202c5 0 9 -4 9 -9v-33h16v33c0 14 -11 25 -25 25h-194c-11 11 -23 22 -33 33h-95c-18 0 -33 -15 -33 -33v-289c0 -14 11 -25 25 -25h25
v17h-25c-5 0 -8 3 -8 8v207h33zM116 242v17h-33v66c0 9 7 16 16 16h88c7 -7 25 -24 33 -33h202c5 0 8 -3 8 -8v-33h16v33c0 14 -10 25 -24 25h-195c-13 14 -31 30 -34 33h-94c-18 0 -33 -15 -33 -33v-83h50zM157 -31c-5 0 -8 4 -8 9v190h347v-190c0 -5 -3 -9 -8 -9h-331z
M157 -47h331c14 0 25 11 25 25v248c0 14 -11 24 -25 24h-195c-13 14 -30 30 -33 33h-95c-18 0 -33 -15 -33 -33v-272c0 -14 11 -25 25 -25zM496 184h-347v66c0 9 7 17 16 17h88c7 -7 25 -24 33 -33h202c5 0 8 -3 8 -8v-42z" />
    <glyph glyph-name="font" unicode="&#xf134;" 
d="M474 0v0l-42 118h-159l-42 -118h-38l142 384h36l141 -384h-38zM351 336v0l-67 -187h138l-68 187h-3zM138 0v0l-19 55h-75l-19 -55h-25l70 192h23l70 -192h-25zM80 161v0l-29 -86h61l-30 86h-2z" />
    <glyph glyph-name="form" unicode="&#xf135;" horiz-adv-x="474" 
d="M23 361v0v-44c0 -6 5 -11 11 -11h44c6 0 11 5 11 11v44c0 6 -5 11 -11 11h-44c-6 0 -11 -5 -11 -11v0zM0 361c0 19 15 34 34 34h44c19 0 34 -15 34 -34v-44c0 -19 -15 -34 -34 -34h-44c-19 0 -34 15 -34 34v44zM0 213c0 19 15 34 34 34h44c19 0 34 -15 34 -34v-44
c0 -19 -15 -34 -34 -34h-44c-19 0 -34 15 -34 34v44zM23 213v-44c0 -6 5 -11 11 -11h44c6 0 11 5 11 11v44c0 6 -5 11 -11 11h-44c-6 0 -11 -5 -11 -11zM0 67c0 19 15 34 34 34h44c19 0 34 -15 34 -34v-44c0 -19 -15 -34 -34 -34h-44c-19 0 -34 15 -34 34v44zM23 67v-44
c0 -6 5 -11 11 -11h44c6 0 11 5 11 11v44c0 6 -5 11 -11 11h-44c-6 0 -11 -5 -11 -11zM170 350h304v-23h-304v23zM170 202h304v-23h-304v23zM170 56h304v-23h-304v23z" />
    <glyph glyph-name="form-alt" unicode="&#xf1eb;" horiz-adv-x="383" 
d="M298 409c-5 0 -8 3 -8 8s3 8 8 8h57c16 0 28 -12 28 -28v0v0v-430v0c0 -16 -12 -28 -28 -28h-326c-16 0 -29 12 -29 28v0v430v0c0 16 13 28 29 28h48c5 0 9 -3 9 -8s-4 -8 -9 -8h-48c-7 0 -13 -5 -13 -12v0v-430v0c0 -7 6 -12 13 -12h326c7 0 12 5 12 12v0v430v0
c0 7 -5 12 -12 12h-57zM111 241c9 0 16 -7 16 -16v-25c0 -9 -7 -16 -16 -16h-25c-9 0 -16 7 -16 16v25c0 9 7 16 16 16h25zM86 225v-25h25v25h-25zM111 322c9 0 16 -7 16 -16v-25c0 -9 -7 -16 -16 -16h-25c-9 0 -16 7 -16 16v25c0 9 7 16 16 16h25zM86 306v-25h25v25h-25z
M70 130c0 16 13 29 29 29s28 -13 28 -29v0c0 -16 -12 -28 -28 -28s-29 12 -29 28zM86 130v0c0 -7 6 -12 13 -12s12 5 12 12v0c0 7 -5 12 -12 12s-13 -5 -13 -12zM70 48c0 16 13 29 29 29s28 -13 28 -29v0c0 -16 -12 -28 -28 -28s-29 12 -29 28zM86 48v0c0 -7 6 -12 13 -12
s12 5 12 12v0c0 7 -5 12 -12 12s-13 -5 -13 -12zM99 42c-3 0 -6 3 -6 6s3 6 6 6s6 -3 6 -6s-3 -6 -6 -6zM159 286c-5 0 -8 3 -8 8s3 8 8 8h143c5 0 8 -3 8 -8s-3 -8 -8 -8h-143zM159 204c-5 0 -8 3 -8 8s3 8 8 8h143c5 0 8 -3 8 -8s-3 -8 -8 -8h-143zM159 123
c-5 0 -8 3 -8 8s3 8 8 8h143c5 0 8 -3 8 -8s-3 -8 -8 -8h-143zM159 41c-5 0 -8 3 -8 8s3 8 8 8h143c5 0 8 -3 8 -8s-3 -8 -8 -8h-143zM118 384h35c8 0 13 1 18 4c1 0 2 2 3 2c5 3 10 4 16 4s10 -1 15 -4c1 0 2 -2 3 -2c5 -3 10 -4 18 -4h31v45h-139v-45zM226 368
c-11 0 -18 2 -25 6l-4 1c-2 1 -4 2 -7 2v0h-1c-3 0 -5 -1 -7 -2c0 0 -3 -1 -4 -1c-8 -4 -14 -6 -25 -6h-35v0c-9 0 -16 7 -16 16v45c0 9 7 16 16 16v0h139v0c9 0 16 -7 16 -16v-45c0 -9 -7 -16 -16 -16v0h-31z" />
    <glyph glyph-name="form-category" unicode="&#xf1ea;" horiz-adv-x="439" 
d="M20 305v-42h42v42h-42zM65 325c10 0 18 -8 18 -18v-47c0 -10 -8 -18 -18 -18h-47c-10 0 -18 8 -18 18v47c0 10 8 18 18 18h47zM20 428v-42h42v42h-42zM65 448c10 0 18 -8 18 -18v-47c0 -10 -8 -18 -18 -18h-47c-10 0 -18 8 -18 18v47c0 10 8 18 18 18h47zM20 100
c0 -12 9 -21 21 -21s21 9 21 21s-9 21 -21 21s-21 -9 -21 -21zM0 100c0 23 18 42 41 42s42 -19 42 -42s-19 -41 -42 -41s-41 18 -41 41v0zM20 -23c0 -12 9 -21 21 -21s21 9 21 21s-9 21 -21 21s-21 -9 -21 -21zM0 -23c0 23 18 42 41 42s42 -19 42 -42s-19 -41 -42 -41
s-41 18 -41 41v0zM31 -23c0 6 4 10 10 10s10 -4 10 -10s-4 -10 -10 -10s-10 4 -10 10zM428 90h-286c-10 0 -10 10 -10 10s0 10 10 10h286c10 0 11 -10 11 -10s-1 -10 -11 -10zM428 275h-286c-10 0 -10 11 -10 11s0 10 10 10h286c10 0 11 -10 11 -10s-1 -11 -11 -11zM428 397
h-286c-10 0 -10 10 -10 10s0 10 10 10h286c10 0 11 -10 11 -10s-1 -10 -11 -10zM428 -31h-286c-10 0 -10 10 -10 10s0 10 10 10h286c10 0 11 -10 11 -10s-1 -10 -11 -10z" />
    <glyph glyph-name="forms-nav" unicode="&#xf20d;" horiz-adv-x="341" 
d="M171 427c24 0 42 -19 42 -43h22c12 0 21 -9 21 -21v-22c0 -12 -9 -21 -21 -21h-128c-12 0 -22 9 -22 21v22c0 12 10 21 22 21h21c0 24 19 43 43 43zM64 320c0 -12 9 -21 21 -21h171c12 0 21 9 21 21v43h22c24 0 42 -19 42 -43v-299c0 -24 -18 -42 -42 -42h-256
c-24 0 -43 18 -43 42v299c0 24 19 43 43 43h21v-43z" />
    <glyph glyph-name="fullscreen" unicode="&#xf136;" 
d="M32 384v-96h-32v128h144v-32h-112zM32 0h112v-32h-144v128h32v-96zM480 384h-112v32h144v-128h-32v96zM480 0v96h32v-128h-144v32h112z" />
    <glyph glyph-name="gamification" unicode="&#xf1c9;" horiz-adv-x="478" 
d="M367 243v171h111v-60c0 -58 -45 -105 -102 -110zM384 397v-135c44 8 77 46 77 92v43h-77zM111 243l-9 1c-57 5 -102 52 -102 110v60h111v-171zM17 397v-43c0 -46 33 -84 77 -92v135h-77zM230 -52v210h18v-210h-18zM111 -64v17h256v-17h-256zM256 158h-34
c-71 0 -128 57 -128 128v162h290v-162c0 -71 -57 -128 -128 -128zM111 431v-145c0 -61 50 -111 111 -111h34c61 0 111 50 111 111v145h-256zM186 227l8 66l-43 48l61 12l31 59l31 -59l62 -12l-43 -48l8 -66l-58 28zM243 274l37 -18v0l-5 43l28 31l-40 8l-20 37v0l-19 -37
l-40 -8l27 -31l-5 -43z" />
    <glyph glyph-name="gdrive" unicode="&#xf137;" 
d="M110 -24l87 152h315l-88 -152h-314v0zM168 408h176l161 -265h-180l-157 265v0zM0 128v0l161 269l88 -152l-158 -269z" />
    <glyph glyph-name="gear" unicode="&#xf138;" 
d="M224 -62l-8 1l-20 67c-10 3 -20 7 -29 12l-62 -33l-6 5c-8 7 -17 14 -24 21c-8 8 -14 16 -21 24l-5 6l33 62c-5 9 -9 19 -12 29l-67 20l-1 8c-3 21 -3 43 0 64l1 8l68 20c3 10 6 20 11 29l-33 62l5 6c7 8 13 16 21 24s16 14 24 21l6 5l63 -33c9 5 18 8 28 11l20 68l8 1
c21 3 43 3 64 0l8 -1l20 -68c10 -3 19 -6 28 -11l63 33l6 -5c8 -7 16 -13 24 -21s15 -16 21 -24l5 -6l-34 -63c5 -9 9 -18 12 -28l68 -20l1 -8c3 -21 3 -43 0 -64l-1 -8l-68 -20c-3 -10 -6 -19 -11 -28l33 -63l-5 -6c-7 -8 -13 -16 -21 -24c-7 -7 -15 -14 -24 -21l-6 -5
l-62 33c-9 -5 -19 -8 -29 -11l-20 -68l-8 -1c-11 -1 -21 -2 -32 -2s-21 1 -32 2v0zM278 -39l19 65l6 2c12 4 25 8 36 14l5 4l60 -32c6 5 11 9 16 14s9 10 14 16l-31 60l3 6c6 11 10 23 14 35l2 6l65 19c1 14 1 30 0 44l-65 20l-2 6c-4 12 -9 23 -15 34l-3 6l32 60
c-5 6 -9 11 -14 16s-10 9 -16 14l-60 -31l-6 3c-11 6 -23 11 -35 14l-6 2l-19 65c-14 1 -30 1 -44 0l-20 -65l-6 -2c-12 -4 -23 -8 -34 -14l-6 -3l-60 31c-6 -5 -11 -9 -16 -14s-9 -10 -14 -16l31 -60l-3 -5c-6 -11 -10 -23 -14 -35l-2 -6l-65 -20c-1 -14 -1 -30 0 -44
l65 -19l2 -6c4 -12 8 -25 14 -36l3 -5l-31 -60c5 -6 9 -11 14 -16s10 -9 16 -14l60 31l5 -3c11 -6 24 -10 36 -14l6 -2l19 -65c14 -1 30 -1 44 0v0zM158 192v0c0 54 44 98 98 98s98 -44 98 -98s-44 -98 -98 -98s-98 44 -98 98zM329 192v0c0 40 -33 73 -73 73
s-73 -33 -73 -73s33 -73 73 -73s73 33 73 73z" />
    <glyph glyph-name="gear-fill" unicode="&#xf1d1;" horiz-adv-x="508" 
d="M497 237v0v0c7 0 12 -5 11 -12v-66c0 -6 -5 -12 -12 -12h-61c-4 -18 -11 -35 -21 -51l43 -43c2 -2 4 -5 4 -8s-2 -7 -4 -9l-47 -47c-2 -2 -6 -4 -9 -4s-6 2 -8 4l-43 42c-16 -8 -33 -15 -51 -20v-61c0 -7 -6 -12 -12 -12h-66c-6 0 -13 5 -13 12v61c-18 4 -34 10 -50 20
l-43 -42c-2 -2 -5 -4 -8 -4s-7 2 -9 4l-47 47c-2 2 -4 6 -4 9s2 6 4 8l42 44c-8 16 -15 33 -20 51h-61c-7 0 -12 6 -12 12v67c0 6 5 12 12 12h61c4 18 10 35 20 51l-42 42c-2 2 -4 6 -4 9s2 6 4 8l47 47c2 2 6 4 9 4s6 -2 8 -4l44 -43c16 8 33 15 51 20v61c0 7 6 12 12 12
h66c6 0 13 -5 13 -12v-61c18 -4 34 -10 50 -20l43 42c2 2 5 4 8 4s7 -2 9 -4l47 -47c2 -2 4 -6 4 -9s-2 -6 -4 -8l-42 -43c8 -16 15 -33 20 -51h61zM254 283v0v0c-50 0 -91 -41 -91 -91v-1c0 -50 41 -91 91 -91s91 41 91 91v1v0c0 50 -41 91 -91 91z" />
    <glyph glyph-name="genie" unicode="&#xf201;" horiz-adv-x="458" 
d="M156 363c-2 -3 -3 -7 -4 -11c24 -5 50 -13 77 -24c27 11 54 19 78 24c-1 4 -3 8 -5 11c-20 44 -47 67 -73 67s-53 -23 -73 -67zM119 357c5 0 11 -1 16 -2l6 15c21 45 51 77 88 77s67 -32 88 -77l6 -15c5 1 11 2 16 2c50 5 93 -6 111 -38s6 -73 -23 -114
c-3 -4 -6 -9 -9 -13c3 -4 6 -9 9 -13c29 -41 41 -82 23 -114s-61 -43 -111 -38c-5 0 -11 1 -16 2l-6 -15c-21 -45 -51 -77 -88 -77s-67 32 -88 77l-6 15c-5 -1 -11 -2 -16 -2c-50 -5 -92 6 -110 38s-7 73 22 114c3 4 7 9 10 13c-3 4 -7 9 -10 13c-29 41 -40 82 -22 114
s60 43 110 38v0zM251 318c13 -6 26 -13 39 -20s26 -16 38 -24c-4 23 -10 43 -16 62c-20 -4 -40 -10 -61 -18zM329 339c8 -24 14 -50 18 -79c23 -18 43 -36 60 -55l6 9c28 40 35 74 22 97s-46 33 -94 29c-4 0 -8 0 -12 -1zM282 283c-17 10 -35 19 -53 27
c-18 -8 -35 -17 -52 -27s-34 -20 -50 -32c-2 -19 -3 -39 -3 -59v0v0c0 -20 1 -40 3 -59c16 -12 33 -22 50 -32s34 -19 52 -27c18 8 36 17 53 27s33 20 49 32c2 19 3 39 3 59v0h1c0 20 -2 40 -4 59c-16 12 -32 22 -49 32zM351 192c0 -15 -1 -31 -2 -45c18 15 34 30 47 45
c-13 15 -29 30 -47 45c1 -15 2 -30 2 -45v0v0zM290 86c-13 -7 -26 -14 -39 -20c21 -8 41 -14 61 -18c6 19 12 39 16 62c-12 -8 -25 -17 -38 -24zM347 124c-4 -29 -10 -55 -18 -79c4 -1 8 -1 12 -1c48 -4 81 6 94 29s6 57 -22 97l-6 9c-17 -19 -37 -37 -60 -55zM229 56
c-27 -11 -53 -19 -77 -24c1 -4 2 -8 4 -11c20 -44 47 -67 73 -67s53 23 73 67c2 3 4 7 5 11c-24 5 -51 13 -78 24zM208 66c-13 6 -27 13 -40 20s-26 16 -38 24c4 -23 10 -43 16 -62c20 4 41 10 62 18zM107 192v0c0 15 1 30 2 45c-18 -15 -33 -30 -46 -45
c13 -15 28 -30 46 -45c-1 14 -2 30 -2 45zM52 205c17 19 36 37 59 55c4 29 10 55 18 79c-4 1 -7 1 -11 1c-48 4 -82 -6 -95 -29s-6 -57 22 -97c2 -3 5 -6 7 -9zM146 336c-6 -19 -12 -39 -16 -62c12 8 25 17 38 24s27 14 40 20c-21 8 -42 14 -62 18zM129 45
c-8 24 -14 50 -18 79c-23 18 -42 36 -59 55c-2 -3 -5 -6 -7 -9c-28 -40 -35 -74 -22 -97s47 -33 95 -29c4 0 7 0 11 1zM262 173v0c-7 -11 -18 -18 -32 -18c-21 0 -38 17 -38 38c0 7 1 13 4 18c6 12 20 20 34 20c21 0 37 -17 37 -38c0 -7 -2 -14 -5 -20z" />
    <glyph glyph-name="graph" unicode="&#xf1d4;" horiz-adv-x="442" 
d="M314 273c-20 0 -35 14 -35 35c-1 20 14 35 35 35h72c18 0 33 -15 33 -34c1 -20 -13 -36 -34 -36h-71zM384 250c33 -1 59 26 58 58c2 32 -26 60 -58 59h-71c-32 0 -58 -26 -57 -58c-2 -32 26 -60 58 -59h70zM58 157c-20 0 -35 13 -35 34c-1 20 14 36 35 36h72
c18 0 33 -15 33 -34c1 -20 -13 -36 -34 -36h-71zM128 134c33 -2 59 26 58 58c2 32 -26 59 -58 58h-71c-32 0 -58 -26 -57 -58c-2 -32 26 -59 58 -58h70zM314 41c-19 0 -35 16 -35 35s16 35 35 35h70c19 0 35 -16 35 -35s-16 -35 -35 -35h-70zM314 17h70c32 0 58 27 58 59
s-26 58 -58 58h-70c-32 0 -58 -26 -58 -58s26 -59 58 -59zM175 204v-24c29 0 46 12 53 30c5 13 5 27 5 40s0 25 3 32c3 8 9 15 32 15v23c-29 0 -47 -11 -54 -29c-5 -13 -4 -28 -4 -41s-1 -25 -4 -32c-3 -8 -8 -14 -31 -14zM175 204v-24c23 0 28 -6 31 -14c3 -7 4 -19 4 -32
s-1 -28 4 -41c7 -18 25 -29 54 -29v23c-23 0 -29 7 -32 15c-3 7 -3 19 -3 32s0 27 -5 40c-7 18 -24 30 -53 30z" />
    <glyph glyph-name="grid" unicode="&#xf139;" 
d="M0 448h10h204h10v-10v-204v-10h-10h-204h-10v10v204v10zM24 424v-176h176v176h-176zM288 160h10h204h10v-10v-204v-10h-10h-204h-10v10v204v10zM312 136v-176h176v176h-176zM288 448h10h204h10v-10v-204v-10h-10h-204h-10v10v204v10zM312 424v-176h176v176h-176zM0 160
h10h204h10v-10v-204v-10h-10h-204h-10v10v204v10zM24 136v-176h176v176h-176z" />
    <glyph glyph-name="group" unicode="&#xf13a;" horiz-adv-x="527" 
d="M217 261c0 5 -1 11 -1 18c0 9 1 19 1 23c1 7 6 23 15 25c11 2 7 1 14 2c8 1 5 3 13 3c7 1 13 3 20 4c1 0 4 -3 8 -7c3 -4 6 -8 14 -8c4 0 6 1 9 1h5c6 -1 7 -10 7 -21c0 -8 2 -29 0 -38c-2 -8 2 -15 10 -16c0 -2 2 -6 2 -11c0 -4 -1 -8 -1 -9c-1 -3 0 -2 -7 -6
c-2 -1 -6 -3 -8 -5c-5 -19 -19 -31 -20 -32c-1 -3 -5 -9 -5 -23c0 -15 9 -35 37 -39c43 -7 50 -10 56 -16c0 0 2 -3 4 -8c6 -13 13 -37 17 -50h-275c2 10 5 24 9 35c5 12 10 20 12 22c8 6 15 11 58 17c29 4 36 25 36 41c0 12 -3 21 -3 21l-1 3l-3 1c0 -1 -18 12 -21 28l-3 2
c-5 2 -7 4 -7 4s-2 4 -2 6v12v9c4 1 10 4 10 12zM301 337c-5 5 -10 15 -23 15c-7 -1 -13 -3 -20 -4c-7 0 -11 -1 -14 -3c-5 -1 -3 -1 -15 -3c-22 -4 -27 -30 -28 -38c-1 -9 -1 -30 -1 -41c-13 -5 -10 -28 -8 -40c0 -2 1 -6 3 -10c3 -4 7 -7 12 -9c6 -15 17 -24 22 -28
c1 -3 2 -7 2 -13c0 -11 -3 -23 -23 -26c-43 -6 -53 -11 -64 -19c-7 -6 -13 -17 -18 -29c-6 -16 -11 -35 -11 -49l-1 -8h314c-3 11 -15 52 -23 72c-2 5 -5 10 -8 13c-10 10 -22 14 -65 20c-20 3 -23 14 -23 24c0 6 2 11 3 14c4 4 14 14 20 30c7 5 15 9 17 20
c2 13 2 32 -10 37c2 11 -1 30 -1 40c0 8 1 31 -20 35c-3 1 -6 1 -8 1c-4 0 -7 -1 -9 -1zM439 324c3 1 8 1 12 0c18 -3 17 -24 17 -29c0 -8 2 -20 1 -29c2 -1 3 -3 4 -5c4 -7 5 -19 3 -26c-2 -8 -8 -12 -13 -15c-5 -11 -13 -18 -18 -22c1 -8 4 -23 23 -26
c33 -5 41 -16 50 -24c3 -3 4 -7 5 -10c1 -4 2 -9 3 -14c2 -19 1 -19 1 -30h-107v16h91c0 4 0 8 -1 12c-1 7 -3 14 -4 15c-8 8 -10 14 -40 19c-35 5 -38 38 -37 47v4l4 2c0 -1 15 10 17 21c2 1 4 3 6 4c5 3 5 3 5 4v6c0 3 -1 6 -1 8c-5 1 -8 5 -8 10s1 7 1 15s-1 12 -1 18
c0 11 -1 14 -7 14c-2 0 -4 -1 -7 -1c-9 0 -12 8 -17 11c-5 -1 -10 -1 -15 -2c-5 0 -6 -4 -13 -4c0 0 -2 0 -7 -1s-9 -12 -10 -17c0 -3 -1 -11 -1 -18c0 -5 1 -10 1 -14c0 -7 -5 -9 -8 -10c-1 -6 0 -14 1 -18l8 -4c2 -11 15 -24 15 -23l3 -2c0 -4 1 -14 0 -21
c0 -15 -16 -43 -52 -48l-3 16c29 4 39 27 39 33v12c-4 3 -11 11 -15 21c-4 2 -6 4 -8 7c-3 4 -3 7 -3 10c-1 9 -3 26 6 31c0 9 0 23 1 30c0 5 3 14 9 22c3 4 8 8 14 9c8 2 8 1 11 1c2 1 6 4 11 4c5 1 10 1 15 2c11 0 15 -7 19 -11zM152 275v-14c0 -7 4 -10 7 -11
c1 -6 0 -15 -1 -18l-8 -4c-2 -11 -15 -23 -15 -22l-3 -2c0 -4 -1 -15 0 -22c0 -15 17 -43 53 -48l2 16c-29 4 -39 27 -39 33v12c4 3 11 11 15 21c4 2 7 4 9 7c3 4 3 8 3 11c1 9 2 25 -7 30c0 9 1 23 0 30c0 5 -3 14 -9 22c-3 4 -8 8 -14 9c-8 2 -9 2 -12 2c-2 1 -6 3 -11 3
c-5 1 -10 1 -15 2c-11 0 -15 -7 -19 -11c-3 1 -8 1 -12 0c-18 -3 -17 -24 -17 -29c0 -8 -1 -20 0 -29c-2 -1 -4 -3 -5 -5c-4 -7 -5 -18 -3 -25c2 -8 8 -13 13 -16c5 -11 14 -18 19 -22c-1 -8 -5 -22 -24 -25c-33 -5 -41 -17 -50 -25c-3 -3 -4 -7 -5 -10c-1 -4 -1 -9 -2 -14
c-2 -19 -2 -19 -2 -30h107v16h-90c1 9 1 22 3 27c0 1 2 1 3 2c5 6 11 14 39 18c35 5 38 37 37 46l-1 4l-3 2c0 -1 -15 11 -17 22c-2 1 -5 3 -7 4c-5 3 -4 2 -4 3c0 0 -1 3 -1 7c0 3 1 5 1 7c5 1 8 5 8 10s-1 7 -1 15s1 12 1 18c0 11 1 14 7 14c2 0 4 -1 7 -1c9 0 12 8 17 11
c5 -1 10 -1 15 -2c5 0 6 -3 13 -3c0 0 2 -1 7 -2s10 -11 11 -16v-18z" />
    <glyph glyph-name="handle" unicode="&#xf13b;" 
d="M0 398c0 2 0 2 2 2h508c2 0 2 0 2 -2v-60c0 -2 0 -2 -2 -2h-508c-2 0 -2 0 -2 2v60zM0 222c0 2 0 2 2 2h508c2 0 2 0 2 -2v-60c0 -2 0 -2 -2 -2h-508c-2 0 -2 0 -2 2v60zM0 46c0 2 0 2 2 2h508c2 0 2 0 2 -2v-60c0 -2 0 -2 -2 -2h-508c-2 0 -2 0 -2 2v60z" />
    <glyph glyph-name="handle-diagonal" unicode="&#xf1da;" horiz-adv-x="465" 
d="M23 -64c-5 0 -10 2 -14 5c-10 8 -12 23 -4 33l372 465c8 10 23 12 33 4s12 -23 4 -33l-373 -465c-5 -6 -11 -9 -18 -9zM256 -64c-5 0 -11 2 -15 5c-10 8 -11 23 -3 33l186 233c8 10 23 11 33 3s11 -23 3 -33l-186 -232c-5 -6 -11 -9 -18 -9z" />
    <glyph glyph-name="handle-vertical" unicode="&#xf1cf;" horiz-adv-x="357" 
d="M0 420c0 7 2 13 7 18s11 7 18 7c14 0 26 -11 26 -25v-459c0 -7 -3 -13 -8 -18s-11 -7 -18 -7c-14 0 -25 11 -25 25v459v0zM153 420c0 7 2 13 7 18s11 7 18 7c14 0 26 -11 26 -25v-459c0 -7 -3 -13 -8 -18s-11 -7 -18 -7c-14 0 -25 11 -25 25v459v0zM306 420
c0 7 2 13 7 18s11 7 18 7c14 0 26 -11 26 -25v-459c0 -7 -3 -13 -8 -18s-11 -7 -18 -7c-14 0 -25 11 -25 25v459v0z" />
    <glyph glyph-name="heart" unicode="&#xf13c;" horiz-adv-x="511" 
d="M143 412c-80 0 -143 -67 -143 -150c0 -15 6 -127 249 -288l6 -5l7 4c136 83 198 155 226 208c22 42 23 72 23 82c0 82 -63 149 -143 149c-46 0 -86 -22 -112 -57c-26 35 -67 57 -113 57z" />
    <glyph glyph-name="help" unicode="&#xf13d;" horiz-adv-x="344" 
d="M25 301v0c0 1 -1 1 -1 1h61c1 0 4 1 4 2l12 -3l-12 2c1 10 6 24 17 37c4 5 9 10 15 14c31 24 87 22 110 -8c39 -51 11 -102 -59 -140c-13 -8 -23 -21 -29 -36c-4 -10 -7 -20 -8 -31c-1 -7 -1 -13 -1 -18c0 -1 1 -1 1 -2h61c1 0 2 1 2 1l12 -1h-12c0 6 1 14 5 25
c6 17 17 34 34 49c6 5 13 10 20 15l-1 -1c6 5 24 20 26 21c28 22 37 40 37 80c0 68 -52 116 -147 116c-66 0 -106 -23 -129 -61c-8 -13 -13 -28 -16 -42c-1 -5 -2 -10 -2 -14v-5v-1zM85 277v0h-61c-14 0 -25 12 -24 26l12 -1h-12c0 5 1 13 3 23c3 17 9 34 18 50
c27 46 77 73 151 73c108 0 172 -58 172 -140c0 -48 -13 -73 -46 -99c-2 -2 -20 -15 -26 -20l-1 -1c-6 -4 -12 -8 -17 -13c-14 -13 -23 -26 -28 -39c-2 -5 -2 -9 -3 -13c0 -2 -1 -3 -1 -4v-2c-1 -13 -13 -23 -26 -23h-61c-14 0 -25 12 -25 24v2c-1 18 1 39 10 60
c8 20 20 35 39 47c59 33 79 68 52 104c-14 18 -54 20 -75 4c-4 -3 -8 -7 -11 -11c-5 -6 -8 -11 -10 -17c-1 -3 -2 -7 -2 -8v-1c-3 -12 -16 -21 -28 -21zM234 -3v0c0 -34 -28 -61 -62 -61s-61 27 -61 61s27 61 61 61s62 -27 62 -61zM135 -3v0c0 -20 17 -37 37 -37
s37 17 37 37s-17 37 -37 37s-37 -17 -37 -37z" />
    <glyph glyph-name="help-nav" unicode="&#xf20e;" horiz-adv-x="427" 
d="M213 -21c-116 0 -213 96 -213 213c0 116 97 213 213 213c117 0 214 -97 214 -213c0 -117 -97 -213 -214 -213zM209 147c11 0 18 6 18 15v3c0 12 8 20 23 30c21 14 36 27 36 53c0 36 -33 56 -70 56c-38 0 -63 -18 -69 -38c-1 -4 -1 -7 -1 -11c0 -10 8 -15 15 -15
c13 0 14 7 21 15c7 12 18 19 33 19c20 0 33 -10 33 -27c0 -15 -10 -23 -29 -36c-16 -11 -27 -22 -27 -44v-3c0 -11 6 -17 17 -17zM210 84c12 0 24 9 24 22s-12 23 -24 23s-23 -10 -23 -23s11 -22 23 -22z" />
    <glyph glyph-name="history" unicode="&#xf13e;" 
d="M256 -64v0c-141 0 -256 115 -256 256s115 256 256 256s256 -115 256 -256s-115 -256 -256 -256zM256 -32c124 0 224 100 224 224s-100 224 -224 224s-224 -100 -224 -224s100 -224 224 -224v0zM288 352v0v-208h-160v32h128v176h32z" />
    <glyph glyph-name="home-screens" unicode="&#xf1bb;" 
d="M478 73h-444c-19 0 -34 15 -34 34v307c0 19 15 34 34 34h444c19 0 34 -15 34 -34v-307c0 -19 -15 -34 -34 -34zM34 431c-9 0 -17 -8 -17 -17v-307c0 -9 8 -17 17 -17h444c9 0 17 8 17 17v307c0 9 -8 17 -17 17h-444zM205 90h-68v17h68v-17zM119 90h-17v34h-34v-34h-17v51
h68v-51zM307 175h68v-68h-68v68zM358 124v34h-34v-34h34zM205 209v-85h-68v85h68zM188 141v51h-34v-51h34zM222 243h68v-119h-68v119zM273 141v85h-34v-85h34zM393 209h68v-68h-68v68zM444 158v34h-34v-34h34zM51 243h68v-85h-68v85zM102 175v51h-34v-51h34zM307 329h68
v-137h-68v137zM358 209v103h-34v-103h34zM137 329h68v-103h-68v103zM188 243v69h-34v-69h34zM393 329h68v-103h-68v103zM444 244v68h-34v-68h34zM51 329h68v-69h-68v69zM102 278v34h-34v-34h34zM222 329h68v-69h-68v69zM273 278v34h-34v-34h34zM222 90v17h68v-17h-68z
M393 124h68v-34h-17v17h-34v-17h-17v34zM51 397v17h17v-17h-17zM85 397v17h17v-17h-17zM119 397v17h18v-17h-18zM17 363v17h478v-17h-478z" />
    <glyph glyph-name="hubspot" unicode="&#xf13f;" horiz-adv-x="456" 
d="M327 211v0v0h-1c-12 0 -25 -3 -35 -10c-11 -7 -18 -17 -24 -28c-6 -10 -9 -20 -9 -32v-4c1 -12 5 -23 12 -33s16 -18 27 -24c10 -5 20 -7 30 -7h3c18 1 33 9 47 24c12 13 18 28 18 44v7c-1 12 -5 22 -11 32s-15 18 -25 24c-10 5 -21 7 -32 7zM327 269v0v0h2
c23 0 44 -6 64 -18s36 -28 47 -47s16 -40 16 -63v-1c-1 -23 -7 -44 -19 -63s-27 -34 -47 -45c-19 -10 -39 -16 -60 -16h-4c-19 1 -37 5 -53 12s-29 16 -41 28s-20 26 -26 42c-5 14 -7 29 -7 45v4c1 23 6 44 18 63s28 32 48 43c19 10 39 16 62 16zM268 253v0v0l-30 -19
l-149 109l-11 8c-8 -5 -17 -7 -27 -7c-28 0 -51 23 -51 52s23 52 51 52s52 -23 52 -52c0 -5 -1 -10 -2 -14c53 -41 145 -112 167 -129zM252 46v0l7 -4s-1 -1 -7 4zM158 -6l25 -25l74 74l-25 25l-74 -74zM133 5c-8 -8 -12 -18 -12 -29s4 -20 12 -28s18 -12 29 -12s20 4 28 12
s12 17 12 28s-4 21 -12 29s-17 11 -28 11s-21 -3 -29 -11zM348 261v67c16 7 27 24 27 43c0 26 -21 48 -46 48s-46 -22 -46 -48c0 -19 11 -36 27 -43v-67h38z" />
    <glyph glyph-name="ibooks" unicode="&#xf198;" 
d="M388 404v0c96 0 115 -56 115 -56c5 -9 9 -24 9 -34v-278c0 -10 -7 -14 -16 -9c0 0 -43 30 -108 30c-100 0 -117 -70 -117 -70c-4 -9 -6 -9 -6 1v316c0 10 4 26 8 35c0 0 19 65 115 65zM124 404c96 0 115 -61 115 -61c5 -9 8 -24 8 -34v-321c0 -10 -2 -10 -6 -1
c0 0 -17 72 -117 72c-65 0 -109 -35 -109 -35c-8 -6 -15 -2 -15 8v286c0 10 3 26 9 34c0 0 19 52 115 52v0z" />
    <glyph glyph-name="image" unicode="&#xf141;" 
d="M425 265c0 -33 -27 -60 -61 -60s-60 27 -60 60s26 59 60 59s61 -26 61 -59zM16 55l152 157l146 -151l80 82l102 -105v-22h-480v39v0zM0 384h512v-384h-512v384v0v0zM16 368v0v0v-352h480v352h-480z" />
    <glyph glyph-name="indent" unicode="&#xf1a0;" 
d="M77 167v0h-77v50h77v51l77 -76l-77 -76v51zM128 344h384v-38h-384v38v0zM205 167h307v-38h-307v38v0zM205 255h307v-38h-307v38v0zM128 78h384v-38h-384v38v0z" />
    <glyph glyph-name="info" unicode="&#xf142;" 
d="M256 -64v0c-141 0 -256 115 -256 256s115 256 256 256s256 -115 256 -256s-115 -256 -256 -256zM256 -30c123 0 222 99 222 222s-99 222 -222 222s-222 -99 -222 -222s99 -222 222 -222v0zM209 250v0h70v-186h24v-12h-94v12h24v175h-24v11zM250 285v0
c-16 0 -29 13 -29 29s13 29 29 29s29 -13 29 -29s-13 -29 -29 -29z" />
    <glyph glyph-name="info-fill" unicode="&#xf1d2;" 
d="M0 192c0 141 115 256 256 256s256 -115 256 -256s-115 -256 -256 -256s-256 115 -256 256zM237 237v-181h38v181h-38zM256 335c-17 0 -30 -13 -30 -30s13 -30 30 -30s30 13 30 30s-13 30 -30 30z" />
    <glyph glyph-name="ipad" unicode="&#xf143;" horiz-adv-x="353" 
d="M11 -41c0 -6 6 -12 12 -12h307c6 0 12 6 12 12v466c0 6 -6 12 -12 12h-307c-6 0 -12 -6 -12 -12v-466v0zM23 448h307c13 0 23 -10 23 -23v-466c0 -13 -10 -23 -23 -23h-307c-13 0 -23 10 -23 23v466c0 13 10 23 23 23v0zM0 380v0h353l-11 11v-398l11 11h-353l11 -11v398z
M353 391v-398h-353v398h353v0zM165 -30c0 6 5 12 11 12s12 -6 12 -12s-6 -11 -12 -11s-11 5 -11 11z" />
    <glyph glyph-name="italic" unicode="&#xf1a6;" horiz-adv-x="192" 
d="M0 -64l109 512h83l-109 -512h-83z" />
    <glyph glyph-name="jive" unicode="&#xf144;" 
d="M512 218l-103 -7s1 -18 21 -25c22 -8 52 1 52 1l26 -34s-19 -10 -58 -10c-50 0 -88 28 -91 79c0 7 0 14 1 21c65 2 109 7 109 7s1 14 -12 21c-7 4 -19 6 -24 5c-3 0 -28 -4 -64 -6c13 24 38 42 70 42c48 0 65 -31 71 -59c3 -14 2 -35 2 -35v0v0zM306 309v0v0h55l-64 -164
h-48l-39 102c17 -1 35 -2 54 -2l10 -32zM245 309v0v0l14 -42c-19 0 -37 1 -55 1l-16 41h57zM162 270v0v0c-18 1 -35 1 -51 2v37h51v-39zM111 256v0v0c15 -2 32 -4 51 -5v-103h-51v108zM77 275v0v0c-24 2 -42 4 -51 5v29h51v-34zM77 259v0v0v-129s0 -14 -7 -26
s-16 -19 -29 -25c-11 -5 -22 -7 -22 -7l-19 41s12 2 20 11c6 7 5 17 5 17v126c8 -1 26 -5 52 -8z" />
    <glyph glyph-name="keyhole" unicode="&#xf1bc;" horiz-adv-x="509" 
d="M256 -64c-141 0 -256 115 -256 256c0 71 29 135 75 181c46 45 109 72 178 72c141 0 256 -115 256 -256c0 -69 -27 -132 -72 -178c-46 -46 -110 -75 -180 -75h-1zM256 428c-130 0 -236 -106 -236 -236c0 -65 26 -124 69 -167c43 -44 102 -71 168 -71
c130 0 237 106 237 236c0 66 -27 126 -71 169c-43 43 -101 69 -166 69h-1zM192 64l6 25c4 17 8 33 12 50c3 14 6 25 7 33v1c-24 14 -40 39 -40 68c0 43 36 79 79 79v0v0v0c43 0 79 -36 79 -79c0 -28 -15 -52 -37 -66v-2c2 -11 5 -23 7 -34c3 -16 6 -32 10 -47
c0 -1 1 -2 1 -3l6 -24zM256 300v0v0c-33 0 -59 -26 -59 -59c0 -24 14 -45 35 -54l6 -3v-7c0 -2 -1 -5 -2 -8c-1 -8 -3 -20 -6 -34c-4 -17 -9 -34 -13 -51v0h80v0c0 1 -1 3 -1 4c-4 16 -7 31 -10 47c-2 11 -5 23 -7 35c-1 3 -2 5 -2 8l-1 7l7 4c19 10 32 29 32 52
c0 33 -26 59 -59 59v0z" />
    <glyph glyph-name="keynote" unicode="&#xf145;" horiz-adv-x="424" 
d="M395 380h-366c-4 0 -8 -3 -8 -8l-8 -171c0 -5 3 -9 8 -9h382c5 0 8 4 8 9l-8 171c0 5 -4 8 -8 8zM416 166h-408c-5 0 -8 4 -8 9s3 8 8 8h408c5 0 8 -3 8 -8s-3 -9 -8 -9zM212 -64v0c-5 0 -8 4 -8 9v196c0 5 3 8 8 8s8 -3 8 -8v-196c0 -5 -3 -9 -8 -9zM310 -64h-196
c-5 0 -8 4 -8 9s3 8 8 8h196c5 0 8 -3 8 -8s-3 -9 -8 -9zM140 427c0 12 17 21 38 21s38 -9 38 -21s-17 -22 -38 -22s-38 10 -38 22zM178 431h-102c-7 0 -12 -6 -12 -13v-43h8v43c0 2 2 4 4 4h102v9z" />
    <glyph glyph-name="launch" unicode="&#xf1e5;" horiz-adv-x="419" 
d="M349 192h23v-105c0 -45 -36 -81 -81 -81h-210c-45 0 -81 36 -81 81v210v0c0 45 36 81 81 81v0h105v-23h-105v0c-32 0 -58 -26 -58 -58v-210c0 -32 26 -58 58 -58h210c32 0 58 26 58 58v105v0zM268 425h151v-152h-23v112l-198 -198l-17 17l198 197h-111v24z" />
    <glyph glyph-name="learning" unicode="&#xf1df;" 
d="M28 125h456v295h-456v-295zM498 448v0c8 0 14 -6 14 -14v-323c0 -8 -6 -14 -14 -14h-484c-8 0 -14 6 -14 14v323c0 7 6 13 13 14h1h484zM342 11h-172c-8 0 -13 6 -13 14s5 13 13 13h33v37c0 8 5 13 13 13s14 -5 14 -13v-37h52v37c0 8 6 13 14 13s13 -5 13 -13v-37h33
c8 0 13 -5 13 -13s-5 -14 -13 -14zM256 260l115 45l-115 45l-115 -45zM339 227v39l-78 -31c-3 -1 -7 -1 -10 0l-78 31v-39s1 -2 3 -3c4 -3 10 -5 17 -8c18 -6 40 -10 63 -10s45 4 63 10c7 3 13 5 17 8c2 1 3 3 3 3zM409 316v0c4 -2 7 -6 7 -11s-3 -9 -7 -11l-46 -18v-51
c0 -11 -9 -18 -12 -20c-6 -5 -14 -9 -24 -12c-20 -7 -45 -12 -71 -12s-51 5 -71 12c-10 3 -18 7 -24 12c-3 2 -12 9 -12 20v51l-46 17c-4 2 -7 7 -7 12s3 9 7 11l148 58c2 1 6 2 10 0z" />
    <glyph glyph-name="leftArrow" unicode="&#xf202;" horiz-adv-x="235" 
d="M180 385c12 12 33 12 45 0s12 -33 0 -45l-148 -148l148 -148c12 -12 12 -33 0 -45s-33 -12 -45 0l-171 170c-12 12 -12 34 0 46z" />
    <glyph glyph-name="like" unicode="&#xf146;" horiz-adv-x="453" 
d="M365 381c0 -33 -25 -69 -41 -91c-5 -7 -9 -12 -12 -19c-1 -3 -3 -9 -1 -13c2 -7 7 -9 9 -10c3 -2 6 -2 9 -3c7 -2 15 -3 24 -4c19 -3 42 -7 57 -13c13 -5 14 -10 14 -11c0 -14 -12 -80 -29 -140c-7 -27 -16 -53 -24 -73c-7 -16 -14 -29 -19 -35l-1 -3
c-46 0 -101 9 -144 22c-19 6 -36 12 -48 19c-12 6 -17 11 -21 17v182s1 3 4 8c4 6 11 13 20 20c25 22 59 43 87 62c36 25 64 63 85 91c9 12 17 21 22 27c7 -11 9 -22 9 -33zM346 271c16 23 47 63 47 110c0 20 -6 40 -21 59c-3 4 -8 7 -14 7s-10 -2 -13 -4
c-4 -3 -7 -6 -10 -9c-7 -8 -15 -18 -24 -30c-21 -28 -48 -63 -78 -84c-29 -20 -62 -40 -90 -64c-10 -8 -18 -17 -24 -26c-5 -7 -9 -15 -9 -24v-182c0 -14 10 -24 20 -32c13 -10 31 -19 52 -26c48 -17 113 -28 169 -28c9 0 14 5 19 9c6 6 11 13 16 22c11 20 21 47 30 77
c21 68 37 147 37 171c0 21 -19 32 -33 38c-24 10 -50 11 -74 16zM0 181c0 73 70 86 87 86s-31 -18 -31 -65v-160c0 -45 48 -70 31 -70s-87 7 -87 80v129z" />
    <glyph glyph-name="like-fill" unicode="&#xf147;" horiz-adv-x="439" 
d="M362 431c56 -71 -40 -158 -37 -168s114 -9 114 -46c0 -36 -52 -266 -88 -266c-98 0 -227 38 -227 72v183c0 28 82 78 117 102c63 44 108 140 121 123zM0 181c0 73 70 86 87 86s-31 -18 -31 -65v-160c0 -45 48 -70 31 -70s-87 7 -87 80v129z" />
    <glyph glyph-name="link" unicode="&#xf148;" 
d="M501 282l-117 -116c-15 -15 -39 -15 -54 0l-20 19l41 40c8 -5 19 -4 26 3l67 68c8 8 8 21 0 29l-55 55c-8 8 -21 8 -29 0l-68 -67c-7 -7 -8 -18 -3 -26l-40 -41l-19 20c-15 15 -15 39 0 54l116 117c15 15 40 15 55 0l100 -100c15 -15 15 -40 0 -55zM282 118
c15 -15 15 -39 0 -54l-116 -117c-15 -15 -40 -15 -55 0l-100 100c-15 15 -15 40 0 55l117 116c15 15 39 15 54 0l20 -19l-35 -34c-8 5 -19 4 -26 -3l-67 -68c-8 -8 -8 -22 0 -30l54 -54c8 -8 22 -8 30 0l68 67c7 7 8 18 3 26l34 35zM360 257l-163 -163c-6 -6 -18 -6 -24 0
l-15 15c-6 6 -6 18 0 24l163 163c6 6 18 6 24 0l15 -15c6 -6 6 -18 0 -24z" />
    <glyph glyph-name="linkedin" unicode="&#xf149;" 
d="M0 411c0 20 17 37 38 37h436c21 0 38 -17 38 -37v-438c0 -20 -17 -37 -38 -37h-436c-21 0 -38 17 -38 37v438v0zM78 20h77v231h-77v-231v0zM117 283c27 0 43 17 43 39c0 23 -17 40 -43 40s-43 -17 -43 -40c0 -22 16 -39 42 -39h1v0zM198 20h76v129c0 7 1 14 3 19
c6 14 18 28 39 28c28 0 39 -21 39 -52v-124h77v133c0 71 -39 103 -89 103c-41 0 -59 -22 -69 -38v0v33h-76c1 -22 0 -231 0 -231v0z" />
    <glyph glyph-name="list" unicode="&#xf14a;" 
d="M0 432h10h492h10v-8v-112v-8h-10h-492h-10v8v112v8zM20 410v-84h472v84h-472zM0 252h10h492h10v-8v-112v-8h-10h-492h-10v8v112v8zM20 230v-84h472v84h-472zM0 72h10h492h10v-8v-112v-8h-10h-492h-10v8v112v8zM20 50v-84h472v84h-472z" />
    <glyph glyph-name="location" unicode="&#xf14b;" 
d="M239 -64v239h-239l512 273l-273 -512v0z" />
    <glyph glyph-name="lock" unicode="&#xf14c;" horiz-adv-x="374" 
d="M208 67c16 8 27 24 27 43c0 27 -21 48 -48 48s-48 -21 -48 -48c0 -19 11 -35 27 -43v-40c0 -12 9 -21 21 -21s21 9 21 21v40zM42 227v76c0 80 65 145 145 145s145 -65 145 -145v-76h42v-291h-374v291h42zM97 310v-83h179l1 83c1 46 -36 83 -82 83h-15
c-46 0 -83 -37 -83 -83z" />
    <glyph glyph-name="me-nav" unicode="&#xf20f;" horiz-adv-x="320" 
d="M232 131c17 12 42 15 55 -1c16 -21 28 -46 33 -74c4 -19 -13 -35 -33 -35h-254c-20 0 -37 16 -33 35c5 28 17 53 33 74c13 16 38 13 55 1c20 -14 44 -23 72 -23s52 9 72 23zM253 240c0 -56 -42 -101 -93 -101s-93 45 -93 101s42 101 93 101s93 -45 93 -101z" />
    <glyph glyph-name="meeting" unicode="&#xf14d;" 
d="M256 -64v0c-141 0 -256 115 -256 256s115 256 256 256s256 -115 256 -256s-115 -256 -256 -256zM282 358h-26v-179h-128v-25h154v204v0z" />
    <glyph glyph-name="microphone" unicode="&#xf14e;" horiz-adv-x="312" 
d="M169 -38v0h65v-26h-156v26h65v89h26v-89zM0 243v0h26v-19v-31c6 -65 63 -116 130 -116c72 0 130 57 130 128v38h26v-38c0 -85 -70 -154 -156 -154c-81 0 -149 61 -156 140v33v19zM156 448c57 0 104 -46 104 -102v-141c0 -56 -47 -103 -104 -103s-104 47 -104 103v141
c0 56 47 102 104 102v0zM78 205c0 -42 35 -77 78 -77s78 35 78 77v141c0 42 -35 76 -78 76s-78 -34 -78 -76v-141v0z" />
    <glyph glyph-name="microphone-fill" unicode="&#xf19a;" horiz-adv-x="312" 
d="M169 -38v0h65v-26h-156v26h65v89h26v-89zM0 243v0h26v-19v-31c6 -65 63 -116 130 -116c72 0 130 57 130 128v38h26v-38c0 -85 -70 -154 -156 -154c-81 0 -149 61 -156 140v33v19zM156 448c57 0 104 -46 104 -102v-141c0 -56 -47 -103 -104 -103s-104 47 -104 103v141
c0 56 47 102 104 102v0z" />
    <glyph glyph-name="minus" unicode="&#xf1d5;" 
d="M0 176v32h512v-32h-512z" />
    <glyph glyph-name="mobile" unicode="&#xf14f;" horiz-adv-x="278" 
d="M15 -35c0 -8 6 -14 14 -14h220c8 0 14 6 14 14v454c0 8 -6 14 -14 14h-220c-8 0 -14 -6 -14 -14v-454v0zM29 448h220c16 0 29 -13 29 -29v-454c0 -16 -13 -29 -29 -29h-220c-16 0 -29 13 -29 29v454c0 16 13 29 29 29v0zM0 360v0h278l-15 15v-366l15 15h-278l15 -15v366z
M278 375v-366h-278v366h278v0zM124 -20c0 8 7 15 15 15s15 -7 15 -15s-7 -15 -15 -15s-15 7 -15 15z" />
    <glyph glyph-name="more" unicode="&#xf150;" 
d="M64 128v0c-35 0 -64 29 -64 64s29 64 64 64s64 -29 64 -64s-29 -64 -64 -64zM64 149c24 0 43 19 43 43s-19 43 -43 43s-43 -19 -43 -43s19 -43 43 -43v0zM256 128v0c-35 0 -64 29 -64 64s29 64 64 64s64 -29 64 -64s-29 -64 -64 -64zM256 149c24 0 43 19 43 43
s-19 43 -43 43s-43 -19 -43 -43s19 -43 43 -43v0zM448 128v0c-35 0 -64 29 -64 64s29 64 64 64s64 -29 64 -64s-29 -64 -64 -64zM448 149c24 0 43 19 43 43s-19 43 -43 43s-43 -19 -43 -43s19 -43 43 -43v0z" />
    <glyph glyph-name="more-fill" unicode="&#xf151;" 
d="M63 128v0c-35 0 -63 29 -63 64s28 64 63 64s63 -29 63 -64s-28 -64 -63 -64zM256 128v0c-35 0 -63 29 -63 64s28 64 63 64s63 -29 63 -64s-28 -64 -63 -64zM449 128v0c-35 0 -63 29 -63 64s28 64 63 64s63 -29 63 -64s-28 -64 -63 -64z" />
    <glyph glyph-name="move" unicode="&#xf1e0;" 
d="M506 207l-5 5v1h-2l-67 68l-30 -30l37 -38h-161v162l36 -37l31 30l-67 68v0h-1l-5 6c-4 4 -10 6 -16 6s-11 -2 -15 -6l-6 -6v0v-1l-68 -67l30 -30l38 37v-162h-162l37 38l-30 30l-67 -68h-1v-1l-6 -5c-4 -4 -6 -9 -6 -15s2 -12 6 -16l6 -5v-1h1l67 -67l30 31l-37 36h162
v-161l-38 37l-30 -30l68 -67v-1v0l6 -6c4 -4 9 -6 15 -6s12 2 16 6l5 6h1v1l67 67l-31 30l-36 -37v161h161l-37 -36l30 -31l67 67h2v2l5 4c4 4 6 10 6 16s-2 11 -6 15z" />
    <glyph glyph-name="music" unicode="&#xf152;" horiz-adv-x="390" 
d="M364 447v0c16 3 26 -7 26 -19v-297v-1v-70c0 -35 -26 -59 -63 -66c-35 -6 -69 7 -77 33c-8 25 -2 44 14 58c13 11 32 18 55 20c20 2 36 7 46 14c5 3 8 7 10 10c1 1 1 2 1 3v238l-233 -40v-103v-42v-109v-1v-70c0 -35 -26 -59 -63 -66c-35 -6 -68 7 -76 33
c-8 25 -3 44 13 58c13 11 33 18 56 20c20 2 35 7 45 14c5 3 8 7 10 10c1 1 1 2 1 3v0v108v42v111v35v13c0 9 4 16 10 20c4 3 9 5 17 6c6 1 71 12 104 17c1 0 0 1 1 1c59 10 97 16 103 17zM78 -47v0c31 5 51 25 51 53v50c-1 -1 -3 -2 -4 -3c-12 -8 -29 -14 -51 -17
c-46 -5 -68 -24 -57 -60c6 -18 32 -28 61 -23zM143 345v0l233 39v44c0 4 -2 6 -9 5c-6 -1 -43 -7 -103 -17c-1 0 -1 -1 -2 -1c-33 -5 -98 -16 -104 -17c-12 -2 -15 -4 -15 -12v-13v-28zM325 8v0c31 5 51 25 51 52v51c-1 -1 -3 -2 -4 -3c-12 -8 -29 -14 -51 -17
c-46 -5 -68 -24 -57 -60c6 -18 32 -28 61 -23z" />
    <glyph glyph-name="nav-chevron" unicode="&#xf21c;" horiz-adv-x="140" 
d="M0 360l19 13l121 -181l-121 -181l-19 13l112 168z" />
    <glyph glyph-name="next" unicode="&#xf153;" horiz-adv-x="320" 
d="M61 448l259 -256l-259 -256l-61 60l198 196l-198 196z" />
    <glyph glyph-name="nextPage" unicode="&#xf154;" 
d="M28 377v0v-370c0 -24 19 -43 43 -43h370c24 0 43 19 43 43v370c0 24 -19 43 -43 43h-370c-24 0 -43 -19 -43 -43zM0 7v370c0 39 32 71 71 71h370c39 0 71 -32 71 -71v-370c0 -39 -32 -71 -71 -71h-370c-39 0 -71 32 -71 71zM196 277c0 16 10 19 21 9l95 -85
c6 -5 6 -13 0 -18l-95 -85c-12 -10 -21 -7 -21 9v170v0z" />
    <glyph glyph-name="none" unicode="&#xf155;" horiz-adv-x="312" 
d="M158 448c92 0 154 -54 154 -129c0 -54 -27 -92 -73 -120c-45 -26 -58 -44 -58 -80v-22h-72v28c-2 49 19 80 67 109c42 25 57 46 57 82c0 39 -31 68 -79 68s-79 -29 -82 -75h-72c3 79 57 139 158 139v0v0zM100 -19c0 25 21 45 46 45c26 0 46 -20 46 -45s-20 -45 -46 -45
c-25 0 -46 20 -46 45v0v0z" />
    <glyph glyph-name="note" unicode="&#xf156;" 
d="M23 378v0v-371c0 -26 21 -47 47 -47h371c26 0 47 21 47 47v371c0 26 -21 47 -47 47h-371c-26 0 -47 -21 -47 -47v0zM0 378c0 39 31 70 70 70h372c39 0 70 -31 70 -70v-372c0 -39 -31 -70 -70 -70h-372c-39 0 -70 31 -70 70v372v0zM104 238h302v-23h-302v23zM104 309h302
v-23h-302v23zM104 169h302v-23h-302v23zM104 99h186v-23h-186v23z" />
    <glyph glyph-name="note-fill" unicode="&#xf157;" 
d="M0 422c0 14 12 26 26 26h460c14 0 26 -12 26 -26v-460c0 -14 -12 -26 -26 -26h-460c-14 0 -26 12 -26 26v460v0zM77 371v0v-25h333v25h-333zM77 294v0v-25h281v25h-281zM77 218v0v-26h307v26h-307zM77 141v0v-26h333v26h-333zM77 64v0v-26h256v26h-256z" />
    <glyph glyph-name="notifications" unicode="&#xf158;" 
d="M266 367v0v-27h-158c-45 0 -81 -36 -81 -81v-215c0 -45 36 -81 81 -81h215c45 0 81 36 81 81v51v76v31h27v-107v-51c0 -60 -49 -108 -108 -108h-215c-59 0 -108 49 -108 108v215c0 59 48 108 108 108h158zM418 259v0c-52 0 -95 43 -95 95s43 94 95 94s94 -42 94 -94
s-42 -95 -94 -95z" />
    <glyph glyph-name="notifications-nav" unicode="&#xf210;" horiz-adv-x="384" 
d="M384 93c0 -18 -14 -29 -35 -29h-314c-22 0 -35 11 -35 29c0 20 18 37 36 53c15 13 18 38 21 67c4 66 26 111 76 128c8 25 30 43 59 43s51 -18 59 -43c49 -17 72 -62 76 -128v-1c3 -29 6 -53 21 -66c18 -16 36 -33 36 -53zM256 43c0 -24 -29 -43 -64 -43s-64 19 -64 43
h128z" />
    <glyph glyph-name="numbers" unicode="&#xf159;" 
d="M371 2h-98c-5 0 -8 4 -8 9v396c0 5 3 9 8 9h98c5 0 9 -4 9 -9v-396c0 -5 -4 -9 -9 -9zM503 2h-98c-5 0 -8 4 -8 9v267c0 5 3 9 8 9h98c5 0 9 -4 9 -9v-267c0 -5 -4 -9 -9 -9zM239 2h-98c-5 0 -9 4 -9 9v181c0 5 4 9 9 9h98c5 0 8 -4 8 -9v-181c0 -5 -3 -9 -8 -9zM107 0
h-98c-5 0 -9 4 -9 9v69c0 5 4 9 9 9h98c5 0 8 -4 8 -9v-69c0 -5 -3 -9 -8 -9zM503 -32h-494c-5 0 -9 4 -9 9s4 8 9 8h494c5 0 9 -3 9 -8s-4 -9 -9 -9z" />
    <glyph glyph-name="onedrive" unicode="&#xf15a;" 
d="M385 249c-3 0 -10 -1 -16 -3l-12 -3l-10 11c-30 29 -78 35 -119 15c-16 -8 -30 -19 -40 -34c-7 -11 -16 -31 -16 -36c0 -4 -3 -5 -15 -9c-38 -12 -61 -41 -61 -77c0 -13 4 -30 9 -39c2 -4 3 -7 2 -8s-48 -1 -55 1c-18 4 -38 20 -47 38c-5 10 -5 12 -5 30c0 17 1 20 5 29
c9 18 24 31 45 36c4 1 8 3 9 4s2 6 2 12c1 36 25 68 58 78c18 6 41 5 61 -3c6 -2 6 -3 19 14c8 10 23 23 36 29c14 7 29 10 46 10c48 0 90 -30 105 -76c5 -15 5 -19 -1 -19v0v0zM512 87c-2 -20 -10 -35 -25 -43l-7 -4h-152c-117 0 -154 0 -160 2c-31 8 -49 32 -49 68
c0 12 1 18 4 25c7 18 26 32 51 37c12 3 16 6 16 12c0 2 1 8 3 13c8 24 24 44 40 52c17 8 26 10 46 10c29 0 43 -7 63 -28l11 -12l10 4c48 17 97 -11 101 -59l1 -13l9 -4c27 -10 40 -30 38 -60v0v0z" />
    <glyph glyph-name="oomph" unicode="&#xf15b;" 
d="M508 200c0 -2 0 -5 -1 -7v-16c-1 -3 -2 -7 -3 -10c0 -4 1 -7 0 -11c1 -3 2 -7 1 -11c2 -6 1 -13 -2 -18h-2c1 -3 -1 -6 -2 -9c-2 -8 -4 -15 -7 -23c0 -1 0 -3 -1 -4l-1 1c0 -2 -1 -5 -3 -5c0 -5 -5 -7 -7 -11c-2 -3 -2 -7 -6 -8c1 -2 -1 -5 -3 -6c0 -1 -1 -2 -2 -2
c-3 -4 -7 -8 -10 -13c0 -2 -2 -2 -4 -2s-4 -3 -3 -5c-1 -1 -2 -4 -4 -3c-4 -3 -6 -8 -5 -13c-2 0 -3 1 -5 1c-3 -2 -5 -6 -9 -6c0 2 1 2 2 3c1 2 1 4 2 6c-3 -2 -5 -5 -6 -8c0 -3 -4 -4 -6 -6c-1 -2 -3 -4 -5 -5v-1c-1 -8 -5 -16 -13 -18c1 4 5 5 7 9l-1 2
c-2 -2 -4 -4 -6 -5c-2 -2 -4 -5 -7 -4c-1 -1 -3 -1 -3 -2s1 -2 1 -3c-1 -1 -3 -2 -5 -3c-3 -2 -4 -6 -7 -6c-1 2 1 4 2 5c0 1 -1 3 -1 4c-1 -2 -2 -3 -3 -5h-3c-3 -4 -9 -4 -13 -3c-2 -2 -6 -4 -9 -5c0 -1 1 -3 1 -4c2 -1 5 1 6 -2c-1 -1 -2 -3 -4 -4l-1 1l-6 -3l2 -2
c-4 -3 -9 -5 -14 -6c-1 -4 -6 -3 -9 -4c-4 -1 -8 0 -11 -3c-6 -5 -14 0 -20 -5c-5 -2 -10 0 -15 0c-2 -1 -4 -1 -6 0c-15 -4 -30 -1 -45 -1c-2 0 -5 -1 -6 1c-3 -1 -6 2 -8 3c-2 0 -3 -1 -5 -1c-3 0 -8 1 -11 2c-6 2 -12 0 -17 4c-4 0 -7 3 -11 3c-3 1 -7 0 -8 3
c-3 0 -6 2 -9 3c-4 -1 -8 3 -12 5c-2 0 -3 -1 -5 -1c-3 0 -7 0 -8 3s-5 2 -6 4c-7 -1 -10 8 -12 13c-5 2 -13 2 -16 8l-1 -1c-3 3 -7 6 -8 10c-5 4 -9 8 -13 12c0 1 -1 1 -1 2c-5 2 -6 7 -9 10c-5 5 -6 13 -13 16c0 2 -1 3 -1 5c-3 2 -4 7 -7 8c-4 2 -11 2 -11 8h-1v3
c-2 2 -3 5 -5 8l-1 -1v3c-3 1 -5 5 -4 8c-2 1 -4 1 -6 2l2 2c-1 1 -1 2 -2 3v6v1c-2 3 -2 7 -2 11c-1 4 -4 7 -5 11c0 2 2 4 2 6c2 6 -3 10 -4 15c0 5 -4 9 -4 14c-1 3 0 7 -2 10s-1 7 -2 10c0 4 -2 9 1 12c-1 6 0 13 1 19c-1 2 0 5 0 7v6c-1 5 2 9 4 13c3 10 4 21 7 31v1
c1 2 2 5 4 6c1 4 3 8 4 12c2 3 4 4 7 6c0 1 1 2 1 3l1 1c-1 4 -3 11 2 14c2 3 3 7 4 10c1 5 8 4 9 9c1 1 0 3 2 3l1 2c0 4 2 8 5 10c3 6 8 11 13 15c0 4 4 6 6 8c3 2 5 6 8 8v2c7 6 15 11 21 18c10 7 20 14 31 20h1c0 -1 1 -2 1 -3c3 1 4 3 7 3c2 4 9 5 8 10h1c2 4 7 5 11 6
s6 5 10 6c3 2 7 2 10 4c3 6 12 2 17 5c7 -1 12 3 19 1l1 -1c6 4 13 0 20 1c2 2 5 -1 8 1s7 3 9 0c3 0 6 -2 9 -2v-2h-3c1 -1 3 -1 5 -2c2 1 4 0 6 -1c3 2 6 2 9 1c5 -1 11 -2 12 -7c-3 -1 -6 2 -9 2c-1 -5 6 -4 9 -3s6 1 9 -1c6 0 10 -3 16 -3c-2 5 -9 2 -11 6
c10 -2 20 -5 30 -8c11 -4 22 -8 32 -15c7 -6 16 -9 22 -16c3 -4 7 -5 11 -7c3 -3 8 -6 11 -9c0 -1 -1 -2 -1 -3c4 -2 6 -5 10 -8c1 -1 4 -2 5 -4c4 0 7 -3 10 -5c3 -1 5 -5 6 -8h1h1c4 -3 10 -6 14 -10h1v-2c3 -4 7 -7 9 -11v-2c-1 -5 5 -7 6 -12c0 -1 -2 -2 -2 -2
c4 -4 10 -9 11 -15l2 -1c2 -3 -1 -5 -2 -7c0 -6 3 -11 5 -17v-1c2 -2 1 -5 1 -7c2 -2 3 -7 2 -10c4 -4 2 -9 3 -13l1 -1c-1 4 0 7 0 11c5 -1 4 -8 1 -11c1 -2 2 -6 5 -6c1 3 1 7 3 9c2 -2 0 -5 1 -7c2 -5 0 -9 -1 -14c2 -2 4 -4 3 -7c2 -1 2 -3 1 -5h2c1 -3 -3 -4 -4 -6v0v0
zM374 -27v0v0c2 1 4 2 6 2c0 -3 -4 -4 -6 -6c-6 -2 -11 -7 -17 -9c2 3 6 3 8 5c3 3 8 4 9 8zM318 10c5 -2 9 4 14 5c4 1 6 7 11 7c2 3 5 5 7 8c-4 1 -9 1 -13 2c-6 2 -11 0 -16 -2c2 4 6 7 10 7c7 1 15 0 22 -1c1 0 1 1 2 1c1 1 3 1 4 2c-5 1 -10 3 -15 3v2c9 -1 17 1 26 3
c1 1 2 3 4 4c1 0 2 1 3 1l8 8c4 3 8 4 10 9c3 5 6 9 9 13c2 4 2 8 5 12s5 8 5 13c0 4 3 6 5 8v3c-1 0 -3 -1 -4 -1c5 8 10 17 14 26c2 4 1 9 0 13c-1 1 -3 1 -4 2c-2 5 2 11 -2 16c-4 -7 -7 -14 -11 -21c0 7 4 13 4 20c0 4 1 8 1 12c-2 4 -4 9 -4 14c0 6 1 12 0 18
c-1 5 -2 10 -4 15c-3 -2 -2 -6 -2 -9c-4 1 -3 7 -5 10c-2 6 -6 12 -8 18c-2 8 -6 14 -9 21c-2 5 -4 9 -7 14c-6 4 -8 12 -11 18c-3 5 -5 9 -10 12l-12 3c-9 7 -20 8 -30 13c-3 1 -6 1 -8 3c-3 1 -5 3 -8 5c2 0 4 0 6 1c-1 2 -2 3 -4 3c-9 2 -18 4 -27 3c-6 -1 -11 5 -17 5
c-5 -2 -10 0 -15 -2c-3 -1 -6 -1 -9 -1c0 2 2 3 4 3c4 2 9 3 13 5l-1 2h-15c-3 6 -10 4 -16 5c-10 -6 -21 -10 -32 -16c1 2 4 4 2 6c-1 -1 -2 -1 -3 -2c-2 -2 -5 -2 -7 -1c-4 -2 -8 -3 -12 -5s-7 -3 -10 -6c-2 -2 -5 -3 -8 -4l-2 -2c-4 -5 -9 -8 -15 -9c-2 -3 -5 -7 -10 -6
c-1 -1 -2 -3 -3 -4c1 1 3 0 5 1c0 -1 -2 -2 -2 -3c-1 -2 -3 -4 -4 -5s-2 -1 -3 -2c-1 -2 -3 -5 -4 -7c2 -5 -3 -7 -6 -10c-5 -5 -5 -13 -8 -19s-6 -13 -6 -20c-2 -5 -5 -10 -5 -16c4 3 5 8 9 10c-2 -5 -4 -10 -5 -15c-6 -10 -8 -22 -8 -33c-1 -5 2 -10 -1 -15v-3
c1 0 3 1 4 1c-3 -9 -7 -18 -10 -27c-1 -9 -1 -18 2 -26c3 -4 2 -10 6 -13v9c6 -7 7 -16 11 -24l2 -2c1 0 2 -2 3 -2c0 6 -1 12 -2 18l1 -2c2 -7 4 -13 6 -20l1 -2c2 1 4 1 5 -1c2 -4 5 -7 7 -11v-2c5 -3 9 -7 12 -12c3 0 5 0 6 3c2 -3 4 -5 6 -8c1 -1 4 -3 5 -4
c2 -1 3 -2 5 -2c3 0 6 -1 7 -3c3 -3 5 -7 8 -10c4 -1 8 -1 11 -4c4 -4 7 -10 13 -12c5 -3 13 -3 18 -6h1c2 0 3 -2 5 -2c6 -1 11 -1 17 -2c3 -1 5 -2 8 -3c6 5 13 1 20 0c5 -1 10 -4 15 -7c5 2 10 2 15 3c1 0 2 0 3 1c0 1 -1 2 -1 3c-6 1 -11 4 -16 7c-5 2 -11 2 -16 2
l-1 -1c-6 -4 -13 0 -19 -1v-4l-21 12c-4 4 -9 6 -12 11c7 -3 13 -8 21 -8v4c4 -2 7 -3 11 -5h1c-1 1 -2 2 -2 3s1 2 1 3c-3 2 -6 3 -8 6c4 0 8 -2 11 -5l15 -9c2 0 4 1 6 1c2 2 6 2 9 0l6 -3c7 -3 13 2 19 3c1 -1 4 -2 5 -4c-5 -4 -11 -5 -17 -4c3 -4 9 -4 13 -6
c3 0 7 0 10 -2c1 1 3 1 4 2c0 2 -1 4 -1 6c4 -1 5 -6 9 -7v0v0z" />
    <glyph glyph-name="ordered-list" unicode="&#xf1a1;" 
d="M133 367h379v-52h-379v52v0zM133 58h379v-52h-379v52v0zM133 212h379v-51h-379v51v0zM52 298h-21v57v9v10l-7 -7l-11 -9l-10 13l32 25h17v-98v0zM69 144h-69v14l25 25c7 7 12 12 14 15s4 6 5 8s2 5 2 8c0 4 -2 7 -4 9s-4 3 -8 3s-7 -1 -11 -3s-8 -4 -12 -7l-11 13
c5 4 9 7 12 9s6 3 10 4s8 1 13 1c6 0 11 -1 16 -3s8 -6 11 -10s4 -8 4 -13s0 -9 -2 -13s-4 -8 -7 -12s-10 -10 -18 -18l-13 -12v-1h43v-17v0zM65 65c0 -6 -1 -11 -5 -15s-9 -7 -16 -9v0c8 -1 14 -4 18 -8s6 -9 6 -15c0 -9 -3 -17 -10 -22s-17 -8 -30 -8c-11 0 -20 1 -28 5
v18c4 -2 8 -4 13 -5s9 -2 13 -2c7 0 12 2 15 4s5 6 5 11s-1 8 -5 10s-10 3 -18 3h-8v16h8c8 0 13 1 17 3s5 5 5 10c0 7 -5 11 -14 11c-3 0 -7 -1 -10 -2s-7 -2 -11 -5l-10 14c9 6 20 10 32 10c10 0 18 -2 24 -6s9 -11 9 -18v0z" />
    <glyph glyph-name="outdent" unicode="&#xf1a2;" 
d="M70 167v-51l-70 76l70 76v-51h70v-50h-70v0zM163 344h349v-38h-349v38v0zM163 167h279v-38h-279v38v0zM163 255h279v-38h-279v38v0zM163 78h349v-38h-349v38v0z" />
    <glyph glyph-name="outlook" unicode="&#xf1ec;" horiz-adv-x="506" 
d="M299 445v-124h179c12 1 27 -2 27 -17c2 -73 0 -146 1 -219c0 -13 1 -33 -17 -33c-63 -2 -127 0 -190 -1v-115c-141 24 -240 42 -299 52v402zM385 172c-6 -5 -13 -13 -22 -11c-23 17 -43 39 -64 58v-151h190v203c-35 -33 -69 -66 -104 -99zM299 304v-63
c22 -21 45 -42 68 -63c38 36 76 71 114 106c6 5 8 12 9 20h-191zM123 283c-55 -20 -65 -94 -44 -142c16 -42 73 -58 107 -29c37 33 40 92 21 135c-14 31 -52 48 -84 36zM129 249c15 7 35 -1 42 -16c12 -23 11 -50 3 -74c-5 -17 -24 -32 -42 -25c-23 7 -29 34 -29 55
c0 22 4 49 26 60z" />
    <glyph glyph-name="package" unicode="&#xf1be;" horiz-adv-x="511" 
d="M341 335v-22h149v-340h-469v340h149v22h-170v-384h511v384h-170zM381 100h66v-66h-14v35l-48 -48l-17 18l47 47h-34v14zM64 15v22h106v-22h-106zM64 58v21h149v-21h-149zM341 335v-22h160l6 19l-106 86l-7 2h-287l-8 -3l-95 -85l7 -19h159v22h-131l72 64h279l80 -64h-129
zM213 250v61l18 88h50l17 -88v-61h-85zM192 313v-85h128v85l-22 107h-85z" />
    <glyph glyph-name="padlock-locked" unicode="&#xf1f1;" horiz-adv-x="375" 
d="M312 199c0 -13 -11 -23 -25 -23s-25 10 -25 23v87c0 43 -34 77 -75 77s-75 -34 -75 -77v-87c0 -13 -11 -23 -25 -23s-25 10 -25 23v87c0 68 56 124 125 124s125 -56 125 -124v-87zM348 -27h-321c-15 0 -27 11 -27 25v200c0 14 12 25 27 25h321c15 0 27 -11 27 -25v-200
c0 -14 -12 -25 -27 -25z" />
    <glyph glyph-name="padlock-unlocked" unicode="&#xf1f2;" 
d="M250 199c0 -13 -11 -23 -25 -23s-25 10 -25 23v87c0 43 -34 77 -75 77s-75 -34 -75 -77v-87c0 -13 -11 -23 -25 -23s-25 10 -25 23v87c0 68 56 124 125 124s125 -56 125 -124v-87zM485 -27h-321c-15 0 -27 11 -27 25v200c0 14 12 25 27 25h321c15 0 27 -11 27 -25v-200
c0 -14 -12 -25 -27 -25z" />
    <glyph glyph-name="pages" unicode="&#xf15c;" horiz-adv-x="511" 
d="M404 406c24 -24 -48 -88 -86 -127s-78 -75 -78 -75l-39 38s36 42 74 81s105 107 129 83zM383 357v0l5 8c1 -1 3 -2 5 -4c4 -4 6 -10 5 -15c-3 -14 -21 -36 -56 -73c-2 -2 -4 -5 -6 -7c-51 -54 -57 -61 -60 -69v-1v0l-6 -6l-2 2c-1 2 -2 5 -1 8c3 10 7 14 62 72l7 7
c34 35 50 57 53 69c0 2 -1 5 -3 7c-1 1 -2 2 -3 2zM50 29l-20 20c66 91 163 185 163 185l40 -40s-92 -93 -183 -165zM24 43c-12 -12 -24 -44 -24 -44s29 13 42 26l-18 18zM2 -28v0v18h509v-18h-509z" />
    <glyph glyph-name="paintbrush" unicode="&#xf19b;" 
d="M423 314c9 11 21 28 33 45c-10 -6 -21 -14 -33 -23l-215 -176l46 -46l169 200v0zM441 299l-185 -219l-83 81l235 194c89 64 103 57 103 57c7 -1 -42 -78 -70 -113v0zM133 -2c34 7 61 28 82 66l-58 55c-8 -2 -15 -3 -22 -7c-18 -10 -28 -25 -28 -49c0 -29 -11 -51 -28 -66
c18 -3 37 -3 54 1v0zM0 -2c0 0 84 -11 84 65s81 81 81 81l78 -75c-73 -163 -243 -71 -243 -71v0z" />
    <glyph glyph-name="pause" unicode="&#xf15d;" horiz-adv-x="416" 
d="M0 421c0 15 12 27 27 27h106c15 0 27 -12 27 -27v-458c0 -15 -12 -27 -27 -27h-106c-15 0 -27 12 -27 27v458v0zM256 421c0 15 12 27 27 27h106c15 0 27 -12 27 -27v-458c0 -15 -12 -27 -27 -27h-106c-15 0 -27 12 -27 27v458v0z" />
    <glyph glyph-name="pdf" unicode="&#xf15e;" 
d="M384 123v0c24 -19 119 -50 128 -27c-7 -68 -161 17 -161 17c-9 5 -16 3 -16 3c-40 -3 -160 -37 -160 -37c-27 -7 -29 -14 -29 -14s-82 -164 -134 -122s88 114 88 114c-103 -93 -77 -102 -77 -102c67 3 190 299 190 299c4 7 5 15 5 15s-59 178 8 179c18 0 27 -10 32 -26
c-4 9 -10 14 -22 14c-60 2 -4 -134 -4 -134c0 -3 29 58 29 99c3 -45 -16 -108 -18 -119c-3 -18 39 -80 39 -80c61 -73 74 -65 74 -65s151 32 156 -33c-9 34 -128 19 -128 19zM155 83v0c54 22 110 36 168 47c-41 29 -70 66 -93 111c-20 -56 -48 -108 -75 -158z" />
    <glyph glyph-name="pen" unicode="&#xf15f;" 
d="M488 327v0c27 -33 -10 -65 -10 -65l-121 -121l-16 15l122 122s15 15 8 32l-313 -313l-109 -36l36 109l354 354l73 -73zM378 247v0l-43 43l-213 -213l43 -43zM396 266l86 85l-43 43l-85 -86l42 -42v0zM146 16v0l-42 42l-19 -61zM0 302h195v-24h-195v24v0zM0 229h122v-24
h-122v24v0zM0 156h49v-25h-49v25v0zM0 375h268v-24h-268v24v0z" />
    </font>
</defs>
</svg>
