<?xml version="1.0" encoding="UTF-8" standalone="no"?>
<svg width="420px" height="270px" viewBox="0 0 420 270" version="1.1" xmlns="http://www.w3.org/2000/svg" xmlns:xlink="http://www.w3.org/1999/xlink">
    <!-- Generator: sketchtool 39.1 (31720) - http://www.bohemiancoding.com/sketch -->
    <title>67A99B89-241D-425A-96A4-4E1FC3CF9FF8</title>
    <desc>Created with sketchtool.</desc>
    <defs></defs>
    <g id="Page-1" stroke="none" stroke-width="1" fill="none" fill-rule="evenodd">
        <g id="User-Profile---No-Activity" transform="translate(-1212.000000, -1590.000000)" fill="#DDDDDD">
            <g id="NoActivityPlaceholder" transform="translate(1212.000000, 1589.815000)">
                <path d="M86.0000001,233.385036 L86,225.185 L128,217.185 L128,189.185 C128,189.185 103.116459,189.195808 95.0000002,189.185003 C91.2423713,189.181504 89.2595675,188.737361 88.1800168,187.278783 C87.2598837,186.035593 65.5798669,133.179944 55.8201981,108.980423 C55.1014292,107.199871 54.5147233,105.367458 54.6727659,102.839247 C56.6169058,104.269739 58.5783654,105.680783 60.5051855,107.132884 C81.3819571,122.868299 99.26891,141.615959 115.120794,162.252214 C118.901923,167.174565 124.048666,170.845072 129.879734,172.14392 C133,172.185 178,172.143919 180,172.185 C182,172.226081 183.999993,174.185003 183.999993,176.185003 L183.999993,185.185003 C183.999993,187.185003 182,189.185003 180.069359,189.185003 C175,189.185003 149,189.185003 149,189.185003 L140,189.185003 L140,217.185 L182,225.185 L182,233.385036 C186.564481,234.311577 190,238.347084 190,243.185 C190,248.707847 185.522847,253.185 180,253.185 C174.477153,253.185 170,248.707847 170,243.185 C170,238.347084 173.435519,234.311577 178,233.385036 L178,229.185 L140,225.184996 L136,229.184996 L136,233.385036 C140.564481,234.311577 144,238.347084 144,243.185 C144,248.707847 139.522847,253.185 134,253.185 C128.477153,253.185 124,248.707847 124,243.185 C124,238.347084 127.435519,234.311577 132,233.385036 L132,229.184996 L128,225.184996 L90,229.185 L90.0000001,233.385036 C94.5644807,234.311577 98,238.347084 98,243.185 C98,248.707847 93.5228475,253.185 88,253.185 C82.4771525,253.185 78,248.707847 78,243.185 C78,238.347084 81.4355194,234.311577 86.0000001,233.385036 Z M297.941387,120.037567 C301.65214,106.659655 295.4625,97.1669776 283.039923,95.8337243 C276.053576,95.0839043 269.052075,94.3319235 262.037583,94.0488503 C226.848218,92.6313232 193.15268,98.7984303 161.366643,114.29615 C159.812197,115.052452 158.387649,116.07238 156.300621,117.332164 C157.781458,117.909115 158.125688,118.174902 158.428783,118.133845 C159.130233,118.038767 159.829517,117.850772 160.496326,117.604433 C193.431961,105.49711 227.428429,101.979223 262.128512,106.043809 C274.815215,107.530483 289.0542,106.035165 297.941387,120.037567 Z M96.9999909,31.1104171 C96.9869415,13.5048011 83.3960041,0.219929509 65.3617501,0.185049636 C48.6389596,0.154529747 34.9436271,14.2023986 35.0001745,31.3262363 C35.0567218,48.2647746 48.8434,62.0488644 65.8619766,62.1840239 C83.0632447,62.3191835 97.0130402,48.3999341 96.9999909,31.1104171 Z M253.000006,270.185015 L265,160.185 L390,160.185 L401.99999,270.185015 C401.99999,270.185015 412.403562,270.185 418,270.185 C413.644087,232.955467 409.264974,196.628096 404.99999,160.161348 C406.99999,160.161348 407.760375,160.145766 409.380183,160.161354 C410.99999,160.176943 412.99999,158.058098 412.99999,156.184999 C412.99999,154.203485 412.999979,140.164356 413,138.185 C413.000021,136.184999 410.99999,134.184999 408.99999,134.184999 C375.271975,134.184999 299.069708,134.185 297,134.185 C296.65577,117.16171 292.88619,113.319439 276.661932,110.564337 C237.482534,103.908875 199.071699,106.504073 161.500871,119.892789 C159.61302,120.564818 156.638356,120.579944 155.116385,119.531924 C141.000803,109.805874 130.689068,97.1907471 126.937181,80.0767009 C124.391181,68.4642155 122.053017,57.0354036 128.799052,45.5763396 C131.704437,40.6430861 132.596404,34.3484881 133.633423,28.5379236 C136.032205,15.0973469 129.067508,3.39626611 117.623496,1.2829407 C107.604031,-0.568920106 98.234056,2.04788671 89.4940864,5.55064793 C91.999998,8.18499991 94.3324972,11.2140187 95.999998,14.1850004 C97.8457803,17.4736257 98.999998,20.1849994 100.085102,24.4193161 C103.549049,23.766735 107.439493,23.0320411 111.83221,22.20443 C111.096122,34.2469274 106.307216,43.7115136 101.290989,53.0594131 C100.699953,54.1636148 99.0480834,54.7967481 97.7772481,55.4233988 C84.1985785,62.1069524 70.6047541,68.7559322 56.9936099,75.3724991 C56.0648393,75.8241198 54.8870976,76.3211186 53.956162,76.1352842 C45.1512434,74.3849841 36.3246752,72.6930272 27.6106852,70.5537714 C23.2872471,69.492787 22.7719851,66.6123547 25.943661,63.4791013 C30.1415309,59.3324025 34.4736288,55.3218381 38.1605667,51.8147552 C36.0000018,48.1849994 34.2491977,44.9921416 33.0000018,41.1849994 C31.8351598,37.6349401 31.7801952,33.1849994 31.780196,28.3201566 C23.9841518,35.5698567 14.7377946,42.8233983 8.26887481,50.5571321 C-4.4394783,65.7544916 -0.174494378,82.9571332 18.2320505,90.2478898 C27.8185219,94.0445286 38.403043,95.2891865 48.470137,97.942728 C51.6483077,98.7811434 54.988851,99.9220798 57.6106254,101.814997 C80.4272069,118.304553 100.017988,138.184506 116.980501,160.506236 C124.330562,170.178265 137.70356,173.830126 147.04106,165.221242 C149.110768,163.313198 151.903575,162.146332 154.445245,160.793631 C179.487412,147.46758 206.365471,141.687267 234.583644,141.486307 C242.301749,141.430124 242.301749,141.453894 242.312574,148.924002 C242.327729,158.306476 242.327729,158.306476 250.106453,159.79315 C245.899923,196.182107 241.325603,232.767472 237,270.185 C241.951278,270.185 253.000006,270.185015 253.000006,270.185015 Z" id="Combined-Shape"></path>
                <path d="M317,127.175778 C317,126.628586 317.446319,126.185 318.002756,126.185 L391.997244,126.185 C392.551051,126.185 393,126.635975 393,127.175778 L393,131.194222 C393,131.741414 392.553681,132.185 391.997244,132.185 L318.002756,132.185 C317.448949,132.185 317,131.734025 317,131.194222 L317,127.175778 Z" id="Rectangle-2"></path>
                <rect id="Rectangle-3" transform="translate(403.000000, 94.000000) rotate(20.000000) translate(-403.000000, -94.000000) " x="400" y="54" width="6" height="80" rx="1"></rect>
            </g>
        </g>
    </g>
</svg>