<?xml version="1.0" encoding="UTF-8" standalone="no"?>
<svg width="210px" height="76px" viewBox="0 0 210 76" version="1.1" xmlns="http://www.w3.org/2000/svg" xmlns:xlink="http://www.w3.org/1999/xlink">
  <!-- Generator: Sketch 41.2 (35397) - http://www.bohemiancoding.com/sketch -->
  <title>AudioButtonPause</title>
  <desc>Created with Sketch.</desc>
  <defs>
    <rect id="path-1" x="0" y="0" width="210" height="76" rx="6"></rect>
    <mask id="mask-2" maskContentUnits="userSpaceOnUse" maskUnits="objectBoundingBox" x="0" y="0" width="210" height="76" fill="white">
      <use xlink:href="#path-1"></use>
    </mask>
    <rect id="path-3" x="0" y="0" width="46" height="46" rx="23"></rect>
    <mask id="mask-4" maskContentUnits="userSpaceOnUse" maskUnits="objectBoundingBox" x="0" y="0" width="46" height="46" fill="white">
      <use xlink:href="#path-3"></use>
    </mask>
  </defs>
  <g id="Page-1" stroke="none" stroke-width="1" fill="none" fill-rule="evenodd">
    <g id="Me---Notes---Text-Styles" transform="translate(-304.000000, -1344.000000)">
      <g id="Content" transform="translate(60.000000, 248.000000)">
        <g id="AudioButtonPause" transform="translate(244.000000, 1096.000000)">
          <use id="Rectangle-205-Copy" stroke="#444444" mask="url(#mask-2)" stroke-width="2" fill="#FFFFFF" xlink:href="#path-1"></use>
          <g id="Group" transform="translate(22.000000, 15.000000)">
            <use id="Rectangle-205-Copy" stroke="#000000" mask="url(#mask-4)" stroke-width="4" xlink:href="#path-3"></use>
            <rect id="Rectangle-2848" fill="#000000" x="15" y="14" width="6" height="18" rx="1"></rect>
            <rect id="Rectangle-2848" fill="#000000" x="25" y="14" width="6" height="18" rx="1"></rect>
          </g>
          <g id="Group-Copy-2" transform="translate(88.000000, 20.000000)" fill="#000000">
            <rect id="Rectangle-49" x="8" y="15" width="2" height="6" rx="1"></rect>
            <rect id="Rectangle-49" x="0" y="16" width="2" height="4" rx="1"></rect>
            <rect id="Rectangle-49-Copy" x="16" y="8" width="2" height="20" rx="1"></rect>
            <rect id="Rectangle-49-Copy-2" x="24" y="13" width="2" height="10" rx="1"></rect>
            <rect id="Rectangle-49-Copy-3" x="32" y="8" width="2" height="20" rx="1"></rect>
            <rect id="Rectangle-49-Copy-4" x="40" y="0" width="2" height="36" rx="1"></rect>
            <rect id="Rectangle-49-Copy-5" x="48" y="7" width="2" height="22" rx="1"></rect>
            <rect id="Rectangle-49-Copy-7" x="57" y="10" width="2" height="16" rx="1"></rect>
            <rect id="Rectangle-49-Copy-8" x="65" y="3" width="2" height="30" rx="1"></rect>
            <rect id="Rectangle-49-Copy-9" x="73" y="8" width="2" height="20" rx="1"></rect>
            <rect id="Rectangle-49-Copy-9" x="82" y="13" width="2" height="10" rx="1"></rect>
            <rect id="Rectangle-49-Copy-9" x="90" y="12" width="2" height="12" rx="1"></rect>
            <rect id="Rectangle-49-Copy-9" x="98" y="16" width="2" height="4" rx="1"></rect>
          </g>
        </g>
      </g>
    </g>
  </g>
</svg>