<?xml version="1.0" encoding="UTF-8" standalone="no"?>
<svg width="512px" height="512px" viewBox="0 0 512 512" version="1.1" xmlns="http://www.w3.org/2000/svg" xmlns:xlink="http://www.w3.org/1999/xlink">
    <!-- Generator: Sketch 39.1 (31720) - http://www.bohemiancoding.com/sketch -->
    <title>icon-alfresco</title>
    <desc>Created with Sketch.</desc>
    <defs></defs>
    <g id="Page-1" stroke="none" stroke-width="1" fill="none" fill-rule="evenodd">
        <g id="icon-alfresco" fill="#000000">
            <g id="alfresco">
                <path d="M178.292823,337.363044 L243.107914,272.57554 L145.777141,272.579697 L145.544232,272.579697 C91.6092924,272.579697 47.8848921,316.282683 47.8848921,370.18705 C47.8848921,424.099733 91.6051334,467.798561 145.540073,467.798561 C149.640925,467.798561 153.666914,467.515882 157.630517,467.025353 C136.315235,425.055851 143.186034,372.448481 178.292823,337.363044" id="Fill-1"></path>
                <path d="M255.11627,367.93478 L255.11627,276.258993 L186.904521,345.097988 L186.739629,345.260216 C148.938109,383.404732 148.938109,445.247098 186.739629,483.391613 C224.541148,521.536129 285.827429,521.536129 323.628948,483.391613 C326.498071,480.496456 329.07451,477.422434 331.510791,474.273534 C287.163055,459.639686 255.120392,417.572566 255.11627,367.93478" id="Fill-2"></path>
                <path d="M333.675434,337.38925 L268.892086,272.57554 L268.892086,370.137143 C268.892086,424.075091 312.595072,467.798561 366.503597,467.798561 C420.412121,467.798561 464.115108,424.075091 464.115108,370.141302 C464.115108,366.044696 463.832429,362.014634 463.3419,358.051115 C421.372398,379.365943 368.769186,372.49529 333.675434,337.38925" id="Fill-3"></path>
                <path d="M483.394354,188.37124 C480.495001,185.502049 477.425097,182.925548 474.276157,180.489209 C459.637952,224.833879 417.570278,256.881426 367.935993,256.881426 L276.258993,256.881426 L345.094739,325.098923 L345.25697,325.259696 C383.401988,363.062116 445.249333,363.062116 483.394354,325.259696 C521.535215,287.457277 521.535215,226.169537 483.394354,188.37124" id="Fill-4"></path>
                <path d="M366.457846,47.8848921 C362.361066,47.8848921 358.330832,48.1634197 354.367145,48.6539614 C375.687039,90.6285115 368.811936,143.232845 333.704399,178.323187 L268.892086,243.107914 L366.457846,243.107914 C420.389777,243.107914 464.115108,199.403997 464.115108,145.494324 C464.119267,91.5846516 420.393936,47.8848921 366.457846,47.8848921" id="Fill-5"></path>
                <path d="M325.259696,28.6088912 C287.457277,-9.53629707 226.169537,-9.53629707 188.367117,28.6088912 C185.497926,31.5040985 182.921425,34.5740166 180.489209,37.7229706 C224.833879,52.3612385 256.881426,94.4249399 256.881426,144.063602 L256.881426,235.741007 L325.259696,166.742726 C363.062116,128.597538 363.062116,66.7540793 325.259696,28.6088912" id="Fill-6"></path>
                <path d="M178.418801,178.337173 L181.195764,181.235928 L243.0414,243.107914 L243.107914,243.107914 L243.107914,145.540071 C243.107914,91.6074293 199.403997,47.8848921 145.494324,47.8848921 C91.5846516,47.8848921 47.8807349,91.6032704 47.8848921,145.535912 C47.8848921,149.624113 48.1634197,153.641613 48.6498042,157.596728 C90.6492972,136.294832 143.324302,143.227722 178.418801,178.337173" id="Fill-7"></path>
                <path d="M38.0058355,330.608321 C38.7712354,328.358327 39.5948717,326.1413 40.4975443,323.95724 C40.6098583,323.681142 40.7096931,323.400923 40.8261669,323.133066 C41.8161948,320.784172 42.9060571,318.49709 44.049997,316.238854 C44.2995837,315.740229 44.5574899,315.249846 44.8195562,314.751221 C45.9967742,312.509469 47.2363888,310.304804 48.559199,308.157832 C48.7006315,307.927064 48.8545435,307.708658 48.9959759,307.486131 C50.2522298,305.479268 51.5791997,303.530097 52.9602468,301.613894 C53.2431121,301.21829 53.5218172,300.818566 53.8130019,300.427084 C55.2980436,298.428463 56.8454822,296.479292 58.455317,294.583693 C58.78394,294.196331 59.1167223,293.821332 59.4536643,293.442212 C61.0260616,291.641393 62.648376,289.881782 64.3330869,288.183985 C64.4828392,288.035634 64.6201119,287.879041 64.7698642,287.730689 C66.5627294,285.946354 68.4304712,284.240314 70.3398102,282.583725 C70.7557884,282.221089 71.1717663,281.862573 71.596064,281.508179 C73.5137228,279.888678 75.4812991,278.322748 77.5071121,276.826873 C77.7733382,276.633192 78.0520437,276.451874 78.3182697,276.262313 C80.2109698,274.898306 82.1494276,273.596112 84.129483,272.347489 C84.5205025,272.100237 84.907362,271.844743 85.3025413,271.601612 C87.4406684,270.291176 89.6287129,269.059036 91.8583554,267.88871 C92.3284108,267.645578 92.8026256,267.410689 93.2768407,267.171679 C95.5023231,266.046682 97.7569243,264.971135 100.061443,263.99449 C100.173757,263.94916 100.281911,263.895588 100.394225,263.846138 C102.77778,262.844767 105.215411,261.950539 107.682161,261.109882 C108.214613,260.928564 108.742905,260.747246 109.279517,260.574169 C111.721308,259.787083 114.196377,259.06181 116.708885,258.431317 C117.095744,258.340658 117.486764,258.258241 117.869464,258.171703 C120.198941,257.615386 122.553377,257.137365 124.932771,256.729399 C125.377868,256.655223 125.818804,256.564564 126.263901,256.498631 C128.847125,256.086544 131.463627,255.777479 134.100928,255.54671 C134.670817,255.497259 135.244867,255.460172 135.814757,255.414842 C138.543573,255.221161 141.284869,255.085173 144.063602,255.085173 L235.741007,255.081052 L166.742726,186.728214 C128.597538,148.943975 66.7499196,148.939854 28.6088912,186.728214 C-9.53629707,224.516574 -9.53629707,285.781519 28.6088912,323.569879 C31.4999387,326.433882 34.528259,329.079479 37.6688935,331.510791 C37.772888,331.205847 37.9018409,330.913266 38.0058355,330.608321" id="Fill-8"></path>
            </g>
        </g>
    </g>
</svg>