<?xml version="1.0" encoding="UTF-8" standalone="no"?>
<svg width="512px" height="512px" viewBox="0 0 512 512" version="1.1" xmlns="http://www.w3.org/2000/svg" xmlns:xlink="http://www.w3.org/1999/xlink">
    <!-- Generator: Sketch 39.1 (31720) - http://www.bohemiancoding.com/sketch -->
    <title>icon-android</title>
    <desc>Created with Sketch.</desc>
    <defs></defs>
    <g id="Page-1" stroke="none" stroke-width="1" fill="none" fill-rule="evenodd">
        <g id="icon-android" fill="#000000">
            <g id="android" transform="translate(38.000000, 2.000000)">
                <path d="M31.8375921,164.582003 C14.1078148,164.582003 0,178.478344 0,195.942355 L0,326.570436 C0,344.034446 14.1078148,357.930787 31.8375921,357.930787 C49.567368,357.930787 63.6751837,344.034446 63.6751837,326.570436 L63.6751837,195.942355 C63.6751837,178.478344 49.567368,164.582003 31.8375921,164.582003 L31.8375921,164.582003 L31.8375921,164.582003 L31.8375921,164.582003 Z M132.614987,406.484085 L132.614987,475.639848 C132.614987,493.103905 146.722796,507 164.452577,507 C182.182357,507 196.290174,493.103905 196.290174,475.639848 L196.290174,406.484085 L238.707788,406.484085 L238.707788,475.639848 C238.707788,493.103905 252.815606,507 270.545386,507 C288.275166,507 302.382968,493.103905 302.382968,475.639848 L302.382968,406.484085 L325.15198,406.484085 C344.167568,406.484085 359.476128,391.405 359.476128,372.67447 L359.476128,169.96081 L75.5218486,169.96081 L75.5218486,372.67447 C75.5218486,391.405 90.8304164,406.484085 109.845991,406.484085 L132.614987,406.484085 L132.614987,406.484085 Z M403.162418,164.582003 C385.432636,164.582003 371.32482,178.478344 371.32482,195.942355 L371.32482,326.570436 C371.32482,344.034446 385.432636,357.930787 403.162418,357.930787 C420.892198,357.930787 435,344.034446 435,326.570436 L435,195.942355 C435,178.478344 420.892198,164.582003 403.162418,164.582003 L403.162418,164.582003 Z M129.348345,0.00021801 C128.595724,0.00779910857 127.894421,0.199062686 127.203086,0.576510424 C124.932824,1.81608414 124.186258,4.38578394 125.447874,6.62767928 L147.875573,46.5364827 C104.725703,68.6519994 75.5802626,110.68035 75.5218486,158.91506 L359.476128,158.91506 C359.417787,110.68035 330.272275,68.6519994 287.12239,46.5364827 L309.550112,6.62767928 C310.811721,4.38578394 310.065149,1.81608414 307.794892,0.576510424 C307.103554,0.199062686 306.402254,0.00728341714 305.649633,0.00021801 C304.038466,-0.0150970114 302.511274,0.777856783 301.651636,2.30541809 L278.931391,42.6464513 C260.345327,34.5258635 239.498184,29.9678502 217.498989,29.9678502 C195.499776,29.9678502 174.652617,34.5258635 156.066572,42.6464513 L133.346326,2.30541809 C132.486694,0.777856783 130.959488,-0.0150057514 129.348345,0.00021801 L129.348345,0.00021801 Z M151.970687,84.3802034 C145.488541,84.3802034 140.123005,89.6653025 140.123005,96.0502961 C140.123005,102.435274 145.488541,107.720374 151.970687,107.720374 C158.452833,107.720374 163.818362,102.435274 163.818362,96.0502961 C163.818362,89.6653025 158.452833,84.3802034 151.970687,84.3802034 L151.970687,84.3802034 Z M283.026506,84.3802034 C276.544358,84.3802034 271.178815,89.6653025 271.178815,96.0502961 C271.178815,102.435274 276.544358,107.720374 283.026506,107.720374 C289.508636,107.720374 294.874179,102.435274 294.874179,96.0502961 C294.874179,89.6653025 289.508636,84.3802034 283.026506,84.3802034 L283.026506,84.3802034 Z" id="Android"></path>
            </g>
        </g>
    </g>
</svg>