<?xml version="1.0" encoding="UTF-8" standalone="no"?>
<svg width="512px" height="512px" viewBox="0 0 512 512" version="1.1" xmlns="http://www.w3.org/2000/svg" xmlns:xlink="http://www.w3.org/1999/xlink">
    <!-- Generator: Sketch 3.8.1 (29687) - http://www.bohemiancoding.com/sketch -->
    <title>icon-annotate</title>
    <desc>Created with Sketch.</desc>
    <defs></defs>
    <g id="Page-1" stroke="none" stroke-width="1" fill="none" fill-rule="evenodd">
        <g id="icon-annotate" fill="#000000">
            <path d="M0,227.483744 C0.402213437,228.047041 1.16594551,229.106203 2.27489223,230.628271 C4.10829799,233.144684 6.25418912,236.057906 8.69628369,239.334996 C15.6577715,248.67674 23.6077337,259.077242 32.4163217,270.273275 C57.5854323,302.264124 84.6185925,334.258293 112.493204,364.159903 C143.73746,397.676193 174.118432,426.465537 203.00375,449.119609 C270.713951,502.223121 327.543244,519.855158 369.127087,488.406691 C425.039018,446.12237 410.71286,391.950401 347.615989,319.237182 C337.152397,307.178875 326.020788,295.202818 309.703353,278.209578 C246.878544,212.782806 232.957101,196.487717 225.695148,174.51983 C215.515885,143.726886 222.246559,125.628458 238.762708,120.504105 C256.176791,115.101156 280.411863,124.715935 296.410024,146.225044 C343.084896,208.978185 397.108752,259.56234 437.585788,273.167419 C494.958587,292.451475 539.592585,217.439925 491.764505,169.212226 C487.232585,164.64244 463.246054,141.304159 456.415933,134.416969 C441.888721,119.768378 430.897712,107.51892 422.318272,95.9840874 C402.433539,69.2495859 398.864404,51.2548048 410.967768,39.0503133 L408.915442,40.7468759 C423.445765,30.9790569 439.540743,35.140456 456.815995,49.6567834 C460.811293,53.0140165 464.479575,56.6404201 467.708611,60.2582151 C469.606178,62.3842394 470.890919,63.9751741 471.46962,64.7532228 L493.015416,48.4588587 C489.207694,43.3394759 482.728115,36.0797894 474.057599,28.7939879 C448.672174,7.46271417 420.652133,0.218058414 393.976121,18.1506584 L391.923795,19.847221 C367.556409,44.4182042 373.831826,76.0574552 400.772475,112.278452 C410.255767,125.028489 422.021211,138.141052 437.371959,153.620061 C444.428777,160.735841 468.415308,184.074123 472.720531,188.415318 C500.639392,216.56745 476.259511,257.54009 446.102512,247.403767 C412.24655,236.024153 361.583183,188.586525 317.95582,129.930679 C295.493326,99.7304442 259.790689,85.5661384 230.842316,94.5477527 C198.360807,104.625569 185.570338,139.018469 200.144977,183.107714 C209.372471,211.021492 222.873116,226.824037 290.354735,297.100486 C306.382276,313.791826 317.248986,325.482888 327.347408,337.120371 C381.433475,399.449485 391.505697,437.535905 352.96774,466.680872 C324.47278,488.230655 278.588534,473.994463 219.538549,427.682955 C191.884187,405.994292 162.478107,378.128766 132.116784,345.559614 C104.806217,316.263066 78.2476922,284.830636 53.515312,253.394887 C44.8583782,242.391611 37.0516302,232.178469 30.227307,223.020788 C26.1482691,217.547055 23.3140673,213.657015 21.8564422,211.615621 L0,227.483744 L0,227.483744 Z" id="annotate"></path>
        </g>
    </g>
</svg>