<?xml version="1.0" encoding="UTF-8"?>
<svg width="512px" height="512px" viewBox="0 0 512 512" version="1.1" xmlns="http://www.w3.org/2000/svg" xmlns:xlink="http://www.w3.org/1999/xlink">
    <!-- Generator: Sketch 39.1 (31720) - http://www.bohemiancoding.com/sketch -->
    <title>icon-app</title>
    <desc>Created with Sketch.</desc>
    <defs></defs>
    <g id="Page-1" stroke="none" stroke-width="1" fill="none" fill-rule="evenodd">
        <g id="icon-app" fill="#F26724">
            <g id="app" transform="translate(0.000000, 36.000000)">
                <path d="M398.598347,55.8333884 C398.598347,49.9910374 403.334508,45.254876 409.17686,45.254876 C415.019211,45.254876 419.755372,49.9910374 419.755372,55.8333884 C419.755372,61.6757395 415.019211,66.4119008 409.17686,66.4119008 C403.334508,66.4119008 398.598347,61.6757395 398.598347,55.8333884 M362.965686,55.8333884 C362.967198,52.0525381 364.985654,48.5596948 368.260722,46.6705789 C371.535791,44.7814629 375.56991,44.7830759 378.843466,46.6748103 C382.117023,48.5665447 384.132685,52.0610009 384.131174,55.8418512 C384.128836,61.6865391 379.388886,66.4227002 373.544198,66.4203633 C367.69951,66.4180263 362.963349,61.6780763 362.965686,55.8333884 M327.333025,55.8333884 C327.334536,52.0525381 329.352993,48.5596948 332.628061,46.6705789 C335.903129,44.7814629 339.937249,44.7830759 343.210805,46.6748103 C346.484362,48.5665447 348.500024,52.0610009 348.498512,55.8418512 C348.497001,59.6227014 346.478544,63.1155446 343.203476,65.0046605 C339.928408,66.8937764 335.894289,66.8921634 332.620732,65.0004291 C329.347176,63.1086948 327.331513,59.6142386 327.333025,55.8333884" id="Shape"></path>
                <path d="M488.312595,329.076364 L453.978975,329.076364 L440.840463,294.912 L488.312595,294.912 L488.312595,329.072132 L488.312595,329.076364 Z M435.906645,351.447802 L440.167669,362.67795 C440.506182,363.354975 440.844694,364.370512 441.517488,365.047537 L442.871537,366.401587 C453.022678,377.902545 453.306182,396.000264 449.921058,411.22486 C437.743074,402.089256 424.549554,387.994446 424.888066,372.769851 L424.888066,370.743008 C424.888066,369.727471 424.888066,369.050446 424.549554,368.034909 L418.536727,351.447802 L389.923967,272.536331 L351.815934,167.428231 C349.78486,161.673521 351.024661,153.32919 351.024661,146.905917 C355.264529,151.526612 362.356364,157.670612 364.72595,163.759603 L405.977917,272.536331 L435.906645,351.452033 L435.906645,351.447802 Z M312.002645,329.072132 L324.273719,294.912 L372.884099,294.912 L385.387901,329.072132 L312.002645,329.072132 L312.002645,329.072132 Z M263.92119,392.699769 L250.054876,403.290975 L250.384926,387.706711 L321.337124,192.75319 C322.331504,190.104331 327.239934,189.427306 329.893025,190.425917 C331.881785,191.086017 335.563107,194.170711 333.76476,197.978975 C333.362777,199.155306 263.92119,392.699769 263.92119,392.699769 L263.92119,392.699769 Z M214.024463,329.076364 L214.024463,294.916231 L258.911207,294.916231 L256.08886,302.549686 L256.025388,302.528529 L246.310083,329.076364 L214.024463,329.076364 L214.024463,329.076364 Z M348.346182,227.916165 L364.679405,272.540562 L332.309157,272.540562 L348.346182,227.916165 L348.346182,227.916165 Z M29.8483306,80.6505785 C29.7721653,80.6505785 29.7002314,80.6717355 29.6198347,80.6717355 L29.6198347,29.6240661 L444.297521,29.6240661 L444.297521,80.6505785 L29.8483306,80.6505785 L29.8483306,80.6505785 Z M494.211174,272.544793 L469.68595,272.544793 L469.68595,16.9256198 C469.68595,9.92687603 463.990479,4.23140496 456.991736,4.23140496 L17.0102479,4.23140496 C16.5856153,4.21658322 16.1605011,4.22364492 15.736595,4.25256198 C9.18485397,4.83429684 4.177151,10.3482933 4.22717355,16.9256198 L4.22717355,313.123967 C4.22717355,320.126942 9.92687603,325.818182 16.9213884,325.818182 L96.0063471,325.403504 L162.020496,325.403504 C172.230876,325.403504 177.803636,319.826512 177.803636,312.942017 C177.803637,306.063716 172.228912,300.487097 165.350612,300.48476 L137.880331,300.48476 L137.867636,300.429752 L29.6198347,300.429752 L29.6198347,106.01362 C29.7002314,106.01362 29.7721653,106.034777 29.8483306,106.034777 L444.297521,106.034777 L444.297521,272.540562 L432.233785,272.540562 L387.211636,155.487207 C386.729256,154.124694 386.306116,152.87643 385.912595,151.721256 C383.153719,143.647736 381.156496,137.78724 371.957421,129.616397 C363.393058,121.04357 352.983802,118.365091 343.331967,122.287603 L342.95114,122.444165 L340.446149,123.683967 C331.08205,128.956298 324.354116,140.127207 324.324496,147.760661 C324.294876,154.05276 325.086149,160.378711 326.524826,166.484628 C321.108628,166.002248 316.225587,166.801983 311.939174,168.926149 C305.888264,171.930446 301.441058,177.372033 299.063008,184.679669 L267.090512,272.536331 L208.307835,272.536331 C207.905818,272.52789 207.503635,272.532123 207.101884,272.549025 L206.581421,272.582876 C198.087716,273.34028 191.595096,280.48621 191.653025,289.013421 L191.653025,334.979174 C191.671662,344.070117 199.039164,351.433835 208.130116,351.447802 L238.130777,351.447802 L226.87524,382.197421 L226.87524,383.111405 C226.671076,383.981396 226.561832,384.870956 226.549421,385.764496 L225.55081,422.522711 C225.494744,429.581727 229.772982,435.95289 236.328198,438.57243 C238.993983,439.731835 241.507438,439.731835 242.759934,439.731835 C247.689521,439.731835 252.526017,437.48919 255.843438,433.685157 L283.880727,405.948298 L285.653686,402.393917 L303.962975,351.447802 L393.579901,351.447802 L401.429157,372.892562 C401.302215,401.712661 425.873983,422.785058 436.528661,430.558149 L444.250975,436.270545 C447.242294,438.540972 450.900718,439.757967 454.656,439.731835 C455.89157,439.731835 458.337322,439.731835 460.960793,438.640132 C465.754975,436.820628 469.74519,432.572298 471.454678,427.418446 L474.073917,417.093818 C480.188298,391.756165 475.906116,367.366347 462.63643,351.447802 L494.219636,351.447802 C503.311545,351.431486 510.67662,344.062626 510.688264,334.970711 L510.688264,289.017653 C510.678939,279.920787 503.308037,272.547991 494.211174,272.536331 L494.211174,272.544793 Z" id="Shape"></path>
            </g>
        </g>
    </g>
</svg>