<?xml version="1.0" encoding="UTF-8" standalone="no"?>
<svg width="512px" height="512px" viewBox="0 0 512 512" version="1.1" xmlns="http://www.w3.org/2000/svg" xmlns:xlink="http://www.w3.org/1999/xlink" xmlns:sketch="http://www.bohemiancoding.com/sketch/ns">
    <!-- Generator: Sketch 3.5.2 (25235) - http://www.bohemiancoding.com/sketch -->
    <title>apple</title>
    <desc>Created with Sketch.</desc>
    <defs></defs>
    <g id="Page-1" stroke="none" stroke-width="1" fill="none" fill-rule="evenodd" sketch:type="MSPage">
        <g id="apple" sketch:type="MSArtboardGroup" fill="#010202">
            <g id="icon-apple" sketch:type="MSLayerGroup" transform="translate(48.000000, 0.000000)">
                <path d="M346.73152,272.18816 C346.15168,207.7312 399.50848,176.37376 401.94816,174.91328 C371.72992,130.85568 324.89216,124.83584 308.43264,124.35584 C269.09568,120.21632 230.93632,147.89504 210.89792,147.89504 C190.45888,147.89504 159.60064,124.75648 126.3424,125.43616 C83.54432,126.09664 43.50592,150.87488 21.5488,189.35296 C-23.7696,267.808 10.0288,383.10272 53.44768,446.51904 C75.16672,477.57824 100.54528,512.25472 133.76384,511.03616 C166.26176,509.696 178.40128,490.3168 217.6192,490.3168 C256.47616,490.3168 267.87712,511.03616 301.75488,510.25664 C336.63232,509.696 358.592,479.05792 379.55072,447.71968 C404.65024,412.1216 414.72896,377.0624 415.1296,375.264 C414.30912,374.98368 347.39072,349.44512 346.73152,272.18816 L346.73152,272.18816 Z" id="Shape" sketch:type="MSShapeGroup"></path>
                <path d="M282.73536,82.63808 C300.21504,60.77952 312.17408,31.04128 308.85504,0.86272 C283.55712,1.98272 251.91808,18.36288 233.69856,39.74016 C217.57952,58.5792 203.17952,89.45792 206.90048,118.496 C235.31648,120.61696 264.49664,104.15744 282.73536,82.63808 L282.73536,82.63808 Z" id="Shape" sketch:type="MSShapeGroup"></path>
            </g>
        </g>
    </g>
</svg>