<svg viewBox="0 0 20 20" fill="none" xmlns="http://www.w3.org/2000/svg">
<path fill-rule="evenodd" clip-rule="evenodd" d="M10.6867 1.97483C10.3521 1.49984 9.64783 1.49984 9.31322 1.97483L8.6565 2.90709C8.42277 3.23888 7.98525 3.35611 7.61694 3.18564L6.58207 2.70664C6.0548 2.46259 5.44493 2.8147 5.39264 3.39336L5.29003 4.52908C5.25351 4.93328 4.93323 5.25357 4.52902 5.29009L3.3933 5.3927C2.81464 5.44498 2.46253 6.05486 2.70658 6.58213L3.18558 7.617C3.35605 7.98531 3.23882 8.42283 2.90703 8.65656L1.97477 9.31328C1.49978 9.64789 1.49978 10.3521 1.97477 10.6867L2.90703 11.3434C3.23882 11.5772 3.35605 12.0147 3.18558 12.383L2.70658 13.4179C2.46253 13.9451 2.81464 14.555 3.3933 14.6073L4.52902 14.7099C4.93323 14.7464 5.25351 15.0667 5.29003 15.4709L5.39264 16.6066C5.44493 17.1853 6.0548 17.5374 6.58207 17.2934L7.61694 16.8144C7.98525 16.6439 8.42277 16.7611 8.6565 17.0929L9.31323 18.0252C9.64783 18.5002 10.3521 18.5002 10.6867 18.0252L11.3434 17.0929C11.5771 16.7611 12.0146 16.6439 12.3829 16.8144L13.4178 17.2934C13.9451 17.5374 14.555 17.1853 14.6072 16.6066L14.7099 15.4709C14.7464 15.0667 15.0667 14.7464 15.4709 14.7099L16.6066 14.6073C17.1852 14.555 17.5374 13.9451 17.2933 13.4179L16.8143 12.383C16.6438 12.0147 16.7611 11.5772 17.0929 11.3434L18.0251 10.6867C18.5001 10.3521 18.5001 9.64789 18.0251 9.31328L17.0929 8.65656C16.7611 8.42283 16.6438 7.98531 16.8143 7.617L17.2933 6.58213C17.5374 6.05486 17.1852 5.44498 16.6066 5.3927L15.4709 5.29009C15.0667 5.25357 14.7464 4.93328 14.7099 4.52908L14.6072 3.39336C14.555 2.8147 13.9451 2.46259 13.4178 2.70664L12.3829 3.18564C12.0146 3.35611 11.5771 3.23888 11.3434 2.90709L10.6867 1.97483ZM13.7296 8.10354C13.9249 7.90828 13.9249 7.59169 13.7296 7.39643C13.5343 7.20117 13.2178 7.20117 13.0225 7.39643L8.80565 11.6133L6.85355 9.66118C6.65829 9.46592 6.34171 9.46592 6.14645 9.66118C5.95118 9.85645 5.95118 10.173 6.14645 10.3683L8.4521 12.6739C8.54587 12.7677 8.67304 12.8204 8.80565 12.8204C8.93826 12.8204 9.06544 12.7677 9.15921 12.6739L13.7296 8.10354Z" fill="#999999"/>
</svg>
