<?xml version="1.0" encoding="UTF-8" standalone="no"?>
<svg viewBox="0 0 512 512" version="1.1" xmlns="http://www.w3.org/2000/svg" xmlns:xlink="http://www.w3.org/1999/xlink" xmlns:sketch="http://www.bohemiancoding.com/sketch/ns">
    <!-- Generator: Sketch 3.3.3 (12072) - http://www.bohemiancoding.com/sketch -->
    <title>512</title>
    <desc>Created with Sketch.</desc>
    <defs></defs>
    <g id="Page-1" stroke="none" stroke-width="1" fill="none" fill-rule="evenodd" sketch:type="MSPage">
        <g id="512" sketch:type="MSArtboardGroup" fill="#000000">
            <path d="M480,144 L512,144 L512,16 L0,16 L0,144 L32,144 L32,496 L480,496 L480,144 L480,144 Z M32,48 L480,48 L480,112 L32,112 L32,48 L32,48 Z M64,144 L448,144 L448,464 L64,464 L64,144 L64,144 Z M160,224 C160,197.490336 181.465965,176 207.954432,176 L304.045568,176 C330.530069,176 352,197.544272 352,224 C352,250.509664 330.534035,272 304.045568,272 L207.954432,272 C181.469931,272 160,250.455728 160,224 L160,224 Z M192,224 C192,215.16344 199.248581,208 207.952482,208 L304.047518,208 C312.85783,208 320,215.10184 320,224 C320,232.83656 312.751419,240 304.047518,240 L207.952482,240 C199.14217,240 192,232.89816 192,224 L192,224 Z" id="Archive" sketch:type="MSShapeGroup"></path>
        </g>
    </g>
</svg>