<svg width="512" height="512" viewBox="0 0 512 512" fill="none" xmlns="http://www.w3.org/2000/svg">
<path fill-rule="evenodd" clip-rule="evenodd" d="M43.6667 64C43.1145 64 42.6667 64.4477 42.6667 65V149.333H53.3334H74.6667H437.333H458.667H469.333V65C469.333 64.4477 468.886 64 468.333 64H43.6667ZM437.333 170.667H74.6667V445C74.6667 446.657 76.0099 448 77.6667 448H434.333C435.99 448 437.333 446.657 437.333 445V170.667ZM170.667 259C170.667 257.343 172.01 256 173.667 256H338.333C339.99 256 341.333 257.343 341.333 259V285C341.333 286.657 339.99 288 338.333 288H173.667C172.01 288 170.667 286.657 170.667 285V259Z" fill="#A7A7A7"/>
</svg>
