<svg width="512" height="512" viewBox="0 0 512 512" fill="none" xmlns="http://www.w3.org/2000/svg">
<path d="M254.794 454.498C333.642 454.498 401.432 407.179 431.314 339.395L461.296 344.306C428.505 426.195 348.405 484.037 254.794 484.037C147.99 484.037 58.7744 408.743 37.3425 308.345L27.552 325.249C23.4639 332.307 14.4278 334.715 7.36943 330.627C0.311049 326.539 -2.0968 317.503 1.99134 310.444L31.6073 259.311C33.7418 255.626 37.3633 253.041 41.5424 252.221C45.7216 251.4 50.0514 252.424 53.4208 255.029L100.17 291.17C106.624 296.159 107.811 305.435 102.822 311.888C97.8328 318.341 88.5571 319.528 82.1038 314.539L66.2604 302.291C84.8987 389.277 162.227 454.498 254.794 454.498Z" fill="#A7A7A7"/>
<path d="M75.5801 190.432C103.945 119.2 173.532 68.9231 254.794 68.9231C354.53 68.9231 436.575 144.637 446.582 241.71L427.45 226.919C420.997 221.93 411.721 223.117 406.732 229.57C401.743 236.023 402.93 245.299 409.383 250.288L456.133 286.429C459.502 289.034 463.832 290.058 468.011 289.237C472.19 288.417 475.812 285.832 477.946 282.147L507.562 231.014C511.65 223.955 509.242 214.919 502.184 210.831C495.126 206.743 486.09 209.151 482.002 216.209L474.723 228.776C458.807 121.606 366.404 39.3846 254.794 39.3846C159.372 39.3846 77.9882 99.4868 46.4424 183.897C46.2358 184.449 46.0313 185.003 45.829 185.558L75.5801 190.432Z" fill="#A7A7A7"/>
<path fill-rule="evenodd" clip-rule="evenodd" d="M281.749 130.518C275.622 124.271 270.278 120.497 264.803 119.586L261.714 119.338V118.154H187.116C160.264 118.154 146.708 131.95 146.708 159.021V356.457C146.708 383.658 160.134 397.194 187.116 397.194H325.546C352.528 397.194 365.954 383.528 365.954 356.457L365.953 223.512H364.658L364.389 220.451C363.607 215.115 359.827 209.909 353.571 203.532L281.749 130.518ZM232.175 147.692H187.116C180.869 147.692 178.468 148.826 177.868 149.202C177.498 149.78 176.246 152.297 176.246 159.021V356.457C176.246 362.961 177.384 365.526 177.778 366.2C178.458 366.592 180.935 367.655 187.116 367.655H325.546C331.752 367.655 334.207 366.568 334.862 366.18C335.247 365.539 336.415 363 336.415 356.457V253.051H271.581C261.146 253.051 250.479 250.578 242.57 242.681C234.657 234.78 232.175 224.116 232.175 213.683V147.692ZM331.791 223.512L261.714 152.273V213.683C261.714 219.91 263.208 221.545 263.441 221.778C263.68 222.016 265.33 223.512 271.581 223.512H331.791Z" fill="#A7A7A7"/>
</svg>
