<?xml version="1.0" encoding="UTF-8" standalone="no"?>
<svg width="512px" height="512px" viewBox="0 0 512 512" version="1.1" xmlns="http://www.w3.org/2000/svg" xmlns:xlink="http://www.w3.org/1999/xlink">
    <!-- Generator: Sketch 39.1 (31720) - http://www.bohemiancoding.com/sketch -->
    <title>az</title>
    <desc>Created with Sketch.</desc>
    <defs></defs>
    <g id="Page-1" stroke="none" stroke-width="1" fill="none" fill-rule="evenodd">
        <g id="az" fill="#000000">
            <path d="M188.507561,374 L157.875082,299.245231 L59.2452334,299.245231 L28.9493754,374 L0,374 L97.2833662,138 L121.351742,138 L218.130177,374 L188.507561,374 L188.507561,374 Z M148.954635,274.648502 L120.34188,201.822888 C116.639035,192.605767 112.824039,181.298886 108.896778,167.901907 C106.428215,178.190787 102.893733,189.497667 98.2932281,201.822888 L69.3438527,274.648502 L148.954635,274.648502 L148.954635,274.648502 Z M232.268245,297.959128 L232.268245,273.52316 L314.908612,273.52316 L314.908612,297.959128 L232.268245,297.959128 L232.268245,297.959128 Z M512,374 L342.848126,374 L342.848126,352.618529 L473.456936,163.561307 L346.887574,163.561307 L346.887574,138.964578 L508.297173,138.964578 L508.297173,160.346049 L377.688363,349.242507 L512,349.242507 L512,374 L512,374 Z" id="a-z"></path>
        </g>
    </g>
</svg>