<?xml version="1.0" encoding="UTF-8" standalone="no"?>
<svg width="512px" height="512px" viewBox="0 0 512 512" version="1.1" xmlns="http://www.w3.org/2000/svg" xmlns:xlink="http://www.w3.org/1999/xlink" xmlns:sketch="http://www.bohemiancoding.com/sketch/ns">
    <!-- Generator: Sketch 3.5.2 (25235) - http://www.bohemiancoding.com/sketch -->
    <title>blogger</title>
    <desc>Created with Sketch.</desc>
    <defs></defs>
    <g id="Page-1" stroke="none" stroke-width="1" fill="none" fill-rule="evenodd" sketch:type="MSPage">
        <g id="blogger" sketch:type="MSArtboardGroup" fill="#000000">
            <path d="M84.4773797,0 L427.522621,0 C473.953736,0 512,38.0462662 512,84.4773818 L512,427.522618 C512,473.953734 473.953736,512 427.522621,512 L84.4773797,512 C38.0462641,512 0,473.953734 0,427.522618 L0,84.4773818 C0,38.0462662 38.0462641,0 84.4773797,0 L84.4773797,0 Z M198.30174,97.997952 L267.581576,97.997952 C293.155373,101.037463 330.363152,122.942883 344.093347,152.080244 C347.86653,160.255476 349.857933,161.513204 353.002252,185.724463 C354.679222,198.196934 355.517708,207.420265 361.072671,212.555985 C368.93347,219.683107 398.070829,214.861824 403.835414,219.368681 L408.237462,222.827427 L410.857728,228.277585 L411.801024,232.679633 L411.17216,312.754967 C410.857728,367.151686 366.627635,411.696209 312.1261,411.696209 L198.30174,411.696209 C143.800205,411.696209 99.2556807,367.151686 99.2556807,312.754967 L99.2556807,197.148823 C99.2556807,142.647284 143.800205,97.997952 198.30174,97.997952 L198.30174,97.997952 Z M199.559468,179.016576 L254.480246,179.016576 C264.96131,179.016576 273.450972,187.506246 273.450972,197.882496 C273.450972,208.258746 264.96131,216.853225 254.480246,216.853225 L199.559468,216.853225 C189.078403,216.853225 180.588741,208.258746 180.588741,197.882496 C180.588741,187.506246 189.078403,179.016576 199.559468,179.016576 L199.559468,179.016576 Z M199.559468,292.421702 L311.182805,292.421702 C321.559059,292.421702 330.04872,300.91136 330.04872,311.28761 C330.04872,321.559063 321.559059,330.15353 311.182805,330.15353 L199.559468,330.15353 C189.078403,330.15353 180.588741,321.559063 180.588741,311.28761 C180.588741,300.91136 189.078403,292.421702 199.559468,292.421702 L199.559468,292.421702 Z" id="icon-blogger" sketch:type="MSShapeGroup"></path>
        </g>
    </g>
</svg>