<?xml version="1.0" encoding="UTF-8" standalone="no"?>
<svg width="512px" height="512px" viewBox="0 0 512 512" version="1.1" xmlns="http://www.w3.org/2000/svg" xmlns:xlink="http://www.w3.org/1999/xlink">
    <!-- Generator: Sketch 39.1 (31720) - http://www.bohemiancoding.com/sketch -->
    <title>icon-bold</title>
    <desc>Created with Sketch.</desc>
    <defs></defs>
    <g id="Page-1" stroke="none" stroke-width="1" fill="none" fill-rule="evenodd">
        <g id="icon-bold" fill="#222222">
            <path d="M68,0 L225.822879,0 C297.739596,0 349.942026,10.3309504 382.431733,30.9931596 C414.921441,51.6553689 431.166051,84.515962 431.166051,129.575922 C431.166051,160.160663 424.055421,185.258451 409.833948,204.87004 C395.612474,224.48163 376.708605,236.271753 353.12177,240.240766 L353.12177,243.742818 C385.264613,250.980429 408.446422,264.521559 422.667895,284.36662 C436.889369,304.211681 444,330.593543 444,363.512996 C444,410.207257 427.292909,446.628231 393.878227,472.777018 C360.463548,498.925804 315.082696,512 257.734316,512 L68,512 L68,0 L68,0 Z M175.527674,202.76881 L237.9631,202.76881 C267.099777,202.76881 288.200425,198.216187 301.265681,189.110806 C314.330938,180.005425 320.863467,164.946752 320.863467,143.934336 C320.863467,124.322747 313.752839,110.256313 299.531364,101.73461 C285.309892,93.2129078 262.821802,88.9521199 232.066419,88.9521199 L175.527674,88.9521199 L175.527674,202.76881 L175.527674,202.76881 Z M175.527674,288.919288 L175.527674,422.347469 L245.594095,422.347469 C275.193258,422.347469 297.04544,416.627509 311.151291,405.187415 C325.257143,393.74732 332.309963,376.237236 332.309963,352.656634 C332.309963,310.164858 302.248762,288.919288 242.12546,288.919288 L175.527674,288.919288 L175.527674,288.919288 Z" id="bold"></path>
        </g>
    </g>
</svg>