<?xml version="1.0" encoding="UTF-8" standalone="no"?>
<svg width="512px" height="512px" viewBox="0 0 512 512" version="1.1" xmlns="http://www.w3.org/2000/svg" xmlns:xlink="http://www.w3.org/1999/xlink">
    <!-- Generator: Sketch 39.1 (31720) - http://www.bohemiancoding.com/sketch -->
    <title>bookmark-all</title>
    <desc>Created with Sketch.</desc>
    <defs></defs>
    <g id="Page-1" stroke="none" stroke-width="1" fill="none" fill-rule="evenodd">
        <g id="bookmark-all" fill="#000000">
            <path d="M136,80.8421053 L136,53.7700452 C136,24.0736693 159.790577,0 189.200707,0 L402.799293,0 C432.181232,0 456,24.1047917 456,53.9521037 L456,431.157895 L376,372.363636 L376,336.842105 L429.333333,377.263158 L429.333333,53.8543786 C429.333333,39.0060308 417.449209,26.9473684 402.789399,26.9473684 L189.210602,26.9473684 C174.642832,26.9473684 162.666667,39.048305 162.666667,53.9755668 L162.666667,80.8421053 L322.799293,80.8421053 C352.181232,80.8421053 376,104.946897 376,134.794209 L376,512 L216,394.411484 L56,512 L56,134.794209 C56,104.997285 79.7905771,80.8421053 109.200707,80.8421053 L136,80.8421053 L136,80.8421053 Z M82.6666667,134.696484 C82.6666667,119.836152 94.6428317,107.789474 109.210602,107.789474 L322.789399,107.789474 C337.449209,107.789474 349.333333,119.848136 349.333333,134.696484 L349.333333,458.105263 L216,363.789474 L82.6666667,458.105263 L82.6666667,134.696484 L82.6666667,134.696484 Z"></path>
        </g>
    </g>
</svg>