<?xml version="1.0" encoding="UTF-8" standalone="no"?>
<svg width="512px" height="512px" viewBox="0 0 512 512" version="1.1" xmlns="http://www.w3.org/2000/svg" xmlns:xlink="http://www.w3.org/1999/xlink" xmlns:sketch="http://www.bohemiancoding.com/sketch/ns">
    <!-- Generator: Sketch 3.3.3 (12072) - http://www.bohemiancoding.com/sketch -->
    <title>512</title>
    <desc>Created with Sketch.</desc>
    <defs></defs>
    <g id="Page-1" stroke="none" stroke-width="1" fill="none" fill-rule="evenodd" sketch:type="MSPage">
        <g id="512" sketch:type="MSArtboardGroup" fill="#000000">
            <path d="M137.698828,29.2836346 L374.298109,29.2836346 C398.696595,29.2836346 418.458475,48.9350003 418.458475,73.2775255 L418.458475,454.242854 L255.998468,337.334938 L93.5384615,454.242854 L93.5384615,73.2775255 C93.5384615,48.9568119 113.302276,29.2836346 137.698828,29.2836346 L137.698828,29.2836346 Z M64,512 L256,373.995943 L448,512 C448,512 448,493.958233 448,484.937349 C448,347.717408 448,73.2775255 448,73.2775255 C448,32.7788926 415.032377,-0.00405691186 374.300756,-0.00405691186 L137.699244,-0.00405691186 C96.9628454,-0.00405691186 64,32.8073102 64,73.2775255 L64,512 L64,512 Z" id="icon-bookmark" sketch:type="MSShapeGroup"></path>
        </g>
    </g>
</svg>