<?xml version="1.0" encoding="UTF-8" standalone="no"?>
<svg width="512px" height="512px" viewBox="0 0 512 512" version="1.1" xmlns="http://www.w3.org/2000/svg" xmlns:xlink="http://www.w3.org/1999/xlink">
    <!-- Generator: Sketch 39.1 (31720) - http://www.bohemiancoding.com/sketch -->
    <title>bookmark-all-fill</title>
    <desc>Created with Sketch.</desc>
    <defs></defs>
    <g id="Page-1" stroke="none" stroke-width="1" fill="none" fill-rule="evenodd">
        <g id="bookmark-all-fill" fill="#000000">
            <path d="M136,80.8421053 L136,53.7700446 C136,24.0736687 159.790577,0 189.200707,0 L402.799293,0 C432.181232,0 456,24.1047916 456,53.9521037 L456,431.157895 L376,372.363641 L376,336.842105 L429.333333,377.263158 L429.333333,53.8543791 C429.333333,39.0060315 417.449209,26.9473684 402.789399,26.9473684 L189.210601,26.9473684 C174.642832,26.9473684 162.666667,39.0483052 162.666667,53.9755668 L162.666667,80.8421053 L322.799293,80.8421053 C352.181232,80.8421053 376,104.946904 376,134.794213 L376,512 L216,394.41148 L56,512 L56,134.794213 C56,104.997282 79.7905773,80.8421053 109.200707,80.8421053 L136,80.8421053 L136,80.8421053 Z"></path>
        </g>
    </g>
</svg>