<?xml version="1.0" encoding="UTF-8" standalone="no"?>
<svg width="512px" height="512px" viewBox="0 0 512 512" version="1.1" xmlns="http://www.w3.org/2000/svg" xmlns:xlink="http://www.w3.org/1999/xlink">
    <!-- Generator: Sketch 39.1 (31720) - http://www.bohemiancoding.com/sketch -->
    <title>icon-box</title>
    <desc>Created with Sketch.</desc>
    <defs></defs>
    <g id="Page-1" stroke="none" stroke-width="1" fill="none" fill-rule="evenodd">
        <g id="icon-box" fill="#000000">
            <g id="box" transform="translate(0.000000, 112.000000)">
                <path d="M275.093573,84.9990282 C237.024384,84.9990282 203.964814,106.825633 187.259594,138.869016 C170.554377,106.825633 137.496431,84.9990282 99.4272428,84.9990282 C77.0512812,84.9990282 56.4036694,92.5390391 39.7894144,105.261976 L39.7894144,19.8604363 L39.7796694,19.8604363 C39.5490048,8.85520292 30.7431908,0 19.8938966,0 C9.04459948,0 0.238785423,8.85520292 0.00974506668,19.8604363 L-1.61687947e-13,19.8604363 L-1.61687947e-13,188.066254 L0.0422343112,188.066254 C0.925900801,243.281251 45.0686806,287.775919 99.4272428,287.775919 C137.496431,287.775919 170.554377,265.946004 187.259594,233.902619 C203.964814,265.946004 237.024384,287.775919 275.093573,287.775919 C330.004426,287.775919 374.519191,242.380161 374.519191,186.388302 C374.519191,130.391476 330.004426,84.9990282 275.093573,84.9990282 L275.093573,84.9990282 L275.093573,84.9990282 Z M99.4272428,247.200333 C66.4895005,247.200333 39.7894144,219.97381 39.7894144,186.388302 C39.7894144,152.797827 66.4895005,125.57296 99.4272428,125.57296 C132.364985,125.57296 159.065071,152.797827 159.065071,186.388302 C159.065071,219.97381 132.364985,247.200333 99.4272428,247.200333 L99.4272428,247.200333 L99.4272428,247.200333 Z M275.093573,247.200333 C242.15583,247.200333 215.455744,219.97381 215.455744,186.388302 C215.455744,152.797827 242.15583,125.57296 275.093573,125.57296 C308.029688,125.57296 334.731398,152.797827 334.731398,186.388302 C334.731398,219.97381 308.029688,247.200333 275.093573,247.200333 L275.093573,247.200333 Z M508.268155,255.870018 L457.350048,186.461186 L508.268155,117.055663 L508.260031,117.049038 C514.557788,108.106045 512.7336,95.6348823 504.056113,88.9876797 C495.381874,82.3437925 483.125857,84.0333382 476.459364,92.6930861 L476.454489,92.6881175 L432.505015,152.595744 L388.557162,92.6881175 L388.549041,92.6963985 C381.882548,84.0349944 369.628155,82.3471049 360.950668,88.9926513 C352.274802,95.6381947 350.44899,108.111014 356.751619,117.050695 L356.741874,117.055663 L407.661605,186.461186 L356.741874,255.870018 L356.751619,255.87499 C350.44899,264.814671 352.274802,277.28749 360.950668,283.931377 C369.628155,290.578577 381.882548,288.889031 388.549041,280.22763 L388.557162,280.235911 L432.505015,220.32994 L476.454489,280.235911 L476.459364,280.232598 C483.125857,288.890687 495.381874,290.580233 504.056113,283.936346 C512.7336,277.290802 514.557788,264.817983 508.260031,255.876646 L508.268155,255.870018 L508.268155,255.870018 Z" id="boxOverlay"></path>
            </g>
        </g>
    </g>
</svg>