<?xml version="1.0" encoding="UTF-8" standalone="no"?>
<svg width="512px" height="512px" viewBox="0 0 512 512" version="1.1" xmlns="http://www.w3.org/2000/svg" xmlns:xlink="http://www.w3.org/1999/xlink">
    <!-- Generator: Sketch 39.1 (31720) - http://www.bohemiancoding.com/sketch -->
    <title>512</title>
    <desc>Created with Sketch.</desc>
    <defs></defs>
    <g id="Page-1" stroke="none" stroke-width="1" fill="none" fill-rule="evenodd">
        <g id="512" fill="#000000">
            <path d="M74.6777357,76 C28.5288983,122.119286 0,185.741201 0,256 C0,326.258799 28.5288983,389.880714 74.6777357,436 L91.5881151,423.969007 C47.719798,381.362492 20.48,321.849743 20.48,256 C20.48,190.150258 47.719798,130.637508 91.5881151,88.0309923 L74.6777357,76 L74.6777357,76 Z M437.322265,76 C483.471102,122.119286 512,185.741201 512,256 C512,326.258799 483.471102,389.880714 437.322265,436 L420.411885,423.969007 C464.280202,381.362492 491.52,321.849743 491.52,256 C491.52,190.150258 464.280202,130.637508 420.411885,88.0309923 L437.322265,76 L437.322265,76 Z M168.588396,142.81331 C134.562743,168.921538 112.64,209.910746 112.64,256 C112.64,302.089254 134.562743,343.078462 168.588396,369.18669 L186.137863,356.701014 C154.103376,334.610803 133.12,297.746159 133.12,256 C133.12,214.253841 154.103376,177.389197 186.137863,155.298986 L168.588396,142.81331 L168.588396,142.81331 Z M343.411604,142.81331 C377.437257,168.921538 399.36,209.910746 399.36,256 C399.36,302.089254 377.437257,343.078462 343.411604,369.18669 L325.862137,356.701014 C357.896624,334.610803 378.88,297.746159 378.88,256 C378.88,214.253841 357.896624,177.389197 325.862137,155.298986 L343.411604,142.81331 L343.411604,142.81331 Z M256,306.997172 C227.723021,306.997172 204.8,284.16496 204.8,256 C204.8,227.83504 227.723021,205.002828 256,205.002828 C284.276979,205.002828 307.2,227.83504 307.2,256 C307.2,284.16496 284.276979,306.997172 256,306.997172 L256,306.997172 Z" id="Broadcast"></path>
        </g>
    </g>
</svg>