<?xml version="1.0" encoding="UTF-8" standalone="no"?>
<svg width="512px" height="512px" viewBox="0 0 512 512" version="1.1" xmlns="http://www.w3.org/2000/svg" xmlns:xlink="http://www.w3.org/1999/xlink">
    <!-- Generator: Sketch 39.1 (31720) - http://www.bohemiancoding.com/sketch -->
    <title>512</title>
    <desc>Created with Sketch.</desc>
    <defs></defs>
    <g id="Page-1" stroke="none" stroke-width="1" fill="none" fill-rule="evenodd">
        <g id="512" fill="#000000">
            <path d="M0,218.099037 C0,207.701553 8.55088156,199.272727 18.9900726,199.272727 L341.306224,199.272727 C351.794151,199.272727 360.296296,207.780849 360.296296,218.099037 L360.296296,445.17369 C360.296296,455.571174 351.745415,464 341.306224,464 L18.9900726,464 C8.50214511,464 0,455.491878 0,445.17369 L0,218.099037 L0,218.099037 Z M18.962963,218.181818 L18.962963,445.090909 L341.333333,445.090909 L341.333333,218.181818 L18.962963,218.181818 L18.962963,218.181818 Z M56.8888889,407.272727 L113.777778,407.272727 L113.777778,426.181818 L56.8888889,426.181818 L56.8888889,407.272727 L56.8888889,407.272727 Z M132.740741,407.272727 L170.666667,407.272727 L170.666667,426.181818 L132.740741,426.181818 L132.740741,407.272727 L132.740741,407.272727 Z M189.62963,407.272727 L246.518519,407.272727 L246.518519,426.181818 L189.62963,426.181818 L189.62963,407.272727 L189.62963,407.272727 Z M265.481481,407.272727 L303.407407,407.272727 L303.407407,426.181818 L265.481481,426.181818 L265.481481,407.272727 L265.481481,407.272727 Z M56.8888889,378.909091 L151.703704,246.545455 L199.111111,322.181818 L237.037037,303.272727 L303.407407,378.909091 L56.8888889,378.909091 L56.8888889,378.909091 Z M260.740741,360 L231.362291,327.243046 L192.169202,346.783918 L150.652327,280.545631 L93.7375161,360 L260.740741,360 L260.740741,360 Z M426.666667,161.454545 C410.957234,161.454545 398.222222,148.755712 398.222222,133.090909 C398.222222,117.426105 410.957234,104.727273 426.666667,104.727273 C442.376099,104.727273 455.111111,117.426105 455.111111,133.090909 C455.111111,148.755712 442.376099,161.454545 426.666667,161.454545 L426.666667,161.454545 Z M379.259259,237.090909 L379.259259,218.181818 L388.740741,218.181818 L379.259259,209.078893 L379.259259,199.269087 C379.259259,188.753915 370.765583,180.363636 360.288102,180.363636 L300.008341,180.363636 L273.911586,138.727449 L244.086722,180.363636 L220.783069,180.363636 L274.962963,104.727273 L322.37037,180.363636 L360.296296,161.454545 L426.666667,237.090909 L379.259259,237.090909 L379.259259,237.090909 Z M161.185185,180.363636 L161.185185,48 L512,48 L512,293.818182 L379.259259,293.818182 L379.259259,274.909091 L493.037037,274.909091 L493.037037,66.9090909 L180.148148,66.9090909 L180.148148,180.363636 L161.185185,180.363636 L161.185185,180.363636 Z M379.259259,312.727273 L455.111111,312.727273 L455.111111,331.636364 L379.259259,331.636364 L379.259259,312.727273 L379.259259,312.727273 Z" id="BroadcastMode"></path>
        </g>
    </g>
</svg>