<?xml version="1.0" encoding="UTF-8"?>
<svg width="512px" height="512px" viewBox="0 0 512 512" version="1.1" xmlns="http://www.w3.org/2000/svg" xmlns:xlink="http://www.w3.org/1999/xlink">
    <!-- Generator: Sketch 46.1 (44463) - http://www.bohemiancoding.com/sketch -->
    <title>browser</title>
    <desc>Created with Sketch.</desc>
    <defs>
        <polygon id="path-1" points="255.997468 382.593407 511.994374 382.593407 511.994374 0.83832967 255.997468 0.83832967 0.000562637363 0.83832967 0.000562637363 382.593407"></polygon>
    </defs>
    <g id="Page-1" stroke="none" stroke-width="1" fill="none" fill-rule="evenodd">
        <g id="browser">
            <g id="icon" transform="translate(0.000000, 62.000000)">
                <g id="Group-3" transform="translate(0.000000, 4.785793)">
                    <mask id="mask-2" fill="white">
                        <use xlink:href="#path-1"></use>
                    </mask>
                    <g id="Clip-2"></g>
                    <path d="M26.5795516,121.197714 L485.415947,121.197714 L485.415947,335.230593 C485.415947,346.697143 476.098673,356.02567 464.649002,356.02567 L47.3633758,356.02567 C35.9024527,356.02567 26.5795516,346.697143 26.5795516,335.230593 L26.5795516,121.197714 Z M485.415947,48.2067692 L485.415947,94.629978 L26.5795516,94.629978 L26.5795516,48.2067692 C26.5795516,36.7402198 35.9024527,27.4116923 47.3633758,27.4116923 L464.649002,27.4116923 C476.098673,27.4116923 485.415947,36.7402198 485.415947,48.2067692 L485.415947,48.2067692 Z M498.114673,14.7242198 C489.163112,5.77265934 477.280211,0.83832967 464.654629,0.83832967 L47.3633758,0.83832967 C21.2457495,0.83832967 0.000562637363,22.0891429 0.000562637363,48.2067692 L0.000562637363,335.230593 C0.000562637363,361.34822 21.2457495,382.593407 47.3633758,382.593407 L464.649002,382.593407 C490.755376,382.593407 511.994936,361.34822 511.994936,335.230593 L511.994936,48.2067692 C512.000563,35.5755604 507.071859,23.6814066 498.114673,14.7242198 L498.114673,14.7242198 Z" id="Fill-1" fill="#000000" mask="url(#mask-2)"></path>
                </g>
                <path d="M72.6595516,78.3185582 C80.9472,78.3185582 87.693222,71.5725363 87.693222,63.2848879 L87.693222,63.2792615 L87.693222,63.2792615 C87.693222,54.9916132 80.9472,48.2455912 72.6595516,48.2455912 C64.3719033,48.2455912 57.6258813,54.9859868 57.6202549,63.2792615 C57.6202549,66.3906462 58.5711121,69.2826022 60.1971341,71.6850637 C62.9034198,75.6854154 67.4776615,78.3185582 72.6595516,78.3185582" id="Fill-4" fill="#000000"></path>
                <path d="M116.313459,78.3185582 C121.495349,78.3185582 126.075218,75.6854154 128.775877,71.6850637 C130.401899,69.2826022 131.352756,66.3906462 131.352756,63.2792615 C131.352756,54.9916132 124.606734,48.2455912 116.313459,48.2455912 C112.296229,48.2455912 108.520932,49.8097231 105.679613,52.6510418 C103.603481,54.7271736 102.230646,57.3096791 101.634251,60.1116132 C101.622998,60.1622505 101.594866,60.2072615 101.583613,60.2635253 C101.38669,61.2425143 101.279789,62.2552615 101.279789,63.2792615 L101.279789,63.2792615 L101.279789,63.2848879 C101.279789,71.5725363 108.025811,78.3185582 116.313459,78.3185582" id="Fill-6" fill="#000000"></path>
                <path d="M159.969618,78.3185582 C168.257266,78.3185582 175.003288,71.5725363 175.003288,63.2848879 L175.003288,63.2792615 L175.003288,63.2792615 C175.003288,54.9916132 168.257266,48.2455912 159.969618,48.2455912 C155.952387,48.2455912 152.17709,49.8097231 149.335771,52.6510418 C147.25964,54.7271736 145.886804,57.3096791 145.284782,60.1116132 C145.27353,60.1622505 145.251024,60.2072615 145.239771,60.2635253 C145.042848,61.2425143 144.935947,62.2552615 144.935947,63.2792615 L144.935947,63.2792615 L144.935947,63.2848879 C144.935947,71.5725363 151.676343,78.3185582 159.969618,78.3185582" id="Fill-8" fill="#000000"></path>
            </g>
        </g>
    </g>
</svg>