<?xml version="1.0" encoding="UTF-8"?>
<svg width="512px" height="512px" viewBox="0 0 512 512" version="1.1" xmlns="http://www.w3.org/2000/svg" xmlns:xlink="http://www.w3.org/1999/xlink">
    <!-- Generator: Sketch 39.1 (31720) - http://www.bohemiancoding.com/sketch -->
    <title>btc</title>
    <desc>Created with Sketch.</desc>
    <defs></defs>
    <g id="Page-1" stroke="none" stroke-width="1" fill="none" fill-rule="evenodd">
        <g id="btc" fill="#F26724">
            <g id="icon-btc" transform="translate(0.000000, 24.000000)">
                <path d="M503.741935,13.4011415 L498.646865,8.25754702 L498.646865,338.580128 L503.741935,333.436533 L8.25806452,333.436533 L13.3531345,338.580128 L13.3531345,8.25754702 L8.25806452,13.4011415 L503.741935,13.4011415 Z M0,0 L0,5.23765854 L0,341.601051 L0,346.83871 L5.15880939,346.83871 L506.841191,346.83871 L512,346.83871 L512,341.601051 L512,5.23765854 L512,0 L506.841191,0 L5.15880939,0 L0,0 Z" id="Shape"></path>
                <path d="M323.97548,179.779956 L214.604258,256.312787 C208.427146,260.63761 200,256.147356 200,248.528105 L200,95.4718954 C200,87.8526436 208.427146,83.3623898 214.604258,87.6872132 L323.97548,164.220044 C326.495487,165.984811 328,168.893244 328,172 C328,175.106756 326.495487,178.015189 323.97548,179.779956 L323.97548,179.779956 Z M264,356 L264,456.735826 C264,460.745913 260.448,464 256,464 C251.58,464 248,460.750609 248,456.735826 L248,356 L264,356 L264,356 Z" id="Shape"></path>
                <path d="M249.444951,365.434094 C253.110978,361.767383 258.201115,360.897714 260.804934,363.502019 L324.490403,427.199378 C327.094222,429.803684 326.252916,434.866566 322.558689,438.561483 C318.887962,442.232895 313.802524,443.102564 311.198705,440.498259 L247.513237,376.8009 C244.904717,374.191893 245.746024,369.133712 249.440251,365.434094 L249.444951,365.434094 Z" id="Shape"></path>
                <path d="M262.558689,365.434094 C258.887962,361.767383 253.802524,360.897714 251.198705,363.502019 L187.513237,427.199378 C184.904717,429.803684 185.746024,434.866566 189.440251,438.561483 C193.115678,442.232895 198.201115,443.102564 200.804934,440.498259 L264.490403,376.8009 C267.094222,374.191893 266.252916,369.133712 262.558689,365.434094 L262.558689,365.434094 Z" id="Shape"></path>
            </g>
        </g>
    </g>
</svg>