<svg width="512" height="512" viewBox="0 0 512 512" fill="none" xmlns="http://www.w3.org/2000/svg">
<path fill-rule="evenodd" clip-rule="evenodd" d="M117.333 53.3333C117.333 47.4423 122.109 42.6666 128 42.6666C133.891 42.6666 138.667 47.4423 138.667 53.3333V85.3333H202.667V53.3333C202.667 47.4423 207.442 42.6666 213.333 42.6666C219.224 42.6666 224 47.4423 224 53.3333V85.3333H288V53.3333C288 47.4423 292.776 42.6666 298.667 42.6666C304.558 42.6666 309.333 47.4423 309.333 53.3333V85.3333H373.333V53.3333C373.333 47.4423 378.109 42.6666 384 42.6666C389.891 42.6666 394.667 47.4423 394.667 53.3333V85.3333H405.333C428.898 85.3333 448 104.436 448 128V426.667C448 450.231 428.898 469.333 405.333 469.333H106.667C83.1025 469.333 64 450.231 64 426.667V128C64 104.436 83.1025 85.3333 106.667 85.3333H117.333V53.3333ZM360 213.333C354.109 213.333 349.333 218.109 349.333 224V256C349.333 261.891 354.109 266.667 360 266.667H392C397.891 266.667 402.667 261.891 402.667 256V224C402.667 218.109 397.891 213.333 392 213.333H360ZM360 293.333C354.109 293.333 349.333 298.109 349.333 304V336C349.333 341.891 354.109 346.667 360 346.667H392C397.891 346.667 402.667 341.891 402.667 336V304C402.667 298.109 397.891 293.333 392 293.333H360ZM269.333 384C269.333 378.109 274.109 373.333 280 373.333H312C317.891 373.333 322.667 378.109 322.667 384V416C322.667 421.891 317.891 426.667 312 426.667H280C274.109 426.667 269.333 421.891 269.333 416V384ZM280 293.333C274.109 293.333 269.333 298.109 269.333 304V336C269.333 341.891 274.109 346.667 280 346.667H312C317.891 346.667 322.667 341.891 322.667 336V304C322.667 298.109 317.891 293.333 312 293.333H280ZM269.333 224C269.333 218.109 274.109 213.333 280 213.333H312C317.891 213.333 322.667 218.109 322.667 224V256C322.667 261.891 317.891 266.667 312 266.667H280C274.109 266.667 269.333 261.891 269.333 256V224ZM200 373.333C194.109 373.333 189.333 378.109 189.333 384V416C189.333 421.891 194.109 426.667 200 426.667H232C237.891 426.667 242.667 421.891 242.667 416V384C242.667 378.109 237.891 373.333 232 373.333H200ZM189.333 304C189.333 298.109 194.109 293.333 200 293.333H232C237.891 293.333 242.667 298.109 242.667 304V336C242.667 341.891 237.891 346.667 232 346.667H200C194.109 346.667 189.333 341.891 189.333 336V304ZM200 213.333C194.109 213.333 189.333 218.109 189.333 224V256C189.333 261.891 194.109 266.667 200 266.667H232C237.891 266.667 242.667 261.891 242.667 256V224C242.667 218.109 237.891 213.333 232 213.333H200ZM109.333 384C109.333 378.109 114.109 373.333 120 373.333H152C157.891 373.333 162.667 378.109 162.667 384V416C162.667 421.891 157.891 426.667 152 426.667H120C114.109 426.667 109.333 421.891 109.333 416V384ZM120 293.333C114.109 293.333 109.333 298.109 109.333 304V336C109.333 341.891 114.109 346.667 120 346.667H152C157.891 346.667 162.667 341.891 162.667 336V304C162.667 298.109 157.891 293.333 152 293.333H120Z" fill="#A7A7A7"/>
</svg>
