<?xml version="1.0" encoding="UTF-8" standalone="no"?>
<svg width="512px" height="512px" viewBox="0 0 512 512" version="1.1" xmlns="http://www.w3.org/2000/svg" xmlns:xlink="http://www.w3.org/1999/xlink">
    <!-- Generator: Sketch 3.7.2 (28276) - http://www.bohemiancoding.com/sketch -->
    <title>512</title>
    <desc>Created with Sketch.</desc>
    <defs></defs>
    <g id="Page-1" stroke="none" stroke-width="1" fill="none" fill-rule="evenodd">
        <g id="512" fill="#000000">
            <path d="M412.090909,22.2608696 L434.287354,22.2608696 C471.131731,22.2608696 501,52.1361144 501,88.9785319 L501,445.282338 C501,482.129485 471.124081,512 434.287354,512 L78.7126461,512 C41.868269,512 12,482.124755 12,445.282338 L12,88.9785319 C12,52.1313844 41.8759187,22.2608696 78.7126461,22.2608696 L100.909091,22.2608696 L100.909091,66.8037415 C100.909091,79.0882484 110.865757,89.0434783 123.147926,89.0434783 L145.352074,89.0434783 C157.625986,89.0434783 167.590909,79.0864089 167.590909,66.8037415 L167.590909,22.2608696 L345.409091,22.2608696 L345.409091,66.8037415 C345.409091,79.0882484 355.365757,89.0434783 367.647926,89.0434783 L389.852074,89.0434783 C402.125986,89.0434783 412.090909,79.0864089 412.090909,66.8037415 L412.090909,22.2608696 Z M34.2272727,155.826087 L478.772727,155.826087 L478.772727,445.268636 C478.772727,469.829012 458.862369,489.73913 434.292261,489.73913 L78.7077395,489.73913 C54.141856,489.73913 34.2272727,469.820405 34.2272727,445.268636 L34.2272727,155.826087 Z M100.909091,300.521739 L145.363636,300.521739 L145.363636,345.043478 L100.909091,345.043478 L100.909091,300.521739 Z M189.818182,211.478261 L234.272727,211.478261 L234.272727,256 L189.818182,256 L189.818182,211.478261 Z M189.818182,300.521739 L234.272727,300.521739 L234.272727,345.043478 L189.818182,345.043478 L189.818182,300.521739 Z M278.727273,211.478261 L323.181818,211.478261 L323.181818,256 L278.727273,256 L278.727273,211.478261 Z M278.727273,300.521739 L323.181818,300.521739 L323.181818,345.043478 L278.727273,345.043478 L278.727273,300.521739 Z M367.636364,211.478261 L412.090909,211.478261 L412.090909,256 L367.636364,256 L367.636364,211.478261 Z M367.636364,300.521739 L412.090909,300.521739 L412.090909,345.043478 L367.636364,345.043478 L367.636364,300.521739 Z M100.909091,389.565217 L145.363636,389.565217 L145.363636,434.086957 L100.909091,434.086957 L100.909091,389.565217 Z M189.818182,389.565217 L234.272727,389.565217 L234.272727,434.086957 L189.818182,434.086957 L189.818182,389.565217 Z M278.727273,389.565217 L323.181818,389.565217 L323.181818,434.086957 L278.727273,434.086957 L278.727273,389.565217 Z M123.136364,0 L145.363636,0 L145.363636,66.7826087 L123.136364,66.7826087 L123.136364,0 Z M367.636364,0 L389.863636,0 L389.863636,66.7826087 L367.636364,66.7826087 L367.636364,0 Z" id="LogMeeting"></path>
        </g>
    </g>
</svg>