<svg width="512" height="512" viewBox="0 0 512 512" fill="none" xmlns="http://www.w3.org/2000/svg">
<path fill-rule="evenodd" clip-rule="evenodd" d="M79.2828 116.364C48.2981 116.364 23.2727 141.366 23.2727 172.207V339.793C23.2727 370.853 48.3493 395.636 79.2828 395.636H293.081C324.065 395.636 349.091 370.634 349.091 339.793V172.207C349.091 141.147 324.014 116.364 293.081 116.364H79.2828ZM488.727 162.909L372.364 219.961V315.048L488.727 372.364V162.909ZM46.5454 172.207V339.793C46.5454 357.894 61.0971 372.364 79.2828 372.364H293.081C311.207 372.364 325.818 357.787 325.818 339.793V172.207C325.818 154.106 311.267 139.636 293.081 139.636H79.2828C61.1568 139.636 46.5454 154.214 46.5454 172.207ZM395.636 300.568V234.47L465.455 200.239V334.957L395.636 300.568Z" fill="#7A7A7A"/>
</svg>
