<svg width="512" height="512" viewBox="0 0 512 512" fill="none" xmlns="http://www.w3.org/2000/svg">
<path d="M256 5.3335C267.664 5.3335 277.974 12.9135 281.453 24.0462L297.272 74.6668H214.728L230.547 24.0462C234.026 12.9135 244.336 5.3335 256 5.3335Z" fill="#A7A7A7"/>
<path d="M334.728 373.333H390.605L398.442 398.411H426.667C441.394 398.411 453.333 410.351 453.333 425.078C453.333 439.806 441.394 451.745 426.667 451.745H415.109L421.453 472.046C425.846 486.103 418.011 501.06 403.954 505.453C389.897 509.846 374.94 502.011 370.547 487.954L359.232 451.745H152.768L141.453 487.954C137.06 502.011 122.103 509.846 108.046 505.453C93.9889 501.06 86.1544 486.103 90.5473 472.046L96.8915 451.745H85.3334C70.6058 451.745 58.6667 439.806 58.6667 425.078C58.6667 410.351 70.6058 398.411 85.3334 398.411H113.558L121.395 373.333H177.272L169.435 398.411H342.565L334.728 373.333Z" fill="#A7A7A7"/>
<path d="M85.3334 96.0002C61.7693 96.0002 42.6667 115.103 42.6667 138.667V309.333C42.6667 332.898 61.7693 352 85.3334 352H426.667C450.231 352 469.333 332.898 469.333 309.333V138.667C469.333 115.103 450.231 96.0002 426.667 96.0002H85.3334Z" fill="#A7A7A7"/>
</svg>
