<svg width="512" height="512" viewBox="0 0 512 512" fill="none" xmlns="http://www.w3.org/2000/svg">
<path fill-rule="evenodd" clip-rule="evenodd" d="M245.333 40C254.17 40 261.333 47.1634 261.333 56V80H285.333C293.113 80 300.574 83.0905 306.075 88.5915C310.944 93.4605 313.925 99.8649 314.545 106.667H400C411.316 106.667 422.168 111.162 430.17 119.163C438.171 127.165 442.667 138.017 442.667 149.333V213.333C442.667 222.17 435.503 229.333 426.667 229.333C417.83 229.333 410.667 222.17 410.667 213.333V149.333C410.667 146.504 409.543 143.791 407.542 141.791C405.542 139.79 402.829 138.667 400 138.667H311.553C309.427 143.921 306.256 148.751 302.17 152.837C294.168 160.838 283.316 165.333 272 165.333H218.667C207.351 165.333 196.498 160.838 188.497 152.837C184.411 148.751 181.239 143.921 179.114 138.667H90.6667C87.8377 138.667 85.1246 139.79 83.1242 141.791C81.1238 143.791 80 146.504 80 149.333V309.333C80 312.162 81.1238 314.875 83.1242 316.876C85.1246 318.876 87.8377 320 90.6667 320H156.98C157.22 319.995 157.461 319.995 157.702 320H192C200.837 320 208 327.163 208 336C208 344.837 200.837 352 192 352H167.884L132.04 435.636C128.559 443.758 119.153 447.521 111.031 444.04C102.909 440.559 99.1461 431.153 102.627 423.031L133.069 352H90.6667C79.3507 352 68.4983 347.505 60.4968 339.503C52.4952 331.502 48 320.649 48 309.333V149.333C48 138.017 52.4952 127.165 60.4968 119.163C68.4983 111.162 79.3508 106.667 90.6667 106.667H176.121C176.742 99.8649 179.723 93.4605 184.592 88.5915C190.093 83.0905 197.554 80 205.333 80H229.333V56C229.333 47.1634 236.497 40 245.333 40ZM208 112V122.667C208 125.496 209.124 128.209 211.124 130.209C213.125 132.21 215.838 133.333 218.667 133.333H272C274.829 133.333 277.542 132.21 279.542 130.209C281.543 128.209 282.667 125.496 282.667 122.667V112H208ZM262.595 254.595C285.599 231.59 316.8 218.667 349.333 218.667C381.867 218.667 413.067 231.59 436.072 254.595C459.076 277.599 472 308.8 472 341.333C472 373.867 459.076 405.067 436.072 428.072C413.067 451.076 381.867 464 349.333 464C316.8 464 285.599 451.076 262.595 428.072C239.59 405.067 226.667 373.867 226.667 341.333C226.667 308.8 239.59 277.599 262.595 254.595ZM349.333 250.667C325.287 250.667 302.226 260.219 285.222 277.222C268.219 294.226 258.667 317.287 258.667 341.333C258.667 365.38 268.219 388.441 285.222 405.444C302.226 422.448 325.287 432 349.333 432C373.38 432 396.441 422.448 413.444 405.444C430.448 388.441 440 365.38 440 341.333C440 317.287 430.448 294.226 413.444 277.222C396.441 260.219 373.38 250.667 349.333 250.667ZM349.333 272C358.17 272 365.333 279.163 365.333 288V325.333H402.667C411.503 325.333 418.667 332.497 418.667 341.333C418.667 350.17 411.503 357.333 402.667 357.333H365.333V394.667C365.333 403.503 358.17 410.667 349.333 410.667C340.497 410.667 333.333 403.503 333.333 394.667V357.333H296C287.163 357.333 280 350.17 280 341.333C280 332.497 287.163 325.333 296 325.333H333.333V288C333.333 279.163 340.497 272 349.333 272Z" fill="#F66620"/>
</svg>
