<?xml version="1.0" encoding="UTF-8" standalone="no"?>
<svg width="512px" height="512px" viewBox="0 0 512 512" version="1.1" xmlns="http://www.w3.org/2000/svg" xmlns:xlink="http://www.w3.org/1999/xlink" xmlns:sketch="http://www.bohemiancoding.com/sketch/ns">
    <!-- Generator: Sketch 3.5.2 (25235) - http://www.bohemiancoding.com/sketch -->
    <title>icon-chat</title>
    <desc>Created with Sketch.</desc>
    <defs></defs>
    <g id="Page-1" stroke="none" stroke-width="1" fill="none" fill-rule="evenodd" sketch:type="MSPage">
        <g id="icon-chat" sketch:type="MSArtboardGroup" fill="#000000">
            <g id="chat" sketch:type="MSLayerGroup" transform="translate(0.000000, 103.000000)">
                <path d="M193.590953,240.033988 C161.773216,214.38901 142.223541,179.59516 142.223541,141.275357 C142.223541,62.4235122 225.001884,0 327.114145,0 C429.226405,0 512.004747,62.4235122 512.004747,141.275357 C512.004747,220.127202 429.226405,284.049252 327.114145,284.049252 C309.681403,284.049252 292.812164,282.186196 276.822114,278.703856 C266.659956,284.833567 256.356617,289.536298 247.723131,293.767895 C221.43382,306.653282 170.10007,306.065087 160.712602,305.271336 C183.59816,288.62912 191.468968,262.319406 193.590953,240.033988 L193.590953,240.033988 Z" id="Oval-3-Copy" sketch:type="MSShapeGroup" transform="translate(327.114144, 152.812486) scale(-1, 1) translate(-327.114144, -152.812486) "></path>
                <path d="M149.334184,71.5953612 C144.660361,71.209912 139.915633,71.0123132 135.112364,71.0123132 C60.4918656,71.0123132 0,118.702256 0,177.530783 C0,206.377645 14.54515,232.546258 38.1689978,251.727035 C37.4468491,270.119272 32.3029798,292.204843 14.222354,305.352947 C21.3335311,305.352947 61.1915667,306.279153 81.2803905,296.43286 C89.2130528,292.544763 98.9905967,288.136152 108.207138,281.937218 C116.902014,283.322312 125.899507,284.049252 135.112364,284.049252 C161.960164,284.049252 186.979016,277.875802 208.009558,267.231279 C159.440632,238.74243 128.001186,193.264273 128.001186,142.024626 C128.001186,116.686823 135.68896,92.7578553 149.334184,71.5953612 L149.334184,71.5953612 Z" id="Oval-381-Copy" sketch:type="MSShapeGroup"></path>
            </g>
        </g>
    </g>
</svg>