<svg width="512" height="512" viewBox="0 0 512 512" fill="none" xmlns="http://www.w3.org/2000/svg">
<path fill-rule="evenodd" clip-rule="evenodd" d="M64 128C64 92.6537 91.8417 64 126.186 64H406.024C440.369 64 468.211 92.6537 468.211 128V319.999C468.211 355.346 440.369 383.999 406.024 383.999H233.19C232.65 383.999 232.132 384.218 231.756 384.605L179.266 438.627C170.373 447.778 156.999 450.516 145.381 445.563C133.762 440.61 126.186 428.942 126.186 415.999V384.249C126.186 384.111 126.073 383.999 125.935 383.999C91.706 383.859 64 355.259 64 319.999V128ZM165.052 255.999C181.795 255.999 195.368 242.427 195.368 225.684C195.368 208.941 181.795 195.368 165.052 195.368C148.31 195.368 134.737 208.941 134.737 225.684C134.737 242.427 148.31 255.999 165.052 255.999ZM296.423 225.683C296.423 242.426 282.85 255.999 266.107 255.999C249.364 255.999 235.791 242.426 235.791 225.683C235.791 208.94 249.364 195.367 266.107 195.367C282.85 195.367 296.423 208.94 296.423 225.683ZM367.16 255.999C383.902 255.999 397.475 242.426 397.475 225.683C397.475 208.94 383.902 195.367 367.16 195.367C350.417 195.367 336.844 208.94 336.844 225.683C336.844 242.426 350.417 255.999 367.16 255.999Z" fill="#A7A7A7"/>
</svg>
