<?xml version="1.0" encoding="UTF-8" standalone="no"?>
<svg width="512px" height="512px" viewBox="0 0 512 512" version="1.1" xmlns="http://www.w3.org/2000/svg" xmlns:xlink="http://www.w3.org/1999/xlink">
    <!-- Generator: Sketch 3.8.1 (29687) - http://www.bohemiancoding.com/sketch -->
    <title>icon-cloud</title>
    <desc>Created with Sketch.</desc>
    <defs></defs>
    <g id="Page-1" stroke="none" stroke-width="1" fill="none" fill-rule="evenodd">
        <g id="icon-cloud" fill="#010202">
            <path d="M401.61664,124.763286 C385.72416,124.763286 370.62144,128.173 356.97152,134.295571 C341.26592,106.191143 311.78624,87.2628571 277.984,87.2628571 C252.55552,87.2628571 229.568,97.9818571 213.05856,115.261857 C194.8864,91.3977143 166.23104,76 133.98784,76 C79.072,76 34.5472,120.665714 34.5472,175.756 C34.5472,189.861571 37.46688,203.271571 42.7264,215.433143 C17.17888,230.431 0,258.459571 0,290.571571 C0,338.473429 38.25664,377.303286 85.4528,377.303286 C91.47136,377.303286 97.34784,376.669429 103.01568,375.466 C115.9808,410.805143 149.7664,436 189.40928,436 C227.4688,436 260.1344,412.771 274.14528,379.647143 C284.81792,384.876143 296.78976,387.811429 309.44512,387.811429 C339.69792,387.811429 366.048,371.067571 379.87072,346.297 C386.90816,347.717714 394.17856,348.472429 401.62048,348.472429 C462.57792,348.472429 512,298.395143 512,236.614 C511.99872,174.841857 462.57664,124.763286 401.61664,124.763286 L401.61664,124.763286 Z M158.5344,295.114 C156.22144,293.810286 153.9456,292.648 151.68512,291.033143 C151.43808,290.700143 150.41408,290.301571 151.1744,288.355 L156.02816,275.089 C156.80384,272.815857 158.57024,273.561571 159.27552,273.993571 C160.61696,274.794571 161.60384,275.504286 163.33312,276.513571 C177.64864,285.422286 190.9056,285.490429 195.07328,285.490429 C205.76768,285.490429 212.42368,279.895 212.42368,272.395429 L212.42368,271.980143 C212.42368,263.785 202.20288,260.692857 190.34112,257.114714 L187.72864,256.316286 C171.45472,251.748143 154.08512,245.166571 154.08512,224.935857 L154.08512,224.534714 C154.08512,205.328714 169.83168,191.925143 192.3904,191.925143 L194.84288,191.907143 C208.08064,191.907143 220.8768,195.693571 230.14528,201.235 C230.99264,201.739 231.80416,202.691714 231.34464,203.959429 C230.9056,205.141 226.80832,215.993714 226.33088,217.228 C225.46688,219.502429 223.06688,217.991714 223.06688,217.991714 C214.96448,213.580429 202.37824,210.106429 191.7696,210.106429 C182.22208,210.106429 176.05888,215.089857 176.05888,221.863 L176.05888,222.264143 C176.05888,230.181571 186.5984,233.551429 198.81344,237.457429 L200.92928,238.120857 C217.11616,243.154429 234.39616,250.134571 234.39616,269.326429 L234.39616,269.726286 C234.39616,290.477714 219.09376,303.359286 194.4512,303.359286 C182.36288,303.359286 170.78528,301.501429 158.5344,295.114 L158.5344,295.114 Z M335.0784,151.553714 L329.76384,165.933143 C329.30432,167.008 329.00352,167.670143 326.74432,166.974571 C326.1824,166.819 325.33376,166.573429 323.17952,166.123429 C321.6064,165.811 319.56224,165.566714 317.4592,165.566714 C314.7072,165.566714 312.19968,165.913857 309.99424,166.609429 C307.83872,167.306286 305.86112,168.503286 304.16896,170.188857 C302.42176,171.905286 300.37376,174.389286 299.28192,177.496857 C296.7168,184.739286 295.71456,192.448429 295.6096,192.935714 L317.86752,192.935714 C319.71968,192.935714 320.30208,193.786857 320.128,195.140714 L317.53088,209.38 C317.14304,211.447429 315.20128,211.378 315.20128,211.378 L292.27392,211.378 L276.59904,298.672857 C274.93888,307.702429 272.89216,315.447571 270.4768,321.682 C268.03968,327.985857 265.47712,332.604143 261.43872,337.015429 C257.6768,341.077 253.44128,344.098429 248.56832,345.835429 C243.72992,347.554429 237.88928,348.440286 231.4816,348.440286 C228.42752,348.440286 225.16224,348.386286 221.27872,347.482429 C218.49088,346.842143 216.97152,346.374143 214.92608,345.659286 C214.04288,345.345571 213.35424,344.29 213.84832,342.933571 C214.3424,341.560429 218.43712,330.466 219.00416,329.008 C219.7248,327.236286 221.52704,327.911286 221.52704,327.911286 C222.76224,328.419143 223.62752,328.780429 225.28768,329.092857 C226.94656,329.420714 229.18656,329.699714 230.86592,329.699714 C233.88544,329.699714 236.65408,329.338429 239.05536,328.554143 C241.96864,327.597571 243.64416,325.93 245.42976,323.707 C247.26272,321.400429 248.76288,318.220857 250.28224,313.969 C251.8336,309.660571 253.2288,303.981571 254.44992,297.090143 L270.06848,211.375429 L254.68032,211.375429 C252.82688,211.375429 252.22656,210.524286 252.41984,209.167857 L255.01312,194.931143 C255.40096,192.865 257.34016,192.933143 257.34016,192.933143 L273.14048,192.933143 L273.98784,188.296857 C276.35584,174.561571 281.06496,164.107429 287.98592,157.248143 C294.95808,150.337429 304.87552,146.83 317.46304,146.83 C321.06496,146.83 324.2432,147.070429 326.92608,147.559 C329.57312,148.027 331.58656,148.480857 333.8112,149.157143 C334.29888,149.348714 335.62368,150.008286 335.0784,151.553714 L335.0784,151.553714 Z" id="cloud-sf"></path>
        </g>
    </g>
</svg>