<?xml version="1.0" encoding="UTF-8" standalone="no"?>
<svg width="512px" height="512px" viewBox="0 0 512 512" version="1.1" xmlns="http://www.w3.org/2000/svg" xmlns:xlink="http://www.w3.org/1999/xlink">
    <!-- Generator: Sketch 3.8.1 (29687) - http://www.bohemiancoding.com/sketch -->
    <title>icon-cloud</title>
    <desc>Created with Sketch.</desc>
    <defs></defs>
    <g id="Page-1" stroke="none" stroke-width="1" fill="none" fill-rule="evenodd">
        <g id="icon-cloud" stroke="#010202" stroke-width="16">
            <path d="M397.0655,130.596364 C381.668833,130.596364 367.039417,133.855242 353.814042,139.704545 C338.603375,112.850394 310.04075,94.7630303 277.295708,94.7630303 C252.664917,94.7630303 230.396583,105.006152 214.401875,121.516848 C196.796458,98.7138182 169.03725,84 137.802167,84 C84.6022917,84 41.468375,126.682061 41.468375,179.323182 C41.468375,192.800424 44.297125,205.61703 49.3940417,217.237455 C24.6418333,231.568182 8,258.35197 8,289.034424 C8,334.808576 45.0617917,371.913667 90.7829167,371.913667 C96.6135,371.913667 102.307167,371.305152 107.79675,370.155879 C120.355625,403.923909 153.085167,428 191.489,428 C228.358333,428 260.005458,405.805485 273.577,374.152273 C283.914208,379.149394 295.510792,381.953515 307.775167,381.953515 C337.079208,381.953515 362.607708,365.956212 375.999708,342.285364 C382.814542,343.641818 389.858,344.366303 397.068083,344.366303 C456.121792,344.366303 504,296.511212 504,237.477424 C503.997417,178.448848 456.1205,130.596364 397.0655,130.596364 L397.0655,130.596364 Z" id="cloud"></path>
        </g>
    </g>
</svg>