<?xml version="1.0" encoding="UTF-8" standalone="no"?>
<svg width="512px" height="512px" viewBox="0 0 512 512" version="1.1" xmlns="http://www.w3.org/2000/svg" xmlns:xlink="http://www.w3.org/1999/xlink">
    <!-- Generator: Sketch 39.1 (31720) - http://www.bohemiancoding.com/sketch -->
    <title>512</title>
    <desc>Created with Sketch.</desc>
    <defs></defs>
    <g id="Page-1" stroke="none" stroke-width="1" fill="none" fill-rule="evenodd">
        <g id="512">
            <g id="icon-cloud-sf" transform="translate(8.000000, 84.000000)">
                <path d="M389.0655,46.596364 C373.668833,46.596364 359.039417,49.855242 345.814042,55.704545 C330.603375,28.850394 302.04075,10.7630303 269.295708,10.7630303 C244.664917,10.7630303 222.396583,21.006152 206.401875,37.516848 C188.796458,14.7138182 161.03725,0 129.802167,0 C76.6022917,0 33.468375,42.682061 33.468375,95.323182 C33.468375,108.800424 36.297125,121.61703 41.3940417,133.237455 C16.6418333,147.568182 0,174.35197 0,205.034424 C0,250.808576 37.0617917,287.913667 82.7829167,287.913667 C88.6135,287.913667 94.307167,287.305152 99.79675,286.155879 C112.355625,319.923909 145.085167,344 183.489,344 C220.358333,344 252.005458,321.805485 265.577,290.152273 C275.914208,295.149394 287.510792,297.953515 299.775167,297.953515 C329.079208,297.953515 354.607708,281.956212 367.999708,258.285364 C374.814542,259.641818 381.858,260.366303 389.068083,260.366303 C448.121792,260.366303 496,212.511212 496,153.477424 C495.997417,94.448848 448.1205,46.596364 389.0655,46.596364 L389.0655,46.596364 L389.0655,46.596364 Z" id="cloud" stroke="#010202" stroke-width="16"></path>
                <path d="M150.536222,211.116861 C148.223262,209.813147 145.947422,208.650861 143.686942,207.036004 C143.439902,206.703004 142.415902,206.304432 143.176222,204.357861 L148.029982,191.091861 C148.805662,188.818718 150.572062,189.564432 151.277342,189.996432 C152.618782,190.797432 153.605662,191.507147 155.334942,192.516432 C169.650462,201.425147 182.907422,201.49329 187.075102,201.49329 C197.769502,201.49329 204.425502,195.897861 204.425502,188.39829 L204.425502,187.983004 C204.425502,179.787861 194.204702,176.695718 182.342942,173.117575 L179.730462,172.319147 C163.456542,167.751004 146.086942,161.169432 146.086942,140.938718 L146.086942,140.537575 C146.086942,121.331575 161.833502,107.928004 184.392222,107.928004 L186.844702,107.910004 C200.082462,107.910004 212.878622,111.696432 222.147102,117.237861 C222.994462,117.741861 223.805982,118.694575 223.346462,119.96229 C222.907422,121.143861 218.810142,131.996575 218.332702,133.230861 C217.468702,135.50529 215.068702,133.994575 215.068702,133.994575 C206.966302,129.58329 194.380062,126.10929 183.771422,126.10929 C174.223902,126.10929 168.060702,131.092718 168.060702,137.865861 L168.060702,138.267004 C168.060702,146.184432 178.600222,149.55429 190.815262,153.46029 L192.931102,154.123718 C209.117982,159.15729 226.397982,166.137432 226.397982,185.32929 L226.397982,185.729147 C226.397982,206.480575 211.095582,219.362147 186.453022,219.362147 C174.364702,219.362147 162.787102,217.50429 150.536222,211.116861 L150.536222,211.116861 L150.536222,211.116861 Z M327.075317,67.5537158 L321.760757,81.9331448 C321.301237,83.0080018 321.000437,83.6701448 318.741237,82.9745728 C318.179317,82.8190018 317.330677,82.5734308 315.176437,82.1234308 C313.603317,81.8110018 311.559157,81.5667158 309.456117,81.5667158 C306.704117,81.5667158 304.196597,81.9138588 301.991157,82.6094308 C299.835637,83.3062878 297.858037,84.5032878 296.165877,86.1888588 C294.418677,87.9052878 292.370677,90.3892878 291.278837,93.4968588 C288.713717,100.739288 287.711477,108.448431 287.606517,108.935716 L309.864437,108.935716 C311.716597,108.935716 312.298997,109.786859 312.124917,111.140716 L309.527797,125.380002 C309.139957,127.447431 307.198197,127.378002 307.198197,127.378002 L284.270837,127.378002 L268.595957,214.672859 C266.935797,223.702431 264.889077,231.447573 262.473717,237.682002 C260.036597,243.985859 257.474037,248.604145 253.435637,253.015431 C249.673717,257.077002 245.438197,260.098431 240.565237,261.835431 C235.726837,263.554431 229.886197,264.440288 223.478517,264.440288 C220.424437,264.440288 217.159157,264.386288 213.275637,263.482431 C210.487797,262.842145 208.968437,262.374145 206.922997,261.659288 C206.039797,261.345573 205.351157,260.290002 205.845237,258.933573 C206.339317,257.560431 210.434037,246.466002 211.001077,245.008002 C211.721717,243.236288 213.523957,243.911288 213.523957,243.911288 C214.759157,244.419145 215.624437,244.780431 217.284597,245.092859 C218.943477,245.420716 221.183477,245.699716 222.862837,245.699716 C225.882357,245.699716 228.650997,245.338431 231.052277,244.554145 C233.965557,243.597573 235.641077,241.930002 237.426677,239.707002 C239.259637,237.400431 240.759797,234.220859 242.279157,229.969002 C243.830517,225.660573 245.225717,219.981573 246.446837,213.090145 L262.065397,127.375431 L246.677237,127.375431 C244.823797,127.375431 244.223477,126.524288 244.416757,125.167859 L247.010037,110.931145 C247.397877,108.865002 249.337077,108.933145 249.337077,108.933145 L265.137397,108.933145 L265.984757,104.296859 C268.352757,90.5615728 273.061877,80.1074308 279.982837,73.2481448 C286.954997,66.3374308 296.872437,62.8300018 309.459957,62.8300018 C313.061877,62.8300018 316.240117,63.0704308 318.922997,63.5590018 C321.570037,64.0270018 323.583477,64.4808588 325.808117,65.1571448 C326.295797,65.3487158 327.620597,66.0082878 327.075317,67.5537158 L327.075317,67.5537158 L327.075317,67.5537158 Z" id="cloud-sf" fill="#010202"></path>
            </g>
        </g>
    </g>
</svg>