<?xml version="1.0" encoding="UTF-8" standalone="no"?>
<svg width="512px" height="512px" viewBox="0 0 512 512" version="1.1" xmlns="http://www.w3.org/2000/svg" xmlns:xlink="http://www.w3.org/1999/xlink">
    <!-- Generator: Sketch 3.8.1 (29687) - http://www.bohemiancoding.com/sketch -->
    <title>icon-cloud</title>
    <desc>Created with Sketch.</desc>
    <defs></defs>
    <g id="Page-1" stroke="none" stroke-width="1" fill="none" fill-rule="evenodd">
        <g id="icon-cloud" fill="#010202">
            <path d="M401.61664,124.763286 C385.72416,124.763286 370.62144,128.173 356.97024,134.295571 C341.26592,106.192429 311.78496,87.2641429 277.98272,87.2641429 C252.5568,87.2641429 229.56928,97.9831429 213.05856,115.261857 C194.88512,91.3977143 166.22976,76 133.98784,76 C79.072,76 34.5472,120.667 34.5472,175.757286 C34.5472,189.861571 37.46688,203.272857 42.72768,215.434429 C17.17888,230.431 0,258.460857 0,290.571571 C0,338.474714 38.25664,377.304571 85.4528,377.304571 C91.47136,377.304571 97.34912,376.669429 103.01568,375.466 C115.97952,410.805143 149.7664,436 189.408,436 C227.46752,436 260.1344,412.771 274.144,379.648429 C284.81536,384.877429 296.7872,387.811429 309.44512,387.811429 C339.69408,387.811429 366.048,371.068857 379.87072,346.298286 C386.9056,347.717714 394.17728,348.475 401.6192,348.475 C462.57664,348.475 512,298.396429 512,236.615286 C511.99744,174.841857 462.57536,124.763286 401.61664,124.763286 L401.61664,124.763286 Z" id="cloud-fill"></path>
        </g>
    </g>
</svg>