<?xml version="1.0" encoding="UTF-8" standalone="no"?>
<svg width="512px" height="512px" viewBox="0 0 512 512" version="1.1" xmlns="http://www.w3.org/2000/svg" xmlns:xlink="http://www.w3.org/1999/xlink">
    <!-- Generator: Sketch 39.1 (31720) - http://www.bohemiancoding.com/sketch -->
    <title>icon-cmis</title>
    <desc>Created with Sketch.</desc>
    <defs></defs>
    <g id="Page-1" stroke="none" stroke-width="1" fill="none" fill-rule="evenodd">
        <g id="icon-cmis" fill="#000000">
            <g id="cmis" transform="translate(56.000000, 0.000000)">
                <path d="M101.288335,0 L141.040837,0 C142.405674,0.219757303 143.769752,0.445650936 145.135724,0.658121348 C158.392616,2.72261273 170.268771,7.95191612 180.733523,16.4833318 C186.172043,20.917597 190.330155,26.615179 195.34995,31.4609618 C205.403169,41.1667177 216.742097,48.6710652 230.163299,52.7283294 C239.847387,55.6557425 249.784756,56.8339177 259.825102,56.9796555 C272.50085,57.1637455 285.18152,57.0540585 297.859919,57.0099535 C302.984206,56.9919281 308.066468,57.4774652 313.093835,58.3446054 C336.578857,62.3961167 356.519091,73.1764973 372.719561,90.9262144 C385.106819,104.497858 393.294699,120.329972 397.475525,138.311718 C398.749499,143.790694 399.379862,149.364399 400,154.942322 L400,169.132584 C399.792908,170.902148 399.588467,172.671712 399.378348,174.440893 C396.571821,198.089924 386.848736,218.414981 370.567625,235.517315 C363.211519,243.244488 354.761652,249.56951 345.424735,254.666115 C344.95187,254.924225 344.193165,255.062676 344.195436,255.712743 C344.197708,256.377384 344.974964,256.459841 345.44783,256.724471 C352.478344,260.660542 359.080288,265.212932 365.084052,270.637831 C381.577933,285.542975 392.381148,303.87526 397.475907,325.670735 C398.741929,331.085663 399.334807,336.596087 400,342.100375 L400,356.290637 C399.794045,358.061351 399.576351,359.830532 399.384026,361.602781 C397.867753,375.573285 393.674807,388.68969 386.82034,400.882575 C375.576819,420.881641 359.581548,435.698195 338.882988,445.219091 C327.339618,450.528934 315.207154,453.874387 302.533299,454.100661 C288.604779,454.349568 274.667551,454.519081 260.732974,454.511797 C256.063759,454.509496 251.423695,454.780646 246.774545,455.248154 C223.751788,457.565003 205.339186,468.749233 190.306682,485.914078 C179.825273,497.882605 167.250609,505.956484 151.992084,509.874914 C148.011533,510.896994 143.944284,511.353001 139.905052,512 L102.42412,512 C100.870365,511.775258 99.3150961,511.559334 97.7628553,511.323855 C82.4202822,508.996649 68.8491563,502.809694 57.6465222,491.846377 C41.6149058,476.157316 35.772045,456.70822 38.1159282,434.61283 C39.9127413,417.674259 47.5047121,403.598671 60.1611521,392.433619 C73.7523436,380.443614 89.827877,374.823503 107.688109,374.304983 C115.884318,374.0672 124.092642,374.264329 132.295287,374.264329 C141.515975,374.264329 150.508369,375.664947 159.203188,378.826308 C169.765239,382.666116 179.104427,388.514421 186.797861,396.807288 C190.597444,400.902904 194.268303,405.095168 198.385905,408.891253 C214.15932,423.431288 232.90395,430.531787 253.972777,431.255876 C267.901675,431.734509 281.859726,431.278118 295.802253,431.438814 C310.47017,431.607563 324.16699,428.087612 336.909749,420.806472 C351.383446,412.536233 362.414955,400.838472 369.770304,385.761894 C376.779237,371.395596 379.43092,356.168294 377.640164,340.182772 C375.575682,321.754607 368.239264,305.765633 355.546101,292.491218 C339.21918,275.417265 319.033238,267.241756 295.645893,267.062652 C286.055319,266.989399 276.463986,267.087581 266.87341,267.03849 C259.490803,267.000905 252.125989,267.222196 244.799792,268.19864 C235.536702,269.433193 226.626462,271.94065 218.291309,276.252572 C207.019392,282.083236 197.579498,290.292494 189.189448,299.799587 C187.126861,302.137144 185.013163,304.422927 182.676473,306.474763 C168.418197,318.994793 151.697159,324.742232 132.974108,324.884135 C125.276509,324.94243 117.578153,324.879532 109.880554,324.897941 C101.946712,324.916734 94.157114,323.896186 86.5738508,321.511454 C68.3584968,315.783575 54.1740464,304.882001 45.0820811,287.715619 C38.9541383,276.14557 37.0176234,263.690738 37.8588621,250.633013 C38.6221103,238.785294 42.0752778,227.900213 48.7139454,218.191005 C60.6677125,200.708602 77.4690135,191.086454 98.0206789,187.833432 C101.888787,187.221333 105.787561,186.943281 109.705264,187.040312 C121.297473,187.328335 132.93587,186.200785 144.479997,187.869483 C159.562854,190.049414 172.821639,196.259763 184.074247,206.770912 C188.577259,210.977366 192.305287,215.904072 196.77574,220.166136 C213.714092,236.316189 234.006041,243.676716 256.936042,244.139242 C269.865828,244.400419 282.804321,244.223233 295.739028,244.253531 C299.526117,244.262735 303.292761,244.034157 307.049561,243.523308 C327.885552,240.691008 345.338037,231.332722 358.901212,215.10213 C374.353578,196.609918 380.561024,175.026146 377.399376,151.062244 C374.301331,127.581963 362.888956,108.822053 343.847129,95.0229813 C330.565249,85.3977649 315.618687,80.3237873 299.301988,79.9421843 C286.058726,79.6326833 272.803348,79.8328809 259.552892,79.8420853 C253.999657,79.8459208 248.480874,80.3728779 242.985185,81.1656151 C224.07473,83.893597 208.44556,92.9573395 194.928952,106.335688 C190.864353,110.358436 187.458889,114.975257 183.165618,118.78285 C170.296408,130.195272 155.28397,136.197369 138.317602,137.400857 C129.499361,138.026379 120.664462,137.721097 111.837892,137.705372 C106.864286,137.696551 101.886136,137.443811 96.960612,136.625762 C79.810625,133.776971 64.9553039,126.386529 53.5955529,112.909615 C37.1705759,93.4237003 33.6799276,70.9045214 41.0727574,46.9532762 C47.7189974,25.42243 62.9926662,11.804764 83.6280011,4.08564495 C89.3372176,1.94981873 95.2997148,0.910094381 101.288335,0" id="Fill-1" opacity="0.75"></path>
                <path d="M0,267.224133 L0,248.692015 C0.265411077,246.722205 0.489873017,244.745446 0.802299772,242.783358 C6.03961865,209.917419 22.5087551,184.614901 50.3700935,167.19973 C64.6753712,158.257983 80.3641993,153.201032 97.1559996,152.562831 C111.161742,152.030033 125.195922,152.235045 139.217589,152.172499 C143.896407,152.15165 148.548305,151.87946 153.203615,151.408821 C176.324332,149.071844 194.850026,137.823621 209.927271,120.445513 C224.745171,103.366622 243.206028,94.7646313 265.396669,94.2067373 C273.921673,93.9924597 282.457293,94.2445737 290.986468,94.1495966 C298.054744,94.0708352 304.993348,94.9387558 311.77043,96.9016162 C331.446111,102.600242 346.604496,114.17355 356.004978,132.917242 C361.021247,142.918795 362.766514,153.663176 362.606889,164.874335 C362.306974,185.917169 354.040177,202.984863 338.197032,216.229536 C324.792256,227.43529 309.072716,232.415024 291.896828,232.843193 C284.192323,233.035078 276.479856,232.867903 268.770802,232.879485 C263.96307,232.886821 259.179983,232.544749 254.438983,231.744393 C239.379938,229.203177 226.171566,222.833533 215.153594,211.959041 C210.937729,207.798194 207.272401,203.12231 202.951888,199.033275 C187.114051,184.04388 168.305505,176.287031 146.895931,175.532233 C130.738843,174.962371 114.548388,175.383204 98.37272,175.368919 C97.6784804,175.368147 96.9800703,175.39054 96.2903806,175.463896 C73.7725256,177.862261 54.92796,187.53564 40.3451379,205.261997 C28.8137849,219.278841 22.6846847,235.618764 21.7530919,253.848963 C20.9644418,269.287761 24.2506101,283.895703 31.5497939,297.495188 C39.9678748,313.178379 52.1836093,324.847822 67.9471316,332.615096 C79.8731888,338.491322 92.5704546,340.932928 105.776551,340.887756 C115.949758,340.853008 126.122965,340.903971 136.296171,340.871927 C142.35816,340.853008 148.399296,340.48198 154.430952,339.800538 C176.963973,337.254302 195.051359,326.127696 209.749066,309.204398 C224.825553,291.845981 243.541963,283.189166 266.073846,282.682621 C274.157889,282.501161 282.249514,282.692273 290.336969,282.644785 C303.677667,282.566795 316.280523,285.527688 327.987805,292.109292 C341.672021,299.802051 351.768638,310.84063 357.82911,325.597601 C361.552069,334.663281 362.738836,344.132035 362.600822,353.902708 C362.419584,366.737743 359.178157,378.619919 352.096231,389.211411 C338.376753,409.729939 318.771974,419.831488 294.814074,421.166961 C283.293338,421.80902 271.691841,421.872723 260.154042,420.953453 C244.9312,419.740759 231.357698,414.167996 219.398275,404.458327 C214.073371,400.134935 210.002723,394.592674 205.203712,389.757335 C188.20527,372.629799 167.599133,364.423931 143.941527,363.880709 C130.805195,363.579176 117.657489,363.737857 104.51509,363.784573 C100.01751,363.800789 95.546092,363.517402 91.1042479,362.930165 C65.9698191,359.607511 44.6413847,348.645764 27.3506115,329.710959 C14.0228047,315.116144 5.53382097,297.983201 1.73313433,278.451507 C1.01045789,274.73852 0.570633817,270.968006 0,267.224133" id="Fill-2"></path>
            </g>
        </g>
    </g>
</svg>