<svg width="512" height="512" viewBox="0 0 512 512" fill="none" xmlns="http://www.w3.org/2000/svg">
<path fill-rule="evenodd" clip-rule="evenodd" d="M249.624 416.347C143.893 416.347 58.1819 343.984 58.1819 254.719C58.1819 165.454 143.893 93.0909 249.624 93.0909C355.354 93.0909 441.066 165.454 441.066 254.719C441.066 298.306 420.63 337.863 387.407 366.934C388.673 393.394 395.984 427.054 421.922 447.63C412.202 448.527 359.049 449.191 331.828 434.636C320.624 428.646 306.704 421.819 293.76 412.031C279.591 414.853 264.814 416.347 249.624 416.347ZM364.161 368.046L363.623 356.82L372.081 349.419C401.404 323.762 417.793 290.191 417.793 254.719C417.793 179.263 343.292 116.364 249.624 116.364C155.956 116.364 81.4546 179.263 81.4546 254.719C81.4546 330.175 155.956 393.074 249.624 393.074C263.103 393.074 276.361 391.767 289.213 389.207L299.462 387.165L307.797 393.468C310.527 395.532 313.454 397.547 316.623 399.556C320.507 402.019 324.654 404.416 329.646 407.125C332.512 408.681 342.047 413.71 342.802 414.113C349.874 417.895 361.372 420.838 375.404 422.664C368.651 406.322 365.109 387.869 364.161 368.046Z" fill="#7A7A7A"/>
</svg>
