<svg width="512" height="512" viewBox="0 0 512 512" fill="none" xmlns="http://www.w3.org/2000/svg">
<path d="M428.795 266.895V388.267C428.795 410.653 410.648 428.8 388.262 428.8L307.196 428.79V317.324C307.196 307.191 297.062 307.191 297.062 307.191H236.263C236.263 307.191 226.129 307.191 226.129 317.324V428.79L145.063 428.8C122.677 428.8 104.53 410.653 104.53 388.267V266.898L258.406 151.263C264.644 146.434 268.694 146.619 274.919 151.263L428.795 266.895Z" fill="#A7A7A7"/>
<path fill-rule="evenodd" clip-rule="evenodd" d="M254.224 68.2691C261.543 62.577 271.791 62.577 279.109 68.2691L461.508 210.135C470.343 217.007 471.935 229.74 465.063 238.575C458.192 247.41 445.458 249.002 436.623 242.13L270.766 113.13C267.86 110.408 265.342 110.826 262.568 113.13L96.71 242.13C87.8748 249.002 75.1418 247.41 68.27 238.575C61.3983 229.74 62.9899 217.007 71.825 210.135L254.224 68.2691Z" fill="#A7A7A7"/>
</svg>
