<?xml version="1.0" encoding="UTF-8" standalone="no"?>
<svg width="512px" height="512px" viewBox="0 0 512 512" version="1.1" xmlns="http://www.w3.org/2000/svg" xmlns:xlink="http://www.w3.org/1999/xlink">
    <!-- Generator: Sketch 39.1 (31720) - http://www.bohemiancoding.com/sketch -->
    <title>icon-company</title>
    <desc>Created with Sketch.</desc>
    <defs></defs>
    <g id="Page-1" stroke="none" stroke-width="1" fill="none" fill-rule="evenodd">
        <g id="icon-company" fill="#9B9B9B">
            <rect id="Rectangle-1300" x="28" y="457.941176" width="449" height="28.0588235"></rect>
            <path d="M336.6875,261.529412 L477,261.529412 L477,486 L336.6875,486 L336.6875,261.529412 L336.6875,261.529412 Z M392.8125,317.647059 L392.8125,345.705882 L448.9375,345.705882 L448.9375,317.647059 L392.8125,317.647059 L392.8125,317.647059 Z M392.8125,373.764706 L392.8125,401.823529 L448.9375,401.823529 L448.9375,373.764706 L392.8125,373.764706 L392.8125,373.764706 Z M392.8125,429.882353 L392.8125,457.941176 L448.9375,457.941176 L448.9375,429.882353 L392.8125,429.882353 L392.8125,429.882353 Z" id="Rectangle"></path>
            <path d="M168.3125,107.205882 L308.625,9 L308.625,486 L168.3125,486 L168.3125,107.205882 L168.3125,107.205882 Z M224.4375,149.294118 L224.4375,177.352941 L280.5625,177.352941 L280.5625,149.294118 L224.4375,149.294118 L224.4375,149.294118 Z M224.4375,205.411765 L224.4375,233.470588 L280.5625,233.470588 L280.5625,205.411765 L224.4375,205.411765 L224.4375,205.411765 Z M224.4375,261.529412 L224.4375,289.588235 L280.5625,289.588235 L280.5625,261.529412 L224.4375,261.529412 L224.4375,261.529412 Z" id="Rectangle-Copy-2"></path>
            <path d="M28,205.411765 L140.25,205.411765 L140.25,486 L28,486 L28,205.411765 L28,205.411765 Z M56.0625,261.64471 L56.0625,289.690722 L112.1875,289.690722 L112.1875,261.64471 L56.0625,261.64471 L56.0625,261.64471 Z M56.0625,317.736735 L56.0625,345.782747 L112.1875,345.782747 L112.1875,317.736735 L56.0625,317.736735 L56.0625,317.736735 Z M56.0625,373.82876 L56.0625,401.874773 L112.1875,401.874773 L112.1875,373.82876 L56.0625,373.82876 L56.0625,373.82876 Z M56.0625,429.920785 L56.0625,457.966798 L112.1875,457.966798 L112.1875,429.920785 L56.0625,429.920785 L56.0625,429.920785 Z" id="Rectangle-Copy-3"></path>
        </g>
    </g>
</svg>