<?xml version="1.0" encoding="UTF-8" standalone="no"?>
<svg width="512px" height="512px" viewBox="0 0 512 512" version="1.1" xmlns="http://www.w3.org/2000/svg" xmlns:xlink="http://www.w3.org/1999/xlink">
    <!-- Generator: Sketch 39.1 (31720) - http://www.bohemiancoding.com/sketch -->
    <title>company</title>
    <desc>Created with Sketch.</desc>
    <defs></defs>
    <g id="Page-1" stroke="none" stroke-width="1" fill="none" fill-rule="evenodd">
        <g id="company" fill="#777777">
            <polygon id="Shape" points="8 439 504 439 504 460.657376 8 460.657376"></polygon>
            <path d="M166,266 L278.727273,266 L278.727273,460.916381 L166,460.916381 L166,266 L166,266 Z M188.545455,287.657376 L188.545455,439.259005 L267.454545,439.259005 L267.454545,287.657376 L188.545455,287.657376 L188.545455,287.657376 Z M233.636364,298.486064 L267.454545,298.486064 L267.454545,320.143439 L233.636364,320.143439 L233.636364,298.486064 L233.636364,298.486064 Z M233.636364,330.972127 L267.454545,330.972127 L267.454545,352.629503 L233.636364,352.629503 L233.636364,330.972127 L233.636364,330.972127 Z M233.636364,363.458191 L267.454545,363.458191 L267.454545,385.115566 L233.636364,385.115566 L233.636364,363.458191 L233.636364,363.458191 Z M233.636364,395.944254 L267.454545,395.944254 L267.454545,417.60163 L233.636364,417.60163 L233.636364,395.944254 L233.636364,395.944254 Z" id="Shape"></path>
            <path d="M75.5454545,201.60163 L75.5454545,158.286878 L165.727273,158.286878 L165.727273,201.60163 L188.272727,201.60163 L188.272727,461.490138 L53,461.490138 L53,201.60163 L75.5454545,201.60163 L75.5454545,201.60163 Z M75.5454545,223.259005 L75.5454545,439.832762 L165.727273,439.832762 L165.727273,223.259005 L75.5454545,223.259005 L75.5454545,223.259005 Z M75.5454545,234.087693 L109.363636,234.087693 L109.363636,255.745069 L75.5454545,255.745069 L75.5454545,234.087693 L75.5454545,234.087693 Z M75.5454545,266.573757 L109.363636,266.573757 L109.363636,288.231132 L75.5454545,288.231132 L75.5454545,266.573757 L75.5454545,266.573757 Z M75.5454545,299.05982 L109.363636,299.05982 L109.363636,320.717196 L75.5454545,320.717196 L75.5454545,299.05982 L75.5454545,299.05982 Z M75.5454545,331.545884 L109.363636,331.545884 L109.363636,353.203259 L75.5454545,353.203259 L75.5454545,331.545884 L75.5454545,331.545884 Z M75.5454545,364.031947 L109.363636,364.031947 L109.363636,385.689323 L75.5454545,385.689323 L75.5454545,364.031947 L75.5454545,364.031947 Z M75.5454545,396.518011 L109.363636,396.518011 L109.363636,418.175386 L75.5454545,418.175386 L75.5454545,396.518011 L75.5454545,396.518011 Z M98.0909091,179.944254 L98.0909091,201.60163 L143.181818,201.60163 L143.181818,179.944254 L98.0909091,179.944254 L98.0909091,179.944254 Z M109.363636,140.960978 L120.636364,71.6573757 L131.909091,140.960978 L131.909091,158.286878 L109.363636,158.286878 L109.363636,140.960978 L109.363636,140.960978 Z M255.909091,136.629503 L368.636364,50 L368.636364,461.490138 L255.909091,461.490138 L255.909091,136.629503 L255.909091,136.629503 Z M278.454545,147.458191 L278.454545,439.832762 L346.090909,439.832762 L346.090909,98.7290953 L278.454545,147.458191 L278.454545,147.458191 Z M312.272727,158.286878 L346.090909,158.286878 L346.090909,179.944254 L312.272727,179.944254 L312.272727,158.286878 L312.272727,158.286878 Z M312.272727,190.772942 L346.090909,190.772942 L346.090909,212.430318 L312.272727,212.430318 L312.272727,190.772942 L312.272727,190.772942 Z M312.272727,223.259005 L346.090909,223.259005 L346.090909,244.916381 L312.272727,244.916381 L312.272727,223.259005 L312.272727,223.259005 Z" id="Shape"></path>
            <path d="M347,223 L459.727273,223 L459.727273,461.231132 L347,461.231132 L347,223 L347,223 Z M369.545455,244.657376 L369.545455,439.573757 L437.181818,439.573757 L437.181818,244.657376 L369.545455,244.657376 L369.545455,244.657376 Z M403.363636,266.314751 L437.181818,266.314751 L437.181818,287.972127 L403.363636,287.972127 L403.363636,266.314751 L403.363636,266.314751 Z M403.363636,298.800815 L437.181818,298.800815 L437.181818,320.458191 L403.363636,320.458191 L403.363636,298.800815 L403.363636,298.800815 Z M403.363636,331.286878 L437.181818,331.286878 L437.181818,352.944254 L403.363636,352.944254 L403.363636,331.286878 L403.363636,331.286878 Z M403.363636,363.772942 L437.181818,363.772942 L437.181818,385.430318 L403.363636,385.430318 L403.363636,363.772942 L403.363636,363.772942 Z M403.363636,396.259005 L437.181818,396.259005 L437.181818,417.916381 L403.363636,417.916381 L403.363636,396.259005 L403.363636,396.259005 Z" id="Shape"></path>
        </g>
    </g>
</svg>