<svg width="512" height="512" viewBox="0 0 512 512" fill="none" xmlns="http://www.w3.org/2000/svg">
<path d="M21.3333 128V329.13L75.0593 239.078C88.5311 216.497 112.887 202.667 139.181 202.667H433.636V186.514C433.636 162.95 414.533 143.848 390.969 143.848H229.214C216.456 143.848 204.368 138.139 196.264 128.287L173.729 100.894C165.624 91.0419 153.536 85.3333 140.779 85.3333H63.9999C40.4358 85.3333 21.3333 104.436 21.3333 128Z" fill="#A7A7A7"/>
<path d="M75.5431 426.667C42.4261 426.667 21.9345 390.58 38.902 362.14L102.54 255.473C110.238 242.57 124.156 234.667 139.181 234.667H469.26C502.377 234.667 522.868 270.754 505.901 299.194L442.263 405.86C434.565 418.764 420.647 426.667 405.622 426.667H75.5431Z" fill="#A7A7A7"/>
</svg>
