<?xml version="1.0" encoding="UTF-8" standalone="no"?>
<svg width="512px" height="512px" viewBox="0 0 512 512" version="1.1" xmlns="http://www.w3.org/2000/svg" xmlns:xlink="http://www.w3.org/1999/xlink">
    <!-- Generator: Sketch 39.1 (31720) - http://www.bohemiancoding.com/sketch -->
    <title>icon-cq5</title>
    <desc>Created with Sketch.</desc>
    <defs></defs>
    <g id="Page-1" stroke="none" stroke-width="1" fill="none" fill-rule="evenodd">
        <g id="icon-cq5" fill="#000000">
            <g id="cq5">
                <path d="M255.522679,511.999989 C113.72545,511.961238 -0.105988312,397.364886 7.40573348e-05,254.755822 C0.104096766,113.760131 114.941088,-0.0795051418 256.987156,4.16627928e-05 C398.515149,0.0795884676 512.152821,114.939055 511.999846,257.752085 C511.848912,398.082845 396.89566,512.038744 255.522679,511.999989 L255.522679,511.999989 Z M256.276101,486.399159 C130.167495,486.740005 26.3209242,383.365416 25.6036888,256.77584 C24.8864534,130.402262 128.855865,25.9556056 255.723315,25.6008908 C382.135062,25.2481577 486.607729,129.696796 486.399689,256.220979 C486.191653,382.600503 382.759175,486.058317 256.276101,486.399159 L256.276101,486.399159 Z" id="Fill-1"></path>
                <path d="M334.966792,401.960547 C326.513932,402.029228 317.467393,396.565036 310.688547,398.583047 C303.933932,400.592984 300.911015,411.355725 294.319965,416.7977 C265.356906,440.712883 223.710518,435.004266 202.592503,403.542232 C199.086969,398.318424 196.457819,397.718473 190.771423,399.245619 C166.129701,405.865271 143.987894,400.649545 125.842314,382.477316 C107.739139,364.343467 102.24054,342.268532 108.892169,317.565533 C110.434927,311.834695 109.788746,309.139969 104.558715,305.554408 C67.4214616,280.073695 67.6112772,227.926509 104.744493,202.589219 C109.084004,199.627849 110.980142,197.553273 109.30209,191.650733 C94.7731065,140.572145 139.440392,95.1072329 190.745172,108.801046 C196.742543,110.400913 199.280824,109.6636 202.754049,104.540793 C227.918774,67.4388228 280.249366,67.6004257 305.680641,104.742797 C308.709616,109.168692 310.864227,110.709978 316.823231,109.091931 C368.788326,94.9819908 413.065885,139.725751 398.956921,191.911318 C397.555515,197.096746 398.833741,199.359184 403.027862,202.255913 C440.849664,228.378997 441.132368,280.027235 403.365087,305.728131 C397.749369,309.550036 398.112845,312.499286 399.580888,317.914998 C411.220228,360.860928 379.313006,402.202949 334.966792,401.960547 L334.966792,401.960547 Z M133.073487,201.46406 C176.305038,199.385445 197.604791,178.148824 201.554575,134.156516 C236.486735,165.794294 271.469377,166.044778 306.237972,134.37266 C313.527706,181.118274 329.973021,197.504793 373.977973,201.803426 C342.668465,236.307632 341.800159,270.991621 374.551457,306.903791 C355.06707,307.305778 338.740894,312.075079 325.805151,325.122481 C312.845177,338.194123 306.637797,353.95039 307.473795,375.037528 C291.464651,360.588223 275.400987,350.540573 254.933193,350.518352 C234.192791,350.496132 217.414288,359.1843 201.990747,374.807245 C199.159665,331.905756 177.227866,309.230871 133.503601,306.556345 C148.876659,291.357607 157.939353,274.591322 157.892909,254.168775 C157.848483,233.639167 148.925123,216.79208 133.073487,201.46406 L133.073487,201.46406 Z M254.801937,85.746394 C272.543654,86.7261107 286.953498,93.9234929 297.536737,108.530361 C300.561673,112.705772 302.821289,116.428695 296.111099,119.141601 C295.810221,119.262803 295.573961,119.541568 295.30943,119.749632 C259.977446,147.634186 245.058734,147.207958 210.217443,118.081083 C206.265641,114.776307 207.776089,112.865355 209.678286,110.063567 C220.477591,94.1517568 235.636602,86.3827046 254.801937,85.746394 L254.801937,85.746394 Z M140.090612,249.15101 C139.943202,268.828164 133.384462,280.728187 123.293936,291.371747 C112.989362,302.239532 112.686465,302.524357 101.816483,291.854536 C77.8189235,268.294875 81.7788036,227.486142 109.853364,209.950224 C111.769695,208.754364 113.938442,205.283945 116.628171,208.681642 C127.344685,222.211832 140.902378,234.313858 140.090612,249.15101 L140.090612,249.15101 Z M368.513701,254.718225 C367.15268,234.602723 380.785086,222.528978 391.346114,208.875566 C393.577461,205.992977 395.455422,207.98271 397.311177,209.180591 C413.459653,219.595888 422.092229,234.673424 422.316376,253.651647 C422.548597,273.120737 413.572732,288.361896 397.29502,299.134739 C395.52004,300.310399 393.48457,302.312253 391.370346,299.530666 C380.944614,285.812613 367.019407,273.87421 368.513701,254.718225 L368.513701,254.718225 Z M253.747854,368.825922 C273.866306,366.680645 285.873163,381.200655 299.80443,391.797753 C302.665801,393.975351 299.840777,396.082245 298.843235,397.797255 C280.041377,430.152144 228.148976,430.144066 209.39962,397.781094 C208.406116,396.066085 205.581092,393.949089 208.474773,391.779573 C222.200069,381.489518 233.849507,367.076575 253.747854,368.825922 L253.747854,368.825922 Z M136.995,316.197969 C171.056834,317.121125 194.064929,342.373574 192.663523,375.540517 C192.469669,380.130037 190.238324,381.297616 186.99732,382.190471 C169.548405,387.002192 153.618015,383.838819 140.229945,371.625691 C126.920629,359.485285 121.842047,344.221905 124.943718,326.182999 C126.308776,318.248304 129.178225,313.575965 136.995,316.197969 L136.995,316.197969 Z M315.956944,371.385307 C317.427007,336.955842 341.079263,315.187952 374.997727,315.943445 C379.256466,316.038386 381.065772,317.452411 382.077451,321.076352 C387.309499,339.79399 383.418277,356.459273 369.652593,370.072283 C355.890951,383.679236 339.263898,387.212277 320.538774,381.988465 C313.414624,380.000753 316.548604,374.841585 315.956944,371.385307 L315.956944,371.385307 Z M172.48651,124.205827 C191.486261,124.171487 194.660627,127.88027 191.427701,146.329243 C186.339023,175.383397 162.76552,193.709148 132.429325,192.792053 C126.874184,192.62237 126.880242,189.044889 125.949337,185.762333 C117.207715,154.892169 140.399568,124.260368 172.48651,124.205827 L172.48651,124.205827 Z M335.806827,124.448231 C367.887711,124.268449 390.948308,154.894189 382.455062,185.841114 C380.958749,191.295207 378.660765,192.709231 372.790612,192.573889 C334.571005,191.695174 316.879772,164.265128 315.985215,139.321744 C315.551061,127.250019 316.506198,125.880436 328.771528,124.486612 C331.087684,124.224008 333.460381,124.448231 335.806827,124.448231 L335.806827,124.448231 Z" id="Fill-3"></path>
            </g>
        </g>
    </g>
</svg>