<svg width="512" height="512" viewBox="0 0 512 512" fill="none" xmlns="http://www.w3.org/2000/svg">
<path fill-rule="evenodd" clip-rule="evenodd" d="M277.333 85.3333C277.333 73.5513 267.782 64 256 64C244.218 64 234.667 73.5513 234.667 85.3333V234.667H85.3333C73.5513 234.667 64 244.218 64 256C64 267.782 73.5513 277.333 85.3333 277.333H234.667V426.667C234.667 438.449 244.218 448 256 448C267.782 448 277.333 438.449 277.333 426.667V277.333H426.667C438.449 277.333 448 267.782 448 256C448 244.218 438.449 234.667 426.667 234.667H277.333V85.3333Z" fill="#A7A7A7"/>
</svg>
