<svg id="Layer_1" data-name="Layer 1" xmlns="http://www.w3.org/2000/svg" viewBox="0 0 512 512">
  <title>crm-integration</title>
  <g>
    <rect x="323.99" y="341.53" width="18.88" height="70.29" transform="translate(-143.5 216.69) rotate(-29.94)"/>
    <rect x="112.2" y="320.84" width="75.11" height="18.88" transform="translate(-147.99 123.25) rotate(-30.8)"/>
    <rect x="395.45" y="232.74" width="18.88" height="80.91" transform="matrix(0.09, -1, 1, 0.09, 96.26, 651.78)"/>
    <rect x="149.77" y="136.53" width="18.88" height="77.34" transform="translate(-77.01 190.73) rotate(-51.5)"/>
    <rect x="310.49" y="139.09" width="86.49" height="18.88" transform="translate(19.46 336.82) rotate(-52.17)"/>
    <path d="M369.78,486.92a47,47,0,0,1-45.29-34.78l-.32-1.2v-.25a46.92,46.92,0,1,1,57.72,34.64l-1.29.32A46.76,46.76,0,0,1,369.78,486.92Zm-26.73-38.54A28,28,0,0,0,377,467.09l.83-.22a28,28,0,1,0-35.09-19.73Zm-266.46-18a56.61,56.61,0,0,1-15.7-111l1.58-.43A56.6,56.6,0,0,1,91.76,428.29l-.06,0A56.88,56.88,0,0,1,76.59,430.36ZM66.08,337.54a37.87,37.87,0,0,0-25.77,46.2,37.49,37.49,0,1,0,26.86-46.5ZM266.44,369a107.92,107.92,0,0,1-103.93-80.34c-15.37-57.7,18.82-117.22,76.21-132.67a107.73,107.73,0,0,1,132,76.59c15.4,57.69-18.8,117.21-76.23,132.69h0A107.91,107.91,0,0,1,266.44,369Zm.33-197.87a88.89,88.89,0,0,0-23.14,3.08c-47.37,12.76-75.57,61.92-62.87,109.58A88.82,88.82,0,0,0,289.61,347c47.4-12.77,75.61-61.94,62.89-109.59a89,89,0,0,0-85.73-66.31Zm207,146.27a38.29,38.29,0,0,1-36.86-28.05l0-.08a38.18,38.18,0,1,1,36.88,28.13Zm-18.64-33a19.3,19.3,0,0,0,23.3,13.52,19,19,0,1,0-23.3-13.52ZM77,185.35c-33.54,0-64.32-22.28-73.4-56A75.44,75.44,0,0,1,57,37l.36-.09c40.43-10.77,82.17,13.18,93,53.41A75.44,75.44,0,0,1,97,182.69l-.34.09A76.29,76.29,0,0,1,77,185.35ZM77,53.19a57.44,57.44,0,0,0-14.81,1.95l-.29.08a56.56,56.56,0,0,0-40,69.26,57.22,57.22,0,0,0,70,40l.29-.08A56.59,56.59,0,0,0,77,53.19Zm326.91,79.74a49.2,49.2,0,1,1,47.46-62.12l0,.13a48.93,48.93,0,0,1-34.09,60.12l-.51.14A49.1,49.1,0,0,1,403.89,132.94Zm0-79.53a30.32,30.32,0,1,0,8,59.58l.42-.11a30.05,30.05,0,0,0,20.91-37l-.05-.2A30.38,30.38,0,0,0,403.87,53.41Z"/>
  </g>
</svg>
