<?xml version="1.0" encoding="UTF-8" standalone="no"?>
<svg width="512px" height="512px" viewBox="0 0 512 512" version="1.1" xmlns="http://www.w3.org/2000/svg" xmlns:xlink="http://www.w3.org/1999/xlink" xmlns:sketch="http://www.bohemiancoding.com/sketch/ns">
    <!-- Generator: Sketch 3.5.2 (25235) - http://www.bohemiancoding.com/sketch -->
    <title>csv</title>
    <desc>Created with Sketch.</desc>
    <defs></defs>
    <g id="Page-1" stroke="none" stroke-width="1" fill="none" fill-rule="evenodd" sketch:type="MSPage">
        <g id="csv" sketch:type="MSArtboardGroup" fill="#000000">
            <g id="icon-csv" sketch:type="MSLayerGroup" transform="translate(0.000000, 84.000000)">
                <path d="M328,128 L184,128 C179.58,128 176,124.42 176,120 L176,80 C176,75.58 179.58,72 184,72 L328,72 C332.42,72 336,75.58 336,80 L336,120 C336,124.42 332.42,128 328,128" id="Fill-4" sketch:type="MSShapeGroup"></path>
                <path d="M504,128 L360,128 C355.58,128 352,124.42 352,120 L352,80 C352,75.58 355.58,72 360,72 L504,72 C508.42,72 512,75.58 512,80 L512,120 C512,124.42 508.42,128 504,128" id="Fill-5" sketch:type="MSShapeGroup"></path>
                <path d="M328,200 L184,200 C179.58,200 176,196.42 176,192 L176,152 C176,147.58 179.58,144 184,144 L328,144 C332.42,144 336,147.58 336,152 L336,192 C336,196.42 332.42,200 328,200" id="Fill-6" sketch:type="MSShapeGroup"></path>
                <path d="M504,200 L360,200 C355.58,200 352,196.42 352,192 L352,152 C352,147.58 355.58,144 360,144 L504,144 C508.42,144 512,147.58 512,152 L512,192 C512,196.42 508.42,200 504,200" id="Fill-7" sketch:type="MSShapeGroup"></path>
                <path d="M328,272 L184,272 C179.58,272 176,268.42 176,264 L176,224 C176,219.58 179.58,216 184,216 L328,216 C332.42,216 336,219.58 336,224 L336,264 C336,268.42 332.42,272 328,272" id="Fill-8" sketch:type="MSShapeGroup"></path>
                <path d="M504,272 L360,272 C355.58,272 352,268.42 352,264 L352,224 C352,219.58 355.58,216 360,216 L504,216 C508.42,216 512,219.58 512,224 L512,264 C512,268.42 508.42,272 504,272" id="Fill-9" sketch:type="MSShapeGroup"></path>
                <path d="M328,344 L184,344 C179.58,344 176,340.42 176,336 L176,296 C176,291.58 179.58,288 184,288 L328,288 C332.42,288 336,291.58 336,296 L336,336 C336,340.42 332.42,344 328,344" id="Fill-10" sketch:type="MSShapeGroup"></path>
                <path d="M504,344 L360,344 C355.58,344 352,340.42 352,336 L352,296 C352,291.58 355.58,288 360,288 L504,288 C508.42,288 512,291.58 512,296 L512,336 C512,340.42 508.42,344 504,344" id="Fill-11" sketch:type="MSShapeGroup"></path>
                <path d="M328,56 L184,56 C179.58,56 176,52.42 176,48 L176,8 C176,3.58 179.58,0 184,0 L328,0 C332.42,0 336,3.58 336,8 L336,48 C336,52.42 332.42,56 328,56" id="Fill-12" sketch:type="MSShapeGroup"></path>
                <path d="M504,56 L360,56 C355.58,56 352,52.42 352,48 L352,8 C352,3.58 355.58,0 360,0 L504,0 C508.42,0 512,3.58 512,8 L512,48 C512,52.42 508.42,56 504,56" id="Fill-13" sketch:type="MSShapeGroup"></path>
                <path d="M152,128 L8,128 C3.58,128 0,124.42 0,120 L0,80 C0,75.58 3.58,72 8,72 L152,72 C156.42,72 160,75.58 160,80 L160,120 C160,124.42 156.42,128 152,128" id="Fill-4" sketch:type="MSShapeGroup"></path>
                <path d="M152,200 L8,200 C3.58,200 0,196.42 0,192 L0,152 C0,147.58 3.58,144 8,144 L152,144 C156.42,144 160,147.58 160,152 L160,192 C160,196.42 156.42,200 152,200" id="Fill-6" sketch:type="MSShapeGroup"></path>
                <path d="M152,272 L8,272 C3.58,272 0,268.42 0,264 L0,224 C0,219.58 3.58,216 8,216 L152,216 C156.42,216 160,219.58 160,224 L160,264 C160,268.42 156.42,272 152,272" id="Fill-8" sketch:type="MSShapeGroup"></path>
                <path d="M152,344 L8,344 C3.58,344 0,340.42 0,336 L0,296 C0,291.58 3.58,288 8,288 L152,288 C156.42,288 160,291.58 160,296 L160,336 C160,340.42 156.42,344 152,344" id="Fill-10" sketch:type="MSShapeGroup"></path>
                <path d="M152,56 L8,56 C3.58,56 0,52.42 0,48 L0,8 C0,3.58 3.58,0 8,0 L152,0 C156.42,0 160,3.58 160,8 L160,48 C160,52.42 156.42,56 152,56" id="Fill-12" sketch:type="MSShapeGroup"></path>
            </g>
        </g>
    </g>
</svg>