<svg xmlns="http://www.w3.org/2000/svg" viewBox="0 0 512 512"><g fill="none" fill-rule="evenodd"><path fill="#000000" d="M248 144h16a8 8 0 0 1 8 8v16a8 8 0 0 1-8 8h-16a8 8 0 0 1-8-8v-16a8 8 0 0 1 8-8z"/><path stroke="#000000" stroke-width="16" d="M296 232h-80v-80a32 32 0 0 1 32-32h16a32 32 0 0 1 32 32v80z"/><path stroke="#000000" stroke-width="16" d="M216 200v32h80v-32h184a24 24 0 0 1 24 24v128a24 24 0 0 1-24 24H32a24 24 0 0 1-24-24V224a24 24 0 0 1 24-24h184z"/><polygon fill="#000000" points="421.711 336 375.664 336 375.664 256.047 421.711 256.047 421.711 269.938 392.617 269.938 392.617 287.492 419.688 287.492 419.688 301.383 392.617 301.383 392.617 322 421.711 322"/><path fill="#000000" d="M303.91 336l-19.25-62.73h-.49c.7 12.76 1.04 21.28 1.04 25.54V336h-15.15v-79.95h23.08l18.92 61.14h.33l20.07-61.14h23.08V336h-15.8v-37.84c0-1.79.02-3.85.08-6.18.05-2.34.3-8.53.73-18.6h-.49L319.45 336H303.9zm-62.18 0l-5.8-19.03H206.8l-5.8 19.03h-18.26l28.22-80.28h20.72L260 336h-18.27zm-9.84-33.25c-5.36-17.24-8.38-27-9.05-29.26a82.59 82.59 0 0 1-1.45-5.36c-1.2 4.67-4.65 16.2-10.34 34.62h20.84zM172.66 336h-21.54l-34.78-60.48h-.5c.7 10.68 1.04 18.3 1.04 22.86V336h-15.15v-79.95h21.39l34.72 59.88h.39c-.55-10.4-.82-17.74-.82-22.04v-37.84h15.25V336z"/></g></svg>