<?xml version="1.0" encoding="UTF-8"?>
<svg width="512px" height="512px" viewBox="0 0 512 512" version="1.1" xmlns="http://www.w3.org/2000/svg" xmlns:xlink="http://www.w3.org/1999/xlink">
  <!-- Generator: Sketch 52.2 (67145) - http://www.bohemiancoding.com/sketch -->
  <title>icon-custom-apps</title>
  <desc>Created with Sketch.</desc>
  <g id="icon-custom-apps" stroke="none" stroke-width="1" fill="none" fill-rule="evenodd">
    <path d="M302.652073,435.744681 L305.950844,429.54696 C305.52102,428.555887 305.108114,427.557011 304.712461,426.551139 L274.491988,417.354712 L273.603068,410.3596 L273.196726,407.161948 C272.570379,402.186964 272.256845,397.178213 272.256538,392.170213 L108.794883,392.170213 L108.794883,423.963436 C108.794883,430.470038 114.071378,435.744681 120.580265,435.744681 L302.652073,435.744681 Z M413.923251,274.10796 L417.371023,274.533196 L426.578841,304.946228 C427.518014,305.316578 428.450543,305.701766 429.376117,306.101676 L457.468251,291.136492 L463.047783,295.47979 L465.557981,297.433858 C469.501535,300.487404 473.313522,303.85016 476.896239,307.431706 C480.459025,310.993327 483.812474,314.791319 486.855737,318.714245 L493.140619,326.825408 L478.172929,354.828773 C478.577662,355.761506 478.967248,356.7013 479.341483,357.647646 L509.783116,366.906134 L510.652791,373.929894 L511.042866,377.080713 C512.31124,387.064459 512.31986,397.18466 511.063578,407.174476 L509.769369,417.358888 L479.427763,426.574131 C479.046959,427.543411 478.650128,428.505865 478.237463,429.461043 L493.187896,457.482573 L488.841679,463.062207 L486.893553,465.56308 C483.860767,469.485252 480.5069,473.285059 476.883659,476.918681 C473.337628,480.452006 469.55187,483.792132 465.636834,486.831154 L457.506168,493.167683 L429.578739,478.246587 C428.581158,478.680336 427.575699,479.097041 426.563182,479.496363 L417.372431,509.758023 L410.369189,510.647395 L407.173563,511.053217 C402.190634,511.681592 397.137481,512 392.130944,512 C387.117643,512 382.067609,511.682048 377.097523,511.054379 L366.926455,509.791719 L357.644602,479.518071 C356.6354,479.120935 355.63395,478.706689 354.640751,478.275544 L326.742738,493.165653 L321.157381,488.812779 L318.619256,486.834722 C314.673716,483.763194 310.882922,480.421157 307.342952,476.893791 C303.769063,473.30962 300.421816,469.514069 297.364638,465.571711 L291.135054,457.531915 L120.580265,457.531915 C102.034397,457.531915 87,442.502795 87,423.963436 L87,33.5684791 C87,15.02912 102.034397,0 120.580265,3.87019022e-14 L380.342986,3.87019022e-14 C398.888854,0 413.923251,15.02912 413.923251,33.5684791 L413.923251,274.10796 Z M392.128367,272.340116 L392.128367,87.1489362 L108.794883,87.1489362 L108.794883,370.382979 L274.059774,370.382979 L274.501668,366.90562 L304.800905,357.661474 C305.189608,356.679119 305.594069,355.704867 306.014167,354.739196 L291.092237,326.806609 L295.440966,321.22375 L297.402331,318.70579 C300.463109,314.763606 303.821172,310.963648 307.35333,307.444041 C310.920482,303.866626 314.73592,300.498287 318.693402,297.433957 L326.797247,291.158851 L354.834729,306.074504 C355.758275,305.675889 356.688759,305.291738 357.625683,304.922252 L366.909235,274.53375 L373.927375,273.66534 L377.097473,273.27309 C382.063595,272.651101 387.097266,272.340213 392.128367,272.340109 Z M392.128367,65.3617021 L392.128367,33.5684791 C392.128367,27.0618771 386.851872,21.787234 380.342986,21.787234 L120.580265,21.787234 C114.071378,21.787234 108.794883,27.0618771 108.794883,33.5684791 L108.794883,65.3617021 L392.128367,65.3617021 Z M392.130944,490.212766 C394.958487,490.212766 397.809437,490.08821 400.643907,489.841978 L408.948255,462.498906 L414.355153,460.741904 C417.991026,459.560406 421.539123,458.089503 424.931526,456.357779 L430.002543,453.76917 L455.216504,467.24051 C457.381351,465.42028 459.479485,463.498488 461.472386,461.512784 C463.50972,459.469567 465.445873,457.358793 467.26557,455.193454 L453.770911,429.900473 L456.340744,424.844043 C458.04425,421.492205 459.484722,417.998284 460.645632,414.399742 L462.395169,408.976594 L489.84338,400.640124 C490.330478,394.985471 490.325355,389.286516 489.827303,383.610086 L462.336329,375.249008 L460.580386,369.846826 C459.41852,366.27233 457.978172,362.799022 456.27888,359.473453 L453.68879,354.404564 L467.222161,329.084696 C465.412132,326.935586 463.488883,324.840905 461.484744,322.837422 C459.460446,320.813785 457.348118,318.876433 455.171739,317.047693 L429.810122,330.558282 L424.753844,327.989986 C421.423538,326.298384 417.952688,324.864897 414.366703,323.700059 L408.953123,321.941561 L400.642137,294.490725 C394.991791,294.006711 389.258673,294.006862 383.600679,294.491833 L375.221111,321.921261 L369.830226,323.676808 C366.251024,324.842379 362.773927,326.278052 359.445851,327.964087 L354.396901,330.521932 L329.075492,317.051202 C326.90312,318.877709 324.791018,320.817749 322.764766,322.849777 C320.767202,324.840286 318.843997,326.932341 317.022548,329.094741 L330.503,354.329005 L327.905429,359.40009 C326.199282,362.730901 324.742917,366.237243 323.549133,369.881191 L321.787555,375.258298 L294.424749,383.606554 C293.928911,389.272065 293.92688,394.978749 294.41748,400.643876 L321.738033,408.957825 L323.489038,414.370703 C324.660799,417.992962 326.121796,421.527646 327.843516,424.906881 L330.418486,429.960796 L316.98844,455.193129 C318.812381,457.363331 320.743692,459.471521 322.754185,461.487854 C324.748449,463.474972 326.856272,465.404041 329.040485,467.241041 L354.220739,453.801491 L359.289287,456.389128 C362.661202,458.110585 366.186079,459.569769 369.826543,460.74983 L375.222102,462.498808 L383.605276,489.84133 C386.440839,490.088102 389.29501,490.212766 392.130944,490.212766 Z M337.641159,390.095732 C337.641159,361.159356 361.102742,337.702128 390.052664,337.702128 C418.996172,337.702128 442.464169,361.162167 442.464169,390.095732 C442.464169,419.029297 418.996172,442.489337 390.052664,442.489337 C361.102742,442.489337 337.641159,419.032108 337.641159,390.095732 Z M359.436042,390.095732 C359.436042,407.000158 373.140531,420.702103 390.052664,420.702103 C406.959133,420.702103 420.669286,406.996598 420.669286,390.095732 C420.669286,373.194866 406.959133,359.489362 390.052664,359.489362 C373.140531,359.489362 359.436042,373.191307 359.436042,390.095732 Z" id="Combined-Shape" fill="#000000" fill-rule="nonzero"></path>
  </g>
</svg>