<?xml version="1.0" encoding="UTF-8" standalone="no"?>
<svg width="512px" height="512px" viewBox="0 0 512 512" version="1.1" xmlns="http://www.w3.org/2000/svg" xmlns:xlink="http://www.w3.org/1999/xlink">
    <!-- Generator: Sketch 39.1 (31720) - http://www.bohemiancoding.com/sketch -->
    <title>date</title>
    <desc>Created with Sketch.</desc>
    <defs></defs>
    <g id="Page-1" stroke="none" stroke-width="1" fill="none" fill-rule="evenodd">
        <g id="date" fill="#000000">
            <path d="M28.4444444,100.765991 L28.4444444,439.469303 C28.4444444,455.14914 41.1169493,467.764706 56.7492066,467.764706 L455.250793,467.764706 C470.870603,467.764706 483.555556,455.125932 483.555556,439.469303 L483.555556,100.765991 C483.555556,85.0861546 470.883051,72.4705882 455.250793,72.4705882 L56.7492066,72.4705882 C41.1293961,72.4705882 28.4444444,85.1093625 28.4444444,100.765991 L28.4444444,100.765991 Z M0,100.765991 C0,69.5449493 25.3901596,44.2352941 56.7492066,44.2352941 L455.250793,44.2352941 C486.592515,44.2352941 512,69.4921531 512,100.765991 L512,439.469303 C512,470.690345 486.60984,496 455.250793,496 L56.7492066,496 C25.4074852,496 0,470.743141 0,439.469303 L0,100.765991 L0,100.765991 Z M113.777778,16 L142.222222,16 L142.222222,100.705882 L113.777778,100.705882 L113.777778,16 L113.777778,16 Z M369.777778,16 L398.222222,16 L398.222222,100.705882 L369.777778,100.705882 L369.777778,16 L369.777778,16 Z M0,157.176471 L512,157.176471 L512,185.411765 L0,185.411765 L0,157.176471 L0,157.176471 Z"></path>
        </g>
    </g>
</svg>