<?xml version="1.0" encoding="UTF-8" standalone="no"?>
<svg width="512px" height="512px" viewBox="0 0 512 512" version="1.1" xmlns="http://www.w3.org/2000/svg" xmlns:xlink="http://www.w3.org/1999/xlink">
    <!-- Generator: Sketch 39.1 (31720) - http://www.bohemiancoding.com/sketch -->
    <title>doc-pages</title>
    <desc>Created with Sketch.</desc>
    <defs></defs>
    <g id="Page-1" stroke="none" stroke-width="1" fill="none" fill-rule="evenodd">
        <g id="doc-pages" fill="#000000">
            <path d="M139.636364,71.1111111 L46.5139433,71.1111111 C33.6470109,71.1111111 23.2727273,81.4673272 23.2727273,94.2423673 L23.2727273,417.757633 C23.2727273,430.612976 33.6781731,440.888889 46.5139433,440.888889 L139.636364,440.888889 L139.636364,71.1111111 L139.636364,71.1111111 Z M162.909091,71.1111111 L465.486057,71.1111111 C478.321827,71.1111111 488.727273,81.3870243 488.727273,94.2423673 L488.727273,417.757633 C488.727273,430.532673 478.352989,440.888889 465.486057,440.888889 L162.909091,440.888889 L162.909091,71.1111111 L162.909091,71.1111111 Z M0,94.1087304 C0,68.6435817 20.8650589,48 46.5665164,48 L465.433484,48 C491.151465,48 512,68.6295047 512,94.1087304 L512,417.89127 C512,443.356418 491.134941,464 465.433484,464 L46.5665164,464 C20.8485353,464 0,443.370495 0,417.89127 L0,94.1087304 L0,94.1087304 Z M46.5454545,94.2222222 L116.363636,94.2222222 L116.363636,163.555556 L46.5454545,163.555556 L46.5454545,94.2222222 L46.5454545,94.2222222 Z M69.8181818,117.333333 L93.0909091,117.333333 L93.0909091,140.444444 L69.8181818,140.444444 L69.8181818,117.333333 L69.8181818,117.333333 Z M46.5454545,186.666667 L116.363636,186.666667 L116.363636,256 L46.5454545,256 L46.5454545,186.666667 L46.5454545,186.666667 Z M69.8181818,209.777778 L93.0909091,209.777778 L93.0909091,232.888889 L69.8181818,232.888889 L69.8181818,209.777778 L69.8181818,209.777778 Z M46.5454545,279.111111 L116.363636,279.111111 L116.363636,348.444444 L46.5454545,348.444444 L46.5454545,279.111111 L46.5454545,279.111111 Z M69.8181818,302.222222 L93.0909091,302.222222 L93.0909091,325.333333 L69.8181818,325.333333 L69.8181818,302.222222 L69.8181818,302.222222 Z M46.5454545,371.555556 L116.363636,371.555556 L116.363636,440.888889 L46.5454545,440.888889 L46.5454545,371.555556 L46.5454545,371.555556 Z M69.8181818,394.666667 L93.0909091,394.666667 L93.0909091,417.777778 L69.8181818,417.777778 L69.8181818,394.666667 L69.8181818,394.666667 Z" id="icon-doc-pages"></path>
        </g>
    </g>
</svg>