<?xml version="1.0" encoding="UTF-8" standalone="no"?>
<svg width="512px" height="512px" viewBox="0 0 512 512" version="1.1" xmlns="http://www.w3.org/2000/svg" xmlns:xlink="http://www.w3.org/1999/xlink">
    <!-- Generator: Sketch 39.1 (31720) - http://www.bohemiancoding.com/sketch -->
    <title>document</title>
    <desc>Created with Sketch.</desc>
    <defs></defs>
    <g id="Page-1" stroke="none" stroke-width="1" fill="none" fill-rule="evenodd">
        <g id="document" fill="#000000">
            <g id="icon-document" transform="translate(44.000000, 0.000000)">
                <path d="M28.2666667,455.250793 C28.2666667,470.878559 40.8958129,483.555556 56.5230838,483.555556 L367.476916,483.555556 C383.103141,483.555556 395.733333,470.817849 395.733333,455.0326 L395.733333,170.624067 C395.733333,161.975351 389.85212,146.561599 384.083778,140.11202 L304.177394,50.7687538 C293.833223,39.2029437 269.780471,28.4444444 254.275796,28.4444444 L56.5244183,28.4444444 C40.9024892,28.4444444 28.2666667,41.1308033 28.2666667,56.7492066 L28.2666667,455.250793 L28.2666667,455.250793 Z M56.5244183,0 L254.275796,0 C277.761265,0 309.461457,14.1567654 325.187842,31.7404235 L405.094226,121.08369 C415.535596,132.758179 424,154.950811 424,170.624067 L424,455.0326 C424,486.494827 398.746635,512 367.476916,512 L56.5230838,512 C25.3062467,512 0,486.60984 0,455.250793 L0,56.7492066 C0,25.4074852 25.3050011,0 56.5244183,0 L56.5244183,0 Z" id="Rectangle-2"></path>
                <path d="M240.266667,142.335758 C240.266667,165.805641 259.285355,184.888889 282.55384,184.888889 L409.866667,184.888889 L409.866667,156.444444 L282.55384,156.444444 C274.878403,156.444444 268.533333,150.077835 268.533333,142.335758 L268.533333,14.2222222 L240.266667,14.2222222 L240.266667,142.335758 L240.266667,142.335758 Z" id="Path-355"></path>
            </g>
        </g>
    </g>
</svg>