<?xml version="1.0" encoding="UTF-8" standalone="no"?>
<svg width="512px" height="512px" viewBox="0 0 512 512" version="1.1" xmlns="http://www.w3.org/2000/svg" xmlns:xlink="http://www.w3.org/1999/xlink">
    <!-- Generator: Sketch 39.1 (31720) - http://www.bohemiancoding.com/sketch -->
    <title>icon-documentum</title>
    <desc>Created with Sketch.</desc>
    <defs></defs>
    <g id="Page-1" stroke="none" stroke-width="1" fill="none" fill-rule="evenodd">
        <g id="icon-documentum">
            <g id="documentum">
                <path d="M460.418087,282.084368 L386.569568,282.084368 C376.38087,282.045359 354.400903,279.574756 338.088563,274.698565 C332.629401,273.073168 318.089008,268.730108 304.004631,259.900952 C290.91046,251.695949 278.832553,240.383187 266.84585,225.182476 C249.895087,203.662222 239.471866,182.987175 233.517602,155.966578 C230.690303,143.119441 230.012794,131.754667 229.218023,115.279644 C228.879268,108.01087 226.429812,92.1730032 226.429812,92.1730032 C216.2802,39.7832127 170.131391,0.175542857 114.666828,0.175542857 C51.7757201,0.175542857 0.793141948,51.0699683 0.793141948,113.836292 C0.793141948,169.424863 40.8052803,215.61214 93.6249511,225.468546 C93.6249511,225.468546 112.6343,228.368254 122.106402,228.498286 C158.418297,228.992406 193.01036,239.446959 224.827241,264.322032 C247.797414,282.279416 279.926992,309.612089 283.666322,383.366095 L283.666322,458.485435 C283.666322,486.494273 306.415001,509.197816 334.466494,509.197816 L460.418087,509.197816 C488.495637,509.197816 511.231287,486.494273 511.231287,458.485435 L511.231287,332.796749 C511.231287,304.787911 488.495637,282.084368 460.418087,282.084368" id="Fill-2" fill="#000000"></path>
                <path d="M115.604918,511.278324 C178.509054,511.278324 229.491633,460.396902 229.491633,397.630578 C229.491633,334.851251 178.509054,283.969829 115.604918,283.969829 C52.7138099,283.969829 1.73123181,334.851251 1.73123181,397.630578 C1.73123181,460.396902 52.7138099,511.278324 115.604918,511.278324" id="Fill-3" fill="#1A1918"></path>
                <path d="M511.322491,115.331657 C511.322491,52.5783365 460.339913,1.68391111 397.448805,1.68391111 C334.544668,1.68391111 283.575119,52.5783365 283.575119,115.331657 C283.575119,178.110984 334.544668,228.992406 397.448805,228.992406 C460.339913,228.992406 511.322491,178.110984 511.322491,115.331657" id="Fill-4" fill="#1A1918"></path>
            </g>
        </g>
    </g>
</svg>