<?xml version="1.0" encoding="UTF-8" standalone="no"?>
<svg width="512px" height="512px" viewBox="0 0 512 512" version="1.1" xmlns="http://www.w3.org/2000/svg" xmlns:xlink="http://www.w3.org/1999/xlink" xmlns:sketch="http://www.bohemiancoding.com/sketch/ns">
    <!-- Generator: Sketch 3.3.3 (12072) - http://www.bohemiancoding.com/sketch -->
    <title>icon-download</title>
    <desc>Created with Sketch.</desc>
    <defs></defs>
    <g id="Page-1" stroke="none" stroke-width="1" fill="none" fill-rule="evenodd" sketch:type="MSPage">
        <g id="icon-download" sketch:type="MSArtboardGroup" fill="#000000">
            <path d="M246.005508,451.2 L181.267217,387.2 L165.082644,403.2 L258.953167,496 L352.82369,403.2 L336.639117,387.2 L271.900825,451.2 L271.900825,208 L246.005508,208 L246.005508,451.2 L246.005508,451.2 Z M297.796142,336 L297.796142,310.4 L431.834703,310.4 C466.1157,310.4 481.911455,272 486.055612,257.681407 C481.911455,233.6 466.237408,210.904687 441.897364,207.1375 L415.169124,202.426563 L422.260945,179.179688 C427.650408,163.550001 427.272725,156.8 430.120821,136.48021 C427.272725,92.8 393.105667,41.6 332.187323,41.6 C297.796142,41.6 271.900825,54.4 245.619798,87.9359375 L239.977985,92.8 L233.17904,88.959375 C220.110192,67.2 194.214875,67.2 190.523368,67.2 C158.64468,67.2 142.424242,92.8 142.424242,114.280257 L142.424242,131.2 C142.424242,131.2 120.135107,131.307407 116.528925,131.2 C64.7382917,131.2 25.8953167,169.6 25.8953167,220.8 C25.8953167,272 64.7382917,310.4 114.170768,310.4 L116.528925,310.4 L220.110192,310.4 L220.110192,336 L105.663898,335.365101 C45.8181375,329.414266 0,280.505498 0,220.835726 C0,158.400376 51.195559,107.393214 114.743831,105.74678 C120.694187,69.9233951 152.595016,42.837946 190.523368,42.837946 C207.92282,42.837946 224.440795,48.4767126 237.90636,58.8287991 C261.22315,31.872482 295.834701,16 332.187323,16 C400.2094,16 455.54821,70.0525271 455.54821,136.48021 C455.54821,151.857686 453.280945,166.904116 447.57297,180.96875 C484.884237,187.855793 512,219.469079 512,257.681407 C512,300.843798 476.033088,336 431.834703,336 L297.796142,336 L297.796142,336 Z" id="download" sketch:type="MSShapeGroup"></path>
        </g>
    </g>
</svg>