<?xml version="1.0" encoding="UTF-8" standalone="no"?>
<svg width="512px" height="512px" viewBox="0 0 512 512" version="1.1" xmlns="http://www.w3.org/2000/svg" xmlns:xlink="http://www.w3.org/1999/xlink">
    <!-- Generator: Sketch 3.7.2 (28276) - http://www.bohemiancoding.com/sketch -->
    <title>StoryDraft</title>
    <desc>Created with Sketch.</desc>
    <defs></defs>
    <g id="Page-1" stroke="none" stroke-width="1" fill="none" fill-rule="evenodd">
        <g id="512" fill="#000000">
            <path d="M442.36505,489 L69.6233,489 C43.86515,489 23,468.13485 23,442.36505 L23,69.63495 C23,43.8768 43.9001,23 69.70485,23 L314.25,23 L314.25,174.45 L314.25,197.75 L337.55,197.75 L489,197.75 L489,442.29515 C489,468.0999 468.1232,489 442.36505,489 L442.36505,489 Z M479,175 L337,175 L337,33 L479,175 Z M495.581091,158.126545 L353.873455,16.4189091 C344.843636,7.38909091 327.063273,0 314.251636,0 L69.9229091,0 C31.2901818,0 0,31.2669091 0,69.8530909 L0,442.146909 C0,480.744727 31.2669091,512 69.8414545,512 L442.146909,512 C480.744727,512 512,480.698182 512,442.077091 L512,197.736727 C512,185.018182 504.645818,167.191273 495.581091,158.126545 L495.581091,158.126545 Z M116.701667,198 L280,198 L280,174.75 L128.333333,174.75 L128.333333,128.25 L280,128.25 L280,105 L116.655,105 C110.156667,105 105,110.18475 105,116.590125 L105,186.409875 C105,192.733875 110.238333,198 116.701667,198 Z M105,407 L291,407 L291,384 L105,384 L105,407 Z M105,337 L408,337 L408,314 L105,314 L105,337 Z M105,267 L385,267 L385,244 L105,244 L105,267 Z" id="StoryDraft"></path>
        </g>
    </g>
</svg>