<?xml version="1.0" encoding="UTF-8" standalone="no"?>
<svg width="512px" height="512px" viewBox="0 0 512 512" version="1.1" xmlns="http://www.w3.org/2000/svg" xmlns:xlink="http://www.w3.org/1999/xlink">
    <!-- Generator: Sketch 39.1 (31720) - http://www.bohemiancoding.com/sketch -->
    <title>dropbox</title>
    <desc>Created with Sketch.</desc>
    <defs></defs>
    <g id="Page-1" stroke="none" stroke-width="1" fill="none" fill-rule="evenodd">
        <g id="dropbox" fill="#000000">
            <g transform="translate(0.000000, 16.000000)" id="DropboxOverlay">
                <path d="M150.613926,0 L0,99.1181229 L104.142081,183.174881 L255.997547,88.6617274 L150.613926,0 L150.613926,0 Z M0,267.241532 L150.613926,366.359655 L255.997547,277.692982 L104.142081,183.174881 L0,267.241532 L0,267.241532 Z M255.997547,277.692982 L361.390981,366.359655 L512,267.241532 L407.857921,183.174881 L255.997547,277.692982 L255.997547,277.692982 Z M512,99.1181229 L361.390981,0 L255.997547,88.6617274 L407.857921,183.174881 L512,99.1181229 L512,99.1181229 Z M256.311612,296.765764 L150.613926,385.170284 L105.38362,355.408633 L105.38362,388.77611 L256.311612,480 L407.239604,388.77611 L407.239604,355.408633 L362.009299,385.170284 L256.311612,296.765764 L256.311612,296.765764 Z"></path>
            </g>
        </g>
    </g>
</svg>