<?xml version="1.0" encoding="UTF-8" standalone="no"?>
<svg width="512px" height="512px" viewBox="0 0 512 512" version="1.1" xmlns="http://www.w3.org/2000/svg" xmlns:xlink="http://www.w3.org/1999/xlink">
    <!-- Generator: Sketch 3.8.1 (29687) - http://www.bohemiancoding.com/sketch -->
    <title>icon-pages</title>
    <desc>Created with Sketch.</desc>
    <defs></defs>
    <g id="Page-1" stroke="none" stroke-width="1" fill="none" fill-rule="evenodd">
        <g id="icon-pages" fill="#000000">
            <path d="M0,40 L242.527502,40 L242.527502,472 L0,472 L0,40 L0,40 Z M26.9475002,67 L215.580002,67 L215.580002,445 L26.9475002,445 L26.9475002,67 L26.9475002,67 Z M269.475002,40 L512.002504,40 L512.002504,472 L269.475002,472 L269.475002,40 L269.475002,40 Z M296.422503,67 L485.055004,67 L485.055004,445 L296.422503,445 L296.422503,67 L296.422503,67 Z M53.8950005,94 L188.632502,94 L188.632502,121 L53.8950005,121 L53.8950005,94 L53.8950005,94 Z M53.8950005,148 L161.685001,148 L161.685001,175 L53.8950005,175 L53.8950005,148 L53.8950005,148 Z M53.8950005,202 L188.632502,202 L188.632502,229 L53.8950005,229 L53.8950005,202 L53.8950005,202 Z M53.8950005,256 L161.685001,256 L161.685001,283 L53.8950005,283 L53.8950005,256 L53.8950005,256 Z M53.8950005,310 L134.737501,310 L134.737501,337 L53.8950005,337 L53.8950005,310 L53.8950005,310 Z M53.8950005,364 L161.685001,364 L161.685001,391 L53.8950005,391 L53.8950005,364 L53.8950005,364 Z M323.370003,94 L431.160004,94 L431.160004,121 L323.370003,121 L323.370003,94 L323.370003,94 Z M323.370003,148 L404.212503,148 L404.212503,175 L323.370003,175 L323.370003,148 L323.370003,148 Z M323.370003,202 L431.160004,202 L431.160004,229 L323.370003,229 L323.370003,202 L323.370003,202 Z M323.370003,256 L458.107504,256 L458.107504,283 L323.370003,283 L323.370003,256 L323.370003,256 Z M323.370003,310 L431.160004,310 L431.160004,337 L323.370003,337 L323.370003,310 L323.370003,310 Z M323.370003,364 L377.265003,364 L377.265003,391 L323.370003,391 L323.370003,364 L323.370003,364 Z" id="pages"></path>
        </g>
    </g>
</svg>