<?xml version="1.0" encoding="UTF-8" standalone="no"?>
<svg width="512px" height="512px" viewBox="0 0 512 512" version="1.1" xmlns="http://www.w3.org/2000/svg" xmlns:xlink="http://www.w3.org/1999/xlink">
    <!-- Generator: Sketch 39.1 (31720) - http://www.bohemiancoding.com/sketch -->
    <title>icon-dynamics</title>
    <desc>Created with Sketch.</desc>
    <defs></defs>
    <g id="Page-1" stroke="none" stroke-width="1" fill="none" fill-rule="evenodd">
        <g id="icon-dynamics" fill="#999999">
            <g id="dynamics" transform="translate(6.000000, 18.000000)">
                <g id="812CC955-0E58-4473-A287-7E7E39231844">
                    <g id="Content">
                        <g id="Content---Share-Sheet---SF---Opportunity">
                            <g id="Pop-Up">
                                <g id="Related-to">
                                    <g id="Group-3">
                                        <g id="Dropdown">
                                            <g id="row">
                                                <path d="M495.845614,463.380497 C495.848484,365.932717 495.780142,268.484931 495.999929,171.037032 C496.014915,164.568285 493.674906,161.734217 490.135662,161.028408 C458.30041,191.574774 427.547087,221.221217 396.563408,250.611316 C393.239547,253.763416 392.459173,256.91274 392.464688,261.113712 C392.542501,311.956215 392.516485,362.79872 392.51384,413.641224 C392.512517,423.665241 388.552902,426.644398 378.715781,424.200815 C321.234022,409.915877 263.078365,405.378771 204.188781,411.738813 C143.341178,418.310823 84.6889059,433.493969 28.5743592,458.614664 C27.1690495,459.243694 25.6313787,459.564484 24.1551055,460.028933 C30.792861,455.046916 37.8467368,451.162567 45.1339451,447.808205 C146.427419,401.181999 251.769128,392.262627 360.300517,412.24649 C365.725435,413.245118 371.268955,414.028978 377.079867,414.351163 C378.947696,414.454359 382.982267,412.35946 382.974106,409.091591 C382.96728,406.173783 382.99593,404.75255 382.99593,402.917064 L382.99593,93.1784685 C382.994395,83.3944319 382.969926,83.3707319 372.720582,81.998163 C372.117658,83.3316826 371.44487,84.712377 370.85959,86.1307652 C343.915771,151.397857 307.635249,210.552831 260.121756,262.282506 C256.51573,266.208693 255.216871,270.020533 255.249501,275.266155 C255.455612,308.045355 255.357298,340.825976 255.35046,373.605175 C255.349138,382.009895 254.229063,383.046194 246.176444,383.790984 C233.599431,384.95418 220.993981,385.990479 208.489313,387.740893 C144.682362,396.672813 84.9549509,417.613457 29.7818476,451.780432 C28.0954594,452.825093 24.5166777,454.553179 22.5137707,455.364918 C24.9955775,452.784648 31.5227958,447.762181 32.7985078,447.004842 C48.6404171,437.612645 58.7068552,431.018312 75.0126427,422.563393 C125.492263,396.389678 179.258675,381.464547 235.493266,375.582929 C245.503868,374.535479 245.978493,373.997105 245.978493,363.966114 L245.978493,11.4132434 C245.978493,0.489574455 245.570663,0.08080515 234.443954,0 C234.126077,0.97079703 233.647272,1.98064336 233.468487,3.04465961 C226.305586,45.8213548 213.163712,86.8088115 197.216733,126.858651 C158.685079,223.63004 105.686806,311.454114 39.308,390.820471 C26.7378956,405.850199 13.1294979,419.973367 0,434.51492 L0,472.595552 C3.18721333,472.085077 6.47128838,471.299839 9.54252038,470.386283 C17.8980301,467.900852 26.0993665,464.864501 34.4753421,462.464152 C110.138808,440.782893 187.278546,430.778423 265.781234,434.230407 C298.152827,435.653039 330.543387,438.905582 362.671846,443.269722 C403.533861,448.819404 443.339952,459.64259 482.424303,473.113001 C484.16074,473.711558 485.768229,473.999998 487.222536,474 C492.569499,474.000009 495.845614,470.100987 495.845614,463.380497 L495.845614,463.380497 Z" id="Combined-Shape"></path>
                                            </g>
                                        </g>
                                    </g>
                                </g>
                            </g>
                        </g>
                    </g>
                </g>
            </g>
        </g>
    </g>
</svg>