<?xml version="1.0" encoding="UTF-8" standalone="no"?>
<svg width="512px" height="512px" viewBox="0 0 512 512" version="1.1" xmlns="http://www.w3.org/2000/svg" xmlns:xlink="http://www.w3.org/1999/xlink">
    <!-- Generator: Sketch 39.1 (31720) - http://www.bohemiancoding.com/sketch -->
    <title>icon-earth</title>
    <desc>Created with Sketch.</desc>
    <defs></defs>
    <g id="Page-1" stroke="none" stroke-width="1" fill="none" fill-rule="evenodd">
        <g id="icon-earth" fill="#EEEEEE">
            <path d="M82.7650045,89.8982393 C125.512732,45.3263842 185.294504,17.2188097 251.647156,16.0386811 L250.660571,18.5051429 L258.511238,32.6704762 L268.458667,32.6704762 L264.533333,39.6190476 L277.187048,42.3253333 L288.938667,43.2274286 L288.329143,52.2727619 L283.818667,55.5885714 L273.871238,51.9801905 L266.337524,53.4918095 L266.947048,63.1222857 L271.457524,68.2666667 L284.720762,70.656 L288.646095,69.7539048 L297.984,77.287619 L304.615619,77.287619 L305.834667,85.4308571 L304.323048,92.672 L299.203048,91.4529524 L291.05981,97.792 L298.886095,97.4994286 L307.321905,101.10781 L312.149333,104.71619 L322.413714,107.154286 L325.412571,104.131048 L320.292571,98.0845714 L330.556952,100.205714 L324.803048,95.0857143 L322.706286,89.9657143 L335.067429,95.0857143 L335.969524,87.8445714 L326.022095,84.8213333 C326.022095,84.8213333 323.608381,78.5066667 323.608381,77.6045714 C323.608381,76.7024762 311.856762,69.4613333 311.856762,69.4613333 L302.201905,60.7085714 L291.05981,52.2727619 L291.05981,42.6179048 L296.472381,36.9127619 L302.201905,32.0853333 L313.953524,28.4525714 L325.162378,26.1154062 C327.656458,26.8647195 330.133454,27.6535118 332.592638,28.4810571 L329.020952,29.671619 L318.805333,29.3546667 L318.805333,31.768381 L326.095238,34.0358095 L323.949714,37.376 L312.027429,35.6449524 L306.541714,36.7177143 L310.954667,41.2769524 L310.02819,44.0807619 L316.318476,48.7619048 L320.341333,48.7619048 L330.654476,48.4937143 C330.654476,48.4937143 340.699429,51.9801905 341.382095,52.9310476 C342.040381,53.8575238 351.012571,62.7078095 351.012571,62.7078095 C351.012571,62.7078095 352.768,68.8761905 352.768,69.4125714 C352.768,69.9489524 353.03619,73.6792381 353.03619,73.6792381 L356.498286,74.3619048 L362.544762,75.288381 L362.276571,78.1165714 L357.327238,76.9219048 C357.327238,76.9219048 354.767238,80.2620952 354.913524,80.7984762 C355.035429,81.3348571 357.717333,84.5531429 357.717333,84.5531429 L362.666667,84.2849524 L368.030476,88.4297143 L362.544762,90.8434286 L361.20381,95.6708571 L366.031238,100.742095 L367.908571,105.593905 L376.198095,114.566095 L384.121905,117.76 L393.630476,123.270095 L398.726095,114.688 L401.408,108.519619 L400.457143,104.764952 L407.430095,104.643048 L413.988571,107.324952 L421.766095,102.765714 L426.447238,101.156571 L436.638476,102.64381 L440.269895,102.222775 C475.061982,143.868877 496,197.48927 496,256 C496,369.278648 417.5197,464.227239 311.964786,489.440089 C305.167781,479.490468 305.028565,466.768976 306.858667,466.529524 C307.029333,466.236952 308.272762,464.676571 308.272762,464.676571 L312.710095,460.653714 L310.954667,457.557333 L308.004571,454.217143 L308.955429,450.998857 L313.368381,448.463238 L314.294857,444.976762 L316.464762,443.221333 L317.391238,441.490286 L314.172952,438.393905 L314.831238,436.126476 L316.854857,436.662857 L319.804952,436.809143 L321.682286,433.980952 L322.218667,429.421714 L328.923429,428.348952 L334.140952,427.422476 L337.627429,422.595048 L336.408381,418.57219 L332.946286,414.817524 L333.06819,413.086476 L340.163048,416.158476 L345.795048,415.085714 L350.622476,409.453714 L355.986286,406.918095 L359.716571,400.359619 L363.617524,396.873143 L363.081143,390.314667 L364.81219,386.413714 L375.271619,381.854476 L383.853714,379.977143 L388.534857,378.514286 L390.948571,371.687619 L395.776,366.177524 L398.848,359.082667 L400.335238,350.500571 L402.334476,349.696 C402.334476,349.696 406.625524,344.478476 406.893714,344.088381 C407.161905,343.673905 411.721143,341.674667 411.721143,341.674667 L415.451429,337.237333 C415.451429,337.237333 416.938667,330.678857 416.792381,330.288762 C416.670476,329.874286 413.598476,326.534095 413.598476,326.534095 L408.892952,325.315048 L400.725333,319.683048 L389.753905,317.952 L385.999238,318.610286 L382.634667,314.051048 L375.125333,311.661714 L371.248762,309.101714 L367.37219,308.175238 L368.030476,304.688762 C368.030476,304.688762 365.763048,302.275048 365.763048,301.860571 C365.763048,301.470476 362.812952,295.302095 362.812952,295.302095 L356.10819,290.742857 L345.136762,289.816381 C345.136762,289.816381 342.186667,287.134476 342.186667,286.72 C342.186667,286.329905 336.018286,283.526095 336.018286,283.526095 L334.531048,280.30781 L331.044571,276.821333 L325.973333,277.74781 L318.19581,278.430476 L314.294857,277.211429 L312.173714,276.284952 L308.419048,274.944 L306.127238,272.944762 L306.541714,275.602286 L302.787048,278.162286 L300.909714,275.748571 L303.713524,273.871238 L301.568,272.798476 L299.568762,274.407619 L293.010286,276.553143 L289.792,277.625905 L289.52381,280.966095 L286.841905,286.866286 L282.014476,282.575238 L279.332571,281.648762 L273.846857,283.111619 L270.238476,283.91619 L266.459429,278.820571 L266.459429,270.921143 L268.629333,266.24 L265.679238,264.094476 L259.242667,263.289905 L251.075048,263.41181 L254.829714,256.707048 C254.829714,256.707048 256.828952,251.367619 256.828952,250.953143 C256.828952,250.563048 258.852571,246.00381 258.852571,246.00381 L256.414476,244.248381 L253.074286,245.857524 L248.515048,247.076571 L244.760381,256.048762 L239.689143,256.853333 L232.71619,256.975238 L226.54781,248.953905 L227.620571,245.199238 L227.620571,237.568 L230.302476,234.617905 L228.425143,229.64419 L235.52,223.768381 L241.152,220.672 L248.661333,222.427429 L252.68419,222.281143 L252.68419,218.794667 L259.242667,217.721905 L265.532952,219.599238 L269.433905,219.331048 L271.969524,219.867429 L273.724952,229.64419 L277.455238,233.398857 L279.747048,228.059429 C279.747048,228.059429 276.918857,218.940952 276.796952,218.526476 C276.650667,218.136381 277.065143,213.577143 277.065143,213.577143 L286.037333,206.60419 L292.59581,199.631238 L292.059429,192.26819 L295.545905,193.072762 L299.032381,188.123429 L304.664381,181.296762 L312.441905,178.614857 L310.296381,176.469333 L314.294857,172.032 L320.073143,170.983619 L323.803429,172.714667 L327.972571,173.909333 L335.481905,170.422857 L339.090286,166.278095 L331.312762,163.474286 L329.191619,158.110476 L329.849905,152.746667 L316.050286,155.964952 L322.608762,150.064762 L332.653714,148.870095 L342.991238,150.064762 L349.135238,146.724571 L356.10819,145.237333 L355.84,140.288 L349.135238,134.656 L343.381333,133.729524 L338.432,129.560381 L340.163048,128.219429 L336.822857,121.782857 L329.97181,111.616 L322.876952,119.929905 C322.876952,119.929905 315.782095,116.028952 315.66019,115.492571 C315.513905,114.95619 317.391238,109.32419 317.391238,109.32419 L311.759238,108.397714 L304.518095,101.814857 L301.982476,104.374857 L293.400381,103.033905 L292.59581,112.420571 L289.645714,115.492571 L294.351238,121.270857 L293.668571,129.706667 L287.524571,133.461333 L289.401905,138.678857 L287.792762,142.969905 L283.623619,144.969143 C283.623619,144.969143 279.747048,140.01981 279.600762,139.215238 C279.478857,138.410667 280.405333,131.705905 280.405333,131.705905 L267.142095,128.219429 L265.679238,126.073905 L257.511619,123.12381 L254.561524,122.587429 L251.343238,115.907048 L246.905905,115.224381 C246.905905,115.224381 249.734095,109.32419 249.856,108.78781 C250.002286,108.251429 254.561524,102.375619 254.561524,102.375619 L259.779048,100.62019 C259.779048,100.62019 259.242667,98.7428571 259.096381,98.2064762 C258.974476,97.6700952 260.437333,94.8662857 260.437333,94.8662857 L266.873905,94.72 L269.433905,88.9660952 L276.675048,88.1615238 L286.573714,84.2849524 C286.573714,84.2849524 284.038095,80.920381 283.89181,80.2620952 C283.769905,79.6038095 283.233524,73.8255238 283.233524,73.8255238 L274.115048,70.0708571 L274.529524,77.0438095 L271.701333,80.5302857 L266.48381,78.6529524 L266.605714,73.0209524 L259.925333,71.8262857 L251.465143,71.68 L250.392381,77.848381 L247.320381,82.1394286 L245.321143,77.5801905 L238.738286,77.848381 L227.230476,79.1893333 L219.452952,75.288381 L215.28381,79.7257143 L208.603429,80.384 L200.825905,82.5295238 L200.289524,79.0430476 L195.34019,77.5801905 L183.53981,73.9718095 L180.199619,74.5081905 L178.176,73.0209524 L175.37219,75.8491429 C175.37219,75.8491429 167.472762,68.4617143 166.912,68.4617143 C166.375619,68.4617143 164.10819,74.0937143 164.10819,74.0937143 L162.767238,73.0209524 L158.208,74.6300952 L152.064,76.775619 L146.285714,81.0666667 L139.849143,78.2628571 L137.45981,79.4575238 L131.023238,77.312 L123.245714,79.9939048 L113.737143,79.9939048 L111.591619,81.4567619 L104.496762,81.7249524 L97.6457143,80.920381 L89.624381,85.479619 C89.624381,85.479619 86.5978944,87.2951324 82.7650045,89.8982393 Z M62.1638305,114.453378 C33.1362739,154.136533 16,203.067071 16,256 C16,388.54834 123.45166,496 256,496 C271.813994,496 287.270756,494.470506 302.230425,491.551378 C289.082521,484.976453 290.287915,470.021864 288.865524,469.674667 C291.104795,469.674667 287.378286,462.531048 287.378286,462.531048 L290.450286,459.434667 L288.719238,455.558095 L290.864762,451.803429 L289.792,442.953143 L292.864,433.712762 L290.718476,425.398857 L294.887619,416.572952 L297.033143,405.040762 L296.886857,396.336762 L299.568762,386.950095 L299.836952,379.440762 L300.641524,371.419429 L301.031619,364.178286 L297.423238,360.813714 L289.109333,357.473524 L284.696381,353.182476 L284.038095,348.501333 L280.673524,342.064762 L278.528,335.62819 L270.482286,329.874286 L269.702095,325.193143 L273.16419,320.75581 L270.628571,318.073905 L273.724952,311.929905 L277.601524,305.761524 L281.746286,300.665905 L280.81981,296.252952 L283.769905,289.28 L280.81981,287.670857 L280.527238,285.93981 L276.918857,283.91619 L274.651429,285.135238 L275.72419,287.280762 L273.16419,288.353524 L269.824,285.793524 L266.215619,285.135238 L262.046476,281.380571 L259.900952,281.648762 L259.242667,280.161524 L258.706286,276.138667 L253.756952,271.60381 L247.588571,271.725714 L242.224762,267.044571 L235.666286,263.826286 L227.620571,265.289143 L216.892952,262.070857 L206.57981,256.853333 L204.848762,252.440381 L205.238857,248.953905 L195.193905,236.348952 L193.999238,232.594286 L189.44,228.059429 L185.148952,218.672762 L180.736,218.404571 L181.662476,223.085714 L184.344381,226.182095 L188.099048,234.349714 L192.658286,242.785524 L192.390095,246.125714 L190.512762,244.809143 L186.489905,240.37181 L186.221714,236.495238 L179.516952,231.521524 L181.126095,229.10781 L178.858667,223.890286 L175.104,217.86819 L173.494857,212.918857 C173.494857,212.918857 166.692571,209.993143 166.497524,210.407619 C165.839238,208.944762 158.086095,193.877333 158.086095,193.877333 L158.208,181.833143 L161.572571,169.496381 L158.208,160.109714 L151.381333,157.42781 L150.698667,154.502095 L153.941333,149.942857 L147.358476,142.433524 L140.8,136.94781 L139.702857,135.582476 L133.705143,128.097524 L124.732952,123.66019 L113.200762,122.075429 L107.300571,120.32 L104.764952,121.807238 L105.033143,124.074667 L94.3055238,129.706667 L94.9881905,125.952 L97.5238095,122.733714 L91.623619,125.952 L87.3325714,129.170286 L87.8689524,132.242286 L78.360381,138.825143 C78.360381,138.825143 68.3154286,145.237333 67.9253333,145.92 C67.5108571,146.578286 57.7340952,151.28381 57.7340952,151.28381 L48.7619048,153.965714 L59.1969524,149.26019 L68.0472381,143.774476 L75.8247619,134.534095 L68.583619,134.119619 L63.488,136.801524 L63.488,132.778667 L60.0015238,133.315048 L57.0514286,129.29219 C57.0514286,129.29219 59.1716281,121.956285 62.1638305,114.453378 Z M257.025883,16.0021462 C258.886684,16.0099334 260.742487,16.0388973 262.593064,16.0888092 L259.998476,17.3104762 L257.025873,16.0021462 Z M435.441201,96.6196442 C415.812415,74.5362572 392.16883,56.100973 365.655217,42.4585617 C380.034826,52.4633165 406.501907,71.6759834 435.441201,96.6196442 Z M256,512 C397.384896,512 512,397.384896 512,256 C512,114.615104 397.384896,0 256,0 C114.615104,0 0,114.615104 0,256 C0,397.384896 114.615104,512 256,512 Z M166.521905,210.505143 C166.570667,210.553905 166.546286,210.505143 166.497524,210.407619 C166.497524,210.432 166.497524,210.456381 166.521905,210.505143 Z M293.278476,245.199238 L289.938286,245.101714 L285.622857,242.273524 L282.916571,242.492952 L277.699048,239.981714 L271.969524,239.274667 L266.435048,243.273143 L269.360762,242.785524 L272.871619,240.664381 L279.917714,243.882667 L283.818667,245.906286 L286.45181,249.929143 L291.57181,249.222095 L295.594667,247.198476 L293.278476,245.199238 Z M307.638857,249.222095 L304.323048,248.612571 L300.397714,249.417143 C300.617143,249.709714 301.616762,252.830476 301.616762,252.830476 L295.277714,252.342857 L295.18019,253.830095 L303.420952,254.634667 L308.248381,253.732571 L314.368,252.537905 L313.173333,251.318857 L307.638857,249.222095 Z M362.73981,154.014476 L358.4,153.283048 L353.816381,151.868952 L356.230095,147.382857 L354.913524,146.651429 L353.231238,146.919619 L350.671238,150.601143 L351.085714,154.209524 L346.721524,158.232381 L347.136,159.841524 L354.157714,158.573714 L359.594667,159.768381 L360.862476,161.792 L366.421333,162.718476 L369.176381,161.255619 L365.763048,156.964571 L362.73981,154.014476 Z M252.757333,42.0327619 L257.901714,49.5664762 L267.239619,50.4685714 L282.624,51.687619 L288.036571,48.0548571 L283.526095,44.4464762 L264.533333,41.1306667 L256.682667,35.6937143 L248.246857,35.6937143 L252.757333,42.0327619 Z M238.006857,51.3706667 C238.006857,51.3706667 230.765714,57.7097143 231.058286,58.6118095 C231.375238,59.5139048 240.103619,64.9508571 240.103619,64.9508571 L245.223619,61.0255238 L247.344762,53.784381 L238.006857,51.3706667 Z M252.416,49.0300952 L249.758476,49.8590476 L248.539429,56.1980952 L248.856381,64.3413333 L246.150095,65.8529524 L248.856381,69.4613333 L255.488,69.1687619 L257.755429,66.3161905 L253.342476,60.416 L256.170667,56.9295238 L262.460952,52.6628571 L257.901714,51.3219048 L252.416,49.0300952 Z M224.670476,59.2213333 L221.184,52.248381 L213.016381,54.3939048 L211.407238,54.6620952 L202.435048,54.1257143 C202.435048,54.1257143 199.875048,51.5900952 199.338667,51.4438095 C198.826667,51.3219048 194.535619,51.712 194.535619,51.712 L189.025524,49.0300952 L180.711619,53.3211429 L178.322286,62.2933333 L180.053333,68.071619 L185.027048,65.511619 L191.317333,63.9024762 L195.998476,67.8034286 L200.289524,70.4853333 L194.657524,72.6308571 L201.48419,76.775619 L208.335238,76.9219048 L220.257524,71.8262857 L228.815238,75.5565714 C228.815238,75.5565714 232.033524,73.1672381 232.033524,72.6308571 C232.033524,72.0944762 235.398095,68.608 235.398095,68.608 L228.815238,66.584381 L224.670476,59.2213333 Z M189.70819,44.8853333 L200.679619,46.616381 L208.579048,49.8346667 L215.82019,46.8845714 L217.965714,46.7626667 L226.133333,43.2761905 L218.112,35.9131429 L219.721143,28.672 L208.188952,26.648381 L197.87581,32.9630476 L188.635429,36.7177143 C188.635429,36.7177143 185.685333,40.7405714 185.685333,41.1306667 C185.685333,41.5451429 189.70819,44.8853333 189.70819,44.8853333 Z M232.301714,35.6449524 L227.620571,37.2540952 L230.302476,44.0807619 L236.860952,47.8354286 L242.492952,47.1527619 C242.492952,47.1527619 245.443048,42.6179048 245.028571,41.8133333 C244.638476,41.0087619 240.493714,34.9622857 240.493714,34.9622857 L232.301714,35.6449524 Z M240.079238,33.6213333 L241.42019,31.0857143 C241.42019,31.0857143 235.25181,26.4045714 234.983619,25.7219048 C234.715429,25.063619 227.888762,25.4537143 227.474286,25.063619 L226.011429,28.8182857 L232.17981,30.5493333 L240.079238,33.6213333 Z M250.806857,31.0857143 L247.442286,28.4038095 L244.224,27.0628571 L244.102095,29.3546667 L247.588571,33.0849524 L250.806857,31.0857143 Z" id="earth"></path>
        </g>
    </g>
</svg>