<?xml version="1.0" encoding="UTF-8" standalone="no"?>
<svg width="512px" height="512px" viewBox="0 0 512 512" version="1.1" xmlns="http://www.w3.org/2000/svg" xmlns:xlink="http://www.w3.org/1999/xlink" xmlns:sketch="http://www.bohemiancoding.com/sketch/ns">
    <!-- Generator: Sketch 3.5.2 (25235) - http://www.bohemiancoding.com/sketch -->
    <title>earthviewer</title>
    <desc>Created with Sketch.</desc>
    <defs></defs>
    <g id="Page-1" stroke="none" stroke-width="1" fill="none" fill-rule="evenodd" sketch:type="MSPage">
        <g id="earthviewer" sketch:type="MSArtboardGroup" fill="#000000">
            <g id="icon-earthviewer" sketch:type="MSLayerGroup">
                <path d="M256,0 C114.61504,0 0,114.61504 0,256 C0,397.38496 114.61504,512 256,512 C397.38496,512 512,397.38496 512,256 C512,114.61504 397.38496,0 256,0 L256,0 Z M52.32768,374.32192 C40.02432,352.59136 34.5216,335.47264 35.2,334.34624 C49.28,310.93248 182.4,400 277.12,411.52 C330.96832,418.06848 440.96,398.53312 440.96,398.53312 L412.70144,431.80672 C407.04128,436.85504 401.13792,441.63328 395.008,446.12224 C357.32736,458.46016 254.98368,455.18208 196.48,429.44128 C132.48,401.28128 149.12,462.72128 149.12,462.72128 C140.01024,459.54048 131.48928,455.46752 123.5328,450.75328 C94.47296,430.94784 70.07872,404.80896 52.32768,374.32192 L52.32768,374.32192 Z M476.8,333.44 C458.88,341.12 344.96,300.16 231.04,203.54688 C157.6576,141.312 89.23904,134.56768 40.69376,160.42624 C49.52448,140.56064 61.01888,122.14272 74.73152,105.62944 C95.58656,87.87712 121.98272,73.6 152.96,73.6 C234.88,73.6 332.16,200.32 332.16,200.32 C332.16,200.32 425.10976,292.00256 489.07008,289.98528 C486.99392,304.34304 483.63776,318.28352 479.09504,331.68128 C478.36416,332.48384 477.60128,333.09568 476.8,333.44 L476.8,333.44 Z M478.08,190.08 C478.08,190.08 487.80928,224.26496 440.96,203.97312 C363.73888,170.52672 383.4624,41.16736 205.33376,25.96352 C221.65504,22.38336 238.6048,20.48 256,20.48 C269.46688,20.48 282.6624,21.62688 295.51104,23.79776 C357.57952,36.30848 432.59648,76.70144 478.08,190.08 L478.08,190.08 Z" id="Shape" sketch:type="MSShapeGroup"></path>
            </g>
        </g>
    </g>
</svg>