<?xml version="1.0" encoding="UTF-8" standalone="no"?>
<svg width="512px" height="512px" viewBox="0 0 512 512" version="1.1" xmlns="http://www.w3.org/2000/svg" xmlns:xlink="http://www.w3.org/1999/xlink" xmlns:sketch="http://www.bohemiancoding.com/sketch/ns">
    <!-- Generator: Sketch 3.5.2 (25235) - http://www.bohemiancoding.com/sketch -->
    <title>ebook</title>
    <desc>Created with Sketch.</desc>
    <defs></defs>
    <g id="Page-1" stroke="none" stroke-width="1" fill="none" fill-rule="evenodd" sketch:type="MSPage">
        <g id="ebook" sketch:type="MSArtboardGroup" fill="#000000">
            <g id="icon-ebook" sketch:type="MSLayerGroup" transform="translate(0.000000, 28.000000)">
                <path d="M0.670280564,55.0933594 L246.160611,158.0293 C250.50162,159.849517 257.560179,159.863797 261.861945,158.087785 L511.329722,55.0933594 L472.885758,337.847337 C472.255024,342.486343 468.410933,347.993596 464.249199,350.174609 L269.071585,452.460133 C260.759211,456.816345 247.288824,456.744961 239.050863,452.336133 L55.6213052,354.167471 C51.5079871,351.966087 47.572868,346.450508 46.8283251,341.825434 L0.670280564,55.0933594 L0.670280564,55.0933594 Z M79.8356182,80.4516701 L75.8836863,15.7482722 L234.227698,145.58706 L79.8356182,80.4516701 L79.8356182,80.4516701 Z M428.199114,82.6349206 L432.157714,15.7482722 L273.813702,145.58706 L428.199114,82.6349206 L428.199114,82.6349206 Z M135.262691,0.0102374371 L234.227698,133.783534 L135.262691,55.0933594 L135.262691,0.0102374371 L135.262691,0.0102374371 Z M376.737307,0.0102374371 L277.772302,133.783534 L376.737307,51.1588506 L376.737307,0.0102374371 L376.737307,0.0102374371 Z" id="Combined-Shape" sketch:type="MSShapeGroup"></path>
            </g>
        </g>
    </g>
</svg>