<svg xmlns="http://www.w3.org/2000/svg" viewBox="0 0 512 512">
  <path d="M184.94,302.55,209.45,327l-27.15,10a5.76,5.76,0,0,1-7.39-7.39Z"/>
  <path d="M441.59,129.21l-6.69-6.86,18.92-18.93,6.45,6.62a61.46,61.46,0,0,1,0,85.31L379.81,278l-18.7-19.18,80.48-82.6a33.83,33.83,0,0,0,0-47Z"/>
  <path d="M492.68,25.55a26.42,26.42,0,0,1,0,37.26L474,81.45,430.55,38l18.64-18.65a26.42,26.42,0,0,1,37.25,0l6.24,6.24Z"/>
  <polygon points="453.82 103.43 252.92 304.3 226.22 314.17 197.82 285.76 207.68 259.06 408.58 58.17 453.82 103.42 453.82 103.43"/>
  <path d="M332.29,46.55,309,69.82h-181A58.2,58.2,0,0,0,69.82,128s0,.05,0,.08V383.94A58.2,58.2,0,0,0,128,442.18h256A58.2,58.2,0,0,0,442.18,384s0-.05,0-.08V298.69l23.27-23.27V383.94A81.48,81.48,0,0,1,384,465.45H128.06A81.48,81.48,0,0,1,46.55,384s0,0,0-.06V128.06A81.48,81.48,0,0,1,128,46.55H332.29Z"/>
</svg>
