<svg width="512" height="512" viewBox="0 0 512 512" fill="none" xmlns="http://www.w3.org/2000/svg">
<path fill-rule="evenodd" clip-rule="evenodd" d="M236.944 93.8476C249.294 89.6063 262.706 89.6063 275.056 93.8476L495.864 169.681C502.12 171.829 506.409 177.606 506.656 184.216C506.693 185.219 506.636 186.21 506.492 187.179C506.607 187.954 506.667 188.747 506.667 189.554V296.221C506.667 305.057 499.503 312.221 490.667 312.221C481.83 312.221 474.667 305.057 474.667 296.221V209.094L421.333 231.989V329.162C421.333 345.237 414.708 362.148 399.902 372.567C371.188 392.773 318.79 418.888 256 418.888C193.21 418.888 140.812 392.773 112.099 372.567C97.2921 362.148 90.6668 345.237 90.6668 329.162V231.989L15.0218 199.516C8.94359 196.906 5.09764 190.826 5.3446 184.216C5.59156 177.606 9.8805 171.829 16.1364 169.681L236.944 93.8476ZM264.662 124.113C259.048 122.185 252.952 122.185 247.338 124.113L65.7596 186.473L245.481 263.626C252.197 266.509 259.803 266.509 266.52 263.626L446.241 186.473L264.662 124.113ZM279.143 293.031L389.333 245.727V329.162C389.333 336.936 386.183 343.092 381.486 346.397C356.323 364.104 310.257 386.888 256 386.888C201.743 386.888 155.677 364.104 130.515 346.397C125.817 343.092 122.667 336.936 122.667 329.162V245.727L232.857 293.031C247.634 299.374 264.366 299.374 279.143 293.031Z" fill="#A7A7A7"/>
</svg>
