<svg xmlns="http://www.w3.org/2000/svg" viewBox="0 0 512 512"><g fill="none" fill-rule="evenodd"><polygon fill="#000000" points="164.572 237.222 178.287 250.931 27.429 401.722 18.287 401.722 18.287 383.444"/><polygon fill="#000000" points="333.715 250.931 347.429 237.222 493.715 383.444 493.715 401.722 484.572 401.722"/><polygon fill="#000000" points="256.001 301.194 466.287 109.278 493.715 109.278 256.001 328.611 18.287 109.278 45.715 109.278"/><path stroke="#000000" stroke-width="18.29" d="M18.29 100.14h475.43a9.13 9.13 0 0 1 9.14 9.14v292.44a9.13 9.13 0 0 1-9.14 9.14H18.29a9.13 9.13 0 0 1-9.15-9.14V109.28a9.13 9.13 0 0 1 9.15-9.14z"/></g></svg>