<svg width="512" height="512" viewBox="0 0 512 512" fill="none" xmlns="http://www.w3.org/2000/svg">
<path fill-rule="evenodd" clip-rule="evenodd" d="M46.5454 139.773C46.5454 113.991 67.3192 93.0909 92.9766 93.0909H419.023C444.667 93.0909 465.455 113.968 465.455 139.773V372.227C465.455 398.009 444.681 418.909 419.023 418.909H92.9766C67.3334 418.909 46.5454 398.032 46.5454 372.227V139.773ZM69.8181 161.028V372.227C69.8181 385.197 80.2049 395.636 92.9766 395.636H419.023C431.793 395.636 442.182 385.19 442.182 372.227V161.028L282.012 264.667C267.248 274.22 244.728 274.205 229.988 264.667L69.8181 161.028ZM70.5772 133.799L242.631 245.128C249.682 249.691 262.304 249.7 269.369 245.128L441.423 133.799C438.812 123.742 429.76 116.364 419.023 116.364H92.9766C82.2415 116.364 73.1896 123.746 70.5772 133.799Z" fill="#7A7A7A"/>
</svg>
