<?xml version="1.0" encoding="UTF-8" standalone="no"?>
<svg width="31px" height="24px" viewBox="0 0 31 24" version="1.1" xmlns="http://www.w3.org/2000/svg" xmlns:xlink="http://www.w3.org/1999/xlink">
    <!-- Generator: sketchtool 3.6.1 (26313) - http://www.bohemiancoding.com/sketch -->
    <title>EndComment</title>
    <desc>Created with sketchtool.</desc>
    <defs></defs>
    <g id="Search" stroke="none" stroke-width="1" fill="none" fill-rule="evenodd">
        <g id="Search---Comments" transform="translate(-2267.000000, -423.000000)" fill="#777777">
            <g id="Comments" transform="translate(510.000000, 329.000000)">
                <g id="Profile" transform="translate(0.000000, 74.000000)">
                    <path d="M1758.99902,43.4248047 L1758.99902,41.7158203 C1761.34604,40.8499306 1763.19173,39.4884533 1764.53613,37.6313477 C1765.88054,35.774242 1766.55273,33.843109 1766.55273,31.8378906 C1766.55273,31.4049458 1766.48438,31.0859385 1766.34766,30.8808594 C1766.2793,30.7441399 1766.18815,30.6757812 1766.07422,30.6757812 C1765.96029,30.6757812 1765.778,30.7669262 1765.52734,30.9492188 C1764.79817,31.4733099 1763.88672,31.7353516 1762.79297,31.7353516 C1761.47135,31.7353516 1760.31495,31.2055717 1759.32373,30.1459961 C1758.33251,29.0864205 1757.83691,27.8274812 1757.83691,26.3691406 C1757.83691,24.8196537 1758.40657,23.4695696 1759.5459,22.3188477 C1760.68523,21.1681258 1762.08658,20.5927734 1763.75,20.5927734 C1765.64129,20.5927734 1767.28759,21.3732018 1768.68896,22.934082 C1770.09034,24.4949622 1770.79102,26.596992 1770.79102,29.2402344 C1770.79102,32.3164216 1769.84539,35.0735555 1767.9541,37.5117188 C1766.06282,39.949882 1763.07782,41.9208909 1758.99902,43.4248047 L1758.99902,43.4248047 Z M1775.43945,43.4248047 L1775.43945,41.7158203 C1777.78647,40.8499306 1779.63215,39.4884533 1780.97656,37.6313477 C1782.32097,35.774242 1782.99316,33.843109 1782.99316,31.8378906 C1782.99316,31.4049458 1782.92481,31.0859385 1782.78809,30.8808594 C1782.71973,30.7441399 1782.62858,30.6757812 1782.51465,30.6757812 C1782.40072,30.6757812 1782.21843,30.7669262 1781.96777,30.9492188 C1781.2386,31.4733099 1780.32715,31.7353516 1779.2334,31.7353516 C1777.91178,31.7353516 1776.75538,31.2055717 1775.76416,30.1459961 C1774.77294,29.0864205 1774.27734,27.8274812 1774.27734,26.3691406 C1774.27734,24.8196537 1774.847,23.4695696 1775.98633,22.3188477 C1777.12566,21.1681258 1778.52701,20.5927734 1780.19043,20.5927734 C1782.08172,20.5927734 1783.72802,21.3732018 1785.12939,22.934082 C1786.53077,24.4949622 1787.23145,26.596992 1787.23145,29.2402344 C1787.23145,32.3164216 1786.28582,35.0735555 1784.39453,37.5117188 C1782.50325,39.949882 1779.51825,41.9208909 1775.43945,43.4248047 L1775.43945,43.4248047 Z" id="EndComment"></path>
                </g>
            </g>
        </g>
    </g>
</svg>