<?xml version="1.0" encoding="UTF-8"?>
<svg width="512px" height="512px" viewBox="0 0 512 512" version="1.1" xmlns="http://www.w3.org/2000/svg" xmlns:xlink="http://www.w3.org/1999/xlink">
    <!-- Generator: Sketch 46 (44423) - http://www.bohemiancoding.com/sketch -->
    <title>icon-clear</title>
    <desc>Created with Sketch.</desc>
    <defs></defs>
    <g id="Page-1" stroke="none" stroke-width="1" fill="none" fill-rule="evenodd">
        <g id="icon-clear" fill="#000000">
            <g id="Icon">
                <polygon id="Fill-1" points="0 511.986526 512 511.986526 512 485.039158 0 485.039158"></polygon>
                <path d="M197.710147,446.512505 L182.457937,434.359242 C169.172884,423.822821 149.070147,407.950821 125.221726,384.1024 C103.852463,362.733137 88.8427789,343.735242 77.9021474,329.8304 L65.4794105,314.281768 L194.018358,185.742821 L326.276042,317.946611 L197.710147,446.512505 Z M354.274358,4.11755789 C348.777095,-1.37970526 341.0432,-1.37970526 335.572884,4.11755789 L32.6575158,307.059874 C34.5707789,327.701558 107.625095,414.8224 172.164042,460.552084 L202.318147,481.921347 L507.874358,176.392084 C513.344674,170.894821 513.344674,163.214821 507.874358,157.717558 L354.274358,4.11755789 Z" id="Fill-2"></path>
            </g>
        </g>
    </g>
</svg>