<?xml version="1.0" encoding="UTF-8" standalone="no"?>
<svg width="512px" height="512px" viewBox="0 0 512 512" version="1.1" xmlns="http://www.w3.org/2000/svg" xmlns:xlink="http://www.w3.org/1999/xlink">
    <!-- Generator: Sketch 39.1 (31720) - http://www.bohemiancoding.com/sketch -->
    <title>icon-evernote</title>
    <desc>Created with Sketch.</desc>
    <defs></defs>
    <g id="Page-1" stroke="none" stroke-width="1" fill="none" fill-rule="evenodd">
        <g id="icon-evernote" fill="#000000">
            <g id="evernote" transform="translate(40.000000, 0.000000)">
                <path d="M42.0408724,98.1259076 L42.0726843,98.1259076 L90.1858601,98.1259076 C92.9429095,98.1259076 95.1600387,95.9315158 95.1662247,93.2578335 C95.1662247,93.2405608 94.5821171,52.9410042 94.5821171,41.734158 L94.5821171,41.601166 C94.5821171,32.3978563 96.5580053,24.3724903 100.001666,17.6485552 L101.64706,14.6285708 C101.463256,14.6587971 101.278571,14.746883 101.09565,14.9256478 L7.61043989,105.523441 C7.42751875,105.671116 7.3135252,105.861108 7.26050537,106.057142 C9.19485978,105.121872 11.8379156,103.843755 12.2117082,103.683989 C20.3529587,100.093169 30.2244346,98.1259076 42.0408724,98.1259076 L42.0408724,98.1259076 L42.0408724,98.1259076 Z M420.221538,89.0849567 C416.372196,68.6518449 404.121047,58.5831089 393.044726,54.6241018 C381.094405,50.3412035 356.862675,45.9047491 326.416811,42.346404 C301.922524,39.4861416 273.132991,39.7138316 255.742857,40.2468785 C253.655756,26.0717525 243.628771,13.1224569 232.410047,8.63834265 C202.516888,-3.29163405 156.330992,-0.410189472 144.472345,2.88604459 C135.048795,5.49743476 124.61952,10.8490709 118.814798,19.0962718 C114.921842,24.6049968 112.403083,31.6625511 112.383501,41.5221278 C112.383501,47.1023354 112.540143,60.24667 112.68344,71.9260118 C112.82584,83.6424223 112.980707,94.1206449 112.980707,94.1912497 C112.975367,104.621816 104.449847,113.109946 93.8844008,113.12407 L45.4173772,113.12407 C35.0797769,113.12407 27.1799418,114.846756 21.1464846,117.564935 C15.1032366,120.285761 10.8231222,123.953539 7.57098268,128.292915 C1.09696536,136.909897 -0.0262418942,147.543445 0.000458609893,158.39586 C0.000458609893,158.39586 0.0956910129,167.263477 2.2504344,184.425951 C4.0420473,197.707077 18.5654226,290.479923 32.3616475,318.695146 C37.7106787,329.672879 41.2734371,334.245244 51.7819242,339.083249 C75.1957251,349.023133 128.676239,360.081177 153.741921,363.247678 C178.76221,366.422126 194.465752,373.094901 203.824331,353.637859 C203.855482,353.590202 205.699607,348.797206 208.23439,341.767011 C216.359395,317.353706 217.490615,295.692119 217.490615,280.016698 C217.490615,278.423742 219.849171,278.350493 219.849171,280.016698 C219.849171,291.083571 217.717571,330.245639 247.551988,340.752987 C259.329644,344.89468 283.761632,348.587165 308.587006,351.472142 C331.034245,354.030584 347.324312,362.788765 347.324312,419.89346 C347.324312,454.636727 339.965613,459.399717 301.493533,459.399717 C270.306281,459.399717 258.420934,460.200166 258.420934,435.63242 C258.420934,415.776479 278.225694,417.858359 292.903932,417.858359 C299.459833,417.858359 294.701778,413.022116 294.701778,400.771781 C294.701778,388.586752 302.387116,381.541551 295.117417,381.36328 C244.362151,379.978598 214.497472,381.305918 214.497472,444.248517 C214.497472,501.389396 236.550429,512 308.587006,512 C365.067782,512 384.977569,510.16523 408.29881,438.414142 C412.91535,424.249607 424.075333,381.022625 430.829708,308.443728 C435.098253,262.552404 426.802361,124.043556 420.221538,89.0849567 L420.221538,89.0849567 L420.221538,89.0849567 Z M321.145043,241.289077 C314.207126,241.050082 307.533808,241.481845 301.310924,242.467481 C303.062216,228.52639 308.900155,211.419926 329.581157,212.136038 C352.474507,212.912336 355.682408,234.239594 355.764706,248.685714 C346.110914,244.443988 334.160713,241.740028 321.145043,241.289077 L321.145043,241.289077 L321.145043,241.289077 Z" id="EvernoteOverlay"></path>
            </g>
        </g>
    </g>
</svg>