<?xml version="1.0" encoding="UTF-8"?>
<svg width="512px" height="512px" viewBox="0 0 512 512" version="1.1" xmlns="http://www.w3.org/2000/svg" xmlns:xlink="http://www.w3.org/1999/xlink">
    <!-- Generator: Sketch 49 (51002) - http://www.bohemiancoding.com/sketch -->
    <title>Eye - Invisible</title>
    <desc>Created with Sketch.</desc>
    <defs>
        <polygon id="path-1" points="0.235348852 0.795248852 452 0.795248852 452 408 0.235348852 408"></polygon>
    </defs>
    <g id="Eye---Invisible" stroke="none" stroke-width="1" fill="none" fill-rule="evenodd">
        <g id="Page-1" transform="translate(0.000000, 52.000000)">
            <path d="M296.8633,119.9432 C284.6213,113.7072 270.7133,110.1792 255.9653,110.1792 C206.9413,110.1792 167.2553,149.1172 167.2553,197.2172 C167.2553,212.3032 171.1603,226.4972 178.0313,238.8742 L296.8633,119.9432 Z" id="Fill-1" fill="#F26724"></path>
            <path d="M110.7603,302.8553 C111.4423,303.2903 112.1313,303.7143 112.8163,304.1443 L137.1653,279.7753 C134.5033,278.1923 131.8623,276.5733 129.2493,274.9113 C95.5393,253.3803 65.6583,225.5283 39.7923,197.3093 C69.0193,166.0663 105.6243,135.1913 145.4973,112.8353 C180.9813,92.9543 218.8933,80.0363 255.9653,80.0363 C278.5333,80.0363 301.3763,84.8063 323.7843,93.0003 L349.6343,67.1283 C319.2183,54.2673 287.5933,46.5033 255.9653,46.5033 C212.4503,46.5033 168.8423,61.2543 128.5023,83.7923 C80.5983,110.6373 37.1773,148.8423 4.2143,186.2233 C-1.2947,192.4533 -1.4817,201.7983 4.1213,208.1203 C34.0023,242.0193 69.3933,276.5603 110.7603,302.8553" id="Fill-3" fill="#F26724"></path>
            <g id="Group-7" transform="translate(60.000000, 0.205000)">
                <mask id="mask-2" fill="white">
                    <use xlink:href="#path-1"></use>
                </mask>
                <g id="Clip-6"></g>
                <path d="M322.6816,274.706 C285.5156,298.344 243.3086,314.286 195.9656,314.286 C171.5356,314.286 148.4756,310.036 126.7686,302.679 L155.0876,274.336 C167.3206,280.589 181.2136,284.143 195.9656,284.143 C244.9896,284.143 284.7696,245.113 284.7696,197.013 C284.7696,181.922 280.8326,167.747 273.9436,155.38 L312.9526,116.338 C350.3276,138.334 384.5826,167.549 412.2326,197.104 C386.3666,225.323 356.4846,253.176 322.6816,274.706 M447.9036,186.11 C418.0766,152.381 379.7336,117.985 337.4736,91.797 L402.7186,26.498 C408.5966,20.615 408.5926,11.08 402.7096,5.202 C396.8266,-0.677 387.2906,-0.673 381.4126,5.21 L4.6416,382.298 C-1.2364,388.181 -1.2334,397.716 4.6506,403.594 C10.5336,409.473 20.0686,409.468 25.9466,403.585 L100.7826,328.687 C130.1106,340.612 161.8286,347.727 195.9656,347.727 C250.5916,347.727 298.9626,329.586 341.2636,302.65 C382.5366,276.447 417.9276,241.814 447.9036,208.007 C453.3196,201.868 453.4116,192.523 447.9036,186.11" id="Fill-5" fill="#F26724" mask="url(#mask-2)"></path>
            </g>
        </g>
    </g>
</svg>