<?xml version="1.0" encoding="UTF-8"?>
<svg width="512px" height="512px" viewBox="0 0 512 512" version="1.1" xmlns="http://www.w3.org/2000/svg" xmlns:xlink="http://www.w3.org/1999/xlink">
    <!-- Generator: Sketch 49 (51002) - http://www.bohemiancoding.com/sketch -->
    <title>Eye - Visible</title>
    <desc>Created with Sketch.</desc>
    <defs></defs>
    <g id="Eye---Visible" stroke="none" stroke-width="1" fill="none" fill-rule="evenodd">
        <path d="M129.249427,333.216699 C166.414429,356.834793 208.621919,372.763276 255.965276,372.763276 C303.308633,372.763276 345.516123,356.834793 382.681125,333.216699 C416.484469,311.704094 446.365878,283.875022 472.231972,255.679778 C443.004219,224.463615 406.399494,193.613624 366.526489,171.277132 C331.042316,151.412301 293.130278,138.504738 255.965276,138.504738 C218.893654,138.504738 180.981616,151.412301 145.497443,171.277132 C105.624438,193.613624 69.0197128,224.463615 39.7919598,255.679778 C65.6580543,283.875022 95.539463,311.704094 129.249427,333.216699 M255.965276,168.622385 C304.989463,168.622385 344.769088,207.52816 344.769088,255.588235 C344.769088,303.64831 304.989463,342.645628 255.965276,342.645628 C206.94109,342.645628 167.254844,303.64831 167.254844,255.588235 C167.254844,207.52816 206.94109,168.622385 255.965276,168.622385 M255.965276,406.176471 C201.431705,406.176471 153.061175,388.050957 110.760306,361.137315 C69.3932304,334.864473 34.0024369,300.352762 4.1210281,266.481852 C-1.48173604,260.165385 -1.29497723,250.827999 4.21440751,244.603075 C37.1773365,207.253531 80.5987586,169.0801 128.502392,142.258001 C168.842294,119.738423 212.450475,105 255.965276,105 C299.573457,105 343.181638,119.738423 383.614919,142.258001 C431.331794,169.171643 474.846595,207.345074 507.902904,244.694618 C513.412289,251.102628 513.318909,260.440014 507.902904,266.573395 C477.928116,300.352762 442.537322,334.956016 401.263626,361.137315 C358.962757,388.050957 310.592227,406.176471 255.965276,406.176471" id="Fill-1" fill="#F26724"></path>
    </g>
</svg>