<?xml version="1.0" encoding="UTF-8" standalone="no"?>
<svg width="512px" height="352px" viewBox="0 0 512 352" version="1.1" xmlns="http://www.w3.org/2000/svg" xmlns:xlink="http://www.w3.org/1999/xlink">
    <!-- Generator: Sketch 39.1 (31720) - http://www.bohemiancoding.com/sketch -->
    <title>eye</title>
    <desc>Created with Sketch.</desc>
    <defs></defs>
    <g id="Page-1" stroke="none" stroke-width="1" fill="none" fill-rule="evenodd">
        <g id="icon-eye" transform="translate(0.000000, -80.000000)" fill="#000000">
            <g id="eye" transform="translate(0.000000, 80.000000)">
                <path d="M349.335596,123.479424 C346.652768,143.300044 329.992404,158.64679 309.656566,158.64679 C287.415919,158.64679 269.414141,140.425919 269.414141,117.975203 C269.414141,98.3172694 283.177051,81.9401771 301.527596,78.117048 C287.657374,71.5282509 272.338424,67.5424354 256,67.5424354 C196.736323,67.5424354 148.686869,116.131424 148.686869,176 C148.686869,235.89569 196.736323,284.457565 256,284.457565 C315.236848,284.457565 363.313131,235.89569 363.313131,176 C363.313131,156.830125 357.974303,139.097314 349.335596,123.479424" id="Fill-1"></path>
                <path d="M256,352 C119.646316,352 0,242.311385 0,176 C0,109.688615 119.646316,0 256,0 C392.353684,0 512,109.688615 512,176 C512,242.311385 392.353684,352 256,352 Z M256,27.0769231 C126.086737,27.0769231 26.9473684,132.812308 26.9473684,176 C26.9473684,219.187692 126.086737,324.923077 256,324.923077 C385.913263,324.923077 485.052632,219.187692 485.052632,176 C485.052632,132.812308 385.913263,27.0769231 256,27.0769231 Z" id="Fill-3"></path>
            </g>
        </g>
    </g>
</svg>