<?xml version="1.0" encoding="UTF-8" standalone="no"?>
<svg width="44px" height="44px" viewBox="0 0 44 44" version="1.1" xmlns="http://www.w3.org/2000/svg" xmlns:xlink="http://www.w3.org/1999/xlink">
    <!-- Generator: sketchtool 3.7 (28169) - http://www.bohemiancoding.com/sketch -->
    <title>A793C551-224F-45BA-90A0-BA5CF6DE06DA</title>
    <desc>Created with sketchtool.</desc>
    <defs></defs>
    <g id="Page-1" stroke="none" stroke-width="1" fill="none" fill-rule="evenodd">
        <g id="Story-Details" transform="translate(-693.000000, -3683.000000)" fill="#F26724">
            <g id="Footer" transform="translate(501.000000, 3469.000000)">
                <path d="M194.418522,214 C193.082433,214 192,215.082433 192,216.418358 L192,255.40006 C192,256.735657 193.082433,257.818418 194.418522,258 L215.404716,258 L215.404716,240.849687 L209.694403,240.849687 L209.694403,234.236552 L215.404716,234.236552 L215.404716,229.359612 C215.404716,223.699866 218.861343,220.61806 223.910179,220.61806 C226.328701,220.61806 228.407209,220.798164 229.013194,220.878612 L229.013194,226.793328 L225.511254,226.79497 C222.765522,226.79497 222.23391,228.099701 222.23391,230.014358 L222.23391,234.236552 L228.782358,234.236552 L227.929776,240.849687 L222.23391,240.849687 L222.23391,258 L233.399896,258 C234.735493,257.818418 235.818254,256.735657 236,255.40006 L236,216.418358 C235.818254,215.082433 234.735493,214 233.399896,214 L194.418522,214 Z" id="Facebook"></path>
            </g>
        </g>
    </g>
</svg>