<?xml version="1.0" encoding="UTF-8" standalone="no"?>
<svg width="448px" height="512px" viewBox="0 0 448 512" version="1.1" xmlns="http://www.w3.org/2000/svg" xmlns:xlink="http://www.w3.org/1999/xlink">
    <!-- Generator: Sketch 39.1 (31720) - http://www.bohemiancoding.com/sketch -->
    <title>icon-file</title>
    <desc>Created with Sketch.</desc>
    <defs></defs>
    <g id="Page-1" stroke="none" stroke-width="1" fill="none" fill-rule="evenodd">
        <g id="file" transform="translate(-32.000000, 0.000000)" fill="#F26724">
            <g id="icon-file" transform="translate(32.000000, 0.000000)">
                <path d="M59.7333333,487.441703 C59.7333333,500.87538 70.3699159,512 83.7505376,512 L423.982796,512 C437.363418,512 448,500.87538 448,487.441703 L448,24.5582964 C448,11.1230836 437.363552,0 423.982796,0 L83.7505376,0 C70.3697819,0 59.7333333,11.1230835 59.7333333,24.5582964 L59.7333333,331.294118 L59.7333333,346.352941 L74.6666667,346.352941 L208.964441,346.352941 C209.018749,346.352941 209.066667,406.727108 209.066667,406.727108 C209.066667,406.601917 74.6666667,406.588235 74.6666667,406.588235 L59.7333333,406.588235 L59.7333333,421.647059 L59.7333333,487.441703 L59.7333333,487.441703 Z M208.964441,436.705882 C225.472508,436.705882 238.933333,423.340936 238.933333,406.727108 L238.933333,346.214069 C238.933333,329.692956 225.440897,316.235294 208.964441,316.235294 L91.0000006,316.235298 L91.0000006,29.0000002 L418.13332,29.0000002 L418.13332,480.000008 L91.0000007,480.000008 L91.0000006,436.705879 L208.964441,436.705882 Z" id="Fill-1"></path>
                <path d="M208.964441,346.352941 C209.01875,346.352941 209.066667,406.727108 209.066667,406.727108 C209.066667,406.601917 29.9688924,406.588235 29.9688924,406.588235 C29.9145837,406.588235 29.8666667,346.214068 29.8666667,346.214068 C29.8666667,346.339259 208.964441,346.352941 208.964441,346.352941 L208.964441,346.352941 Z M0,406.727108 C0,423.248221 13.4924362,436.705882 29.9688924,436.705882 L208.964441,436.705882 C225.472509,436.705882 238.933333,423.340936 238.933333,406.727108 L238.933333,346.214068 C238.933333,329.692955 225.440897,316.235294 208.964441,316.235294 L29.9688924,316.235294 C13.4608246,316.235294 0,329.600241 0,346.214068 L0,406.727108 L0,406.727108 Z" id="Rectangle-159"></path>
            </g>
        </g>
    </g>
</svg>