<?xml version="1.0" encoding="UTF-8"?>
<svg width="512px" height="512px" viewBox="0 0 512 512" version="1.1" xmlns="http://www.w3.org/2000/svg" xmlns:xlink="http://www.w3.org/1999/xlink">
    <!-- Generator: Sketch 46 (44423) - http://www.bohemiancoding.com/sketch -->
    <title>file</title>
    <desc>Created with Sketch.</desc>
    <defs></defs>
    <g id="Page-1" stroke="none" stroke-width="1" fill="none" fill-rule="evenodd">
        <g id="file" fill="#000000">
            <path d="M416.52459,467.119215 C416.52459,474.400673 411.376612,479.685835 404.284153,479.685835 L107.715847,479.685835 C100.616393,479.685835 95.4754098,474.400673 95.4754098,467.119215 L95.4754098,44.8807854 C95.4754098,37.5993268 100.616393,32.3141655 107.715847,32.3141655 L280.830601,32.3141655 L280.830601,147.568022 C280.830601,156.773969 287.587322,163.725105 296.568306,163.725105 L416.52459,163.725105 L416.52459,467.119215 Z M312.306011,53.2178401 L392.309508,130.685666 L312.306011,130.685666 L312.306011,53.2178401 Z M307.661639,4.27265077 C304.360219,1.47208976 300.653115,0 296.568306,0 L107.715847,0 C83.2,0 64,19.711641 64,44.8807854 L64,467.119215 C64,492.288359 83.2,512 107.715847,512 L404.284153,512 C428.8,512 448,492.288359 448,467.119215 L448,147.568022 C448,142.979411 446.314317,138.728303 443.236721,135.583058 L307.661639,4.27265077 Z" id="Fill-1"></path>
            <polygon id="Fill-6" points="137.439825 394.232819 347.275891 394.232819 347.275891 361.918654 137.439825 361.918654"></polygon>
            <polygon id="Fill-4" points="137.439825 300.162693 249.352393 300.162693 249.352393 267.848527 137.439825 267.848527"></polygon>
        </g>
    </g>
</svg>