<?xml version="1.0" encoding="UTF-8"?>
<svg width="512px" height="512px" viewBox="0 0 512 512" version="1.1" xmlns="http://www.w3.org/2000/svg" xmlns:xlink="http://www.w3.org/1999/xlink">
    <!-- Generator: Sketch 46 (44423) - http://www.bohemiancoding.com/sketch -->
    <title>icon-files</title>
    <desc>Created with Sketch.</desc>
    <defs></defs>
    <g id="Page-1" stroke="none" stroke-width="1" fill="none" fill-rule="evenodd">
        <g id="icon-files" fill-rule="nonzero" fill="#000000">
            <g id="files" transform="translate(51.000000, 0.000000)">
                <path d="M287.875486,0.79688716 L72.2178988,0.79688716 C55.3836576,0.79688716 41.6373541,14.5431907 41.6373541,31.4770428 L31.3774319,31.4770428 C14.4435798,31.4770428 0.697276265,45.2233463 0.697276265,62.1571984 L0.697276265,480.722179 C0.697276265,497.656031 14.4435798,511.402335 31.3774319,511.402335 L338.178988,511.402335 C355.11284,511.402335 368.859144,497.656031 368.859144,480.722179 L368.859144,470.561868 L379.119066,470.561868 C396.052918,470.561868 409.799222,456.815564 409.799222,439.881712 L409.799222,123.915953 L287.875486,0.79688716 Z M286.978988,28.8871595 L380.314397,123.218677 L297.238911,123.218677 C291.561089,123.218677 287.078599,118.636576 287.078599,113.058366 L287.078599,28.8871595 L286.978988,28.8871595 Z M348.3393,480.622568 C348.3393,486.300389 343.757198,490.782879 338.178988,490.782879 L31.3774319,490.782879 C25.6996109,490.782879 21.2171206,486.200778 21.2171206,480.622568 L21.2171206,61.9579767 C21.2171206,56.2801556 25.7992218,51.7976654 31.3774319,51.7976654 L41.6373541,51.7976654 L41.6373541,439.782101 C41.6373541,456.715953 55.3836576,470.462257 72.3175097,470.462257 L348.438911,470.462257 L348.438911,480.622568 L348.3393,480.622568 Z M379.019455,450.042023 L72.2178988,450.042023 C66.5400778,450.042023 62.0575875,445.459922 62.0575875,439.881712 L62.0575875,31.4770428 C62.0575875,25.8988327 66.6396887,21.3167315 72.2178988,21.3167315 L266.558755,21.3167315 L266.558755,113.157977 C266.558755,130.091829 280.305058,143.838132 297.238911,143.838132 L389.279377,143.838132 L389.279377,439.881712 C389.279377,445.459922 384.697276,450.042023 379.019455,450.042023 Z" id="Shape"></path>
                <rect id="Rectangle-path" x="123.417899" y="368.361089" width="163.561089" height="20.4202335"></rect>
                <rect id="Rectangle-path" x="123.417899" y="307.000778" width="204.501167" height="20.4202335"></rect>
                <rect id="Rectangle-path" x="123.417899" y="245.839689" width="204.501167" height="20.4202335"></rect>
                <rect id="Rectangle-path" x="123.417899" y="184.479377" width="204.501167" height="20.4202335"></rect>
            </g>
        </g>
    </g>
</svg>