<?xml version="1.0" encoding="UTF-8" standalone="no"?>
<svg width="512px" height="512px" viewBox="0 0 512 512" version="1.1" xmlns="http://www.w3.org/2000/svg" xmlns:xlink="http://www.w3.org/1999/xlink" xmlns:sketch="http://www.bohemiancoding.com/sketch/ns">
    <!-- Generator: Sketch 3.3.3 (12072) - http://www.bohemiancoding.com/sketch -->
    <title>flag</title>
    <desc>Created with Sketch.</desc>
    <defs></defs>
    <g id="Page-1" stroke="none" stroke-width="1" fill="none" fill-rule="evenodd" sketch:type="MSPage">
        <g id="flag" sketch:type="MSArtboardGroup" fill="#000000">
            <g id="icon-flag" sketch:type="MSLayerGroup" transform="translate(64.000000, 0.000000)">
                <rect id="Rectangle-272" sketch:type="MSShapeGroup" x="0" y="0" width="32" height="512"></rect>
                <path d="M279.272727,98.7002676 C262.00633,98.7002676 244.391594,94.0913633 224.518883,85.5902589 C210.922473,79.7740169 200.261346,74.2273494 176.391805,61.0991022 C154.443164,49.0273494 144.922473,44.0740169 133.973428,39.3902589 C121.44614,34.0313633 111.772564,31.5002676 104.727273,31.5002676 C86.8583173,31.5002676 66.3438379,36.7656506 45.4811174,45.6902589 C37.9185735,48.9253471 30.8816753,52.3986878 24.6081947,55.8491022 C22.4556575,57.0329976 20.5717525,58.1167844 18.9844755,59.0673869 C18.4626165,59.3799225 18.0246218,59.6471471 17.6739227,59.8649199 C17.5125246,59.9651429 32,33.6 32,33.6 L32,285.912391 C25.7851726,288.592838 20.2453084,291.262679 15.5931839,293.648848 L0,285.331676 L6.66133815e-15,266.126576 C6.23494574,262.90273 12.9153143,259.729045 19.9734281,256.709741 C48.2016167,244.634349 76.7780463,237.299732 104.727273,237.299732 C121.99367,237.299732 139.608406,241.908637 159.481117,250.409741 C173.077527,256.225983 183.738654,261.772651 207.608195,274.900898 C229.556836,286.972651 239.077527,291.925983 250.026572,296.609741 C262.55386,301.968637 272.227436,304.499732 279.272727,304.499732 C297.141683,304.499732 317.656162,299.234349 338.518883,290.309741 C346.081426,287.074653 352,284 352,284 L352,84.0876086 C323.798383,96.3656506 307.221954,98.7002676 279.272727,98.7002676 Z M104.727273,0 C157.090909,0 226.909091,67.2 279.272727,67.2 C331.636364,67.2 384,33.6 384,33.6 L384,302.4 C384,302.4 331.636364,336 279.272727,336 C226.909091,336 157.090909,268.8 104.727273,268.8 C52.3636364,268.8 0,302.4 0,302.4 L0,33.6 C0,33.6 52.3636364,5.61110898e-15 104.727273,0 Z" id="Shape" sketch:type="MSShapeGroup"></path>
            </g>
        </g>
    </g>
</svg>