<svg width="512px" height="512px" viewBox="0 0 512 512" version="1.1" xmlns="http://www.w3.org/2000/svg" xmlns:xlink="http://www.w3.org/1999/xlink">
    <g id="Page-1" stroke="none" stroke-width="1" fill="none" fill-rule="evenodd">
        <g id="folder" fill="#000000">
            <g id="icon-folder" transform="translate(0.000000, 34.000000)">
                <path d="M463.496722,423.319353 L48.5032781,423.319353 C33.718453,423.319353 21.6869245,411.329012 21.6869245,396.605025 L21.6869245,155.365404 L490.313076,155.365404 L490.313076,396.473055 C490.313076,411.272454 478.281547,423.319353 463.496722,423.319353 M67.3991897,21.6806473 L162.444494,21.6806473 C171.685009,30.7111083 193.258785,51.9015845 203.517643,62.8173191 L206.723536,66.2485172 L463.289282,66.2485172 C478.187256,66.2485172 490.313076,78.295416 490.313076,93.0948144 L490.313076,133.684757 L21.6869245,133.684757 L21.6869245,67.4927978 C21.6869245,42.2301305 42.1857827,21.6806473 67.3991897,21.6806473 M463.289282,44.5678699 L216.077201,44.5678699 C201.480958,29.372564 174.683462,3.31808168 174.419448,3.0729961 L171.251271,0 L67.3991897,0 C30.2296869,0 0,30.2774953 0,67.4927978 L0,396.605025 C0,423.3005 21.7623573,445 48.5032781,445 L463.496722,445 C490.237643,445 512,423.225089 512,396.473055 L512,93.0948144 C512,66.3427809 490.143352,44.5678699 463.289282,44.5678699" id="Fill-1"></path>
            </g>
        </g>
    </g>
</svg>