<svg xmlns="http://www.w3.org/2000/svg" viewBox="0 0 512 512"><g fill="none" fill-rule="evenodd" stroke="#000000" stroke-width="16.53"><path d="M8 123.21v214.97c0 9.13 7.4 16.53 16.53 16.53h24.8m0-231.5H8V48.8A24.8 24.8 0 0 1 32.8 24h90.93c10.54 11.23 23.3 22.66 33.07 33.07h198.4c9.13 0 16.53 7.4 16.53 16.54v33.07m-297.6 90.94V412.6c0 9.13 7.4 16.54 16.53 16.54h24.8"/><path d="M115.47 197.63H74.13V123.2a24.8 24.8 0 0 1 24.8-24.8h90.94s23.3 22.66 33.06 33.07h198.4c9.14 0 16.54 7.4 16.54 16.54v33.07"/><path d="M156.8 487c-9.13 0-16.53-7.4-16.53-16.53V197.62a24.8 24.8 0 0 1 24.79-24.8H256s23.3 22.66 33.07 33.07h198.4c9.13 0 16.53 7.41 16.53 16.54v248.03c0 9.14-7.41 16.54-16.53 16.54H156.8zm-16.53-214.96H504 140.27z"/></g></svg>