<svg xmlns="http://www.w3.org/2000/svg" width="24" height="24" fill="none" viewBox="0 0 24 24">
    <path fill="#F66620" fill-rule="evenodd" d="M19.68 10v-.929c0-1.38-1.12-2.5-2.5-2.5h-5.957c-.454 0-.883-.205-1.168-.558l-.872-1.082C8.708 4.342 7.993 4 7.236 4H4.18c-1.38 0-2.5 1.12-2.5 2.5v11c0 1.38 1.12 2.5 2.5 2.5h12.955c.92 0 1.764-.505 2.2-1.314l2.695-5c.898-1.665-.308-3.686-2.2-3.686h-.15zM4.18 5c-.828 0-1.5.672-1.5 1.5v9.163l2.344-4.35C5.461 10.506 6.306 10 7.225 10H18.68v-.929c0-.828-.672-1.5-1.5-1.5h-5.957c-.756 0-1.472-.342-1.946-.93l-.873-1.083C8.12 5.205 7.69 5 7.236 5H4.18zm3.045 6c-.552 0-1.059.303-1.32.788l-2.695 5c-.54 1 .185 2.212 1.32 2.212h12.605c.551 0 1.058-.303 1.32-.788l2.695-5c.539-1-.185-2.212-1.32-2.212H7.225z" clip-rule="evenodd"/>
</svg>
