<svg xmlns="http://www.w3.org/2000/svg" viewBox="0 0 512 512">
  <path d="M361.53,39.17a8.17,8.17,0,1,1,0-16.34h57.08a28.59,28.59,0,0,1,28.56,28.6h0V480.55a28.6,28.6,0,0,1-28.56,28.62H92.39a28.6,28.6,0,0,1-28.56-28.62V51.43a28.59,28.59,0,0,1,28.56-28.6h48.93a8.17,8.17,0,0,1,0,16.34H92.4A12.25,12.25,0,0,0,80.18,51.43V480.55A12.26,12.26,0,0,0,92.4,492.83H418.62a12.26,12.26,0,0,0,12.22-12.28V51.43a12.24,12.24,0,0,0-12.2-12.26H361.53Z"/>
  <path d="M174.8,206.83a16.37,16.37,0,0,1,16.37,16.37v24.6a16.37,16.37,0,0,1-16.37,16.37H150.2a16.37,16.37,0,0,1-16.37-16.37V223.2a16.37,16.37,0,0,1,16.37-16.37Zm-24.6,16.34V247.8h24.63V223.17Z"/>
  <path d="M174.8,125.83a16.37,16.37,0,0,1,16.37,16.37v24.6a16.37,16.37,0,0,1-16.37,16.37H150.2a16.37,16.37,0,0,1-16.37-16.37V142.2a16.37,16.37,0,0,1,16.37-16.37Zm-24.6,16.34V166.8h24.63V142.17Z"/>
  <path d="M133.83,317.5a28.67,28.67,0,0,1,57.34,0h0a28.67,28.67,0,0,1-57.34,0Zm16.34,0a12.34,12.34,0,0,0,24.67.76v-.76a12.34,12.34,0,0,0-24.67,0Z"/>
  <path d="M133.83,399.5a28.67,28.67,0,0,1,57.34,0h0a28.67,28.67,0,0,1-57.34,0Zm16.34,0a12.34,12.34,0,0,0,24.67.76v-.76a12.34,12.34,0,0,0-24.67,0Z"/>
  <path d="M162.5,405.5a6,6,0,1,0-6-6A6,6,0,0,0,162.5,405.5Z"/>
  <path d="M223,162.17a8.17,8.17,0,0,1,0-16.34H366a8.17,8.17,0,0,1,0,16.34Z"/>
  <path d="M223,244.17a8.17,8.17,0,0,1,0-16.34H366a8.17,8.17,0,0,1,0,16.34Z"/>
  <path d="M223,325.17a8.17,8.17,0,0,1,0-16.34H366a8.17,8.17,0,0,1,0,16.34Z"/>
  <path d="M223,407.17a8.17,8.17,0,0,1,0-16.34H366a8.17,8.17,0,0,1,0,16.34Z"/>
  <path d="M182.17,63.83h34.58c8.3,0,12.75-1.16,18-3.9.52-.26,2.75-1.45,3.37-1.77a31.88,31.88,0,0,1,30.75,0c.6.31,2.82,1.51,3.35,1.8,5.19,2.7,9.67,3.87,18.1,3.87h30.5V19.17H182.17ZM290.33,80.17c-11.15,0-18.2-1.85-25.67-5.74l-3.35-1.8a14.65,14.65,0,0,0-7.77-2.09,14.93,14.93,0,0,0-7.9,2.13c-.5.25-2.71,1.44-3.36,1.77-7.5,3.9-14.5,5.73-25.53,5.73h-34.6a16.31,16.31,0,0,1-16.32-16.3V19.13a16.32,16.32,0,0,1,16.33-16.3H320.84a16.32,16.32,0,0,1,16.33,16.3V63.87a16.32,16.32,0,0,1-16.33,16.3Z"/>
</svg>