<svg width="512" height="512" viewBox="0 0 512 512" fill="none" xmlns="http://www.w3.org/2000/svg">
<path d="M256 21.3335C279.564 21.3335 298.667 40.436 298.667 64.0002H320C331.782 64.0002 341.333 73.5514 341.333 85.3335V106.667C341.333 118.449 331.782 128 320 128H192C180.218 128 170.667 118.449 170.667 106.667V85.3335C170.667 73.5514 180.218 64.0002 192 64.0002H213.333C213.333 40.436 232.436 21.3335 256 21.3335Z" fill="#A7A7A7"/>
<path d="M149.333 128C149.333 139.782 158.885 149.333 170.667 149.333H341.333C353.115 149.333 362.667 139.782 362.667 128V85.3335H384C407.564 85.3335 426.667 104.436 426.667 128V426.667C426.667 450.231 407.564 469.333 384 469.333H128C104.436 469.333 85.3333 450.231 85.3333 426.667V128C85.3333 104.436 104.436 85.3335 128 85.3335H149.333V128Z" fill="#A7A7A7"/>
</svg>
