<?xml version="1.0" encoding="UTF-8"?>
<svg width="512px" height="512px" viewBox="0 0 512 512" version="1.1" xmlns="http://www.w3.org/2000/svg" xmlns:xlink="http://www.w3.org/1999/xlink">
    <!-- Generator: Sketch 47.1 (45422) - http://www.bohemiancoding.com/sketch -->
    <title>512</title>
    <desc>Created with Sketch.</desc>
    <defs></defs>
    <g id="Page-1" stroke="none" stroke-width="1" fill="none" fill-rule="evenodd">
        <g id="512" fill-rule="nonzero" fill="#000000">
            <g id="icon-category" transform="translate(37.000000, 0.000000)">
                <path d="M20.4249462,143.378351 L20.4249462,185.109104 L62.1556989,185.109104 L62.1556989,143.378351 L20.4249462,143.378351 Z M64.8900358,122.953405 C74.6560967,122.96352 82.5705301,130.877953 82.5806452,140.644014 L82.5806452,187.843441 C82.5705301,197.609502 74.6560967,205.523935 64.8900358,205.53405 L17.6906093,205.53405 C7.92454843,205.523935 0.0101150375,197.609502 0,187.843441 L0,140.644014 C0.0101150375,130.877953 7.92454843,122.96352 17.6906093,122.953405 L64.8900358,122.953405 Z" id="Shape"></path>
                <path d="M20.4249462,20.4249462 L20.4249462,62.1556989 L62.1556989,62.1556989 L62.1556989,20.4249462 L20.4249462,20.4249462 Z M64.8900358,2.60787011e-14 C74.6560967,0.0101150375 82.5705301,7.92454843 82.5806452,17.6906093 L82.5806452,64.8900358 C82.5705301,74.6560967 74.6560967,82.5705301 64.8900358,82.5806452 L17.6906093,82.5806452 C7.92454843,82.5705301 0.0101150375,74.6560967 0,64.8900358 L0,17.6906093 C0.0101150375,7.92454843 7.92454843,0.0101150375 17.6906093,0 L64.8900358,2.60787011e-14 Z" id="Shape"></path>
                <path d="M20.4249462,347.756272 C20.4249462,359.279902 29.7666934,368.621649 41.2903226,368.621649 C52.8139517,368.621649 62.1556989,359.279902 62.1556989,347.756272 C62.1556989,336.232643 52.8139517,326.890896 41.2903226,326.890896 C29.7666934,326.890896 20.4249462,336.232643 20.4249462,347.756272 Z M0,347.756272 C0,324.952257 18.4863071,306.46595 41.2903226,306.46595 C64.0943381,306.46595 82.5806452,324.952257 82.5806452,347.756272 C82.5806452,370.560288 64.0943381,389.046595 41.2903226,389.046595 C18.4863071,389.046595 0,370.560288 0,347.756272 L0,347.756272 Z" id="Shape"></path>
                <path d="M20.4249462,470.709677 C20.4249462,482.233307 29.7666934,491.575054 41.2903226,491.575054 C52.8139517,491.575054 62.1556989,482.233307 62.1556989,470.709677 C62.1556989,459.186048 52.8139517,449.844301 41.2903226,449.844301 C29.7666934,449.844301 20.4249462,459.186048 20.4249462,470.709677 Z M0,470.709677 C0,447.905662 18.4863071,429.419355 41.2903226,429.419355 C64.0943381,429.419355 82.5806452,447.905662 82.5806452,470.709677 C82.5806452,493.513693 64.0943381,512 41.2903226,512 C18.4863071,512 0,493.513693 0,470.709677 L0,470.709677 Z" id="Shape"></path>
                <path d="M31.1971326,470.709677 C31.1971326,476.283992 35.7160077,480.802867 41.2903226,480.802867 C46.8646375,480.802867 51.3835125,476.283992 51.3835125,470.709677 C51.3835125,465.135363 46.8646375,460.616487 41.2903226,460.616487 C35.7160077,460.616487 31.1971326,465.135363 31.1971326,470.709677 Z" id="Shape"></path>
                <path d="M428.373333,357.849462 L142.350681,357.849462 C132.129032,357.849462 132.129032,347.756272 132.129032,347.756272 C132.129032,347.756272 132.129032,337.663082 142.350681,337.663082 L428.373333,337.663082 C438.594982,337.663082 438.594982,347.756272 438.594982,347.756272 C438.594982,347.756272 438.594982,357.849462 428.373333,357.849462 Z" id="Shape"></path>
                <path d="M428.373333,172.501792 L142.350681,172.501792 C132.129032,172.501792 132.129032,162.408602 132.129032,162.408602 C132.129032,162.408602 132.129032,152.315412 142.350681,152.315412 L428.373333,152.315412 C438.594982,152.315412 438.594982,162.408602 438.594982,162.408602 C438.594982,162.408602 438.594982,172.501792 428.373333,172.501792 Z" id="Shape"></path>
                <path d="M428.373333,51.3835125 L142.350681,51.3835125 C132.129032,51.3835125 132.129032,41.2903226 132.129032,41.2903226 C132.129032,41.2903226 132.129032,31.1971326 142.350681,31.1971326 L428.373333,31.1971326 C438.594982,31.1971326 438.594982,41.2903226 438.594982,41.2903226 C438.594982,41.2903226 438.594982,51.3835125 428.373333,51.3835125 Z" id="Shape"></path>
                <path d="M428.373333,478.967742 L142.350681,478.967742 C132.129032,478.967742 132.129032,468.874552 132.129032,468.874552 C132.129032,468.874552 132.129032,458.781362 142.350681,458.781362 L428.373333,458.781362 C438.594982,458.781362 438.594982,468.874552 438.594982,468.874552 C438.594982,468.874552 438.594982,478.967742 428.373333,478.967742 Z" id="Shape"></path>
            </g>
        </g>
    </g>
</svg>