<?xml version="1.0" encoding="UTF-8"?>
<svg width="512px" height="512px" viewBox="0 0 512 512" version="1.1" xmlns="http://www.w3.org/2000/svg" xmlns:xlink="http://www.w3.org/1999/xlink">
    <!-- Generator: Sketch 46 (44423) - http://www.bohemiancoding.com/sketch -->
    <title>form</title>
    <desc>Created with Sketch.</desc>
    <defs></defs>
    <g id="Page-1" stroke="none" stroke-width="1" fill="none" fill-rule="evenodd">
        <g id="form" fill-rule="nonzero" fill="#000000">
            <path d="M42,87.0027571 L42,87.0027571 L42,130.997243 C42,137.075094 46.9251238,142 53.0027571,142 L96.9972429,142 C103.075094,142 108,137.074876 108,130.997243 L108,87.0027571 C108,80.9249063 103.074876,76 96.9972429,76 L53.0027571,76 C46.9249063,76 42,80.9251238 42,87.0027571 L42,87.0027571 Z M19,87.0027571 C19,68.2235529 34.2213787,53 53.0027571,53 L96.9972429,53 C115.776447,53 131,68.2213787 131,87.0027571 L131,130.997243 C131,149.776447 115.778621,165 96.9972429,165 L53.0027571,165 C34.2235529,165 19,149.778621 19,130.997243 L19,87.0027571 Z M19,235.002757 C19,216.223553 34.2213787,201 53.0027571,201 L96.9972429,201 C115.776447,201 131,216.221379 131,235.002757 L131,278.997243 C131,297.776447 115.778621,313 96.9972429,313 L53.0027571,313 C34.2235529,313 19,297.778621 19,278.997243 L19,235.002757 Z M42,235.002757 L42,278.997243 C42,285.075094 46.9251238,290 53.0027571,290 L96.9972429,290 C103.075094,290 108,285.074876 108,278.997243 L108,235.002757 C108,228.924906 103.074876,224 96.9972429,224 L53.0027571,224 C46.9249063,224 42,228.925124 42,235.002757 Z M19,381.002757 C19,362.223553 34.2213787,347 53.0027571,347 L96.9972429,347 C115.776447,347 131,362.221379 131,381.002757 L131,424.997243 C131,443.776447 115.778621,459 96.9972429,459 L53.0027571,459 C34.2235529,459 19,443.778621 19,424.997243 L19,381.002757 Z M42,381.002757 L42,424.997243 C42,431.075094 46.9251238,436 53.0027571,436 L96.9972429,436 C103.075094,436 108,431.074876 108,424.997243 L108,381.002757 C108,374.924906 103.074876,370 96.9972429,370 L53.0027571,370 C46.9249063,370 42,374.925124 42,381.002757 Z M189,98 L493,98 L493,121 L189,121 L189,98 Z M189,246 L493,246 L493,269 L189,269 L189,246 Z M189,392 L493,392 L493,415 L189,415 L189,392 Z" id="Form"></path>
        </g>
    </g>
</svg>