<svg id="Layer_1" data-name="Layer 1" xmlns="http://www.w3.org/2000/svg" viewBox="0 0 512 512">
  <title>gamification</title>
  <g>
    <path d="M384,205.19V34.13H495V93.87A111,111,0,0,1,393.27,204.43Zm17.07-154v135a93.92,93.92,0,0,0,76.83-92.32V51.21ZM128,205.19l-9.24-.76A111,111,0,0,1,17,93.87V34.13H128Zm-93.9-154V93.87a93.92,93.92,0,0,0,76.83,92.32v-135Z"/>
    <polygon points="247.46 500.13 264.54 500.13 264.54 290.13 247.46 290.13 247.46 500.13"/>
    <polygon points="127.96 512 384.04 512 384.04 494.93 127.96 494.93 127.96 512"/>
    <path d="M273.07,290.13H238.93c-70.6,0-128-57.42-128-128V0H401.11V162.13C401.11,232.71,343.67,290.13,273.07,290.13ZM128,17.06V162.13a111.08,111.08,0,0,0,111,110.93h34.14A111.08,111.08,0,0,0,384,162.13V17.06Zm74.71,204.17,7.88-66.15L168,107.32,229.24,95l31-59.15L291.3,95l61.24,12.37L310,155.08l7.86,66.15-57.58-28.41Zm57.6-47.45L297.19,192h0l-5.06-42.53L320,118.17,280,110.08,260.27,72.53h0l-19.68,37.54-40.06,8.09,27.88,31.29L223.35,192Z"/>
  </g>
</svg>
