<?xml version="1.0" encoding="UTF-8" standalone="no"?>
<svg width="512px" height="512px" viewBox="0 0 512 512" version="1.1" xmlns="http://www.w3.org/2000/svg" xmlns:xlink="http://www.w3.org/1999/xlink">
    <!-- Generator: Sketch 39.1 (31720) - http://www.bohemiancoding.com/sketch -->
    <title>icon-settings</title>
    <desc>Created with Sketch.</desc>
    <defs></defs>
    <g id="Page-1" stroke="none" stroke-width="1" fill="none" fill-rule="evenodd">
        <g id="icon-settings" fill="#000000">
            <path d="M223.872348,509.976357 L216.411866,509.04987 L195.712689,441.513828 C185.862904,438.319885 176.330066,434.370123 167.211701,429.713306 L105.016644,462.920559 L99.043383,458.263741 C90.5589139,451.656424 82.4401555,444.488339 74.9552934,437.027679 C67.3485289,429.39635 60.1806154,421.277396 53.6222185,412.817105 L49.0142745,406.868082 L82.1719675,344.549626 C77.5152629,335.40666 73.5655961,325.849212 70.3961101,316.047953 L2.95921262,295.518947 L2.00836766,288.033905 C-0.673505402,266.724699 -0.673505402,245.098537 2.0327474,223.76495 L2.98359357,216.279908 L70.5667756,195.653377 C73.7606413,185.90088 77.6859271,176.416576 82.3426329,167.322373 L49.0630352,105.003917 L53.6953601,99.0548935 C60.2049964,90.667746 67.3729086,82.5487922 74.9796743,74.9662258 C82.5864388,67.3348968 90.7295782,60.1424303 99.1652865,53.6082572 L105.114167,49.0002024 L167.650552,82.2805986 C176.647014,77.7213062 186.033568,73.8446886 195.688308,70.6995083 L216.387485,2.91965381 L223.872348,1.99316659 C245.083519,-0.664388862 266.904208,-0.664388862 288.115379,1.99316659 L295.624622,2.91965381 L316.153136,70.7482708 C325.832257,73.8934511 335.218809,77.7700687 344.239653,82.3537423 L406.873561,48.9758211 L412.822441,53.6082572 C421.258149,60.1424303 429.401288,67.3348968 437.032433,74.9662258 C444.639199,82.5731735 451.807111,90.6921273 458.292367,99.0548935 L462.900311,105.003917 L429.498811,167.517423 C434.106754,176.538483 438.007659,185.949642 441.152764,195.628996 L509.028514,216.279908 L509.954979,223.76495 C512.661232,245.074156 512.685613,266.700318 510.00374,288.033905 L509.052895,295.518947 L441.32343,316.096715 C438.178325,325.849212 434.27742,335.309135 429.669475,344.378957 L462.997833,406.868082 L458.365508,412.817105 C451.807111,421.301777 444.614818,429.420731 437.032433,437.027679 C429.547572,444.488339 421.453194,451.656424 412.944344,458.263741 L406.971084,462.920559 L344.702885,429.640162 C335.535757,434.321361 325.954159,438.295504 316.128755,441.489446 L295.624622,509.025488 L288.13976,509.976357 C277.509793,511.317325 266.709163,512 256.006054,512 C245.278565,512 234.477934,511.317325 223.872348,509.976357 L223.872348,509.976357 Z M277.678872,486.58755 L297.308916,421.947214 L303.350795,420.200178 C315.652936,416.657577 327.542579,411.731906 338.655755,405.56875 L344.163814,402.487172 L403.806145,434.346318 C409.386997,429.711819 414.749469,424.834677 419.772237,419.787683 C424.892063,414.667897 429.817772,409.256938 434.452306,403.676127 L402.568652,343.88867 L405.601724,338.380653 C411.667868,327.36462 416.520783,315.572126 420.039147,303.318609 L421.786196,297.276776 L486.621146,277.574091 C487.955699,263.161043 487.955699,248.650938 486.596882,234.237889 L421.664874,214.462411 L419.917824,208.444842 C416.375196,196.264118 411.498016,184.520153 405.431871,173.552648 L402.374534,168.020368 L434.355248,108.184382 C429.793507,102.676365 424.892063,97.3139338 419.796501,92.2184126 C414.652411,87.0743617 409.265675,82.1729542 403.684821,77.5384554 L343.751317,109.494659 L338.267522,106.461609 C327.275669,100.395512 315.531613,95.5426341 303.37506,92.0485619 L297.308916,90.2772609 L277.678872,25.3700166 C263.265714,24.0597394 248.731232,24.0354752 234.318074,25.3942808 L214.493914,90.2529967 L208.476299,92.0000322 C196.319745,95.5183699 184.62422,100.346984 173.632366,106.364552 L168.148572,109.373337 L108.312125,77.5384554 C102.755537,82.1729542 97.3445353,87.0743617 92.2247096,92.2184126 C87.1048839,97.3139338 82.2034396,102.676365 77.6416988,108.208646 L109.476824,167.874781 L106.419488,173.382798 C100.280549,184.423096 95.379105,196.21559 91.860741,208.444842 L90.089427,214.462411 L25.4000653,234.213625 C24.0412478,248.650938 24.0412478,263.161043 25.4000653,277.574091 L89.9681049,297.252512 L91.7151538,303.294344 C95.2335178,315.59639 100.110698,327.461677 106.249635,338.550504 L109.282708,344.034256 L77.5446407,403.676127 C82.1791757,409.256938 87.08062,414.643632 92.2247096,419.787683 C97.2474771,424.834677 102.609949,429.711819 108.215067,434.346318 L167.760339,402.559966 L173.268397,405.617279 C184.284516,411.75617 196.125629,416.657577 208.500564,420.224442 L214.518178,421.971478 L234.318074,486.58755 C248.731232,487.97062 263.265714,487.97062 277.678872,486.58755 L277.678872,486.58755 Z M158.476191,256.003048 C158.476191,309.858504 202.123513,353.528018 256,353.528018 C309.854815,353.528018 353.52381,309.858504 353.52381,256.003048 C353.52381,202.147591 309.854815,158.478077 256,158.478077 C202.123513,158.478077 158.476191,202.147591 158.476191,256.003048 L158.476191,256.003048 Z M329.142857,256.003048 C329.142857,296.336589 296.312163,329.146776 256,329.146776 C215.666939,329.146776 182.857143,296.336589 182.857143,256.003048 C182.857143,215.669507 215.666939,182.85932 256,182.85932 C296.312163,182.85932 329.142857,215.669507 329.142857,256.003048 L329.142857,256.003048 Z" id="Settings"></path>
        </g>
    </g>
</svg>