<svg xmlns="http://www.w3.org/2000/svg" viewBox="0 0 512 512"><g fill="none" fill-rule="evenodd"><path fill="#4A4A4A" d="M498.9 210.53h-60.6c-4.85-18.19-12.12-35.16-20.61-50.92l42.42-42.43a11.73 11.73 0 0 0 0-16.98l-47.27-47.28a11.7 11.7 0 0 0-16.96 0l-42.42 42.43c-15.75-9.7-32.72-16.97-50.9-20.6V14.11C302.56 6.85 296.5 2 290.44 2h-66.66c-6.06 0-12.12 4.85-12.12 12.12v60.62c-18.17 4.85-35.14 12.13-50.9 20.61l-43.62-43.64a11.7 11.7 0 0 0-16.97 0L52.9 99.01a11.73 11.73 0 0 0 0 16.95l42.42 42.44c-9.7 15.76-16.97 32.73-20.6 50.92h-60.6C6.85 209.32 2 215.38 2 221.44v66.68c0 6.08 4.84 12.14 12.12 12.14h60.6c4.83 18.18 12.11 35.16 20.6 50.92L52.9 394.82a11.73 11.73 0 0 0 0 17l47.26 47.26a11.7 11.7 0 0 0 16.97 0l42.42-42.43c15.76 9.7 32.73 16.97 50.9 20.6v60.63c0 7.27 6.05 12.12 12.12 12.12h66.65c6.07 0 12.13-4.85 12.13-12.12v-60.62c18.18-4.85 35.15-12.13 50.9-20.61l42.41 42.43a11.7 11.7 0 0 0 16.97 0l47.27-47.27a11.73 11.73 0 0 0 0-17l-42.4-42.41c9.7-15.76 16.96-32.73 20.6-50.92h60.6c7.25 0 12.12-6.06 12.12-12.12v-66.7c1.2-7.26-3.65-12.11-10.91-12.11l-.02-.02z"/><path fill="#FFFFFF" d="M255.9 165a90.9 90.9 0 0 1 90.89 90.93 90.9 90.9 0 1 1-181.79 0A90.92 90.92 0 0 1 255.88 165h.01z"/></g></svg>