<svg xmlns="http://www.w3.org/2000/svg" viewBox="0 0 512 512"><path fill="#A7A7A7" fill-rule="evenodd" d="M183.64 85.36a259.13 259.13 0 0 0-4.55 10.48c24.48 4.98 50.6 13.1 77.32 24.21 26.7-11.11 52.84-19.23 77.32-24.21-1.47-3.6-3-7.09-4.56-10.48-20.28-43.95-46.62-67.26-72.76-67.26-26.15 0-52.49 23.31-72.77 67.26zm-37.1 5.61c5.12.47 10.35 1.1 15.68 1.9 1.98-5.02 4.05-9.86 6.2-14.53 20.86-45.19 51.36-77 87.99-77 36.62 0 67.13 31.81 87.98 77a281.7 281.7 0 0 1 6.2 14.52c5.33-.79 10.56-1.42 15.69-1.89 49.56-4.53 92.36 5.98 110.68 37.7 18.3 31.72 6 74.05-22.7 114.7-2.97 4.2-6.13 8.42-9.47 12.64 3.34 4.22 6.5 8.43 9.47 12.63 28.7 40.66 41 82.98 22.7 114.7-18.32 31.72-61.12 42.22-110.68 37.7-5.13-.48-10.36-1.1-15.69-1.9a277.86 277.86 0 0 1-6.2 14.52c-20.85 45.2-51.36 77-87.98 77-36.63 0-67.13-31.8-87.99-77a280.27 280.27 0 0 1-6.2-14.52 280.1 280.1 0 0 1-15.68 1.9c-49.56 4.52-92.37-5.98-110.68-37.7-18.32-31.72-6.02-74.04 22.69-114.7a284.8 284.8 0 0 1 9.48-12.63 281.7 281.7 0 0 1-9.48-12.63c-28.7-40.66-41-82.99-22.7-114.7 18.32-31.73 61.13-42.24 110.69-37.7zm131.33 38.61c21.48-8.07 42.3-14.03 61.83-17.84 6.46 18.82 11.72 39.83 15.46 62.47a539.9 539.9 0 0 0-37.73-23.9 539.6 539.6 0 0 0-39.56-20.73zm78.58-20.62c7.93 23.7 13.97 50.38 17.7 79.07 22.98 17.57 43.07 36.15 59.62 54.86a262.4 262.4 0 0 0 6.8-9.18c27.92-39.54 34.95-74.01 21.87-96.66-13.07-22.65-46.43-33.8-94.64-29.39-3.71.34-7.5.78-11.35 1.3zm-47.4 55.86a515.34 515.34 0 0 1 49.32 32.32A515.28 515.28 0 0 1 361.7 256a514.7 514.7 0 0 1-3.33 58.88 515.47 515.47 0 0 1-49.32 32.31 515.69 515.69 0 0 1-52.64 26.56 515.53 515.53 0 0 1-52.65-26.56 515.62 515.62 0 0 1-49.32-32.3 515.59 515.59 0 0 1-3.32-58.89 515.3 515.3 0 0 1 3.32-58.86 515.56 515.56 0 0 1 49.32-32.32 515.59 515.59 0 0 1 52.65-26.56 515.57 515.57 0 0 1 52.64 26.56zm69.4 91.18c0 15.22-.62 30.14-1.83 44.64 17.74-14.57 33.3-29.62 46.37-44.63-13.06-15.01-28.63-30.07-46.36-44.63a539.4 539.4 0 0 1 1.83 44.62zm-61.02 105.71a539.82 539.82 0 0 0 37.73-23.9c-3.75 22.64-9 43.65-15.47 62.46-19.52-3.8-40.34-9.76-61.82-17.84a539.43 539.43 0 0 0 39.56-20.72zm56.71-37.72c-3.73 28.68-9.77 55.37-17.7 79.06 3.86.52 7.64.95 11.36 1.3 48.2 4.4 81.57-6.75 94.64-29.4 13.08-22.64 6.05-57.1-21.87-96.64a259.6 259.6 0 0 0-6.8-9.18c-16.55 18.71-36.65 37.28-59.63 54.86zm-117.73 67.97c26.7 11.11 52.83 19.23 77.31 24.2-1.47 3.6-2.98 7.1-4.55 10.48-20.28 43.95-46.62 67.27-72.76 67.27-26.15 0-52.49-23.32-72.77-67.27a261.92 261.92 0 0 1-4.55-10.47c24.48-4.98 50.6-13.1 77.32-24.21zm-21.47-9.53c-21.47 8.08-42.3 14.03-61.82 17.84-6.47-18.81-11.72-39.83-15.47-62.46a539.34 539.34 0 0 0 37.73 23.9 539.43 539.43 0 0 0 39.56 20.72zM134.36 256c0 15.22.62 30.14 1.83 44.64-17.73-14.57-33.3-29.62-46.37-44.63 13.06-15.01 28.64-30.06 46.37-44.63a539.41 539.41 0 0 0-1.83 44.62zm-55.32-13.1c16.55-18.71 36.65-37.28 59.63-54.86 3.73-28.69 9.76-55.38 17.7-79.07a267.5 267.5 0 0 0-11.36-1.3c-48.2-4.4-81.56 6.74-94.64 29.4-13.07 22.64-6.05 57.1 21.87 96.65a260.5 260.5 0 0 0 6.8 9.18zm94.08-131.15c-6.47 18.82-11.72 39.83-15.47 62.47a539.43 539.43 0 0 1 37.73-23.9 539.87 539.87 0 0 1 39.57-20.73c-21.48-8.07-42.3-14.03-61.83-17.84zm-16.76 291.3c-7.92-23.68-13.96-50.37-17.69-79.05-22.98-17.58-43.08-36.15-59.63-54.86a259.14 259.14 0 0 0-6.8 9.18c-27.92 39.54-34.94 74-21.87 96.65 13.08 22.64 46.44 33.79 94.64 29.38 3.72-.34 7.5-.77 11.35-1.3zm132.86-128.1a37.9 37.9 0 1 0-65.64-37.87 37.9 37.9 0 0 0 65.64 37.88z"/></svg>