<?xml version="1.0" encoding="UTF-8" standalone="no"?>
<svg width="512px" height="512px" viewBox="0 0 512 512" version="1.1" xmlns="http://www.w3.org/2000/svg" xmlns:xlink="http://www.w3.org/1999/xlink" xmlns:sketch="http://www.bohemiancoding.com/sketch/ns">
    <!-- Generator: Sketch 3.3.3 (12072) - http://www.bohemiancoding.com/sketch -->
    <title>group</title>
    <desc>Created with Sketch.</desc>
    <defs></defs>
    <g id="Page-1" stroke="none" stroke-width="1" fill="none" fill-rule="evenodd" sketch:type="MSPage">
        <g id="group" sketch:type="MSArtboardGroup" stroke="#000000" stroke-width="16">
            <g id="icon-group" sketch:type="MSLayerGroup" transform="translate(0.000000, 104.000000)">
                <path d="M250.784,3.51079646 C241.152,3.51079646 242.636,6.54810619 237.453333,7.31079646 C232.273333,8.07214159 238.508,6.54810619 222.953333,9.58541593 C207.409333,12.6240708 201.912,33.1494513 201.172,40.7467611 C200.430667,48.3481062 200.24,69.7182301 200.744,81.1209204 C202.228,87.9582301 197.046667,87.9582301 197.046667,87.9582301 C187.729333,87.3435044 191.908,117.140885 191.908,117.140885 C193.246667,124.486655 191.428,128.149451 205.229333,133.843398 C211.798667,153.055929 228.513333,162.763752 228.513333,162.763752 C228.513333,162.763752 244.538667,208.024779 201.676,214.523115 C158.814667,221.002619 149.965333,225.280142 140.928,232.370336 C130.576,240.480142 115.709333,281.295504 115.064,303.778053 L409.786667,303.778053 C409.786667,303.778053 392.004,240.310655 383.918667,232.370336 C375.836,224.432708 366.036,221.003965 323.18,214.523115 C280.309333,208.026124 297.086667,164.278372 297.086667,164.278372 C297.086667,164.278372 310.877333,152.482903 317.456,133.274407 C327.8,126.56354 331.726667,125.630018 333.44,117.90492 C333.44,117.90492 336.932,88.7222655 325.813333,88.7222655 C325.813333,88.7222655 321.196,89.4849558 322.676,82.636885 C324.16,75.7995752 323.657333,54.4375221 322.928,46.8388673 C322.176,39.2402124 324.348,17.5069027 308.804,14.4709381 C298.189333,12.4370973 296.938667,15.5282124 291.756,14.7668673 C286.574667,14.0055221 280.409333,0.221946903 270.776,0.221946903 L250.784,3.51079646 L250.784,3.51079646 Z" id="Shape" sketch:type="MSShapeGroup"></path>
                <path d="M412.501333,242.38485 L511.476,242.38485 C511.476,242.38485 510.809333,207.668319 504.648,201.591009 C498.482667,195.541947 491.78,184.614088 459.088,179.668035 C426.413333,174.669522 429.005333,142.035257 429.005333,142.035257 C429.005333,142.035257 443.716,133.509805 448.728,118.798088 C456.606667,113.665062 459.606667,112.957522 460.909333,107.040283 C460.909333,107.040283 463.584,84.7083894 455.112,84.7083894 C455.112,84.7083894 451.576,85.2827611 452.704,80.0542301 C453.834667,74.8095575 453.464,58.4567788 452.901333,52.6377345 C452.312,46.8213805 453.98,30.1982301 442.121333,27.8698053 C434.013333,26.3148319 433.08,28.6795752 429.126667,28.0890619 C425.174667,27.5146903 420.469333,16.9688496 413.129333,16.9688496 L397.888,19.4788673 C390.542667,19.4788673 391.674667,21.8046018 387.722667,22.3937699 C383.766667,22.9667965 388.518667,21.8046018 376.656,24.1330265 C364.809333,26.4614513 360.606667,42.175292 360.041333,47.9822301 C359.476,53.7999292 359.330667,70.152708 359.725333,78.8758938 C360.854667,84.116531 356.9,84.116531 356.9,84.116531 C349.789333,83.651115 352.982667,106.460531 352.982667,106.460531 C354.004,112.07108 352.624,114.872991 363.137333,119.236602 C368.146667,133.946973 379.505333,142.032566 379.505333,142.032566 C379.505333,142.032566 380.346667,152.182938 379.505333,158.764673 C379.505333,169.274195 366.425333,193.919717 333.750667,198.892673" id="Shape" sketch:type="MSShapeGroup"></path>
                <path d="M178.246667,201.589664 C145.570667,196.614018 132.493333,171.969841 132.493333,161.460319 C131.652,154.877239 132.493333,144.726867 132.493333,144.726867 C132.493333,144.726867 143.854667,136.641274 148.861333,121.930903 C159.373333,117.568637 158,114.765381 159.017333,109.156177 C159.017333,109.156177 162.209333,86.3467611 155.1,86.812177 C155.1,86.812177 151.145333,86.812177 152.277333,81.5715398 C152.669333,72.8496991 152.522667,56.4942301 151.957333,50.6778761 C151.390667,44.8722832 147.193333,29.1570973 135.342667,26.8273274 C123.481333,24.5015929 128.233333,25.6637876 124.28,25.0894159 C120.322667,24.5002478 121.454667,22.1731681 114.112,22.1731681 L98.8693333,19.6644956 C91.5293333,19.6644956 86.8253333,30.2089912 82.8706667,30.784708 C78.916,31.3738761 77.984,29.0104779 69.8773333,30.5654513 C58.016,32.892531 59.6866667,49.5170265 59.0973333,55.3333805 C58.532,61.1510796 58.1666667,77.5025133 59.2933333,82.7498761 C60.4226667,87.9784071 56.8853333,87.4040354 56.8853333,87.4040354 C48.412,87.4040354 51.0906667,109.735929 51.0906667,109.735929 C52.392,115.651823 55.3866667,116.360708 63.2706667,121.493735 C68.2826667,136.206796 82.9906667,144.730903 82.9906667,144.730903 C82.9906667,144.730903 85.5826667,177.365168 52.908,182.363681 C20.2186667,187.308389 13.5146667,198.236248 7.352,204.286655 C1.188,210.363965 0.524,245.07915 0.524,245.07915 L99.496,245.07915" id="Shape" sketch:type="MSShapeGroup"></path>
            </g>
        </g>
    </g>
</svg>