<?xml version="1.0" encoding="UTF-8"?>
<svg width="512px" height="512px" viewBox="0 0 512 512" version="1.1" xmlns="http://www.w3.org/2000/svg" xmlns:xlink="http://www.w3.org/1999/xlink">
    <!-- Generator: Sketch 39.1 (31720) - http://www.bohemiancoding.com/sketch -->
    <title>handle-vertical</title>
    <desc>Created with Sketch.</desc>
    <defs></defs>
    <g id="Page-1" stroke="none" stroke-width="1" fill="none" fill-rule="evenodd">
        <g id="handle-vertical" fill="#9B9B9B">
            <path d="M78,28.2469956 C78.0066133,21.5179242 80.6982222,15.0693497 85.4783466,10.3303227 C90.2584711,5.59129579 96.7323435,2.95319007 103.465307,3.00062889 C117.522156,3.00062889 128.930614,14.5803636 128.930614,28.2469956 L128.930614,486.75359 C128.924001,493.482661 126.232392,499.931236 121.452267,504.670263 C116.672143,509.40929 110.19827,512.047396 103.465307,511.999957 C89.4084575,511.999957 78,500.420222 78,486.75359 L78,28.2469956 L78,28.2469956 Z M230.791842,28.2469956 C230.798455,21.5179242 233.490064,15.0693497 238.270188,10.3303227 C243.050313,5.59129579 249.524185,2.95319007 256.257149,3.00062889 C270.313998,3.00062889 281.722456,14.5803636 281.722456,28.2469956 L281.722456,486.75359 C281.715842,493.482661 279.024233,499.931236 274.244109,504.670263 C269.463984,509.40929 262.990112,512.047396 256.257149,511.999957 C242.200299,511.999957 230.791842,500.420222 230.791842,486.75359 L230.791842,28.2469956 L230.791842,28.2469956 Z M383.583683,28.2469956 C383.590297,21.5179242 386.281905,15.0693497 391.06203,10.3303227 C395.842154,5.59129579 402.316027,2.95319007 409.04899,3.00062889 C423.10584,3.00062889 434.514297,14.5803636 434.514297,28.2469956 L434.514297,486.75359 C434.507684,493.482661 431.816075,499.931236 427.035951,504.670263 C422.255826,509.40929 415.781954,512.047396 409.04899,511.999957 C394.992141,511.999957 383.583683,500.420222 383.583683,486.75359 L383.583683,28.2469956 L383.583683,28.2469956 Z" id="Shape"></path>
        </g>
    </g>
</svg>