<?xml version="1.0" encoding="UTF-8"?>
<svg width="512px" height="512px" viewBox="0 0 512 512" version="1.1" xmlns="http://www.w3.org/2000/svg" xmlns:xlink="http://www.w3.org/1999/xlink">
    <!-- Generator: Sketch 46 (44423) - http://www.bohemiancoding.com/sketch -->
    <title>icon-grabber</title>
    <desc>Created with Sketch.</desc>
    <defs></defs>
    <g id="Page-1" stroke="none" stroke-width="1" fill="none" fill-rule="evenodd">
        <g id="icon-grabber" fill="#000000">
            <g id="Icon" transform="translate(23.000000, 0.000000)">
                <path d="M23.2541091,511.986036 C18.1806545,511.986036 13.0141091,510.3104 8.73192727,506.912582 C-1.27534545,498.860218 -2.90443636,484.1984 5.10138182,474.191127 L377.465018,8.69003636 C385.517382,-1.27069091 400.132655,-2.94632727 410.186473,5.05949091 C420.193745,13.1118545 421.822836,27.7736727 413.817018,37.7809455 L41.4533818,503.282036 C36.8453818,509.007127 30.0962909,511.986036 23.2541091,511.986036" id="Fill-1"></path>
                <path d="M255.981382,511.986036 C250.907927,511.986036 245.741382,510.3104 241.4592,506.912582 C231.451927,498.860218 229.822836,484.1984 237.828655,474.191127 L424.010473,241.463855 C432.062836,231.456582 446.678109,229.780945 456.731927,237.786764 C466.7392,245.839127 468.368291,260.500945 460.362473,270.554764 L274.180655,503.282036 C269.572655,509.007127 262.823564,511.986036 255.981382,511.986036" id="Fill-3"></path>
            </g>
        </g>
    </g>
</svg>