<?xml version="1.0" encoding="UTF-8" standalone="no"?>
<svg width="512px" height="512px" viewBox="0 0 512 512" version="1.1" xmlns="http://www.w3.org/2000/svg" xmlns:xlink="http://www.w3.org/1999/xlink">
    <!-- Generator: Sketch 39.1 (31720) - http://www.bohemiancoding.com/sketch -->
    <title>help</title>
    <desc>Created with Sketch.</desc>
    <defs></defs>
    <g id="Page-1" stroke="none" stroke-width="1" fill="none" fill-rule="evenodd">
        <g id="help" fill="#000000">
            <path d="M108.63052,147.41133 L108.685726,146.174659 C108.682941,145.332804 108.746368,143.591301 108.949661,141.10792 C109.292517,136.919668 109.920641,132.240708 110.904805,127.201298 C113.699358,112.891795 118.748358,98.616771 126.567197,85.3738623 C149.080564,47.2425638 189.880796,24.3809524 255.577655,24.3809524 C350.722017,24.3809524 403.368236,71.8931508 403.368236,140.190476 C403.368236,180.312854 393.873128,197.819725 366.368886,219.858348 C364.638903,221.24455 346.060715,235.592025 340.062333,240.539778 L341.115146,239.761673 C333.744393,244.625474 327.068656,249.754659 321.062083,255.122231 C303.949103,270.414669 292.839785,287.027506 286.684556,303.852833 C282.765769,314.564844 281.452508,323.428593 281.548119,329.47205 C281.550912,329.622049 293.863912,329.348854 293.863912,329.348854 L281.622615,328.009264 C281.569658,328.483394 280.821531,329.142857 280.173345,329.142857 L218.666091,329.142857 C218.492101,328.215301 218.466187,327.785967 218.441585,327.196215 C218.235985,322.267726 218.409925,315.851782 219.26336,308.537751 C220.511817,297.838336 223.009793,287.344848 227.004689,277.643412 C233.269019,262.43075 242.751845,250.262707 256.028542,241.905743 C325.823712,203.549991 353.701614,153.880721 314.693889,102.400001 C292.190392,72.700853 236.25896,70.2359645 204.984408,93.9402773 C199.291551,98.2551353 194.316269,103.105547 190.019772,108.389548 C179.064692,121.862534 174.062987,135.378127 172.62714,145.044094 L184.812014,146.817442 L172.909133,143.686992 C172.605325,144.818757 170.669287,146.285714 169.330403,146.285714 L107.82315,146.285714 C108.174793,146.285714 108.686496,146.829573 108.63052,147.41133 L108.63052,147.41133 Z M169.330403,170.666667 C181.814831,170.666667 193.537575,161.784212 196.714895,149.947891 L196.996888,148.590789 C197.166363,147.4499 197.790932,144.884776 199.084169,141.390193 C201.314672,135.362935 204.62682,129.310998 209.208606,123.676139 C212.292525,119.883415 215.861383,116.404128 219.959729,113.297818 C241.08049,97.2894954 281.377491,99.0653773 294.988475,117.02857 C322.407885,153.215528 302.662353,188.395583 243.438596,220.962655 C224.91132,232.599169 212.27942,248.807999 204.194865,268.440999 C195.59082,289.335559 193.09994,310.682675 193.830794,328.202096 C193.867652,329.085622 193.903199,329.674591 193.938534,330.143557 C193.759224,342.493568 205.0687,353.52381 218.666091,353.52381 L280.173345,353.52381 C293.348473,353.52381 304.669226,343.54471 306.105208,330.688444 L306.173917,328.972288 C306.165325,328.361042 306.257874,326.838421 306.583574,324.640133 C307.138502,320.894692 308.182854,316.696489 309.844688,312.153862 C314.646222,299.028858 323.497024,285.793402 337.568219,273.219151 C342.675578,268.655132 348.400544,264.256453 354.77839,260.047851 L355.831204,259.269745 C361.458589,254.628007 379.844636,240.428919 381.867148,238.808319 C414.851164,212.378857 428,188.135325 428,140.190476 C428,57.8995662 363.843985,4.71623485e-09 255.577655,0 C181.181358,2.24363681e-09 132.258801,27.4127965 105.300726,73.0721776 C95.9696701,88.8763566 90.0122791,105.719671 86.7207382,122.574001 C84.7105966,132.866927 84.036765,141.098316 84.054247,146.283891 C84.054368,146.314364 96.3701157,146.255564 96.3701157,146.255564 L84.109711,145.099797 C82.7753931,158.967485 93.7828619,170.666667 107.82315,170.666667 L169.330403,170.666667 L169.330403,170.666667 Z M318.003119,451.047619 C318.003119,417.384549 290.433078,390.095238 256.42371,390.095238 C222.414342,390.095238 194.844301,417.384549 194.844301,451.047619 C194.844301,484.710689 222.414342,512 256.42371,512 C290.433078,512 318.003119,484.710689 318.003119,451.047619 L318.003119,451.047619 Z M219.476065,451.047619 C219.476065,430.849777 236.01809,414.47619 256.42371,414.47619 C276.829331,414.47619 293.371356,430.849777 293.371356,451.047619 C293.371356,471.245461 276.829331,487.619048 256.42371,487.619048 C236.01809,487.619048 219.476065,471.245461 219.476065,451.047619 L219.476065,451.047619 Z" id="icon-help"></path>
        </g>
    </g>
</svg>