<svg width="512" height="512" viewBox="0 0 512 512" fill="none" xmlns="http://www.w3.org/2000/svg">
<path d="M256 469.333C372.706 469.333 469.333 372.706 469.333 256C469.333 139.503 372.497 42.6665 255.791 42.6665C139.294 42.6665 42.6667 139.503 42.6667 256C42.6667 372.706 139.503 469.333 256 469.333ZM252.026 301.385C240.732 301.385 234.458 295.529 234.458 284.235V281.307C234.458 259.765 246.17 248.052 261.856 237.176C281.307 224 290.51 216.47 290.51 201.412C290.51 184.889 277.543 173.595 257.464 173.595C242.824 173.595 231.739 180.915 225.046 192.836C217.935 201.202 216.052 207.686 203.503 207.686C196.183 207.686 188.445 202.457 188.445 192.627C188.445 188.863 189.072 185.307 190.118 181.751C195.765 161.464 221.072 143.895 258.719 143.895C296.157 143.895 328.575 163.346 328.575 199.738C328.575 226.091 313.307 238.64 292.183 253.072C276.915 263.32 269.595 270.85 269.595 283.189V285.908C269.595 294.484 263.111 301.385 252.026 301.385ZM252.654 364.34C240.732 364.34 229.229 354.719 229.229 341.751C229.229 328.784 240.523 319.163 252.654 319.163C264.994 319.163 276.288 328.575 276.288 341.751C276.288 354.928 264.784 364.34 252.654 364.34Z" fill="#A7A7A7"/>
</svg>
