<?xml version="1.0" encoding="UTF-8" standalone="no"?>
<svg viewBox="0 0 512 512" version="1.1" xmlns="http://www.w3.org/2000/svg" xmlns:xlink="http://www.w3.org/1999/xlink" xmlns:sketch="http://www.bohemiancoding.com/sketch/ns">
    <!-- Generator: Sketch 3.3.3 (12072) - http://www.bohemiancoding.com/sketch -->
    <title>512</title>
    <desc>Created with Sketch.</desc>
    <defs></defs>
    <g id="Page-1" stroke="none" stroke-width="1" fill="none" fill-rule="evenodd" sketch:type="MSPage">
        <g id="512" sketch:type="MSArtboardGroup" fill="#000000">
            <path d="M256,512 C397.384896,512 512,397.384896 512,256 C512,114.615104 397.384896,0 256,0 C114.615104,0 0,114.615104 0,256 C0,397.384896 114.615104,512 256,512 L256,512 Z M256,480 C379.711784,480 480,379.711776 480,256 C480,132.288224 379.711784,32 256,32 C132.288216,32 32,132.288224 32,256 C32,379.711776 132.288216,480 256,480 L256,480 Z M288,96 L256,96 L256,272 L128,272 L128,304 L288,304 L288,96 L288,96 Z" id="icon-history" sketch:type="MSShapeGroup"></path>
        </g>
    </g>
</svg>