<svg id="Layer_1" data-name="Layer 1" xmlns="http://www.w3.org/2000/svg" viewBox="0 0 512 512">
  <title>home-screens</title>
  <path d="M477.86,375H34.14A34.17,34.17,0,0,1,0,340.87V34.13A34.17,34.17,0,0,1,34.14,0H477.86A34.17,34.17,0,0,1,512,34.13V340.87A34.17,34.17,0,0,1,477.86,375ZM34.14,17.06A17.08,17.08,0,0,0,17.08,34.13V340.87a17.08,17.08,0,0,0,17.06,17.06H477.86a17.08,17.08,0,0,0,17.06-17.06V34.13a17.08,17.08,0,0,0-17.06-17.06Z"/>
  <polygon points="204.81 357.95 136.53 357.95 136.53 340.9 204.8 340.9 204.81 357.95"/>
  <polygon points="119.47 357.93 119.46 306.81 51.19 306.81 51.19 357.93 68.27 357.93 68.27 323.93 102.4 323.93 102.4 357.93 119.47 357.93"/>
  <path d="M307.2,272.73v68.2h68.27v-68.2Zm51.2,51.13H324.27v-34H358.4Z"/>
  <path d="M204.8,238.65H136.53v85.21h68.28ZM187.73,306.8H153.6V255.72h34.13Z"/>
  <path d="M221.86,204.54V323.86h68.27V204.54Zm51.2,102.25H238.93V221.62h34.12Z"/>
  <path d="M392.54,238.65v68.14H460.8V238.65Zm51.19,51.07H409.6v-34h34.12Z"/>
  <path d="M51.19,204.55v85.17h68.27V204.55Zm51.21,68.1H68.26v-51H102.4Z"/>
  <path d="M307.2,119.31V255.65h68.26V119.31Zm51.19,119.27H324.26V136.39h34.12Z"/>
  <path d="M136.53,119.32V221.58H204.8V119.32Zm51.2,85.19H153.6V136.4h34.13Z"/>
  <path d="M392.54,119.31V221.57H460.8V119.31Zm51.19,85.19H409.6V136.39h34.12Z"/>
  <path d="M51.19,119.31V187.5h68.27V119.31Zm51.21,51.12H68.26v-34H102.4Z"/>
  <path d="M221.86,119.32V187.5h68.27V119.32Zm51.2,51.11H238.93v-34h34.12Z"/>
  <polygon points="221.87 357.95 290.13 357.95 290.13 340.91 221.87 340.91 221.87 357.95"/>
  <polygon points="392.54 323.87 392.54 357.96 409.6 357.96 409.61 340.93 443.73 340.93 443.73 357.96 460.8 357.96 460.8 323.87 392.54 323.87"/>
  <polygon points="51.2 51.14 68.27 51.14 68.27 34.09 51.2 34.09 51.2 51.14"/>
  <polygon points="85.33 51.14 102.4 51.14 102.4 34.09 85.33 34.09 85.33 51.14"/>
  <polygon points="119.47 51.14 136.53 51.14 136.53 34.09 119.47 34.09 119.47 51.14"/>
  <polygon points="17.07 85.23 494.93 85.23 494.93 68.18 17.07 68.18 17.07 85.23"/>
</svg>
