<?xml version="1.0" encoding="UTF-8" standalone="no"?>
<svg width="512px" height="512px" viewBox="0 0 512 512" version="1.1" xmlns="http://www.w3.org/2000/svg" xmlns:xlink="http://www.w3.org/1999/xlink">
    <!-- Generator: Sketch 39.1 (31720) - http://www.bohemiancoding.com/sketch -->
    <title>icon-hubspot</title>
    <desc>Created with Sketch.</desc>
    <defs></defs>
    <g id="Page-1" stroke="none" stroke-width="1" fill="none" fill-rule="evenodd">
        <g id="icon-hubspot" fill="#000000">
            <g id="hubspot" transform="translate(28.000000, 0.000000)">
                <path d="M326.783298,236.606518 C338.009192,236.606518 348.638333,239.19332 358.668556,244.364745 C368.884727,249.880495 377.234958,257.592957 383.710603,267.506488 C389.993816,277.4222 393.73434,288.205263 394.936496,299.855678 C395.124603,302.276855 395.224063,304.671881 395.224063,307.042934 C395.224063,322.85359 389.228416,337.408982 377.234958,350.704752 C363.462048,366.131855 347.630769,374.356447 329.734636,375.369808 L326.783298,375.369808 C316.562805,375.369808 306.56285,372.787368 296.774788,367.607227 C285.739163,361.904057 276.787853,353.901751 269.927344,343.602487 C262.83116,333.490641 258.989016,322.585539 258.416045,310.88282 L258.416045,307.330599 C258.416045,295.821836 261.170627,284.912375 266.692764,274.610932 C272.593277,263.348428 280.84405,254.232512 291.445082,247.269721 C301.853683,240.352696 313.252549,236.798294 325.630871,236.606518 L326.783298,236.606518 L326.783298,236.606518 L326.783298,236.606518 Z M327.431944,179.2 C304.822318,179.2 283.879712,184.351811 264.58899,194.661971 C244.720973,205.163908 228.906992,219.732375 217.149208,238.367374 C205.346019,257.196328 199.155778,277.912537 198.580645,300.511641 L198.580645,305.227596 C198.580645,321.090555 201.11685,336.064368 206.21088,350.13596 C211.918962,365.763555 220.571895,379.619401 232.161031,391.712208 C243.750167,403.805019 257.503617,413.321922 273.445165,420.26074 C289.378065,427.203917 306.962849,430.963171 326.206003,431.542857 L329.734636,431.542857 C351.010213,431.542857 371.081474,426.395403 389.946249,416.093963 C409.827238,405.206294 425.654193,390.260809 437.411976,371.253157 C449.225977,352.191018 455.422704,331.078182 456,307.908107 L456,306.750911 C456,283.957851 450.499485,262.927827 439.500618,243.663017 C428.309315,224.254375 412.875874,208.696516 393.193803,196.980722 C373.312814,185.31941 351.777777,179.391777 328.580047,179.2 L327.431944,179.2 L327.431944,179.2 L327.431944,179.2 Z" id="Fill-1"></path>
                <path d="M268.451613,194.627912 C245.993729,177.354669 153.78684,106.521251 100.822943,65.8351097 C102.027895,61.4249662 102.89166,56.8814471 102.89166,52.0799228 C102.89166,23.3145059 79.8528938,0 51.4307139,0 C23.0106935,0 0,23.3145059 0,52.0799228 C0,80.8453394 23.0106935,104.168591 51.4307139,104.168591 C61.1243141,104.168591 70.0901923,101.297735 77.8252059,96.5771103 L88.572599,104.837656 L238.386121,214.131372 L268.451613,194.627912 L268.451613,194.627912 L268.451613,194.627912 Z M252.41582,401.843427 C258.261348,406.988229 259.414474,405.831578 259.414474,405.831578 L252.41582,401.843427 L252.41582,401.843427 Z" id="Fill-2"></path>
                <polyline id="Fill-3" points="158.129032 454.226615 183.119451 479.085714 257.419355 405.197623 232.424577 380.342857 158.129032 454.226615"></polyline>
                <path d="M133.205322,443.325173 C125.560629,450.925118 121.354839,461.02487 121.354839,471.771429 C121.361431,482.517987 125.560629,492.615552 133.205322,500.211127 C140.843423,507.813255 150.997528,512 161.806452,512 C172.613178,512 182.771677,507.813255 190.414173,500.211127 C198.045683,492.615552 202.258065,482.511429 202.258065,471.771429 C202.258065,461.02487 198.045683,450.925118 190.414173,443.33173 C182.771677,435.740526 172.613178,431.542857 161.806452,431.542857 C151.006317,431.542857 140.843423,435.740526 133.205322,443.325173" id="Fill-4"></path>
                <path d="M347.98636,186.514286 L347.98636,120.03071 C363.949386,112.572171 375.096774,96.0568327 375.096774,76.793728 C375.096774,50.5340976 354.508426,29.2571429 329.127963,29.2571429 C303.728254,29.2571429 283.16129,50.5340976 283.16129,76.793728 C283.16129,96.0568327 294.308679,112.572171 310.254598,120.03071 L310.254598,186.514286 L347.98636,186.514286" id="Fill-5"></path>
            </g>
        </g>
    </g>
</svg>