<?xml version="1.0" encoding="UTF-8" standalone="no"?>
<svg width="512px" height="512px" viewBox="0 0 512 512" version="1.1" xmlns="http://www.w3.org/2000/svg" xmlns:xlink="http://www.w3.org/1999/xlink" xmlns:sketch="http://www.bohemiancoding.com/sketch/ns">
    <!-- Generator: Sketch 3.5.2 (25235) - http://www.bohemiancoding.com/sketch -->
    <title>ibook</title>
    <desc>Created with Sketch.</desc>
    <defs></defs>
    <g id="Page-1" stroke="none" stroke-width="1" fill="none" fill-rule="evenodd" sketch:type="MSPage">
        <g id="ibook" sketch:type="MSArtboardGroup" fill="#000000">
            <g id="icon-book" sketch:type="MSLayerGroup" transform="translate(0.000000, 44.000000)">
                <path d="M388.332661,0 C291.951759,0 272.571613,64.6550619 272.571613,64.6550619 C268.205091,73.7821542 264.665327,89.3924757 264.665327,99.5513215 L264.665327,416.036625 C264.665327,426.182203 267.35327,426.639219 271.465403,417.374616 C271.465403,417.374616 287.954666,346.877946 388.332661,346.877946 C453.811812,346.877946 496.321488,376.934332 496.321488,376.934332 C504.980493,382.018146 512,377.891759 512,367.76209 L512,90.1241406 C512,79.9746332 508.420599,64.3388923 503.157873,55.7347426 C503.157873,55.7347426 484.713567,0 388.332661,0 L388.332661,0 Z M123.667338,0 C220.048241,0 239.026115,60.505707 239.026115,60.505707 C243.614807,69.499898 247.334673,85.0182337 247.334673,95.2029001 L247.334673,415.995051 C247.334673,426.163594 244.707081,426.624727 240.687139,417.317594 C240.687139,417.317594 224.045334,344.951375 123.667338,344.951375 C58.1881865,344.951375 15.037171,379.828264 15.037171,379.828264 C6.73237087,385.441837 0,381.774625 0,371.604796 L0,85.7445819 C0,75.5893109 3.76551615,60.0844788 9.33199186,51.6496599 C9.33199186,51.6496599 27.286433,0 123.667338,0 L123.667338,0 Z" id="path" sketch:type="MSShapeGroup"></path>
            </g>
        </g>
    </g>
</svg>