<?xml version="1.0" encoding="UTF-8" standalone="no"?>
<svg width="512px" height="512px" viewBox="0 0 512 512" version="1.1" xmlns="http://www.w3.org/2000/svg" xmlns:xlink="http://www.w3.org/1999/xlink">
    <!-- Generator: Sketch 39.1 (31720) - http://www.bohemiancoding.com/sketch -->
    <title>icon-indent</title>
    <desc>Created with Sketch.</desc>
    <defs></defs>
    <g id="Page-1" stroke="none" stroke-width="1" fill="none" fill-rule="evenodd">
        <g id="icon-indent" fill="#222222">
            <path d="M76.8,281.333333 L76.8,332 L153.6,256 L76.8,180 L76.8,230.666667 L0,230.666667 L0,281.333333 L76.8,281.333333 L76.8,281.333333 Z M128,104 L512,104 L512,142 L128,142 L128,104 L128,104 Z M204.8,281.333333 L512,281.333333 L512,319.333333 L204.8,319.333333 L204.8,281.333333 L204.8,281.333333 Z M204.8,192.666667 L512,192.666667 L512,230.666667 L204.8,230.666667 L204.8,192.666667 L204.8,192.666667 Z M128,370 L512,370 L512,408 L128,408 L128,370 L128,370 Z" id="indent"></path>
        </g>
    </g>
</svg>