<?xml version="1.0" encoding="UTF-8" standalone="no"?>
<svg width="512px" height="512px" viewBox="0 0 512 512" version="1.1" xmlns="http://www.w3.org/2000/svg" xmlns:xlink="http://www.w3.org/1999/xlink">
    <!-- Generator: Sketch 39.1 (31720) - http://www.bohemiancoding.com/sketch -->
    <title>icon</title>
    <desc>Created with Sketch.</desc>
    <defs></defs>
    <g id="Page-1" stroke="none" stroke-width="1" fill="none" fill-rule="evenodd">
        <g id="icon" fill="#000000">
            <path d="M256,512 C397.384892,512 512,397.384895 512,256 C512,114.615105 397.384892,0 256,0 C114.615108,0 0,114.615105 0,256 C0,397.384895 114.615108,512 256,512 L256,512 Z M256,477.866667 C378.533581,477.866667 477.866667,378.533576 477.866667,256 C477.866667,133.466424 378.533581,34.1333333 256,34.1333333 C133.466419,34.1333333 34.1333333,133.466424 34.1333333,256 C34.1333333,378.533576 133.466419,477.866667 256,477.866667 L256,477.866667 Z M209.454541,197.818182 L209.454541,209.454546 L232.727279,209.454546 L232.727279,384 L209.454541,384 L209.454541,395.636364 L302.545459,395.636364 L302.545459,384 L279.272721,384 L279.272721,197.818182 L209.454541,197.818182 L209.454541,197.818182 Z M250.18182,162.90909 C266.248277,162.90909 279.272721,149.884648 279.272721,133.818182 C279.272721,117.751716 266.248277,104.727272 250.18182,104.727272 C234.115345,104.727272 221.090901,117.751716 221.090901,133.818182 C221.090901,149.884648 234.115345,162.90909 250.18182,162.90909 L250.18182,162.90909 Z" id="icon-info"></path>
        </g>
    </g>
</svg>