<?xml version="1.0" encoding="UTF-8" standalone="no"?>
<svg width="512px" height="512px" viewBox="0 0 512 512" version="1.1" xmlns="http://www.w3.org/2000/svg" xmlns:xlink="http://www.w3.org/1999/xlink">
    <!-- Generator: Sketch 39.1 (31720) - http://www.bohemiancoding.com/sketch -->
    <title>icon-settings</title>
    <desc>Created with Sketch.</desc>
    <defs></defs>
    <g id="Page-1" stroke="none" stroke-width="1" fill="none" fill-rule="evenodd">
        <g id="icon-settings" fill="#F06731">
            <g id="icon-pad" transform="translate(78.000000, 0.000000)">
                <path d="M11.3870968,489.256168 C11.3870968,495.508657 16.4959898,500.622222 22.7538543,500.622222 L330.246146,500.622222 C336.524795,500.622222 341.612903,495.53584 341.612903,489.256168 L341.612903,22.7438322 C341.612903,16.4913429 336.50401,11.3777778 330.246146,11.3777778 L22.7538543,11.3777778 C16.4752048,11.3777778 11.3870968,16.4641602 11.3870968,22.7438322 L11.3870968,489.256168 L11.3870968,489.256168 Z M22.7538543,0 L330.246146,0 C342.812753,0 353,10.2273941 353,22.7438322 L353,489.256168 C353,501.817239 342.816091,512 330.246146,512 L22.7538543,512 C10.1872476,512 0,501.772606 0,489.256168 L0,22.7438322 C0,10.1827605 10.1839094,0 22.7538543,0 L22.7538543,0 Z" id="Rectangle-3"></path>
                <path d="M0,68.2666667 L11.3870968,56.8888889 L11.3870968,455.111111 L0,443.733333 L353,443.733333 L341.612903,455.111111 L341.612903,56.8888889 L353,68.2666667 L0,68.2666667 L0,68.2666667 Z M353,56.8888889 L353,455.111111 L0,455.111111 L0,56.8888889 L353,56.8888889 L353,56.8888889 Z" id="Rectangle-3"></path>
                <ellipse id="Oval-2" cx="176.5" cy="477.866667" rx="11.3870968" ry="11.3777778"></ellipse>
            </g>
        </g>
    </g>
</svg>