<?xml version="1.0" encoding="UTF-8" standalone="no"?>
<svg width="512px" height="512px" viewBox="0 0 512 512" version="1.1" xmlns="http://www.w3.org/2000/svg" xmlns:xlink="http://www.w3.org/1999/xlink">
    <!-- Generator: Sketch 39.1 (31720) - http://www.bohemiancoding.com/sketch -->
    <title>icon-jive</title>
    <desc>Created with Sketch.</desc>
    <defs></defs>
    <g id="Page-1" stroke="none" stroke-width="1" fill="none" fill-rule="evenodd">
        <g id="icon-jive" fill="#000000">
            <g id="jive-overlay" transform="translate(0.000000, 136.000000)">
                <path d="M511.581124,94.4564409 L408.585122,101.33815 C408.585122,101.33815 409.730944,118.759315 429.912573,125.940138 C451.549434,133.637754 481.623657,124.884104 481.623657,124.884104 L507.809306,158.582708 C507.809306,158.582708 488.249148,169.028724 449.707841,169.405618 C399.468971,169.896313 361.588941,140.981966 358.55907,89.970776 C358.128657,82.7273134 358.577644,75.5287421 359.833856,68.5379317 C425.14566,66.6936587 469.033956,61.7888154 469.033956,61.7888154 C469.033956,61.7888154 469.773247,47.9058573 457.198401,40.9108737 C450.001328,36.9085942 438.345691,35.924597 433.291659,36.4810638 C430.185893,36.82194 404.7942,39.524405 369.15221,41.8859965 C382.284308,17.7016172 406.738753,0.301329106 438.591414,0.00482745798 C487.074136,-0.448803602 504.669045,31.1523466 510.287761,59.1583872 C513.123922,73.2898244 511.581124,94.4564409 511.581124,94.4564409 L511.581124,94.4564409 L511.581124,94.4564409 Z M305.50724,2.82352864 L274.278866,98.7078094 L264.013102,67.2863176 C245.393132,66.7974178 227.51207,66.0593952 210.488889,65.1423157 L249.475004,166.588235 L296.891614,166.588235 L361.244444,2.82352864 L305.50724,2.82352864 L305.50724,2.82352864 L305.50724,2.82352864 Z M245.026526,2.82352864 L187.733333,2.82352864 L203.722849,44.4829801 C221.562123,44.9220841 240.033155,45.176998 258.844444,45.17647 L245.026526,2.82352864 L245.026526,2.82352864 L245.026526,2.82352864 Z M162.133333,42.3529405 L162.133333,2.82352864 L110.933333,2.82352864 L110.933333,39.7375871 C126.675908,40.6994252 143.878164,41.6059928 162.133333,42.3529405 L162.133333,42.3529405 L162.133333,42.3529405 Z M110.933333,56.4705876 L110.933333,163.764706 L162.133333,163.764706 L162.133333,61.2110394 C143.533451,59.7517349 126.389604,58.1264352 110.933333,56.4705876 L110.933333,56.4705876 L110.933333,56.4705876 Z M76.8,36.7058817 L76.8,2.82352864 L25.6,2.82352864 L25.6,32.3361791 C34.7335822,33.2402026 52.6680263,34.9166365 76.8,36.7058817 L76.8,36.7058817 L76.8,36.7058817 Z M76.79552,52.944742 C50.5154788,49.552054 32.4987164,46.547158 24.7107812,45.17647 L24.7107812,170.750278 C24.7107812,170.750278 25.4635804,181.00879 19.5563122,187.954546 C11.549275,197.367848 -3.23375894e-13,198.681814 -3.23375894e-13,198.681814 L18.9271239,240 C18.9271239,240 29.829174,238.069276 40.5275051,233.075904 C53.7903388,226.88666 62.9862571,220.338497 70.0972572,207.920815 C77.2087893,195.503133 76.79552,181.643599 76.79552,181.643599 L76.79552,52.944742 L76.79552,52.944742 L76.79552,52.944742 Z" id="JiveOverlay"></path>
            </g>
        </g>
    </g>
</svg>