<svg id="Layer_1" data-name="Layer 1" xmlns="http://www.w3.org/2000/svg" viewBox="0 0 512 512">
  <title>security</title>
  <path d="M256,512A256,256,0,0,1,75,75,256,256,0,0,1,437,437,254.32,254.32,0,0,1,256,512Zm0-492.3A236.31,236.31,0,0,0,88.91,423.09,236.31,236.31,0,1,0,423.09,88.91,234.76,234.76,0,0,0,256,19.7ZM192,384.17l6.32-24.74c4.22-16.61,8.27-33.53,12-50.27,3.11-14,5.35-25.12,6.63-33.17l.12-.74A78.74,78.74,0,0,1,256,128h0a78.75,78.75,0,0,1,42,145.39l.23,1.29c2.08,11.32,4.37,22.78,6.8,34,3.33,15.63,6.79,31.39,10.3,46.86q.43,1.88.86,3.76l5.46,23.93ZM256,147.7h0a59.05,59.05,0,0,0-24.17,112.94l6.44,2.89-.67,7c-.22,2.26-.6,5.13-1.14,8.53-1.35,8.46-3.66,20-6.86,34.38-3.81,16.93-7.9,34-12.17,50.83h0l79.53-.54h0c-.29-1.26-.58-2.54-.87-3.82-3.52-15.55-7-31.39-10.35-47.08-2.46-11.44-4.79-23.1-6.91-34.63-.52-2.85-1-5.72-1.42-8.56l-1-7,6.33-3.21A59.05,59.05,0,0,0,256,147.7Z"/>
</svg>
