<?xml version="1.0" encoding="UTF-8" standalone="no"?>
<svg width="512px" height="512px" viewBox="0 0 512 512" version="1.1" xmlns="http://www.w3.org/2000/svg" xmlns:xlink="http://www.w3.org/1999/xlink" xmlns:sketch="http://www.bohemiancoding.com/sketch/ns">
    <!-- Generator: Sketch 3.5.2 (25235) - http://www.bohemiancoding.com/sketch -->
    <title>keynote</title>
    <desc>Created with Sketch.</desc>
    <defs></defs>
    <g id="Page-1" stroke="none" stroke-width="1" fill="none" fill-rule="evenodd" sketch:type="MSPage">
        <g id="keynote" sketch:type="MSArtboardGroup" fill="#000000">
            <g id="icon-keynote" sketch:type="MSLayerGroup" transform="translate(44.000000, 0.000000)">
                <path d="M395.00264,68.2666667 L28.99736,68.2666667 C24.51568,68.2666667 20.82688,71.8890667 20.61064,76.4970667 L12.72848,246.946133 C12.50376,251.874133 16.31976,256 21.11096,256 L402.88904,256 C407.68024,256 411.50048,251.874133 411.27152,246.946133 L403.38936,76.4970667 C403.17312,71.8890667 399.48432,68.2666667 395.00264,68.2666667" id="Fill-4" sketch:type="MSShapeGroup"></path>
                <path d="M415.52,281.6 L8.48,281.6 C3.7948,281.6 0,277.781333 0,273.066667 C0,268.352 3.7948,264.533333 8.48,264.533333 L415.52,264.533333 C420.2052,264.533333 424,268.352 424,273.066667 C424,277.781333 420.2052,281.6 415.52,281.6" id="Fill-5" sketch:type="MSShapeGroup"></path>
                <path d="M212,512 L212,512 C207.3148,512 203.52,508.181333 203.52,503.466667 L203.52,307.2 C203.52,302.485333 207.3148,298.666667 212,298.666667 C216.6852,298.666667 220.48,302.485333 220.48,307.2 L220.48,503.466667 C220.48,508.181333 216.6852,512 212,512" id="Fill-6" sketch:type="MSShapeGroup"></path>
                <path d="M309.52,512 L114.48,512 C109.7948,512 106,508.181333 106,503.466667 C106,498.752 109.7948,494.933333 114.48,494.933333 L309.52,494.933333 C314.2052,494.933333 318,498.752 318,503.466667 C318,508.181333 314.2052,512 309.52,512" id="Fill-7" sketch:type="MSShapeGroup"></path>
                <path d="M139.92,21.3333333 C139.92,9.55306667 157.00296,0 178.08,0 C199.15704,0 216.24,9.55306667 216.24,21.3333333 C216.24,33.1136 199.15704,42.6666667 178.08,42.6666667 C157.00296,42.6666667 139.92,33.1136 139.92,21.3333333" id="Fill-8" sketch:type="MSShapeGroup"></path>
                <path d="M177.63904,17.0666667 L76.32,17.0666667 C69.29432,17.0666667 63.6,22.7968 63.6,29.8666667 L63.6,72.5333333 L72.08,72.5333333 L72.08,29.8666667 C72.08,27.5114667 73.97952,25.6 76.32,25.6 L177.63904,25.6 L177.63904,17.0666667" id="Fill-9" sketch:type="MSShapeGroup"></path>
            </g>
        </g>
    </g>
</svg>