<?xml version="1.0" encoding="UTF-8"?>
<svg xmlns="http://www.w3.org/2000/svg" viewBox="0 0 512 512">
  <path d="M418.9,256h23.28V360.76a81.45,81.45,0,0,1-81.44,81.42H151.26a81.46,81.46,0,0,1-81.44-81.44V151.26a81.41,81.41,0,0,1,81.45-81.44H256V93.09H151.27a58.14,58.14,0,0,0-58.18,58.1V360.74a58.19,58.19,0,0,0,58.17,58.17H360.74a58.18,58.18,0,0,0,58.17-58.15V256Z"/>
  <polygon points="337.46 23.27 337.46 46.54 449 46.54 251.18 244.36 267.64 260.82 465.46 63 465.46 174.54 488.73 174.54 488.73 23.27 337.46 23.27"/>
</svg>