<?xml version="1.0" encoding="UTF-8"?>
<svg width="500px" height="428px" viewBox="0 0 500 428" version="1.1" xmlns="http://www.w3.org/2000/svg" xmlns:xlink="http://www.w3.org/1999/xlink">
    <!-- Generator: Sketch 46.1 (44463) - http://www.bohemiancoding.com/sketch -->
    <title>Icon</title>
    <desc>Created with Sketch.</desc>
    <defs>
        <polygon id="path-1" points="0 427.051802 500 427.051802 500 0.00225225225 0 0.00225225225"></polygon>
    </defs>
    <g id="Page-1" stroke="none" stroke-width="1" fill="none" fill-rule="evenodd">
        <g id="learning" transform="translate(-6.000000, -42.000000)">
            <g id="Icon" transform="translate(6.000000, 42.000000)">
                <mask id="mask-2" fill="white">
                    <use xlink:href="#path-1"></use>
                </mask>
                <g id="Clip-2"></g>
                <path d="M27.027027,315.322072 L472.972973,315.322072 L472.972973,27.0337838 L27.027027,27.0337838 L27.027027,315.322072 Z M486.486486,0.00675675676 L13.6081081,0.00675675676 C13.2297297,-0.00225225225 12.8108108,-0.00675675676 12.2477477,0.0247747748 C5.22972973,0.686936937 -0.036036036,6.49774775 0,13.5202703 L0,328.835586 C0,336.286036 6.06306306,342.349099 13.5135135,342.349099 L486.486486,342.349099 C493.927928,342.349099 499.990991,336.290541 500,328.835586 L500,13.5157658 C499.990991,6.06531532 493.927928,0.00675675676 486.486486,0.00675675676 L486.486486,0.00675675676 Z" id="Fill-1" fill="#777777" mask="url(#mask-2)"></path>
                <path d="M333.544144,427.052703 L166.454054,427.052703 C159.003604,427.052703 152.940541,420.985135 152.940541,413.539189 C152.940541,406.088739 159.003604,400.025676 166.454054,400.025676 L197.909009,400.025676 L197.909009,364.741892 C197.909009,357.286937 203.967568,351.228378 211.422523,351.228378 C218.872973,351.228378 224.936036,357.286937 224.936036,364.741892 L224.936036,400.025676 L275.066667,400.025676 L275.066667,364.741892 C275.066667,357.286937 281.125225,351.228378 288.58018,351.228378 C296.030631,351.228378 302.093694,357.286937 302.093694,364.741892 L302.093694,400.025676 L333.544144,400.025676 C340.994595,400.025676 347.057658,406.088739 347.057658,413.539189 C347.057658,420.985135 340.994595,427.052703 333.544144,427.052703" id="Fill-3" fill="#777777" mask="url(#mask-2)"></path>
                <path d="M249.997297,183.886486 L137.866667,139.94955 L249.997297,95.872973 L362.127928,139.94955 L249.997297,183.886486 Z M331.078378,216.224324 C330.695495,216.706306 329.907207,217.566667 328.416216,218.706306 C324.722523,221.512613 318.835135,224.431532 311.83964,226.913514 C294.623423,233.030631 272.087387,236.53964 249.997297,236.53964 C227.911712,236.53964 205.375676,233.030631 188.159459,226.913514 C181.163964,224.431532 175.276577,221.512613 171.582883,218.706306 C170.091892,217.566667 169.303604,216.706306 168.920721,216.224324 L168.920721,177.643243 L245.537838,207.742342 C248.375676,208.890991 251.627928,208.890991 254.411712,207.764865 L331.078378,177.643243 L331.078378,216.224324 Z M399.082883,128.827928 L254.623423,72.0756757 C251.2,70.5216216 247.398198,71.2693694 245.551351,72.0081081 L100.767568,128.886486 C96.5648649,130.656757 93.8396396,134.972072 93.8396396,139.877477 C93.8396396,144.782883 96.5648649,149.098198 100.911712,150.927027 L145.073874,168.327928 L145.073874,217.458559 C145.073874,228.53964 154.132432,235.431532 157.105405,237.692793 C162.961261,242.152252 170.74955,246.125225 180.24955,249.499099 C200.001802,256.517117 224.776577,260.386486 249.997297,260.386486 C275.222523,260.386486 299.997297,256.517117 319.74955,249.499099 C329.24955,246.125225 337.037838,242.152252 342.893694,237.692793 C345.866667,235.431532 354.925225,228.53964 354.925225,217.458559 L354.920721,168.327928 L399.231532,150.868468 C403.438739,149.098198 406.159459,144.782883 406.159459,139.877477 C406.159459,134.972072 403.438739,130.656757 399.082883,128.827928 L399.082883,128.827928 Z" id="Fill-4" fill="#777777" mask="url(#mask-2)"></path>
            </g>
        </g>
    </g>
</svg>