<?xml version="1.0" encoding="UTF-8" standalone="no"?>
<svg width="512px" height="512px" viewBox="0 0 512 512" version="1.1" xmlns="http://www.w3.org/2000/svg" xmlns:xlink="http://www.w3.org/1999/xlink">
    <!-- Generator: Sketch 3.8.1 (29687) - http://www.bohemiancoding.com/sketch -->
    <title>512</title>
    <desc>Created with Sketch.</desc>
    <defs></defs>
    <g id="Page-1" stroke="none" stroke-width="1" fill="none" fill-rule="evenodd">
        <g id="512" fill="#000000">
            <g id="like-fill" transform="translate(37.000000, 15.000000)">
                <path d="M361.72177,1.91288548 C348.58332,-14.7380232 304.136838,81.5893151 240.974534,125.174689 C206.130332,149.235393 124.351931,198.624636 124.351931,226.911459 L124.351931,410.043281 C124.351931,444.1058 253.595495,482 351.343257,482 C387.136188,482 439,252.38087 439,215.895376 C439,179.297186 328.573779,179.917016 325.123858,170.394162 C321.673937,160.871307 417.754236,73.0525547 361.72177,1.91288548 Z" id="Shape"></path>
                <path d="M2.84217094e-14,251.589049 L2.84217094e-14,381.300107 C2.84217094e-14,454.137639 69.4160448,461.289063 86.6978078,461.289063 C104.00847,461.289063 55.6098897,436.201299 55.6098897,391.068495 L55.6098897,230.929367 C55.6098897,183.628612 104.00847,165.6875 86.6978078,165.6875 C69.4160448,165.6875 2.84217094e-14,178.751518 2.84217094e-14,251.589049 Z" id="Path"></path>
            </g>
        </g>
    </g>
</svg>