<?xml version="1.0" encoding="UTF-8" standalone="no"?>
<svg width="512px" height="512px" viewBox="0 0 512 512" version="1.1" xmlns="http://www.w3.org/2000/svg" xmlns:xlink="http://www.w3.org/1999/xlink">
    <!-- Generator: Sketch 3.8.1 (29687) - http://www.bohemiancoding.com/sketch -->
    <title>512</title>
    <desc>Created with Sketch.</desc>
    <defs></defs>
    <g id="Page-1" stroke="none" stroke-width="1" fill="none" fill-rule="evenodd">
        <g id="512">
            <g id="like" transform="translate(35.000000, 15.000000)">
                <path d="M361.238881,1.90970198 C348.122366,-14.7134956 303.750086,81.4535309 240.693229,124.966368 C205.907198,148.987029 124.265323,198.294077 124.265323,226.533824 L124.265323,409.360871 C124.265323,443.366702 253.29312,481.197837 350.877695,481.197837 C386.610871,481.197837 438.388099,251.960847 438.388099,215.536074 C438.388099,178.998792 328.146229,179.617591 324.702068,170.110585 C321.257906,160.603579 417.177804,72.9309778 361.238881,1.90970198 Z" id="Shape" stroke="#000000" stroke-width="28.3529412"></path>
                <path d="M2.84217094e-14,251.589049 L2.84217094e-14,381.300107 C2.84217094e-14,454.137639 69.4160448,461.289063 86.6978078,461.289063 C104.00847,461.289063 55.6098897,436.201299 55.6098897,391.068495 L55.6098897,230.929367 C55.6098897,183.628612 104.00847,165.6875 86.6978078,165.6875 C69.4160448,165.6875 2.84217094e-14,178.751518 2.84217094e-14,251.589049 Z" id="Path" fill="#000000"></path>
            </g>
        </g>
    </g>
</svg>