<?xml version="1.0" encoding="UTF-8" standalone="no"?>
<svg width="512px" height="512px" viewBox="0 0 512 512" version="1.1" xmlns="http://www.w3.org/2000/svg" xmlns:xlink="http://www.w3.org/1999/xlink">
    <!-- Generator: Sketch 3.6.1 (26313) - http://www.bohemiancoding.com/sketch -->
    <title>SearchQuicklinkOverlay</title>
    <desc>Created with Sketch.</desc>
    <defs></defs>
    <g id="Page-1" stroke="none" stroke-width="1" fill="none" fill-rule="evenodd">
        <g id="Artboard-1" fill="#000000">
            <path d="M500.696914,165.913819 C515.763635,150.848994 515.771756,126.416366 500.696914,111.34545 L400.652751,11.2983649 C385.588061,-3.76645999 361.15362,-3.76645999 346.084869,11.3003952 L229.694908,127.693425 C214.622097,142.75825 214.620067,167.198999 229.692878,182.267885 L248.982585,201.557763 L289.102982,161.432948 C284.063823,153.303627 285.0546,142.494311 292.105769,135.434958 L359.679636,67.8665792 C367.908368,59.6398042 381.253409,59.6398042 389.484171,67.8726701 L444.131235,122.520221 C452.364027,130.746996 452.364027,144.090126 444.133265,152.320962 L376.563459,219.891371 C369.504169,226.942602 358.70104,227.935419 350.571792,222.896215 L310.445304,263.023061 L329.73298,282.31294 C344.805792,297.383855 369.238202,297.373704 384.308983,282.306849 L500.696914,165.913819 Z M282.30966,329.740744 L263.017923,310.444774 L228.744737,344.718266 C233.787956,352.847587 232.799209,363.656903 225.74195,370.710165 L158.172144,438.286665 C149.943412,446.51547 136.594309,446.51547 128.365578,438.282604 L73.7185145,383.639114 C65.4897827,375.406248 65.491813,362.059057 73.7246054,353.828221 L141.288321,286.253752 C148.34355,279.20049 159.15683,278.213764 167.284048,283.259059 L201.553173,248.985568 L182.261436,229.691628 C167.192685,214.622743 142.764336,214.620713 127.695585,229.689598 L11.3056239,346.080597 C-3.7671877,361.151513 -3.76921798,385.584141 11.3035936,400.650997 L111.351817,500.694021 C126.416507,515.771028 150.855008,515.766967 165.917668,500.691991 L282.307629,384.305052 C297.378411,369.238197 297.380441,344.80963 282.30966,329.740744 Z M359.787241,190.711902 C366.241506,184.253518 366.241506,173.781231 359.789271,167.328938 L344.677884,152.217417 C338.223618,145.759033 327.749395,145.761063 321.291069,152.215386 L158.064539,315.445403 C151.612303,321.901756 151.612303,332.374043 158.064539,338.830397 L173.173895,353.937858 C179.630191,360.394211 190.104415,360.392181 196.55868,353.931767 L359.787241,190.711902 Z" id="SearchQuicklinkOverlay"></path>
        </g>
    </g>
</svg>