<?xml version="1.0" encoding="UTF-8" standalone="no"?>
<svg width="512px" height="512px" viewBox="0 0 512 512" version="1.1" xmlns="http://www.w3.org/2000/svg" xmlns:xlink="http://www.w3.org/1999/xlink" xmlns:sketch="http://www.bohemiancoding.com/sketch/ns">
    <!-- Generator: Sketch 3.5.2 (25235) - http://www.bohemiancoding.com/sketch -->
    <title>linkedin</title>
    <desc>Created with Sketch.</desc>
    <defs></defs>
    <g id="Page-1" stroke="none" stroke-width="1" fill="none" fill-rule="evenodd" sketch:type="MSPage">
        <g id="linkedin" sketch:type="MSArtboardGroup" fill="#000000">
            <path d="M0,36.6833338 C0,16.4192465 16.9365411,0 37.8318313,0 L474.16128,0 C495.05657,0 512,16.4192465 512,36.6833338 L512,475.316666 C512,495.580753 495.05657,512 474.16128,512 L37.8318313,512 C16.9365411,512 0,495.580753 0,475.316666 L0,36.6833338 L0,36.6833338 Z M78.4315695,427.677009 L155.101871,427.677009 L155.101871,196.97664 L78.4315695,196.97664 L78.4315695,427.677009 L78.4315695,427.677009 Z M116.77696,165.485231 C143.510191,165.485231 160.1536,147.756369 160.1536,125.617489 C159.655249,102.987089 143.510191,85.7565905 117.282129,85.7565905 C91.0472495,85.7565905 73.8986705,102.987089 73.8986705,125.617489 C73.8986705,147.756369 90.54208,165.485231 116.271791,165.485231 L116.77696,165.485231 L116.77696,165.485231 Z M197.536431,427.677009 L274.220369,427.677009 L274.220369,298.837329 C274.220369,291.949231 274.71872,285.054289 276.74624,280.132271 C282.289489,266.356049 294.905169,252.081489 316.08832,252.081489 C343.83872,252.081489 354.932049,273.24416 354.932049,304.25088 L354.932049,427.677009 L431.609169,427.677009 L431.609169,295.396689 C431.609169,224.535889 393.782609,191.563089 343.32672,191.563089 C301.95712,191.563089 283.798191,214.685009 273.7152,230.434129 L274.220369,230.434129 L274.220369,196.97664 L197.536431,196.97664 C198.546769,218.617169 197.536431,427.677009 197.536431,427.677009 L197.536431,427.677009 Z" id="icon-linkedin" sketch:type="MSShapeGroup"></path>
        </g>
    </g>
</svg>