<?xml version="1.0" encoding="UTF-8" standalone="no"?>
<svg viewBox="0 0 512 512" version="1.1" xmlns="http://www.w3.org/2000/svg" xmlns:xlink="http://www.w3.org/1999/xlink" xmlns:sketch="http://www.bohemiancoding.com/sketch/ns">
    <!-- Generator: Sketch 3.3.3 (12072) - http://www.bohemiancoding.com/sketch -->
    <title>512</title>
    <desc>Created with Sketch.</desc>
    <defs></defs>
    <g id="Page-1" stroke="none" stroke-width="1" fill="none" fill-rule="evenodd" sketch:type="MSPage">
        <g id="512" sketch:type="MSArtboardGroup" fill="#000000">
            <g id="list" sketch:type="MSLayerGroup" transform="translate(0.000000, 16.000000)">
                <path d="M0,0 L0,8.34782667 L0,119.652173 L0,128 L10.24,128 L501.76,128 L512,128 L512,119.652173 L512,8.34782667 L512,0 L501.76,0 L10.24,0 L0,0 Z M20.48,22.2608693 L491.520012,22.2608693 L491.520012,105.855067 L20.48,105.855067 L20.48,22.2608693 Z" id="rect3" sketch:type="MSShapeGroup"></path>
                <path d="M0,180 L0,188.347827 L0,299.652173 L0,308 L10.24,308 L501.76,308 L512,308 L512,299.652173 L512,188.347827 L512,180 L501.76,180 L10.24,180 L0,180 Z M20.48,202.260867 L491.519988,202.260867 L491.519988,285.855067 L20.48,285.855067 L20.48,202.260867 Z" id="rect3-7" sketch:type="MSShapeGroup"></path>
                <path d="M0,360 L0,368.34784 L0,479.652173 L0,488 L10.24,488 L501.76,488 L512,488 L512,479.652173 L512,368.34784 L512,360 L501.76,360 L10.24,360 L0,360 Z M20.48,382.26088 L491.52,382.26088 L491.52,465.855067 L20.48,465.855067 L20.48,382.26088 Z" id="rect3-0" sketch:type="MSShapeGroup"></path>
            </g>
        </g>
    </g>
</svg>