<svg width="512" height="512" viewBox="0 0 512 512" fill="none" xmlns="http://www.w3.org/2000/svg">
<path d="M339.056 316.992C356.03 304.792 380.692 301.43 393.196 317.846C409.364 339.074 420.903 364.451 426.179 392.241C429.749 411.046 413.209 426.667 393.237 426.667H140.097C120.124 426.667 103.584 411.046 107.154 392.241C112.431 364.451 123.97 339.073 140.139 317.845C152.642 301.429 177.305 304.791 194.278 316.991C214.428 331.475 239.161 340.159 266.668 340.159C294.173 340.159 318.906 331.475 339.056 316.992Z" fill="#A7A7A7"/>
<path d="M359.298 207.719C359.298 263.529 317.826 308.772 266.667 308.772C215.508 308.772 174.035 263.529 174.035 207.719C174.035 151.91 215.508 106.667 266.667 106.667C317.826 106.667 359.298 151.91 359.298 207.719Z" fill="#A7A7A7"/>
</svg>
