<?xml version="1.0" encoding="UTF-8" standalone="no"?>
<svg width="512px" height="512px" viewBox="0 0 512 512" version="1.1" xmlns="http://www.w3.org/2000/svg" xmlns:xlink="http://www.w3.org/1999/xlink">
    <!-- Generator: Sketch 39.1 (31720) - http://www.bohemiancoding.com/sketch -->
    <title>microphone</title>
    <desc>Created with Sketch.</desc>
    <defs></defs>
    <g id="Page-1" stroke="none" stroke-width="1" fill="none" fill-rule="evenodd">
        <g id="microphone" fill="#000000">
            <path d="M269.000982,486.396679 L269.000982,396.797291 L243.001161,396.797291 L243.001161,486.396679 L178.001607,486.396679 L178.001607,511.996504 L334.000536,511.996504 L334.000536,486.396679 L269.000982,486.396679 L269.000982,486.396679 Z M100.174123,204.798602 C100.174123,205.645793 100.043835,219.449008 100.029222,223.95135 C99.9644992,243.892735 99.9976659,254.648718 100.22671,257.148388 C107.437046,335.838422 175.166472,396.797291 256.087062,396.797291 C342.197151,396.797291 412,328.026975 412,243.198339 L412,204.798602 L386.000179,204.798602 L386.000179,243.198339 C386.000179,313.892028 327.834344,371.197465 256.087062,371.197465 C188.622056,371.197465 132.122927,320.346261 126.121358,254.848116 C126.010958,253.643259 125.972883,241.295595 126.028911,224.03316 C126.043478,219.544998 126.173945,205.722667 126.173945,204.798602 L100.174123,204.798602 L100.174123,204.798602 Z M256.001071,0 C313.438291,0 360.000357,45.8926983 360.000357,102.287952 L360.000357,243.309688 C360.000357,299.801765 313.321418,345.59764 256.001071,345.59764 C198.563852,345.59764 152.001786,299.704942 152.001786,243.309688 L152.001786,102.287952 C152.001786,45.795876 198.680725,0 256.001071,0 L256.001071,0 Z" id="icon-microphone-filled"></path>
        </g>
    </g>
</svg>