<?xml version="1.0" encoding="UTF-8" standalone="no"?>
<svg width="512px" height="512px" viewBox="0 0 512 512" version="1.1" xmlns="http://www.w3.org/2000/svg" xmlns:xlink="http://www.w3.org/1999/xlink">
    <!-- Generator: Sketch 39.1 (31720) - http://www.bohemiancoding.com/sketch -->
    <title>icon-mobile</title>
    <desc>Created with Sketch.</desc>
    <defs></defs>
    <g id="Page-1" stroke="none" stroke-width="1" fill="none" fill-rule="evenodd">
        <g id="icon-mobile" fill="#F06731">
            <g transform="translate(118.000000, 0.000000)">
                <path d="M14.6315789,482.726897 C14.6315789,490.783448 21.1987976,497.371429 29.2254363,497.371429 L248.774564,497.371429 C256.856799,497.371429 263.368421,490.841619 263.368421,482.726897 L263.368421,29.2731036 C263.368421,21.2165522 256.801202,14.6285714 248.774564,14.6285714 L29.2254363,14.6285714 C21.1432012,14.6285714 14.6315789,21.1583809 14.6315789,29.2731036 L14.6315789,482.726897 L14.6315789,482.726897 Z M29.2254363,0 L248.774564,0 C264.915326,0 278,13.1707687 278,29.2731036 L278,482.726897 C278,498.893985 264.964355,512 248.774564,512 L29.2254363,512 C13.0846736,512 0,498.829232 0,482.726897 L0,29.2731036 C0,13.1060149 13.0356453,0 29.2254363,0 L29.2254363,0 Z" id="Rectangle-3"></path>
                <path d="M0,87.7714286 L14.6315789,73.1428571 L14.6315789,438.857143 L0,424.228571 L278,424.228571 L263.368421,438.857143 L263.368421,73.1428571 L278,87.7714286 L0,87.7714286 L0,87.7714286 Z M278,73.1428571 L278,438.857143 L0,438.857143 L0,73.1428571 L278,73.1428571 L278,73.1428571 Z" id="Rectangle-3"></path>
                <ellipse id="Oval-2" cx="139" cy="468.114286" rx="14.6315789" ry="14.6285714"></ellipse>
            </g>
        </g>
    </g>
</svg>