<?xml version="1.0" encoding="UTF-8" standalone="no"?>
<svg width="512px" height="512px" viewBox="0 0 512 512" version="1.1" xmlns="http://www.w3.org/2000/svg" xmlns:xlink="http://www.w3.org/1999/xlink" xmlns:sketch="http://www.bohemiancoding.com/sketch/ns">
    <!-- Generator: Sketch 3.3.3 (12072) - http://www.bohemiancoding.com/sketch -->
    <title>512</title>
    <desc>Created with Sketch.</desc>
    <defs></defs>
    <g id="Page-1" stroke="none" stroke-width="1" fill="none" fill-rule="evenodd" sketch:type="MSPage">
        <g id="512" sketch:type="MSArtboardGroup" fill="#AAAAAA">
            <g id="icon-more" sketch:type="MSLayerGroup" transform="translate(0.000000, 192.000000)">
                <path d="M64,128 C99.3462187,128 128,99.346224 128,64 C128,28.653776 99.3462187,0 64,0 C28.6537813,0 0,28.653776 0,64 C0,99.346224 28.6537813,128 64,128 L64,128 Z M64,106.666667 C87.5641493,106.666667 106.666667,87.5641493 106.666667,64 C106.666667,40.4358507 87.5641493,21.3333333 64,21.3333333 C40.4358507,21.3333333 21.3333333,40.4358507 21.3333333,64 C21.3333333,87.5641493 40.4358507,106.666667 64,106.666667 L64,106.666667 Z M256,128 C291.346219,128 320,99.346224 320,64 C320,28.653776 291.346219,0 256,0 C220.653781,0 192,28.653776 192,64 C192,99.346224 220.653781,128 256,128 L256,128 Z M256,106.666667 C279.564149,106.666667 298.666667,87.5641493 298.666667,64 C298.666667,40.4358507 279.564149,21.3333333 256,21.3333333 C232.435851,21.3333333 213.333333,40.4358507 213.333333,64 C213.333333,87.5641493 232.435851,106.666667 256,106.666667 L256,106.666667 Z M448,128 C483.346219,128 512,99.346224 512,64 C512,28.653776 483.346219,0 448,0 C412.653781,0 384,28.653776 384,64 C384,99.346224 412.653781,128 448,128 L448,128 Z M448,106.666667 C471.564149,106.666667 490.666667,87.5641493 490.666667,64 C490.666667,40.4358507 471.564149,21.3333333 448,21.3333333 C424.435851,21.3333333 405.333333,40.4358507 405.333333,64 C405.333333,87.5641493 424.435851,106.666667 448,106.666667 L448,106.666667 Z" id="More" sketch:type="MSShapeGroup"></path>
            </g>
        </g>
    </g>
</svg>