<?xml version="1.0" encoding="UTF-8"?>
<svg width="512px" height="512px" viewBox="0 0 512 512" version="1.1" xmlns="http://www.w3.org/2000/svg" xmlns:xlink="http://www.w3.org/1999/xlink">
    <!-- Generator: Sketch 46.1 (44463) - http://www.bohemiancoding.com/sketch -->
    <title>icon-drag-all</title>
    <desc>Created with Sketch.</desc>
    <defs></defs>
    <g id="Page-1" stroke="none" stroke-width="1" fill="none" fill-rule="evenodd">
        <g id="icon-drag-all" fill="#000000">
            <path d="M505.85407,241.021408 L500.770685,235.938023 L500.770685,234.870146 L499.432182,234.870146 L432.016984,167.191636 L401.794612,197.150696 L438.97281,234.870146 L277.672239,234.870146 L277.672239,73.2916343 L314.316499,110.469832 L344.809496,80.2474608 L277.664924,12.2983242 L277.664924,12.0350122 L277.1383,12.0350122 L271.506348,6.14706224 C267.471314,2.12202073 261.976631,-0.0948540854 256.278135,0.0031144795 C250.574423,-0.0804856774 245.077437,2.13676397 241.027979,6.15437647 L235.410655,12.0423264 L234.876717,12.0423264 L234.876717,12.5762647 L167.198206,80.2547751 L197.427892,110.477147 L234.876717,73.0283222 L234.876717,234.870146 L73.0275785,234.870146 L110.476403,197.421322 L80.2540314,167.191636 L12.575521,234.870146 L11.5076444,234.870146 L11.5076444,235.938023 L6.15363278,241.021408 C2.13460988,245.069937 -0.0828896789,250.567543 0.00237078798,256.271564 C-0.00494343555,262.196085 2.04303915,267.279471 6.15363278,271.514406 L11.5076444,276.597791 L11.5076444,277.665668 L12.575521,277.665668 L80.2540314,344.81024 L110.483717,314.309928 L73.2908906,277.665668 L234.869403,277.665668 L234.869403,438.973554 L197.149952,401.788041 L167.190892,432.017727 L234.869403,499.425611 L234.869403,500.230176 L235.403341,500.230176 L241.020665,505.8475 C245.365313,509.994664 250.456013,512.042647 256.270821,511.991447 C262.023539,512.070223 267.548265,509.745278 271.513662,505.576873 L276.86036,500.230176 L277.664924,500.230176 L277.664924,499.425611 L344.809496,431.747101 L314.309184,401.788041 L277.664924,438.702928 L277.664924,277.665668 L438.709498,277.665668 L401.801926,314.309928 L431.753672,344.81024 L499.439496,277.665668 L500.777999,277.665668 L500.777999,276.327165 L505.583444,271.514406 C509.752597,267.549526 512.077687,262.024457 511.998018,256.271564 C512.041903,250.449442 509.993921,245.373371 505.85407,241.021408" id="Shape"></path>
        </g>
    </g>
</svg>