<?xml version="1.0" encoding="UTF-8" standalone="no"?>
<svg width="512px" height="512px" viewBox="0 0 512 512" version="1.1" xmlns="http://www.w3.org/2000/svg" xmlns:xlink="http://www.w3.org/1999/xlink" xmlns:sketch="http://www.bohemiancoding.com/sketch/ns">
    <!-- Generator: Sketch 3.5.2 (25235) - http://www.bohemiancoding.com/sketch -->
    <title>music</title>
    <desc>Created with Sketch.</desc>
    <defs></defs>
    <g id="Page-1" stroke="none" stroke-width="1" fill="none" fill-rule="evenodd" sketch:type="MSPage">
        <g id="music" sketch:type="MSArtboardGroup" fill="#000000">
            <g id="icon-music" sketch:type="MSLayerGroup" transform="translate(58.000000, 0.000000)">
                <path d="M365.692444,0.703780069 C360.117333,1.93539519 322.485333,8.26941581 263.075556,18.4742268 C262.378667,18.6501718 262.378667,18.6501718 261.856,18.6501718 C229.276444,24.1044674 162.897778,35.3649485 157.322667,36.2446735 C148.96,37.6522337 144.604444,38.8838488 140.423111,41.8749141 C134.325333,46.0975945 131.189333,52.7835052 131.189333,61.756701 L131.189333,74.7766323 L131.189333,109.613746 L131.189333,220.986942 L131.189333,262.685911 L131.189333,370.716151 L131.189333,370.716151 C130.840889,371.419931 130.318222,372.475601 129.621333,373.531271 C127.530667,376.874227 124.046222,380.217182 119.342222,383.560137 C109.237333,390.421993 94.6026667,395.524399 74.2186667,397.987629 C51.0471111,400.450859 31.7084444,406.78488 18.6417778,417.869416 C2.61333333,431.417182 -2.43911111,451.298969 5.22666667,476.107216 C13.4151111,502.498969 46.6915556,514.991065 81.7102222,508.83299 C118.471111,502.323024 145.127111,477.690722 145.127111,442.501718 L145.127111,372.827491 L145.127111,371.947766 L145.127111,262.685911 L145.127111,220.986942 L145.127111,117.531271 L378.062222,78.2955326 L378.062222,315.997251 C377.713778,316.701031 377.191111,317.756701 376.494222,318.812371 C374.403556,322.155326 370.919111,325.498282 366.215111,328.841237 C356.110222,335.703093 341.475556,340.805498 321.091556,343.268729 C297.92,345.731959 278.581333,352.065979 265.514667,363.150515 C249.486222,376.698282 244.433778,396.580069 252.099556,421.388316 C260.288,447.780069 293.564444,460.272165 328.583111,454.114089 C365.344,447.604124 392,422.971821 392,387.782818 L392,318.108591 L392,317.228866 L392,19.5298969 C392,7.03780069 381.372444,-2.63917526 365.692444,0.703780069 L365.692444,0.703780069 Z M79.4453333,494.757388 C50.5244444,499.859794 24.3911111,490.006873 18.6417778,471.708591 C7.49155556,435.639863 29.792,416.813746 75.7866667,411.887285 C98.2613333,409.072165 115.160889,403.265979 127.182222,394.996564 C128.576,393.940893 129.969778,393.061168 131.189333,392.005498 L131.189333,442.325773 C131.189333,469.949141 110.108444,489.479038 79.4453333,494.757388 L79.4453333,494.757388 Z M145.127111,103.279725 L145.127111,74.7766323 L145.127111,61.756701 C145.127111,53.8391753 147.566222,52.2556701 159.587556,50.1443299 C165.162667,49.2646048 231.541333,38.0041237 264.120889,32.5498282 C264.817778,32.3738832 264.817778,32.3738832 265.340444,32.3738832 C325.272889,22.1690722 362.556444,15.8350515 368.48,14.6034364 C375.274667,13.1958763 378.062222,15.8350515 378.062222,19.7058419 L378.062222,64.2199313 L145.127111,103.279725 L145.127111,103.279725 Z M326.318222,440.214433 C297.397333,445.316838 271.264,435.463918 265.514667,417.165636 C254.364444,381.096907 276.664889,362.27079 322.659556,357.34433 C345.134222,354.52921 362.033778,348.723024 374.055111,340.453608 C375.448889,339.397938 376.842667,338.518213 378.062222,337.462543 L378.062222,387.782818 C378.062222,415.230241 356.981333,434.760137 326.318222,440.214433 L326.318222,440.214433 Z" id="Shape" sketch:type="MSShapeGroup"></path>
            </g>
        </g>
    </g>
</svg>