<?xml version="1.0" encoding="UTF-8" standalone="no"?>
<svg width="512px" height="512px" viewBox="0 0 512 512" version="1.1" xmlns="http://www.w3.org/2000/svg" xmlns:xlink="http://www.w3.org/1999/xlink" xmlns:sketch="http://www.bohemiancoding.com/sketch/ns">
    <!-- Generator: Sketch 3.3.3 (12072) - http://www.bohemiancoding.com/sketch -->
    <title>nextPage</title>
    <desc>Created with Sketch.</desc>
    <defs></defs>
    <g id="Page-1" stroke="none" stroke-width="1" fill="none" fill-rule="evenodd" sketch:type="MSPage">
        <g id="nextPage" sketch:type="MSArtboardGroup" fill="#000000">
            <g id="icon-nextPage" sketch:type="MSLayerGroup">
                <path d="M28.4444444,71.1141313 C28.4444444,47.554189 47.5577392,28.4444444 71.1141313,28.4444444 L440.885869,28.4444444 C464.445811,28.4444444 483.555556,47.5577392 483.555556,71.1141313 L483.555556,440.885869 C483.555556,464.445811 464.442261,483.555556 440.885869,483.555556 L71.1141313,483.555556 C47.554189,483.555556 28.4444444,464.442261 28.4444444,440.885869 L28.4444444,71.1141313 L28.4444444,71.1141313 Z M0,440.885869 C0,480.150511 31.8435732,512 71.1141313,512 L440.885869,512 C480.150511,512 512,480.156427 512,440.885869 L512,71.1141313 C512,31.849489 480.156427,0 440.885869,0 L71.1141313,0 C31.849489,0 0,31.8435732 0,71.1141313 L0,440.885869 Z" id="Shape" sketch:type="MSShapeGroup"></path>
                <path d="M196,171.054456 C196,155.481017 205.485755,151.359297 216.981567,161.664163 L311.660288,246.534331 C317.482998,251.753817 317.410028,260.281688 311.660288,265.435763 L216.981567,350.305931 C205.393767,360.693255 196,356.464436 196,340.915639 L196,171.054456 L196,171.054456 Z" id="Path-284" sketch:type="MSShapeGroup"></path>
            </g>
        </g>
    </g>
</svg>