<?xml version="1.0" encoding="UTF-8" standalone="no"?>
<svg width="512px" height="512px" viewBox="0 0 512 512" version="1.1" xmlns="http://www.w3.org/2000/svg" xmlns:xlink="http://www.w3.org/1999/xlink" xmlns:sketch="http://www.bohemiancoding.com/sketch/ns">
    <!-- Generator: Sketch 3.5.2 (25235) - http://www.bohemiancoding.com/sketch -->
    <title>unknown</title>
    <desc>Created with Sketch.</desc>
    <defs></defs>
    <g id="Page-1" stroke="none" stroke-width="1" fill="none" fill-rule="evenodd" sketch:type="MSPage">
        <g id="unknown" sketch:type="MSArtboardGroup" fill="#000000">
            <g id="unknown-icon" sketch:type="MSLayerGroup" transform="translate(100.000000, 0.000000)">
                <path d="M158.088463,2.84217094e-14 C250.016669,2.84217094e-14 312,54.6816 312,129.21856 C312,183.20384 284.839743,221.16864 238.87308,248.68352 C193.955768,275.15392 181.071794,293.61664 181.071794,329.49248 L181.071794,350.73536 L108.989106,350.73536 L108.641029,322.87232 C106.900643,273.76128 128.143588,242.41664 175.850637,213.85728 C217.983331,188.43136 232.955768,168.22784 232.955768,132.352 C232.955768,92.99456 201.966662,64.08704 154.259614,64.08704 C106.204489,64.08704 75.2153826,92.99456 72.082688,138.97216 L0,138.97216 C3.13269458,59.90912 57.1051319,2.84217094e-14 158.088463,2.84217094e-14 L158.088463,2.84217094e-14 L158.088463,2.84217094e-14 Z M99.9390996,467.06688 C99.9390996,441.64096 120.132695,422.13888 145.552566,422.13888 C171.668592,422.13888 191.519228,441.64096 191.519228,467.06688 C191.519228,492.4928 171.668592,512 145.552566,512 C120.132695,512 99.9390996,492.4928 99.9390996,467.06688 L99.9390996,467.06688 L99.9390996,467.06688 Z" id="Fill-4" sketch:type="MSShapeGroup"></path>
            </g>
        </g>
    </g>
</svg>