<?xml version="1.0" encoding="UTF-8" standalone="no"?>
<svg width="512px" height="512px" viewBox="0 0 512 512" version="1.1" xmlns="http://www.w3.org/2000/svg" xmlns:xlink="http://www.w3.org/1999/xlink">
    <!-- Generator: Sketch 3.7.2 (28276) - http://www.bohemiancoding.com/sketch -->
    <title>512</title>
    <desc>Created with Sketch.</desc>
    <defs></defs>
    <g id="Page-1" stroke="none" stroke-width="1" fill="none" fill-rule="evenodd">
        <g id="512" fill="#000000">
            <path d="M23,69.5322464 L23,69.5322464 L23,441.467754 C23,467.176415 43.8268704,488 69.5322464,488 L441.467754,488 C467.176415,488 488,467.17313 488,441.467754 L488,69.5322464 C488,43.823585 467.17313,23 441.467754,23 L69.5322464,23 C43.823585,23 23,43.8268704 23,69.5322464 L23,69.5322464 Z M0,69.8504597 C0,31.273116 31.257164,0 69.8504597,0 L442.14954,0 C480.726884,0 512,31.257164 512,69.8504597 L512,442.14954 C512,480.726884 480.742836,512 442.14954,512 L69.8504597,512 C31.273116,512 0,480.742836 0,442.14954 L0,69.8504597 L0,69.8504597 Z M104,210 L406,210 L406,233 L104,233 L104,210 Z M104,139 L406,139 L406,162 L104,162 L104,139 Z M104,279 L406,279 L406,302 L104,302 L104,279 Z M104,349 L290,349 L290,372 L104,372 L104,349 Z" id="Note"></path>
        </g>
    </g>
</svg>