<svg width="512" height="512" viewBox="0 0 512 512" fill="none" xmlns="http://www.w3.org/2000/svg">
<path fill-rule="evenodd" clip-rule="evenodd" d="M448 354.992C448 372.506 434.499 384 413.091 384H99.102C77.5008 384 64 372.506 64 354.992C64 334.559 82.1296 317.774 100.066 302.084C114.724 289.496 117.81 264.867 121.089 235.494C124.946 169.268 147.512 123.475 197.079 106.691C204.986 81.8791 226.973 64 256.096 64C285.027 64 307.014 81.8791 315.114 106.691C364.488 123.475 387.054 169.268 390.911 235.494L390.925 235.614C394.391 264.934 397.296 289.513 411.934 302.084C430.063 317.774 448 334.559 448 354.992ZM320 405.333C320 428.897 291.346 448 256 448C220.654 448 192 428.897 192 405.333H320Z" fill="#A7A7A7"/>
</svg>
