<?xml version="1.0" encoding="UTF-8" standalone="no"?>
<svg width="512px" height="512px" viewBox="0 0 512 512" version="1.1" xmlns="http://www.w3.org/2000/svg" xmlns:xlink="http://www.w3.org/1999/xlink">
    <!-- Generator: Sketch 39.1 (31720) - http://www.bohemiancoding.com/sketch -->
    <title>notifications</title>
    <desc>Created with Sketch.</desc>
    <defs></defs>
    <g id="Page-1" stroke="none" stroke-width="1" fill="none" fill-rule="evenodd">
        <g id="notifications" fill="#000000">
            <path d="M266.303406,80.8421053 L107.740009,80.8421053 C48.2255378,80.8421053 0,129.055283 0,188.529252 L0,404.312854 C0,463.79573 48.2131778,512 107.687147,512 L323.470748,512 C382.953624,512 431.157895,463.763156 431.157895,404.259991 L431.157895,353.436603 L431.157895,245.696594 L404.210526,245.696594 L404.210526,277.248672 L404.210526,353.436603 L404.210526,404.259991 C404.210526,448.886916 368.064621,485.052632 323.470748,485.052632 L107.687147,485.052632 C63.0923775,485.052632 26.9473684,448.909688 26.9473684,404.312854 L26.9473684,188.529252 C26.9473684,143.936524 63.1095411,107.789474 107.740009,107.789474 L266.303406,107.789474 L266.303406,80.8421053 L266.303406,80.8421053 Z M417.684211,188.631579 C469.773382,188.631579 512,146.404961 512,94.3157895 C512,42.2266173 469.773382,0 417.684211,0 C365.595039,0 323.368421,42.2266173 323.368421,94.3157895 C323.368421,146.404961 365.595039,188.631579 417.684211,188.631579 L417.684211,188.631579 Z" id="icon-notifications"></path>
        </g>
    </g>
</svg>