<?xml version="1.0" encoding="UTF-8" standalone="no"?>
<svg width="512px" height="512px" viewBox="0 0 512 512" version="1.1" xmlns="http://www.w3.org/2000/svg" xmlns:xlink="http://www.w3.org/1999/xlink" xmlns:sketch="http://www.bohemiancoding.com/sketch/ns">
    <!-- Generator: Sketch 3.5.2 (25235) - http://www.bohemiancoding.com/sketch -->
    <title>numbers</title>
    <desc>Created with Sketch.</desc>
    <defs></defs>
    <g id="Page-1" stroke="none" stroke-width="1" fill="none" fill-rule="evenodd" sketch:type="MSPage">
        <g id="numbers" sketch:type="MSArtboardGroup" fill="#000000">
            <g id="icon-numbers" sketch:type="MSLayerGroup" transform="translate(0.000000, 32.000000)">
                <path d="M371.2,413.538462 L273.066667,413.538462 C268.352,413.538462 264.533333,409.678769 264.533333,404.923077 L264.533333,8.61538462 C264.533333,3.85538462 268.352,0 273.066667,0 L371.2,0 C375.914667,0 379.733333,3.85538462 379.733333,8.61538462 L379.733333,404.923077 C379.733333,409.678769 375.914667,413.538462 371.2,413.538462" id="Fill-4" sketch:type="MSShapeGroup"></path>
                <path d="M503.466667,413.538462 L405.333333,413.538462 C400.618667,413.538462 396.8,409.678769 396.8,404.923077 L396.8,137.846154 C396.8,133.086154 400.618667,129.230769 405.333333,129.230769 L503.466667,129.230769 C508.181333,129.230769 512,133.086154 512,137.846154 L512,404.923077 C512,409.678769 508.181333,413.538462 503.466667,413.538462" id="Fill-5" sketch:type="MSShapeGroup"></path>
                <path d="M238.933333,413.538462 L140.8,413.538462 C136.085333,413.538462 132.266667,409.678769 132.266667,404.923077 L132.266667,224 C132.266667,219.24 136.085333,215.384615 140.8,215.384615 L238.933333,215.384615 C243.648,215.384615 247.466667,219.24 247.466667,224 L247.466667,404.923077 C247.466667,409.678769 243.648,413.538462 238.933333,413.538462" id="Fill-6" sketch:type="MSShapeGroup"></path>
                <path d="M106.666667,415.538462 L8.53333333,415.538462 C3.81866667,415.538462 0,411.678769 0,406.923077 L0,338 C0,333.24 3.81866667,329.384615 8.53333333,329.384615 L106.666667,329.384615 C111.381333,329.384615 115.2,333.24 115.2,338 L115.2,406.923077 C115.2,411.678769 111.381333,415.538462 106.666667,415.538462" id="Fill-7" sketch:type="MSShapeGroup"></path>
                <path d="M503.466667,448 L8.53333333,448 C3.81866667,448 0,444.140308 0,439.384615 C0,434.624615 3.81866667,430.769231 8.53333333,430.769231 L503.466667,430.769231 C508.181333,430.769231 512,434.624615 512,439.384615 C512,444.140308 508.181333,448 503.466667,448" id="Fill-8" sketch:type="MSShapeGroup"></path>
            </g>
        </g>
    </g>
</svg>