<?xml version="1.0" encoding="UTF-8" standalone="no"?>
<svg width="512px" height="512px" viewBox="0 0 512 512" version="1.1" xmlns="http://www.w3.org/2000/svg" xmlns:xlink="http://www.w3.org/1999/xlink">
    <!-- Generator: Sketch 39.1 (31720) - http://www.bohemiancoding.com/sketch -->
    <title>icon-onedrive</title>
    <desc>Created with Sketch.</desc>
    <defs></defs>
    <g id="Page-1" stroke="none" stroke-width="1" fill="none" fill-rule="evenodd">
        <g id="icon-onedrive" fill="#000000">
            <g id="onedrive" transform="translate(0.000000, 104.000000)">
                <path d="M385.078123,94.5676515 C382.541277,94.6231423 375.286777,96.0104139 368.933512,97.6418455 L357.406429,100.605058 L346.891855,90.2060692 C317.217399,60.8292041 268.794736,54.4921471 227.637699,74.579841 C211.181559,82.5816241 197.963241,94.1126263 187.982742,109.106259 C180.872888,119.804898 171.793638,139.78161 171.793638,144.731395 C171.793638,148.249516 168.911869,150.014126 156.639303,153.987272 C118.60882,166.339539 96.4113903,194.82855 96.4113903,231.319345 C96.4336452,244.581662 99.8828697,260.840487 104.678404,270.129656 C106.480903,273.636679 107.482289,276.988328 106.914837,277.554336 C105.457261,279.019295 58.1361255,278.519877 51.5937242,276.988328 C33.5131102,272.715531 14.3532257,256.911733 5.36298657,238.843906 C0.255908973,228.600292 0,227.068744 0,208.934329 C0,191.687767 0.433934214,188.924322 4.50624561,180.356532 C13.0514202,162.288706 29.4296741,149.248352 49.9915027,144.143192 C54.341978,143.044473 58.403162,141.313158 59.0596256,140.303224 C59.7049646,139.271094 60.4170627,133.655418 60.639595,127.862172 C62.0749159,91.7265189 86.0192127,59.8747612 119.476691,49.6755398 C137.546178,44.1597476 160.255425,45.5026264 179.904881,53.2935441 C186.135739,55.7462406 185.445893,56.2789528 198.630832,39.1766677 C206.419404,29.0662317 222.152319,16.480903 235.047969,10.0661587 C248.967257,3.16309484 263.442877,-0.0220810778 280.744631,0.000115183925 C329.111663,0.144391595 370.791645,30.0761655 386.213028,75.7562474 C391.14208,90.3614436 390.886165,94.4455713 385.078123,94.5676515 L385.078123,94.5676515 L385.078123,94.5676515 Z M511.732784,256.930783 C510.214761,276.551199 501.051326,292.22966 486.502875,300.001892 L479.677403,303.664666 L327.777209,303.94384 C211.045978,304.167181 173.971208,303.754002 167.533539,302.16829 C136.708074,294.440726 119.52249,269.929169 119.467088,233.558259 C119.444927,221.933415 120.287034,216.372251 123.190076,208.879196 C130.303648,190.554154 149.140199,176.718244 173.94905,171.648428 C186.281452,169.080019 190.070923,166.355271 190.070923,160.079419 C190.070923,158.091693 191.555686,152.22902 193.328537,147.002865 C201.494738,123.306498 216.57506,103.55208 232.719094,95.4783412 C249.594432,87.0249245 258.126283,85.1265348 278.54732,85.2382048 C307.555613,85.3722089 322.026519,91.6703951 342.259194,112.92119 L353.372751,124.601869 L363.34506,121.151267 C411.599865,104.456607 459.710655,132.876614 463.599835,180.381019 L464.652479,193.390571 L474.148315,196.785338 C501.295095,206.511792 514.04856,226.93623 511.732784,256.930783 L511.732784,256.930783 L511.732784,256.930783 Z" id="OneDriveOverlay"></path>
            </g>
        </g>
    </g>
</svg>