<?xml version="1.0" encoding="UTF-8" standalone="no"?>
<svg width="512px" height="512px" viewBox="0 0 512 512" version="1.1" xmlns="http://www.w3.org/2000/svg" xmlns:xlink="http://www.w3.org/1999/xlink" xmlns:sketch="http://www.bohemiancoding.com/sketch/ns">
    <!-- Generator: Sketch 3.5.2 (25235) - http://www.bohemiancoding.com/sketch -->
    <title>oomph</title>
    <desc>Created with Sketch.</desc>
    <defs></defs>
    <g id="Page-1" stroke="none" stroke-width="1" fill="none" fill-rule="evenodd" sketch:type="MSPage">
        <g id="oomph" sketch:type="MSArtboardGroup" fill="#000000">
            <g id="icon-oomph" sketch:type="MSLayerGroup" transform="translate(0.000000, 4.000000)">
                <path d="M508.185288,244.020612 C508.035955,246.273576 507.886622,248.526541 507.289289,250.779505 C506.841289,256.18662 507.289289,261.748223 506.986355,267.305536 C506.090356,270.609883 504.899956,273.764034 503.99969,276.918184 C504.15329,280.677416 505.34369,284.582554 503.99969,288.337495 C504.597023,291.79204 505.795956,295.246586 505.198623,298.851329 C507.587955,304.859234 505.34369,311.322024 502.506358,316.729138 L501.315958,316.879336 C502.207691,320.333881 499.673292,323.187636 498.773026,326.341786 C496.533027,333.855959 494.741028,341.666236 492.053029,349.176117 C491.903696,350.377698 491.455696,351.579279 490.858363,352.630663 L489.962364,352.480465 C489.813031,354.282837 488.917031,357.591476 486.677032,357.291081 C486.677032,361.797009 481.898368,363.899776 480.255702,367.804915 C478.310103,370.358274 477.862103,375.164598 474.282372,375.765389 C475.775704,378.168551 473.083439,381.176795 470.84344,381.927783 C471.29144,383.279562 470.84344,384.03055 469.350107,384.180747 C465.915442,388.236083 461.883444,391.991024 459.344779,396.797348 C458.896779,398.900115 456.507447,399.350708 454.864781,399.350708 C452.774116,399.801301 450.97785,402.054265 452.321849,404.157032 C451.13145,405.212707 450.08185,407.465671 448.289851,406.714683 C444.257853,410.169229 441.868521,414.975553 442.913854,420.382667 C441.121855,420.082272 439.479189,419.781877 437.68719,419.481481 C434.999191,421.884644 432.460526,425.038794 428.573594,425.489387 C428.876528,423.98741 429.76826,422.785829 431.26586,422.185039 C431.863193,420.23247 432.460526,418.2799 433.053592,416.477529 C430.514927,418.430098 427.233862,420.082272 426.632262,423.536817 C426.184262,426.690968 423.34693,428.192944 420.957598,429.699212 C419.762932,431.797687 418.120266,433.754548 416.029601,435.106326 L416.178934,435.707117 C414.984268,443.517393 410.500003,451.932752 402.734674,454.335914 C404.08294,450.276287 408.562938,448.624113 410.354937,444.869172 C410.05627,444.418579 409.458937,443.517393 409.156004,443.066801 C407.218938,445.01937 405.124006,446.971939 402.734674,448.323718 C400.793342,450.126089 398.404009,452.984135 395.566677,452.08295 C394.969344,452.68374 393.924012,453.730832 393.476012,454.335914 C393.625345,454.936705 393.774678,456.138286 393.924012,456.739076 C392.580012,458.090855 391.08668,459.142238 389.444014,459.893226 C386.905348,461.695598 385.109083,465.600736 381.977351,465.901131 C381.226418,463.648167 382.869084,462.146191 384.362416,460.794412 C383.918683,459.442633 383.61575,458.090855 383.172017,456.739076 C381.828018,458.241052 380.778418,460.043424 379.733085,461.845795 C378.692019,461.995993 377.64242,462.146191 376.597087,462.146191 C373.610422,466.351724 368.383758,466.201527 363.90376,464.849748 C361.514428,466.802317 358.224829,468.905084 355.238164,470.106665 C355.387498,471.158048 355.541097,473.260815 355.690431,474.312199 C357.627496,474.912989 361.211495,473.56121 361.813094,476.414965 C361.066428,477.771035 359.867495,478.972616 358.224829,479.569116 L357.333097,478.818127 C355.238164,479.723605 353.301099,480.62479 351.3555,481.525976 C351.952833,482.276964 352.554432,483.027952 353.301099,483.628743 C348.966167,486.632696 344.03817,488.88566 338.811506,489.786846 C338.064839,493.842182 333.431242,493.241391 330.444577,493.842182 C326.561912,494.747659 322.081914,494.142577 318.945916,496.846134 C313.121919,502.103051 304.456323,496.695937 298.632326,501.806947 C293.704328,503.308924 288.921397,501.952854 284.142733,501.506552 C282.052067,502.407738 279.961402,502.557936 278.020069,501.65675 C263.23181,505.857992 247.701151,503.158726 232.614225,503.008528 C230.67716,502.557936 227.686228,504.205818 226.640895,501.952854 C223.803563,502.557936 221.563564,500.30068 219.174232,499.253588 C217.382233,499.549692 215.440901,499.850087 213.648901,500.154773 C210.20997,500.30068 206.779571,499.549692 203.489973,498.348111 C197.815309,496.249635 191.393979,497.751611 186.163048,494.142577 C181.981717,494.59317 178.547052,491.288822 174.515054,491.288822 C171.976389,490.688031 168.093724,491.288822 167.044125,488.284869 C163.76306,487.984474 160.627061,486.482498 157.636129,485.280917 C153.156132,485.881707 149.124134,482.427162 145.540135,480.174197 C143.897469,480.62479 142.39987,480.774988 140.757204,480.62479 C137.770539,481.071092 134.186541,481.071092 132.693208,477.916942 C131.647876,475.217676 128.063877,475.814175 126.719878,473.56121 C120.149215,474.466688 117.162549,466.351724 114.922551,461.245005 C109.542287,459.288144 102.075624,458.992041 99.2382917,453.130042 L98.4916254,453.730832 C95.6542935,450.276287 91.4686956,447.873125 90.1246962,443.517393 C85.3460319,439.91265 80.8660342,436.15771 76.5353697,432.252571 C76.3860364,431.651781 76.0873699,430.596106 75.9380366,429.999607 C71.1593723,428.343142 69.8111063,423.236422 66.5300413,419.932074 C61.154044,415.275948 61.0004441,406.864881 54.1311141,403.710731 C53.6831144,402.054265 53.3844478,400.251894 53.2351146,398.59972 C49.796183,397.097743 49.0537833,392.591815 45.6191184,391.240036 C41.7364536,389.137269 35.6095234,388.836874 35.3108568,383.279562 L34.265524,382.828969 L34.265524,380.421515 C31.8761919,378.168551 30.8308591,374.864203 29.1881932,372.160646 L27.9935272,372.611239 C27.9935272,371.860251 27.9935272,370.358274 27.8441939,369.607286 C25.3055285,368.856298 23.2148629,364.95116 23.8121959,362.097405 C21.8708635,361.496614 20.0788644,360.895824 18.1332654,360.295033 C18.8799317,359.393847 19.6308647,358.642859 20.3775309,357.741673 C19.4815314,356.69029 18.5855318,355.634615 17.5359324,354.73343 C17.9881988,352.78086 18.2825987,350.978489 18.2825987,349.02592 L17.5359324,347.674141 C15.7481999,344.519991 16.6399328,340.464655 16.4948662,336.859912 C15.0015336,332.954773 12.159935,329.796332 10.965269,325.891193 C11.1146022,323.788427 13.0559346,322.28645 13.2052679,320.183684 C14.8522004,314.476174 9.17326986,310.420838 8.57593682,305.009432 C8.2772703,300.203108 5.29060513,295.997574 4.84260535,291.19125 C4.24527231,287.736704 4.84260535,283.831566 3.05060624,280.677416 C1.10927387,277.669172 2.00527343,273.914231 1.25434047,270.609883 C0.810607355,266.854943 -1.57872479,262.349014 1.70660691,259.345061 C0.507674173,252.882272 2.4532732,246.273576 3.49860602,239.965276 C2.00527343,237.862509 3.05060624,235.15466 2.90127298,232.751498 C2.4532732,230.798929 2.30393995,228.696162 2.75193972,226.593396 C1.40794039,221.937269 4.69327209,218.182328 6.63460446,214.27719 C10.0692694,204.05946 10.6666024,192.944835 13.508201,182.576908 L14.2506007,181.82592 C14.8522004,179.572955 15.7481999,177.169793 17.9881988,175.968212 C19.4815314,171.912876 20.6719308,167.707343 21.8708635,163.501809 C23.8121959,160.944158 26.6495278,159.291984 29.3375265,157.63981 C29.4868597,157.03902 29.7855263,155.837439 29.9348595,155.236648 L30.9801923,154.48566 C29.9348595,150.129929 28.1428604,142.920442 32.7721914,140.367083 C34.8628571,137.358839 35.9081899,133.904293 36.6548562,130.449748 C38.0031222,125.943819 44.2751191,125.943819 45.7684516,121.43789 C46.6644512,120.236309 46.8095178,117.833147 48.4564503,117.532752 L49.0537833,116.030776 C49.0537833,111.971148 50.6964492,108.216208 53.9817809,105.813045 C57.2671126,99.955338 61.5977771,94.5482233 66.9737744,90.643085 C67.1273743,86.8881443 70.5577726,84.9312838 72.6527049,82.5281217 C75.4900368,80.2751573 77.4313692,76.9708095 80.7167009,75.1684379 C80.8660342,74.717845 81.3140339,73.6664616 81.4633672,73.2158687 C88.4820304,67.3581612 95.95296,61.7965576 101.92629,54.7372691 C111.935885,47.8281782 122.23988,40.7688896 132.846808,34.6064955 L133.887874,34.9068908 C134.037208,35.6578789 134.489474,36.8594599 134.634541,37.6104481 C137.173206,36.8594599 139.263872,35.3574836 141.956137,35.0570884 C144.046803,31.3021477 150.169466,30.1005666 149.572133,24.693452 C150.020133,24.693452 150.916133,24.693452 151.364132,24.5432544 C153.156132,20.7883137 157.934796,20.1875232 161.668127,18.8357445 C165.401459,18.0847564 167.790791,14.3255243 171.528389,13.2741409 C174.664387,11.3215717 178.845719,11.1713741 181.981717,9.21880491 C185.271316,2.91050452 193.484645,7.566631 198.561976,4.4124808 C205.286239,5.16346894 211.553969,1.70892349 218.128899,3.21089977 L218.875565,3.51129503 C225.296896,-0.0934480527 232.016892,4.26228317 238.736889,2.91050452 C240.976888,0.957935347 244.714486,3.21089977 247.253151,1.55872586 C249.791817,-0.243645681 253.973148,-0.994633824 255.765147,2.15951637 C258.901146,2.15951637 261.887811,3.66149266 265.023809,3.81169029 C265.177409,4.26228317 265.177409,5.4638642 265.326742,5.91445709 C264.580076,6.06465472 262.93741,6.06465472 262.190744,6.06465472 C263.684076,6.81564286 265.177409,7.41643337 266.820075,8.01722389 C268.910741,6.81564286 271.150739,7.71682863 273.092072,8.6180144 C275.630737,6.81564286 278.916069,7.11603812 281.902734,7.86702626 C286.532065,8.76821203 292.509662,10.2701883 294.002995,15.3769077 C290.717663,15.9819896 288.477664,12.9737456 285.490999,12.5231527 C284.889399,17.033373 290.56833,17.1792792 293.704328,16.2823848 C296.54166,15.0765124 300.125658,14.7804085 302.664324,16.8831753 C308.338988,17.1792792 313.565652,20.1875232 319.393915,20.0373255 C317.601916,14.9263148 310.28032,17.4839658 307.890988,13.8749314 C318.199249,15.3769077 327.756578,19.7369303 337.915506,22.29029 C348.667501,26.4958236 360.319762,29.8001714 369.87709,36.5590647 C376.74642,42.8716564 385.855749,46.1760042 391.982679,53.3854904 C394.670678,57.2906288 399.598675,57.591024 403.336274,59.8439884 C406.766672,63.1483363 410.500003,66.0063826 413.636002,69.3107304 C413.490935,69.9115209 413.341602,70.9629043 413.192269,71.5636948 C417.224267,73.6664616 419.762932,77.7217976 423.496264,80.2751573 C424.989596,81.6269359 427.378928,82.5281217 428.125595,84.4806909 C432.012526,84.9312838 434.999191,87.7850387 438.433856,89.287015 C441.271188,90.643085 442.913854,93.4968399 443.66052,96.5007925 L445.00452,96.9513854 L446.049852,96.8011878 C450.534117,100.255733 455.760781,103.109488 459.792779,107.164824 L460.987445,107.315022 C460.838112,107.915812 460.684512,108.967196 460.539445,109.417789 C463.52611,113.322927 468.454108,115.880578 470.39544,120.236309 L469.94744,121.588088 C469.350107,126.995202 475.029038,129.398365 476.368771,134.054491 C475.920771,134.655282 474.875438,135.556467 474.427438,136.00706 C478.762369,140.216885 483.989033,144.422419 485.333033,150.580522 C485.781033,150.880917 486.378366,151.631905 486.677032,151.9323 C488.767698,154.48566 485.781033,157.189217 484.885033,159.442182 C485.333033,165.30418 488.021031,170.561097 489.663697,176.11841 L489.813031,177.319991 C491.455696,178.972165 491.007697,181.675722 491.306363,183.928686 C493.546362,185.735349 493.397029,190.992266 492.501029,193.846021 C496.234361,197.450764 494.591695,202.707681 495.786361,207.063413 L496.981027,207.664203 C496.234361,204.05946 496.533027,200.454717 496.831694,196.849974 C501.461025,197.901357 500.714358,205.711634 498.17996,208.264994 C499.673292,210.217563 499.673292,213.6764 502.659958,213.976795 C503.701024,211.12304 503.555957,207.514005 505.945289,205.411239 C507.886622,207.063413 506.239689,210.071656 507.289289,212.174423 C509.081288,216.680352 507.139955,221.036083 506.090356,225.542012 C508.035955,227.494581 510.425287,230.047941 508.931954,233.051894 C510.57462,234.253475 511.02262,235.759742 510.275954,237.562114 L511.91862,237.562114 C512.515953,240.566066 509.678621,242.068043 508.185288,244.020612 L508.185288,244.020612 L508.185288,244.020612 Z M374.058422,471.308246 C372.714422,475.51378 367.935758,475.968664 364.799759,478.517732 C362.410427,480.62479 358.822162,481.071092 357.03443,483.778941 C363.306427,481.671882 368.234424,477.020047 374.357088,474.616885 C376.597087,473.110618 380.479752,472.660025 380.185352,469.355677 C378.09042,469.80627 375.999754,470.40706 374.058422,471.308246 L374.058422,471.308246 L374.058422,471.308246 Z M318.199249,434.20514 C323.575247,436.307907 327.009912,430.149804 331.937909,429.09413 C336.422174,427.892549 338.662172,422.635632 343.440837,422.185039 C345.680836,419.481481 347.622168,416.627727 349.712834,413.773972 C345.531502,412.572391 341.196571,412.121798 337.019507,411.521007 C331.340576,409.868833 325.964579,412.572391 320.737915,414.374762 C322.529914,410.169229 326.860578,407.311182 331.340576,407.010787 C338.512839,406.259799 345.531502,407.165276 352.554432,407.761775 C353.301099,407.615869 354.491498,407.311182 355.088831,407.165276 C356.134164,406.259799 357.333097,405.358613 358.527763,404.607625 C353.595498,403.255846 348.667501,402.655056 343.59017,402.35466 L343.59017,400.251894 C352.554432,401.453475 361.066428,398.59972 369.727757,396.647151 C371.071756,395.44557 372.266422,394.093791 374.058422,393.493 C374.954421,393.192605 376.597087,392.742012 377.493086,392.441617 C380.031752,389.73806 382.574684,386.884305 385.258416,384.180747 C388.846681,381.176795 393.476012,379.219934 395.268011,374.563808 C397.95601,370.057879 401.241341,366.152741 404.08294,361.797009 C406.472272,358.192266 406.916005,353.53614 409.458937,349.927105 C412.142669,346.021967 414.386935,341.666236 414.237602,336.709714 C413.789602,333.104971 417.224267,331.298308 419.314932,328.895146 C419.165599,328.294356 419.165599,327.092775 419.165599,326.491984 C417.672266,326.642182 416.328267,326.942577 414.834935,327.092775 C420.061599,318.831905 424.541596,309.970245 429.021594,301.254491 C431.410926,297.199155 429.917594,292.242633 429.170927,288.0371 C427.677595,287.436309 426.184262,286.985716 424.840263,286.384926 C423.197597,281.123717 426.487195,274.665219 422.749597,270.159291 C419.165599,277.218579 416.328267,284.732752 412.142669,291.491645 C411.848269,284.282159 415.880267,277.81937 416.029601,270.609883 C416.029601,266.704745 416.9256,262.799607 417.074933,258.744271 C415.432268,254.384248 413.042935,250.028517 413.192269,245.222193 C413.192269,239.214288 413.490935,233.206383 412.744269,227.194186 C411.848269,221.937269 410.649337,216.680352 409.006671,211.573633 C406.169339,213.826597 407.364005,217.581538 406.916005,220.735688 C403.182674,219.534107 403.780007,213.6764 401.540008,210.668156 C399.300009,204.810448 396.014677,199.102938 394.372011,192.944835 C392.430679,185.284756 387.204015,179.27256 384.66535,171.912876 C382.719751,167.106552 380.330418,162.450426 377.791753,157.940205 C372.117089,153.584474 369.87709,146.374988 366.890425,140.066688 C363.90376,135.556467 361.360828,130.750143 356.582164,127.896388 C352.554432,126.845005 348.667501,125.943819 344.784836,124.59204 C335.820574,117.983345 324.471246,116.781764 314.764584,111.675044 C312.072319,110.919765 309.388587,110.018579 306.999255,108.516603 C304.157656,107.164824 301.320324,106.113441 298.632326,104.311069 C300.872325,103.860476 303.112324,103.259686 305.352322,102.508698 C304.30699,101.006721 302.96299,99.955338 301.170991,99.6549427 C292.509662,97.2517807 283.5454,95.7498044 274.436071,96.5007925 C268.164074,97.2517807 263.381143,91.2438755 257.109146,91.6944684 C252.330482,93.9474328 246.954485,91.9948637 242.026487,93.7972352 C239.039822,94.5482233 235.899557,95.1490139 232.917158,94.9988162 C233.211558,92.7458518 235.003557,92.2952589 236.949156,91.9948637 C241.429154,90.4928874 245.759819,88.5360268 250.239817,87.0340506 C250.090483,86.5834577 249.642483,85.5320743 249.49315,85.0814814 C244.266486,85.231679 238.886222,85.5320743 233.663825,85.0814814 C230.67716,79.0735763 223.355563,80.7257502 217.825966,79.6743668 C207.526238,85.5320743 196.769976,90.4928874 186.163048,96.0501996 C187.059048,93.9474328 190.195046,91.844666 187.805714,89.5917016 C187.059048,90.1882008 185.715049,91.5399794 184.968382,92.1450613 C183.176383,94.5482233 179.891052,93.7972352 177.651053,92.8960494 C173.768388,94.8486186 169.885723,96.3505949 166.003058,98.0027688 C162.414794,100.105536 158.237729,101.156919 155.545464,104.461267 C153.604131,106.564034 150.766799,107.465219 148.228134,108.366405 C147.780134,108.6668 146.884135,109.267591 146.436135,109.567986 C142.250537,114.228404 137.173206,117.833147 131.050543,119.034728 C128.810544,122.339076 125.973212,126.094017 121.343881,125.493226 C120.149215,126.694807 119.103882,128.046586 117.909216,129.248167 C119.402548,128.647376 121.045214,128.196783 122.68788,127.595993 C122.389213,128.647376 121.642547,130.449748 121.194547,131.350934 C119.701215,132.85291 118.207882,134.204689 116.71455,135.556467 C116.11295,136.157258 115.071884,137.358839 114.470284,137.963921 C113.275618,140.216885 111.935885,142.46985 110.442553,144.722814 C112.528952,149.679336 107.003621,151.9323 104.315622,154.936253 C99.5369582,160.19317 99.3876249,167.707343 95.95296,173.56505 C92.518295,179.723153 89.6809631,186.486337 90.1246962,193.695824 C87.8846973,199.102938 85.1966987,204.359855 84.8980322,210.36776 C88.7849636,207.814401 89.8260297,202.707681 93.8580277,200.304519 C92.0702953,205.261041 90.7220293,210.217563 89.3780299,215.328573 C83.5540328,225.241617 81.911367,236.961323 81.4633672,248.226145 C79.9700346,253.182667 82.6580333,258.594073 80.1193679,263.100002 C80.1193679,263.700793 80.1193679,265.052571 80.2687011,265.653362 C81.1647007,265.503164 82.9566998,265.202769 83.8526993,265.052571 C80.5673676,273.914231 77.1327027,282.780183 74.2953708,291.641843 C73.6980377,300.503503 73.250038,309.519652 75.9380366,317.930719 C79.0740351,321.835858 78.1780355,328.144158 82.2100335,331.002204 C82.3593668,327.843763 82.3593668,324.83981 82.3593668,321.68566 C88.3326971,328.444553 88.6313636,337.911295 92.6676283,345.571374 C93.4142946,346.622758 94.1609609,347.523943 94.9076272,348.425129 C95.6542935,348.875722 97.4462926,349.776908 98.1929589,350.227501 C98.0436256,344.219596 96.2516265,338.361888 95.5049602,332.353983 C95.8036267,332.804576 96.550293,333.551273 96.8446929,334.006157 C98.7902919,340.614852 100.432958,347.523943 102.672957,354.13693 C103.120956,354.583232 103.867623,355.789104 104.166289,356.239697 C105.808955,355.038116 108.198287,355.184022 108.79562,357.436987 C111.035619,361.046021 113.429218,364.500567 115.515617,368.255507 C115.669217,368.555903 116.11295,369.306891 116.415883,369.607286 C121.343881,372.611239 125.077212,377.267365 128.213211,381.927783 C130.901209,382.223887 133.290541,381.322701 134.340141,378.769341 C136.42654,381.472899 138.222806,384.476851 140.313471,387.334898 C141.806804,388.386281 143.300136,389.587862 144.793469,390.639245 C146.436135,391.690629 148.228134,392.291419 150.169466,392.591815 C153.006798,392.441617 155.246797,394.093791 156.744396,396.496953 C159.428128,399.951498 162.26546,403.105649 165.401459,406.113893 C169.139057,406.714683 173.320388,407.465671 176.15772,410.169229 C180.641984,414.224565 183.47505,420.23247 189.44838,422.335236 C194.828644,425.489387 201.249974,425.038794 206.625972,428.192944 L207.526238,428.497631 C209.463303,428.943932 211.408903,429.394525 213.345968,429.845118 C218.875565,430.445908 224.550229,430.295711 230.07556,431.651781 C232.763559,432.252571 235.157157,433.60435 237.695823,434.805931 C244.112886,430.295711 251.583816,434.054943 258.457412,435.406721 C263.83341,436.608303 268.462741,439.612255 273.241405,442.315812 C277.870736,440.062848 282.948067,440.062848 288.025398,439.462057 C288.772064,439.011465 290.265397,438.110279 291.161396,437.509488 C290.717663,436.7585 289.970997,435.256524 289.51873,434.505536 C283.997666,433.454152 278.766736,431.201188 274.137405,427.892549 C268.910741,426.390572 263.381143,426.090177 258.005146,426.240375 L256.96408,426.841165 C251.285149,430.596106 244.112886,427.441956 237.845156,428.497631 C237.845156,429.248619 237.990223,430.750595 237.990223,431.501583 C231.120893,427.592153 223.803563,424.287806 217.0793,420.082272 C212.902235,416.177134 207.372638,413.924169 204.535306,408.81745 C211.852636,411.521007 218.427566,416.327331 226.491562,416.627727 C226.342228,415.726541 226.043562,414.074367 225.744895,413.173181 C229.478227,414.975553 233.360892,416.627727 237.094223,418.430098 L238.139556,417.829308 C237.546489,416.627727 236.949156,415.576343 236.49689,414.52496 C236.49689,413.924169 236.49689,412.572391 236.646223,411.9716 C233.958225,409.868833 230.52356,408.81745 228.582227,405.963695 C233.066492,405.809206 236.646223,408.81745 240.085155,411.37081 C245.013152,414.675157 250.38915,416.777924 255.466481,419.631679 C257.407813,419.481481 259.204079,419.481481 261.141144,419.331284 C263.530477,417.078319 267.263808,417.378715 270.105407,419.030889 C272.196072,419.932074 274.286738,420.83326 276.377404,421.884644 C282.948067,424.738398 289.074997,420.082272 295.496327,418.880691 C296.98966,420.23247 298.482992,421.584248 299.528325,423.38662 C294.898994,427.441956 289.074997,427.892549 283.246733,426.995654 C286.532065,430.596106 291.464329,431.501583 295.794994,433.303955 C299.080326,433.60435 302.664324,433.303955 305.650989,434.805931 C307.144322,434.054943 308.492588,433.303955 309.83232,432.548675 C309.388587,430.596106 309.085654,428.793734 308.786987,426.995654 C312.669652,427.892549 313.719252,433.60435 318.199249,434.20514 L318.199249,434.20514 L318.199249,434.20514 Z" id="Fill-4" sketch:type="MSShapeGroup"></path>
            </g>
        </g>
    </g>
</svg>