<?xml version="1.0" encoding="UTF-8" standalone="no"?>
<svg width="512px" height="512px" viewBox="0 0 512 512" version="1.1" xmlns="http://www.w3.org/2000/svg" xmlns:xlink="http://www.w3.org/1999/xlink">
    <!-- Generator: Sketch 39.1 (31720) - http://www.bohemiancoding.com/sketch -->
    <title>icon-ordered-list</title>
    <desc>Created with Sketch.</desc>
    <defs></defs>
    <g id="Page-1" stroke="none" stroke-width="1" fill="none" fill-rule="evenodd">
        <g id="icon-ordered-list" fill="#222222">
            <path d="M132.680873,81.3438424 L512,81.3438424 L512,132.796059 L132.680873,132.796059 L132.680873,81.3438424 L132.680873,81.3438424 Z M132.680873,390.057143 L512,390.057143 L512,441.50936 L132.680873,441.50936 L132.680873,390.057143 L132.680873,390.057143 Z M132.680873,235.700493 L512,235.700493 L512,287.152709 L132.680873,287.152709 L132.680873,235.700493 L132.680873,235.700493 Z M51.7253354,149.946798 L30.9139691,149.946798 L30.9139691,93.2689655 L31.1160221,83.9566511 L31.4527747,73.7733999 C27.9954223,77.2124969 25.5932718,79.4679752 24.246251,80.5399015 L12.9313339,89.5842373 L2.89607912,77.1231519 L34.6182584,52 L51.7253354,52 L51.7253354,149.946798 L51.7253354,149.946798 Z M69.1018153,304.303448 L0.269402789,304.303448 L0.269402789,289.899507 L24.9871078,265.044335 C32.3059203,257.585513 37.0877724,252.415778 39.3328072,249.534975 C41.5778419,246.654172 43.1942414,243.985562 44.1820574,241.529065 C45.1698733,239.072566 45.6637727,236.526779 45.6637727,233.891625 C45.6637727,229.961228 44.5749475,227.035806 42.3972643,225.115271 C40.2195811,223.194736 37.3123052,222.234484 33.6753486,222.234484 C29.8587895,222.234484 26.1545383,223.10541 22.5624827,224.847291 C18.9704288,226.589171 15.2212765,229.067964 11.3149171,232.283743 L0,218.951724 C4.84927434,214.842673 8.86782599,211.939581 12.0557739,210.242365 C15.2437236,208.545148 18.7234749,207.238757 22.4951329,206.323153 C26.2667909,205.407549 30.487392,204.949753 35.1570639,204.949753 C41.3084581,204.949753 46.7413597,206.066328 51.4559326,208.299508 C56.1705056,210.532687 59.8298558,213.659094 62.4340954,217.678819 C65.0383368,221.698542 66.3404376,226.298825 66.3404376,231.479802 C66.3404376,235.990827 65.5434622,240.22264 63.9494874,244.175369 C62.3555126,248.128098 59.8860123,252.18126 56.5409107,256.334975 C53.1958091,260.488691 47.3026813,266.406529 38.8613531,274.088669 L26.1994221,285.946798 L26.1994221,286.884729 L69.1018153,286.884729 L69.1018153,304.303448 L69.1018153,304.303448 Z M65.2628264,382.620689 C65.2628264,388.739604 63.3994747,393.942837 59.6727177,398.230542 C55.9459607,402.518247 50.7151086,405.466001 43.9800061,407.073892 L43.9800061,407.475862 C51.927428,408.458462 57.9440294,410.859094 62.029993,414.677833 C66.1159548,418.49657 68.1589056,423.643973 68.1589056,430.120197 C68.1589056,439.544218 64.7240536,446.880105 57.854248,452.128078 C50.9844441,457.376052 41.1737894,460 28.4219942,460 C17.7356296,460 8.26172748,458.235813 0,454.707388 L0,437.087685 C3.81655905,439.008219 8.01470969,440.571422 12.5945795,441.77734 C17.1744511,442.983258 21.7093526,443.586208 26.1994221,443.586208 C33.0692259,443.586208 38.1429279,442.424971 41.4206779,440.102464 C44.6984297,437.779955 46.3372797,434.050601 46.3372797,428.914286 C46.3372797,424.313934 44.4514791,421.05354 40.6798211,419.133005 C36.9081631,417.21247 30.8915617,416.252218 22.6298343,416.252218 L15.1539077,416.252218 L15.1539077,400.374384 L22.7645356,400.374384 C30.397652,400.374384 35.9764795,399.380634 39.5011835,397.393104 C43.0258875,395.405573 44.7882145,392.000025 44.7882145,387.176354 C44.7882145,379.762196 40.1186116,376.055173 30.7792695,376.055173 C27.5464188,376.055173 24.2574926,376.591127 20.912391,377.663055 C17.5672895,378.734981 13.8518138,380.588493 9.76585195,383.223645 L0.134701394,368.953694 C9.11483861,362.522136 19.8234934,359.306403 32.2609831,359.306403 C42.4534397,359.306403 50.5017675,361.360899 56.4062093,365.46995 C62.3106495,369.579003 65.2628264,375.295859 65.2628264,382.620689 L65.2628264,382.620689 Z" id="ordered-list"></path>
        </g>
    </g>
</svg>