<?xml version="1.0" encoding="UTF-8" standalone="no"?>
<svg width="512px" height="512px" viewBox="0 0 512 512" version="1.1" xmlns="http://www.w3.org/2000/svg" xmlns:xlink="http://www.w3.org/1999/xlink">
    <!-- Generator: Sketch 39.1 (31720) - http://www.bohemiancoding.com/sketch -->
    <title>icon-outdent</title>
    <desc>Created with Sketch.</desc>
    <defs></defs>
    <g id="Page-1" stroke="none" stroke-width="1" fill="none" fill-rule="evenodd">
        <g id="icon-outdent" fill="#222222">
            <path d="M69.8181818,281.333333 L69.8181818,332 L0,256 L69.8181818,180 L69.8181818,230.666667 L139.636364,230.666667 L139.636364,281.333333 L69.8181818,281.333333 L69.8181818,281.333333 Z M162.909091,104 L512,104 L512,142 L162.909091,142 L162.909091,104 L162.909091,104 Z M162.909091,281.333333 L442.181818,281.333333 L442.181818,319.333333 L162.909091,319.333333 L162.909091,281.333333 L162.909091,281.333333 Z M162.909091,192.666667 L442.181818,192.666667 L442.181818,230.666667 L162.909091,230.666667 L162.909091,192.666667 L162.909091,192.666667 Z M162.909091,370 L512,370 L512,408 L162.909091,408 L162.909091,370 L162.909091,370 Z" id="outdent"></path>
        </g>
    </g>
</svg>