<?xml version="1.0" encoding="UTF-8"?>
<svg width="113px" height="114px" viewBox="0 0 113 114" version="1.1" xmlns="http://www.w3.org/2000/svg" xmlns:xlink="http://www.w3.org/1999/xlink">
    <!-- Generator: Sketch 48.2 (47327) - http://www.bohemiancoding.com/sketch -->
    <title>Combined Shape</title>
    <desc>Created with Sketch.</desc>
    <defs></defs>
    <g id="Sign-In---Mobile-Apps" stroke="none" stroke-width="1" fill="none" fill-rule="evenodd" transform="translate(-1532.000000, -1328.000000)">
        <g id="Group-6" transform="translate(518.000000, 1320.000000)" fill="#C0C0C0" fill-rule="nonzero">
            <g id="Group-8" transform="translate(1014.000000, 8.000000)">
                <g id="Microsoft_Outlook_2013_logo">
                    <path d="M66.6067416,0.768547144 C66.5982022,13.3469689 66.5939326,22.4840449 66.5939326,28.1797753 C79.8640449,28.2053933 93.1213483,28.1413483 106.378652,28.1797753 C108.991685,28.0516854 112.565393,28.8074157 112.514157,32.0993258 C113.000899,48.3026966 112.526966,64.5444944 112.744719,80.7606742 C112.795955,83.6298876 112.706292,88.1514607 108.799551,88.1898876 C94.7480899,88.6766292 80.6582022,88.2283146 66.5939326,88.3820225 C66.5939326,96.4901124 66.5939326,105.89191 66.5939326,114 C35.2375281,108.603146 13.0438202,104.760449 0.0128089888,102.47191 C0.00426966292,82.5496629 0,52.6705618 0,12.8346067 L66.6067416,0.768547144 Z M85.6537079,61.3422472 C84.2319101,62.5206742 82.8229213,64.3267416 80.7350562,63.9424719 C75.6626966,60.0869663 71.3844944,55.2707865 66.6067416,51.0438202 C66.5811236,62.2004494 66.5939326,73.3698876 66.5939326,84.5393258 C80.6838202,84.5393258 94.7737079,84.5393258 108.863596,84.5393258 C108.850787,69.527191 108.889213,54.5022472 108.850787,39.4901124 C101.114157,46.765618 93.3519101,54.0283146 85.6537079,61.3422472 Z M66.5939326,32.0224719 C66.5939326,36.7361798 66.5939326,41.4498876 66.5939326,46.1764045 C71.6022472,50.8516854 76.5465169,55.6038202 81.6316854,60.2022472 C90.085618,52.2734831 98.5139326,44.3319101 106.993483,36.428764 C108.402472,35.378427 108.914831,33.7260674 109.158202,32.0480899 C94.9658427,31.9840449 80.7862921,32.0352809 66.5939326,32.0224719 Z M27.4624719,36.7105618 C15.1658427,41.1040449 12.9370787,57.6020225 17.5226966,68.3231461 C21.0067416,77.6224719 33.8285393,81.3498876 41.4755056,74.8044944 C49.7757303,67.5417978 50.3649438,54.3997753 46.1892135,44.7930337 C43.1278652,37.8121348 34.6867416,33.9822472 27.4624719,36.7105618 Z M28.7049438,44.408764 C32.1121348,42.7820225 36.3775281,44.434382 37.9786517,47.8031461 C40.5404494,52.8755056 40.5276404,59.0622472 38.8496629,64.4164045 C37.658427,68.2206742 33.4955056,71.3588764 29.4606742,69.8602247 C24.4267416,68.2719101 22.9024719,62.3029213 22.851236,57.6276404 C22.787191,52.7858427 23.901573,46.752809 28.7049438,44.408764 Z" id="Combined-Shape"></path>
                </g>
            </g>
        </g>
    </g>
</svg>