<svg xmlns="http://www.w3.org/2000/svg" viewBox="0 0 512 512"><g fill="none" fill-rule="evenodd"><polyline stroke="#000000" stroke-width="21.3" points="341.217 123.86 500.999 123.86 500.999 486 10.999 486 10.999 123.86 170.783 123.86"/><polygon fill="#000000" points="381.162 347.535 447.738 347.535 447.738 414.105 433.091 414.105 433.091 379.488 385.828 426.748 368.518 409.439 415.782 362.18 381.162 362.18"/><polygon fill="#000000" points="64.261 432.744 170.783 432.744 170.783 411.442 64.261 411.442"/><polygon fill="#000000" points="64.261 390.14 213.391 390.14 213.391 368.837 64.261 368.837"/><polyline stroke="#000000" stroke-linejoin="bevel" stroke-width="21.3" points="341.217 123.86 501 123.86 394.478 38.651 106.87 38.651 11 123.86 170.783 123.86"/><path stroke="#000000" stroke-width="21.3" d="M202.74 135.57l19.38-96.92h67.76l19.38 96.92v73.5H202.74v-73.5z"/></g></svg>