<?xml version="1.0" encoding="UTF-8"?>
<svg width="512px" height="512px" viewBox="0 0 512 512" version="1.1" xmlns="http://www.w3.org/2000/svg" xmlns:xlink="http://www.w3.org/1999/xlink">
    <!-- Generator: Sketch 49 (51002) - http://www.bohemiancoding.com/sketch -->
    <title>Padlock - Unlocked</title>
    <desc>Created with Sketch.</desc>
    <defs></defs>
    <g id="Padlock---Unlocked" stroke="none" stroke-width="1" fill="none" fill-rule="evenodd">
        <g id="Group" transform="translate(0.000000, 38.000000)" fill="#F26724">
            <path d="M249.742222,210.651429 C249.742222,223.578048 238.560882,234.057143 224.768,234.057143 C210.975118,234.057143 199.793778,223.578048 199.793778,210.651429 L199.793778,123.504152 C199.793778,80.807609 165.867917,46.8114286 124.883597,46.8114286 C83.8771345,46.8114286 49.9484444,80.8045737 49.9484444,123.504152 L49.9484444,210.651429 C49.9484444,223.578048 38.7671043,234.057143 24.9742222,234.057143 C11.1813402,234.057143 0,223.578048 0,210.651429 L0,123.504152 C0,55.6239979 55.5185281,0 124.883597,0 C194.228587,0 249.742222,55.6287002 249.742222,123.504152 L249.742222,210.651429 Z" id="Stroke-1" fill-rule="nonzero"></path>
            <path d="M485.238796,436.906667 L164.144523,436.906667 C149.374186,436.906667 137.386667,425.721856 137.386667,411.940571 L137.386667,212.21181 C137.386667,198.430525 149.374186,187.245714 164.144523,187.245714 L485.238796,187.245714 C500.009132,187.245714 511.996652,198.430525 511.996652,212.21181 L511.996652,411.940571 C511.996652,425.721856 500.009132,436.906667 485.238796,436.906667" id="Fill-3"></path>
        </g>
    </g>
</svg>