<?xml version="1.0" encoding="UTF-8"?>
<svg width="512px" height="512px" viewBox="0 0 512 512" version="1.1" xmlns="http://www.w3.org/2000/svg" xmlns:xlink="http://www.w3.org/1999/xlink">
    <!-- Generator: Sketch 49 (51002) - http://www.bohemiancoding.com/sketch -->
    <title>Padlock - Locked</title>
    <desc>Created with Sketch.</desc>
    <defs></defs>
    <g id="Padlock---Locked" stroke="none" stroke-width="1" fill="none" fill-rule="evenodd">
        <g id="Group" transform="translate(69.000000, 38.000000)" fill="#F26724">
            <path d="M312.174988,210.649546 C312.174988,223.576049 300.993748,234.055051 287.200989,234.055051 C273.40823,234.055051 262.22699,223.576049 262.22699,210.649546 L262.22699,123.503049 C262.22699,80.8068868 228.301432,46.8110102 187.317478,46.8110102 C146.311382,46.8110102 112.382996,80.8038515 112.382996,123.503049 L112.382996,210.649546 C112.382996,223.576049 101.201755,234.055051 87.4089966,234.055051 C73.6162378,234.055051 62.4349976,223.576049 62.4349976,210.649546 L62.4349976,123.503049 C62.4349976,55.6235008 117.95303,0 187.317478,0 C256.661849,0 312.174988,55.628203 312.174988,123.503049 L312.174988,210.649546 Z" id="Stroke-1" fill-rule="nonzero"></path>
            <path d="M347.852129,436.902762 L26.7578561,436.902762 C11.9875195,436.902762 0,425.718051 0,411.93689 L0,212.209913 C0,198.428752 11.9875195,187.244041 26.7578561,187.244041 L347.852129,187.244041 C362.622466,187.244041 374.609985,198.428752 374.609985,212.209913 L374.609985,411.93689 C374.609985,425.718051 362.622466,436.902762 347.852129,436.902762" id="Fill-3"></path>
        </g>
    </g>
</svg>