<?xml version="1.0" encoding="UTF-8" standalone="no"?>
<svg width="512px" height="512px" viewBox="0 0 512 512" version="1.1" xmlns="http://www.w3.org/2000/svg" xmlns:xlink="http://www.w3.org/1999/xlink" xmlns:sketch="http://www.bohemiancoding.com/sketch/ns">
    <!-- Generator: Sketch 3.5.2 (25235) - http://www.bohemiancoding.com/sketch -->
    <title>pages</title>
    <desc>Created with Sketch.</desc>
    <defs></defs>
    <g id="Page-1" stroke="none" stroke-width="1" fill="none" fill-rule="evenodd" sketch:type="MSPage">
        <g id="pages" sketch:type="MSArtboardGroup" fill="#000000">
            <g id="icon-pages" sketch:type="MSLayerGroup" transform="translate(0.000000, 36.000000)">
                <path d="M404.317553,6.00060883 C428.379271,30.082173 357.261673,94.2689053 318.92196,133.011298 C280.58664,171.75369 240.234828,208.01671 240.234828,208.01671 L202.123562,169.502912 C202.123562,169.502912 237.128814,127.867919 275.468528,89.1255263 C313.803848,50.3787379 380.251443,-18.0765593 404.317553,6.00060883" id="Fill-4" sketch:type="MSShapeGroup"></path>
                <path d="M383.557502,54.586111 C384.348448,55.0826754 385.681407,56.0987734 386.996547,57.4549964 C389.29528,59.8255398 390.330999,62.0745097 389.920753,63.9160299 C387.260231,75.8784664 369.970075,97.4628689 336.459067,132.950475 C334.435143,135.093777 332.317247,137.32662 330.018762,139.741402 C275.112026,197.426286 271.284986,201.674455 268.001535,212.08794 C267.065188,215.056288 267.638419,217.843268 269.083847,220.194642 C269.638491,221.096918 270.213992,221.768906 270.697739,222.22271 L276.70716,215.808546 C276.752599,215.851173 276.670639,215.755471 276.567821,215.588211 C276.352305,215.237616 276.300783,214.987122 276.380658,214.733907 C278.993571,206.447037 284.892262,199.899253 336.381149,145.805152 C338.687234,143.382385 340.813014,141.14123 342.845459,138.988904 C377.911111,101.854957 395.316935,80.126158 398.497049,65.8274901 C399.689744,60.4737062 397.449353,55.6089014 393.302354,51.3323541 C391.424667,49.3960103 389.564801,47.9782586 388.227197,47.1384958 L383.557502,54.586111 L383.557502,54.586111 Z" id="Shape" sketch:type="MSShapeGroup"></path>
                <path d="M50.2276548,383.023477 L30.3834374,362.968695 C96.2906653,271.715481 194.105919,177.767487 194.105919,177.767487 L233.486827,217.560535 C233.486827,217.560535 140.772113,311.279934 50.2276548,383.023477" id="Fill-6" sketch:type="MSShapeGroup"></path>
                <path d="M24.6458798,369.373741 C12.2262202,381.801375 0.680813273,413.22874 0.680813273,413.22874 C0.680813273,413.22874 30.0583385,399.763637 42.6888731,386.997507 L24.6458798,369.373741" id="Fill-7" sketch:type="MSShapeGroup"></path>
                <path d="M2.38538629,439.605042 L512,439.605042 L512,422.020841 L2.38538629,422.020841 L2.38538629,439.605042 L2.38538629,439.605042 Z" id="Shape" sketch:type="MSShapeGroup"></path>
            </g>
        </g>
    </g>
</svg>