<?xml version="1.0" encoding="UTF-8" standalone="no"?>
<svg width="512px" height="512px" viewBox="0 0 512 512" version="1.1" xmlns="http://www.w3.org/2000/svg" xmlns:xlink="http://www.w3.org/1999/xlink">
    <!-- Generator: Sketch 39.1 (31720) - http://www.bohemiancoding.com/sketch -->
    <title>icon-paintbrush</title>
    <desc>Created with Sketch.</desc>
    <defs></defs>
    <g id="Page-1" stroke="none" stroke-width="1" fill="none" fill-rule="evenodd">
        <g id="icon-paintbrush" fill="#000000">
            <path d="M423.323442,134.391064 C432.399596,122.972783 444.312207,106.253958 455.831649,88.9544876 C445.93534,95.4146579 434.900565,102.946219 422.674459,111.624742 L207.501477,288.41131 L254.083062,334.07628 L423.323442,134.391064 L423.323442,134.391064 Z M441.345318,149.047965 L255.662664,368.133281 L172.794078,286.895367 L408.487695,93.2490034 C497.930163,29.6805663 511.31354,36.1879359 511.31354,36.1879359 C518.370448,36.9521464 469.337325,113.917429 441.345318,149.047965 L441.345318,149.047965 Z M133.005278,449.761566 C166.547411,442.388523 194.136042,421.812897 214.729171,383.93499 L157.200653,328.556081 C149.635283,330.174184 142.100295,332.720151 135.265479,336.299551 C117.06794,345.829624 106.989557,360.502852 106.989557,384.563812 C106.989557,413.96694 96.7855601,436.214824 79.3746392,451.176726 C97.8252575,453.749361 115.945182,453.511622 133.005278,449.761566 L133.005278,449.761566 Z M0,450.204881 C0,450.204881 83.7168298,460.463831 83.7168298,384.563812 C83.7168298,308.663793 165.136327,303.974318 165.136327,303.974318 L243.080403,379.005917 C169.837011,542.095433 0,450.204881 0,450.204881 L0,450.204881 Z" id="paintbrush"></path>
        </g>
    </g>
</svg>