<?xml version="1.0" encoding="UTF-8" standalone="no"?>
<svg width="512px" height="512px" viewBox="0 0 512 512" version="1.1" xmlns="http://www.w3.org/2000/svg" xmlns:xlink="http://www.w3.org/1999/xlink" xmlns:sketch="http://www.bohemiancoding.com/sketch/ns">
    <!-- Generator: Sketch 3.3.3 (12072) - http://www.bohemiancoding.com/sketch -->
    <title>icon-pdf</title>
    <desc>Created with Sketch.</desc>
    <defs></defs>
    <g id="Page-1" stroke="none" stroke-width="1" fill="none" fill-rule="evenodd" sketch:type="MSPage">
        <g id="icon-pdf" sketch:type="MSArtboardGroup" fill="#000000">
            <path d="M384.106513,325.126094 C384.106513,325.126094 503.187219,310.055745 512,344.173484 C507.41633,279.661633 355.653453,310.850894 355.653453,310.850894 C355.653453,310.850894 342.762601,318.180493 282.21233,245.525793 C282.21233,245.525793 240.333379,183.589451 243.130173,165.607432 C244.88377,154.324064 263.761169,91.6378247 261.129495,46.7254436 C260.805656,87.5754502 232.695636,149.015308 232.402516,146.040285 C232.402516,146.040285 175.621837,9.944276 235.790669,11.5164744 C247.358004,11.8177262 254.24055,17.4057537 257.852702,26.1252487 C253.215272,10.2713864 243.479613,-0.242690377 225.614691,0.00425854785 C159.007473,0.919650373 218.400626,178.572897 218.400626,178.572897 C218.400626,178.572897 217.087349,187.504432 213.479037,194.451325 C213.479037,194.451325 89.7724203,490.205631 23.1613624,493.185827 C23.1613624,493.185827 -2.4001831,483.704798 100.452718,390.523599 C100.452718,390.523599 -40.6913015,463.365774 11.633707,505.18289 C63.9587154,546.998712 145.9899,382.776385 145.9899,382.776385 C145.9899,382.776385 147.541257,376.19539 175.012559,369.437264 C175.012559,369.437264 295.218382,334.803647 334.905978,332.199693 C334.905978,332.199693 342.621801,330.357273 351.451222,335.063525 C351.451222,335.063525 505.379854,419.114078 511.89632,351.578073 C503.225619,374.182303 407.700702,344.031262 384.106513,325.126094 L384.106513,325.126094 Z M155.43756,364.502164 C182.828222,314.032786 210.148484,263.646155 229.781082,207.431012 C252.317994,252.225737 281.412332,289.030177 322.519444,317.568939 C264.716047,328.712671 209.224326,342.75773 155.43756,364.502164 L155.43756,364.502164 Z" id="pdf" sketch:type="MSShapeGroup"></path>
        </g>
    </g>
</svg>