<?xml version="1.0" encoding="UTF-8" standalone="no"?>
<svg width="512px" height="512px" viewBox="0 0 512 512" version="1.1" xmlns="http://www.w3.org/2000/svg" xmlns:xlink="http://www.w3.org/1999/xlink">
    <!-- Generator: Sketch 3.8.1 (29687) - http://www.bohemiancoding.com/sketch -->
    <title>icon-pen</title>
    <desc>Created with Sketch.</desc>
    <defs></defs>
    <g id="Page-1" stroke="none" stroke-width="1" fill="none" fill-rule="evenodd">
        <g id="icon-pen" fill="#000000">
            <g id="pen" transform="translate(0.000000, 24.000000)">
                <path d="M488.012316,97.1305411 L512,73.1428571 L438.857143,0 L85.3333333,353.52381 L48.7619048,463.238095 L158.47619,426.666667 L471.219969,113.922887 C478.597132,130.926677 463.238095,146.285714 463.238095,146.285714 L341.333333,268.190476 L356.571429,283.428571 L478.47619,161.52381 C478.47619,161.52381 514.927022,129.933088 488.012316,97.1305411 L488.012316,97.1305411 Z M377.904762,176.761905 L164.571429,390.095238 L121.904762,347.428571 L335.238095,134.095238 L377.904762,176.761905 L377.904762,176.761905 Z M396.190476,158.47619 L481.52381,73.1428571 L438.857143,30.4761905 L353.52381,115.809524 L396.190476,158.47619 L396.190476,158.47619 Z M146.285714,408.380952 L85.3333333,426.666667 L103.619048,365.714286 L146.285714,408.380952 L146.285714,408.380952 Z" id="Path-755"></path>
                <path d="M0,121.904762 L195.047619,121.904762 L195.047619,146.285714 L0,146.285714 L0,121.904762 L0,121.904762 Z M0,195.047619 L121.904762,195.047619 L121.904762,219.428571 L0,219.428571 L0,195.047619 L0,195.047619 Z M0,268.190476 L48.7619048,268.190476 L48.7619048,292.571429 L0,292.571429 L0,268.190476 L0,268.190476 Z M0,48.7619048 L268.190476,48.7619048 L268.190476,73.1428571 L0,73.1428571 L0,48.7619048 L0,48.7619048 Z" id="Rectangle-1275"></path>
            </g>
        </g>
    </g>
</svg>