<?xml version="1.0" encoding="UTF-8"?>
<svg width="512px" height="512px" viewBox="0 0 512 512" version="1.1" xmlns="http://www.w3.org/2000/svg" xmlns:xlink="http://www.w3.org/1999/xlink">
    <!-- Generator: Sketch 49 (51002) - http://www.bohemiancoding.com/sketch -->
    <title>Pencil</title>
    <desc>Created with Sketch.</desc>
    <defs></defs>
    <g id="Page-1" stroke="none" stroke-width="1" fill="none" fill-rule="evenodd">
        <g id="Edit" fill="#F26724" fill-rule="nonzero">
            <g id="Pencil">
                <path d="M126.094312,454.126432 L437.026506,142.900924 L369.157447,74.9878511 L57.7836867,386.56354 L34.4354697,477.577129 L126.094312,454.126432 Z M18.3969358,510.713568 C8.04148545,513.362985 -1.36741631,503.948008 1.28868508,493.59427 L31.0205826,379.471637 C31.0205826,375.647793 32.5010193,372.072064 35.1364691,369.434905 L359.209814,45.1513954 C364.702697,39.6549508 373.612197,39.6549508 379.10508,45.1513954 L466.855052,132.958274 C472.342328,138.449109 472.342984,147.347536 466.856516,152.83918 L142.783171,477.218236 C140.134249,479.869657 136.690366,481.242537 133.218198,481.33682 L18.3969358,510.713568 Z" id="Stroke-1-Copy"></path>
                <path d="M414.614426,34.7999172 L396.433271,52.9810719 L459.018928,115.566729 L477.200083,97.3855743 L414.614426,34.7999172 Z M424.558836,4.96668761 L507.033312,87.4411644 C512.525458,92.9333103 512.525458,101.837838 507.033312,107.329984 L468.963338,145.399959 C463.471192,150.892105 454.566664,150.892105 449.074518,145.399959 L366.600041,62.9254818 C361.107895,57.4333359 361.107895,48.528808 366.600041,43.0366621 L404.670016,4.96668761 C410.162162,-0.525458307 419.06669,-0.525458307 424.558836,4.96668761 Z" id="Stroke-3-Copy"></path>
            </g>
        </g>
    </g>
</svg>