<svg width="512" height="512" viewBox="0 0 512 512" fill="none" xmlns="http://www.w3.org/2000/svg">
<path fill-rule="evenodd" clip-rule="evenodd" d="M205.899 129.82C210.327 139.132 212.72 148.718 211.799 158.29C210.977 166.842 207.472 174.652 201.082 181.084C189.373 192.864 179.483 215.171 182.451 219.467C185.293 223.582 205.615 244.321 235.453 273.713C236.375 274.621 236.375 274.621 237.297 275.529C249.701 287.737 262.996 300.713 276.291 313.617C280.945 318.133 285.267 322.318 289.144 326.067C293.131 329.918 293.131 329.918 293.598 330.387C294.207 330.919 295.543 331.939 297.204 332.95C298.939 334.007 300.527 334.711 301.602 334.939C304.858 333.292 312.429 329.033 322.622 323.141C328.511 319.733 333.942 316.564 339.343 313.394C342.583 311.492 345.094 310.012 346.516 309.171L348.716 308.162C349.652 307.846 351.009 307.483 352.746 307.154C364.871 304.86 378.808 306.888 392.333 316.289C398.518 320.588 409.765 328.187 424.597 338.116C433.523 344.09 442.51 350.083 451.498 356.061C456.89 359.648 461.085 362.433 463.478 364.02L466.159 366.48C467.674 368.388 469.682 371.41 471.656 375.352C476.944 385.913 478.953 397.154 475.243 408.328C474.328 411.083 473.072 413.743 471.47 416.282C467.808 422.085 461.949 429.484 454.262 438.288C452.811 439.95 451.304 441.65 449.746 443.386C444.44 449.297 438.772 455.36 433.105 461.253C429.705 464.79 427.052 467.493 423.796 470.456C422.052 471.637 419.313 472.994 415.553 474.208C404.183 477.881 389.327 478.358 370.983 474.009C303.599 458.03 246.2 428.586 167.603 350.03C149.769 332.202 133.133 312.454 117.659 291.111C92.973 257.061 72.3694 220.643 55.6321 184.226C49.771 171.473 44.8073 159.62 40.7171 148.962C38.2428 142.514 36.5977 137.859 35.2896 133.249C35.2134 132.668 35.2134 132.668 35.0784 131.122C34.2028 119.368 36.0762 105.604 43.0658 92.1926C44.2773 89.8681 45.627 87.6088 47.1216 85.4205C57.6189 70.0594 70.1469 55.7181 83.6214 46.1701C105.058 30.9801 127.05 30.0471 144.36 49.3097C146.682 51.8933 149.018 54.5407 151.364 57.2475C163.187 70.8862 174.815 85.4633 185.768 100.037C189.601 105.136 193.078 109.874 196.137 114.131C197.921 116.613 199.199 118.422 199.915 119.452C201.538 121.699 203.73 125.258 205.899 129.82ZM351.124 333.465C345.685 336.658 340.214 339.851 335.059 342.834C322.517 350.084 314.449 354.608 310.901 356.301C306.553 358.376 301.877 358.716 297.166 357.786C293 356.965 289.015 355.212 285.103 352.831C282.152 351.034 279.81 349.247 277.864 347.526C276.97 346.666 276.97 346.666 272.969 342.801C269.081 339.042 264.748 334.846 260.083 330.318C246.752 317.38 233.42 304.368 220.972 292.117C220.046 291.206 220.046 291.206 219.12 290.294C186.838 258.493 167.468 238.726 163.303 232.696C151.513 215.63 165.671 183.699 184.574 164.681C187.069 162.169 188.313 159.397 188.633 156.064C189.085 151.367 187.66 145.661 184.881 139.815C183.363 136.623 181.868 134.205 181.02 133.041C178.287 129.108 173.551 122.518 167.164 114.021C156.513 99.8496 145.212 85.682 133.779 72.4923C131.522 69.8892 129.279 67.3463 127.051 64.8674C118.835 55.7248 109.854 56.1057 97.0767 65.1599C86.3269 72.7772 75.4103 85.2739 66.3379 98.5499C65.3707 99.966 64.494 101.434 63.7038 102.95C59.0465 111.886 57.7214 121.466 58.2763 129.25C59.094 131.652 60.4796 135.504 62.4448 140.625C66.3613 150.83 71.1329 162.225 76.7784 174.508C92.917 209.623 112.783 244.738 136.501 277.452C151.281 297.837 167.129 316.65 184.056 333.571C259.381 408.857 312.928 436.325 376.352 451.366C390.613 454.746 401.14 454.408 408.4 452.063C410.476 451.158 413.033 448.553 416.329 445.125C421.824 439.409 427.317 433.533 432.428 427.84C433.917 426.182 435.353 424.561 436.731 422.983C443.687 415.016 448.924 408.403 451.788 403.864C452.383 402.921 452.833 401.969 453.156 400.995C454.588 396.683 453.633 391.338 450.846 385.773C450.124 384.33 449.414 383.124 448.838 382.237C446.365 380.596 442.858 378.266 438.608 375.44C429.604 369.45 420.599 363.446 412.193 357.82C396.706 347.453 385.386 339.803 379.051 335.401C371.168 329.921 363.502 328.806 357.073 330.023C355.468 330.912 353.49 332.077 351.124 333.465Z" fill="#7A7A7A"/>
</svg>
