<?xml version="1.0" encoding="UTF-8" standalone="no"?>
<svg width="512px" height="512px" viewBox="0 0 512 512" version="1.1" xmlns="http://www.w3.org/2000/svg" xmlns:xlink="http://www.w3.org/1999/xlink">
    <!-- Generator: Sketch 39.1 (31720) - http://www.bohemiancoding.com/sketch -->
    <title>phone</title>
    <desc>Created with Sketch.</desc>
    <defs></defs>
    <g id="Page-1" stroke="none" stroke-width="1" fill="none" fill-rule="evenodd">
        <g id="phone" fill="#000000">
            <path d="M496.303021,380.159184 C514.640634,391.812749 517.032497,417.195173 502.840779,440.02339 C486.685541,461.648456 468.936178,482.03262 449.741429,501.005063 L447.509024,502.920717 C437.306256,508.796407 425.614994,511.569982 413.86349,510.902611 C404.13224,510.817727 394.444865,509.585342 385.001681,507.23094 C350.080487,498.92977 265.886923,478.975034 151.55589,364.833947 C84.376888,294.259117 32.8617824,210.261967 0.390173633,118.353052 L0.390173633,115.47957 C-1.47008094,95.6377638 3.35751268,75.7435624 14.1035193,58.9677586 C28.7736099,37.7359199 57.9543337,2.13667146 90.3242077,0.0613789559 C105.383081,-0.701858316 119.920018,5.68743108 129.550754,17.3022706 C152.24553,42.7278133 173.538158,69.3737058 193.333757,97.1212131 C204.974155,113.085002 218.368586,146.928233 194.609417,171.033554 C183.278731,181.914635 175.97062,196.322271 173.879942,211.900853 C179.939327,220.521298 243.881787,283.578263 301.445947,338.334058 C303.437686,339.907768 305.637922,341.197167 307.983705,342.165367 C316.59441,337.695506 361.242513,311.993807 361.242513,311.993807 C369.69376,307.20467 387.712459,303.692637 413.385117,321.412442 L496.303021,380.159184 Z" id="icon-phone-fill"></path>
        </g>
    </g>
</svg>