<?xml version="1.0" encoding="UTF-8" standalone="no"?>
<svg width="512px" height="512px" viewBox="0 0 512 512" version="1.1" xmlns="http://www.w3.org/2000/svg" xmlns:xlink="http://www.w3.org/1999/xlink">
    <!-- Generator: Sketch 39.1 (31720) - http://www.bohemiancoding.com/sketch -->
    <title>pin</title>
    <desc>Created with Sketch.</desc>
    <defs></defs>
    <g id="Page-1" stroke="none" stroke-width="1" fill="none" fill-rule="evenodd">
        <g id="pin" fill="#000000">
            <path d="M233.965007,305.807633 L233.965007,351.238202 C233.965007,426.775505 256.006889,512 256.006889,512 C256.006889,512 278.025803,426.775505 278.025803,351.238202 L278.025803,305.808138 C331.875807,302.857371 380,288.981698 380,264.181118 C380,231.358633 360.923082,202.183091 331.503242,183.720443 C331.503242,183.720443 324.125297,69.229232 321.711954,31.0275061 C319.091751,-10.342502 194.930868,-10.342502 191.827988,31.0275061 C188.954964,69.2064384 180.266917,183.720443 180.266917,183.720443 C150.847077,202.183091 132,231.358633 132,264.181118 C132,288.980286 180.118724,302.855792 233.965007,305.807633 L233.965007,305.807633 Z" id="pin-icon"></path>
        </g>
    </g>
</svg>