<?xml version="1.0" encoding="UTF-8"?>
<svg width="114px" height="110px" viewBox="0 0 114 110" version="1.1" xmlns="http://www.w3.org/2000/svg" xmlns:xlink="http://www.w3.org/1999/xlink">
    <!-- Generator: Sketch 48.2 (47327) - http://www.bohemiancoding.com/sketch -->
    <title>Group 9</title>
    <desc>Created with Sketch.</desc>
    <defs></defs>
    <g id="Sign-In---Mobile-Apps" stroke="none" stroke-width="1" fill="none" fill-rule="evenodd" transform="translate(-539.000000, -1330.000000)">
        <g id="Group-6" transform="translate(518.000000, 1320.000000)" fill="#C0C0C0" fill-rule="nonzero">
            <g id="Group-7">
                <g id="Microsoft_PowerPoint_2013_logo">
                    <g id="g12" transform="translate(77.953878, 64.698193) scale(-1, 1) rotate(-180.000000) translate(-77.953878, -64.698193) translate(0.453878, 0.198193)">
                        <g id="g14-Clipped">
                            <g id="g14" transform="translate(20.937294, 8.832456)">
                                <g id="g20" transform="translate(0.197242, 0.473167)">
                                    <g id="Group-9">
                                        <path d="M108.990933,18.2958015 L64.5053407,18.2958015 L64.5053407,27.8115109 L99.1953585,27.8115109 L99.1953585,32.2277389 L64.5053407,32.2277389 L64.5053407,39.6930568 L99.1953585,39.6930568 L99.1953585,44.1092847 L64.5053407,44.1092847 L64.5053407,56.3819822 C67.3004695,53.0243872 71.4571383,50.89198 76.1027544,50.89198 C84.5201625,50.89198 91.3432573,57.8828688 91.3432573,66.5058693 L76.1027544,66.5058693 L76.1027544,82.1197587 C71.4571383,82.1197587 67.3004695,79.9873515 64.5053407,76.6297565 L64.5053407,94.0025663 L108.997091,94.0025663 L108.990933,18.2958015 Z M108.997091,97.7879046 L64.5053407,97.7879046 L64.5053407,109.695317 L0.153950694,98.2566556 L0.153950694,11.5168916 L64.5053407,0.0782303237 L64.5053407,14.5104633 L108.997091,14.5104633 C111.034783,14.5104633 112.691908,16.2081875 112.691908,18.2958015 L112.691908,94.0025663 C112.691908,96.0901804 111.034783,97.7879046 108.997091,97.7879046 Z M27.2020407,36.1995681 L20.7564331,36.1995681 L20.7564331,73.0574066 C25.7290405,73.0574066 30.6764,73.2006186 35.6052854,72.9608805 C36.9009345,72.8977915 38.4053406,71.91108 39.3616823,70.8991329 C43.022014,67.0273628 43.0226298,62.204211 41.9289641,57.3936769 C40.9541483,53.1093049 38.2563164,50.0949139 34.0041982,49.0350192 C31.8858366,48.5069645 29.6190666,48.6041216 27.2020407,48.4003442 L27.2020407,36.1995681 Z M27.3830868,55.5552643 C29.9503685,55.3533796 32.4579174,54.8619166 34.0171301,57.5886219 C35.1957766,59.6459532 35.0966323,63.405425 33.7295502,64.9864346 C31.9615804,67.0305172 29.6775679,66.7390462 27.3830868,66.3668212 L27.3830868,55.5552643 Z" id="Combined-Shape"></path>
                                        <path d="M78.4631264,84.3285036 L78.4631264,68.7146142 L93.7036293,68.7146142 C93.7036293,77.3376147 86.8805346,84.3285036 78.4631264,84.3285036" id="path26"></path>
                                    </g>
                                </g>
                            </g>
                        </g>
                    </g>
                </g>
            </g>
        </g>
    </g>
</svg>