<?xml version="1.0" encoding="UTF-8" standalone="no"?>
<svg width="512px" height="512px" viewBox="0 0 512 512" version="1.1" xmlns="http://www.w3.org/2000/svg" xmlns:xlink="http://www.w3.org/1999/xlink">
    <!-- Generator: Sketch 39.1 (31720) - http://www.bohemiancoding.com/sketch -->
    <title>private-activity</title>
    <desc>Created with Sketch.</desc>
    <defs></defs>
    <g id="Page-1" stroke="none" stroke-width="1" fill="none" fill-rule="evenodd">
        <g id="private-activity" fill="#000000">
            <g id="icon-private-activity" transform="translate(23.000000, 0.000000)">
                <path d="M23.2727273,75.8518519 C23.2727273,219.487256 64.8236454,327.827428 133.864062,406.584643 C157.855269,433.952391 183.511109,455.69334 209.072372,472.355497 C217.922991,478.124788 226.086324,482.832079 233.336323,486.545306 C237.497339,488.67645 240.297196,489.954014 241.508001,490.447305 L223.946545,490.447305 C225.157349,489.954014 227.957206,488.67645 232.118222,486.545306 C239.368221,482.832079 247.531555,478.124788 256.382173,472.355497 C281.943437,455.69334 307.599276,433.952391 331.590484,406.584643 C400.6309,327.827428 442.181818,219.487256 442.181818,75.8518519 L461.960592,98.8608094 C460.880681,98.6968229 458.946397,98.3813751 456.214139,97.9030613 C451.760069,97.123324 446.621777,96.1580077 440.855574,94.9956144 C424.484017,91.6953164 406.284096,87.4694087 386.704854,82.2241055 C330.745316,67.2324763 274.76164,47.0368833 222.319393,20.8157601 L243.135153,20.8157601 C190.692906,47.0368833 134.709229,67.2324763 78.7496919,82.2241055 C59.1704497,87.4694087 40.9705283,91.6953164 24.5989716,94.9956144 C18.8327679,96.1580077 13.6944767,97.123324 9.24040619,97.9030613 C6.50814856,98.3813751 4.57386417,98.6968229 3.49395281,98.8608094 L23.2727273,75.8518519 L23.2727273,75.8518519 Z M232.727273,2.64580276e-12 C349.090909,58.1818182 465.454545,75.8518519 465.454545,75.8518519 C465.454545,417.185186 232.727273,512 232.727273,512 C232.727273,512 0,417.185186 0,75.8518519 C0,75.8518519 116.363636,58.1818182 232.727273,2.64580276e-12 L232.727273,2.64580276e-12 Z" id="Path-202"></path>
                <path d="M297.965204,183.945645 C308.149487,197.543673 314.181818,214.43101 314.181818,232.727273 C314.181818,277.713375 277.713375,314.181818 232.727273,314.181818 C214.43101,314.181818 197.543673,308.149487 183.945645,297.965204 L297.965204,183.945645 L297.965204,183.945645 Z M281.5089,167.489342 C267.910872,157.305059 251.023536,151.272727 232.727273,151.272727 C187.74117,151.272727 151.272727,187.74117 151.272727,232.727273 C151.272727,251.023536 157.305059,267.910872 167.489342,281.5089 L281.5089,167.489342 L281.5089,167.489342 Z M232.727273,337.454545 C290.566548,337.454545 337.454545,290.566548 337.454545,232.727273 C337.454545,174.887998 290.566548,128 232.727273,128 C174.887998,128 128,174.887998 128,232.727273 C128,290.566548 174.887998,337.454545 232.727273,337.454545 L232.727273,337.454545 Z" id="Combined-Shape"></path>
            </g>
        </g>
    </g>
</svg>