<?xml version="1.0" encoding="UTF-8" standalone="no"?>
<svg width="512px" height="512px" viewBox="0 0 512 512" version="1.1" xmlns="http://www.w3.org/2000/svg" xmlns:xlink="http://www.w3.org/1999/xlink">
    <!-- Generator: Sketch 39.1 (31720) - http://www.bohemiancoding.com/sketch -->
    <title>promote</title>
    <desc>Created with Sketch.</desc>
    <defs></defs>
    <g id="Page-1" stroke="none" stroke-width="1" fill="none" fill-rule="evenodd">
        <g id="promote" fill="#4A4A4A">
            <path d="M53.1695312,314.250049 C61.0220117,316.955136 69.4464249,318.423611 78.2109061,318.423611 L263.779861,318.423611 C310.152777,318.423611 338.703036,442.084722 418.356249,442.084722 C418.356249,442.084722 449.271527,443.290418 449.271527,411.169445 L449.271527,71.1013895 C449.271527,35.6724813 418.356249,40.1861118 418.356249,40.1861118 C356.525694,40.1861118 326.924315,164.898342 263.779861,163.847223 L78.3191096,163.847223 C35.6290148,163.847219 1.01706921,198.445326 1,241.135417 C1.00366099,270.019418 17.0970521,296.496027 42.7356249,309.798249 L93.7458332,473 L186.491666,473 C186.491666,473 217.406944,426.627083 186.491666,395.711806 C155.576389,364.796528 155.576389,318.423611 155.576389,318.423611 L62.8305555,318.423611 L53.1695312,314.250049 L53.1695312,314.250049 Z M366.681363,120.442173 C325.641331,175.795978 304.232502,195.442637 263.779861,194.7625 L78.3191096,194.7625 C52.7080553,194.728353 31.9185115,215.462532 31.8843634,241.073586 C31.8502154,266.684641 52.5843942,287.474185 78.1954485,287.508334 L263.779861,287.508334 C299.394261,287.508334 319.751971,306.119331 344.406905,345.567225 C346.323652,348.627838 353.820607,360.870288 355.690981,363.86907 C377.517167,398.803333 392.480162,411.169445 419.561945,411.20036 C419.59286,411.20036 418.356249,413.086192 418.356249,411.169445 L418.356249,81.4270923 C402.89861,81.4270923 367.237838,119.700206 366.681363,120.426715 L366.681363,120.442173 Z M449.271527,210.220139 C466.345563,210.220139 480.186805,224.061381 480.186805,241.135417 C480.186805,258.209453 466.345563,272.050695 449.271527,272.050695 L449.271527,302.965972 C483.4196,302.965972 511.102083,275.28349 511.102083,241.135417 C511.102083,206.987344 483.4196,179.304862 449.271527,179.304862 L449.271527,210.220139 L449.271527,210.220139 Z M78.2881943,318.423611 L116.932291,442.084722 C116.932291,442.084722 166.443109,443.939639 167.015041,442.146553 C169.024534,436.00987 169.781959,430.321459 169.039992,425.916032 C168.514432,422.731758 166.845007,420.753181 164.634565,417.568907 C154.030625,402.35859 152.484861,406.022051 140.11875,380.254167 C133.76566,366.991513 127.02613,355.55286 125.71223,339.863356 C124.939348,330.434197 124.661111,323.01453 124.661111,318.423611 L78.2881943,318.423611 L78.2881943,318.423611 Z M155.576389,194.7625 L186.491666,194.7625 L186.491666,287.508334 L155.576389,287.508334 L155.576389,194.7625 L155.576389,194.7625 Z" id="Shape"></path>
        </g>
    </g>
</svg>