<?xml version="1.0" encoding="UTF-8" standalone="no"?>
<svg width="512px" height="512px" viewBox="0 0 512 512" version="1.1" xmlns="http://www.w3.org/2000/svg" xmlns:xlink="http://www.w3.org/1999/xlink" xmlns:sketch="http://www.bohemiancoding.com/sketch/ns">
    <!-- Generator: Sketch 3.5.2 (25235) - http://www.bohemiancoding.com/sketch -->
    <title>prov</title>
    <desc>Created with Sketch.</desc>
    <defs></defs>
    <g id="Page-1" stroke="none" stroke-width="1" fill="none" fill-rule="evenodd" sketch:type="MSPage">
        <g id="prov" sketch:type="MSArtboardGroup" fill="#000000">
            <g id="icon-prov" sketch:type="MSLayerGroup">
                <path d="M511.99872,182.0288 L469.9712,182.0288 C460.3264,153.69472 445.22624,127.90144 425.89056,105.89184 L448.75264,83.03232 L428.24448,62.51904 L405.39776,85.3632 C383.584,66.144 358.03648,51.08608 329.96992,41.39008 L329.96992,0.00128 L300.96,0.00128 L300.96,33.4592 C286.50496,30.55488 271.55456,29.01248 256.24192,29.01248 C240.2432,29.01248 224.64128,30.7008 209.58464,33.86496 L209.58464,0.00128 L180.576,0.00128 L180.576,42.04672 C152.82816,51.91552 127.58912,67.0528 106.048,86.26304 L78.67904,58.89408 L58.1632,79.40352 L85.69088,106.9312 C66.78784,128.71296 52.00384,154.1376 42.5088,182.03008 L0,182.03008 L0,211.04 L34.7328,211.04 C31.95136,225.19936 30.45504,239.82336 30.45504,254.79936 C30.45504,271.14112 32.23168,287.06048 35.53024,302.41536 L0,302.41536 L0,331.424 L43.81696,331.424 C53.71008,358.85312 68.7744,383.79648 87.8208,405.11872 L63.2448,429.69472 L83.75552,450.20416 L108.5056,425.45408 C129.504,443.648 153.8688,458.0416 180.576,467.54048 L180.576,512 L209.58464,512 L209.58464,475.7248 C224.64256,478.88896 240.24192,480.57472 256.24192,480.57472 C271.55456,480.57472 286.50496,479.03488 300.96,476.12672 L300.96,512 L329.96992,512 L329.96992,468.19456 C358.14656,458.46144 383.78496,443.32416 405.6576,423.99616 L431.8656,450.20032 L452.37888,429.69088 L426.11968,403.43296 C444.46592,382.4832 459.02336,358.13632 468.66432,331.42272 L512,331.42272 L512,302.4128 L476.95232,302.4128 C480.2496,287.05792 482.02624,271.13856 482.02624,254.7968 C482.02624,239.81952 480.53248,225.19808 477.75104,211.03744 L512,211.03744 L511.99872,182.0288 L511.99872,182.0288 L511.99872,182.0288 Z M270.50368,102.69952 C302.79936,105.69088 332.16512,118.73664 355.47008,138.67392 L304.12544,195.90144 C294.56896,188.12416 283.08864,182.63552 270.50368,180.24192 L270.50368,102.69952 L270.50368,102.69952 Z M257.20448,223.3664 C274.56384,223.3664 288.6336,237.43488 288.6336,254.79424 C288.6336,272.15232 274.56384,286.22208 257.20448,286.22208 C239.84896,286.22208 225.78176,272.15232 225.78176,254.79424 C225.78176,237.43488 239.85152,223.3664 257.20448,223.3664 L257.20448,223.3664 Z M239.32032,102.96832 L239.32032,180.80384 C220.94592,184.99072 205.11488,195.83488 194.49344,210.67392 L109.9584,210.67392 C127.32544,153.02272 177.81632,109.74848 239.32032,102.96832 L239.32032,102.96832 Z M103.46368,254.7968 C103.46368,250.43328 103.69024,246.12736 104.04736,241.85728 L181.45536,241.85728 C180.73344,246.06336 180.33536,250.37952 180.33536,254.79168 C180.33536,275.04128 188.28032,293.42208 201.2032,307.03232 L149.79328,364.33024 C121.23136,336.5696 103.46368,297.77024 103.46368,254.7968 L103.46368,254.7968 Z M256.24192,407.56864 C226.08256,407.56864 197.98784,398.79296 174.30272,383.70944 L227.08352,324.88192 C236.06144,328.62208 245.90976,330.6944 256.2432,330.6944 C272.23808,330.6944 287.0656,325.73952 299.29856,317.29152 L357.29792,369.32736 C330.36288,393.10976 294.99904,407.56864 256.24192,407.56864 L256.24192,407.56864 Z M320.81024,294.6944 C327.99232,283.09632 332.1472,269.43488 332.1472,254.79168 C332.1472,242.44608 329.18144,230.80064 323.95136,220.49792 L377.0496,161.32224 C397.07136,187.16416 409.01888,219.57504 409.01888,254.7968 C409.01888,289.18144 397.65248,320.9088 378.4832,346.44096 L320.81024,294.6944 L320.81024,294.6944 Z" id="Shape" sketch:type="MSShapeGroup"></path>
            </g>
        </g>
    </g>
</svg>