<svg width="512" height="512" viewBox="0 0 512 512" fill="none" xmlns="http://www.w3.org/2000/svg">
<path fill-rule="evenodd" clip-rule="evenodd" d="M469.333 416.97V95.0301C469.333 77.9015 457.4 64 442.667 64H389.333C374.613 64 362.667 77.9015 362.667 95.0301V448H442.667C457.4 448 469.333 434.114 469.333 416.97ZM320 448V180.353C320 163.23 308.067 149.333 293.333 149.333H240C225.28 149.333 213.333 163.23 213.333 180.353V448H320ZM90.6667 448H170.667V265.669C170.667 248.556 158.733 234.667 144 234.667H90.6667C75.9467 234.667 64 248.556 64 265.669V416.998C64 434.126 75.9467 448 90.6667 448Z" fill="#A7A7A7"/>
</svg>
