<?xml version="1.0" encoding="UTF-8" standalone="no"?>
<svg width="512px" height="512px" viewBox="0 0 512 512" version="1.1" xmlns="http://www.w3.org/2000/svg" xmlns:xlink="http://www.w3.org/1999/xlink" xmlns:sketch="http://www.bohemiancoding.com/sketch/ns">
    <!-- Generator: Sketch 3.5.2 (25235) - http://www.bohemiancoding.com/sketch -->
    <title>replay</title>
    <desc>Created with Sketch.</desc>
    <defs></defs>
    <g id="Page-1" stroke="none" stroke-width="1" fill="none" fill-rule="evenodd" sketch:type="MSPage">
        <g id="replay" sketch:type="MSArtboardGroup" fill="#222222">
            <g id="icon-replay" sketch:type="MSLayerGroup">
                <path d="M457.142473,27.4218899 L457.142473,97.6279481 C423.852316,55.308891 377.004316,23.0913165 320.891555,8.40528178 C184.114415,-27.3894184 44.2104173,54.4436117 8.40699031,191.187386 C-27.3964381,327.931025 54.4565128,467.800961 191.233653,503.595661 C327.161523,539.168854 466.161394,458.556673 503.021329,323.34041 C503.240758,322.668073 503.419552,321.98159 503.586154,321.286887 C504.195679,318.398401 504.380567,316.643455 504.380567,314.841755 C504.380567,299.696673 492.100695,287.419865 476.951997,287.419865 C464.334854,287.419865 453.735235,295.949105 450.535235,307.545492 C422.092822,414.606493 312.388698,478.611293 205.124701,450.539433 C97.6575283,422.414622 33.3446407,312.51593 61.4761957,205.074971 C89.6077507,97.6340113 199.531303,33.3368326 306.998475,61.4615093 C353.507174,73.6328176 391.907173,101.131912 418.248759,137.109315 L347.428189,137.109315 C332.279492,137.109315 319.999619,149.386257 319.999619,164.531205 C319.999619,179.676287 332.279492,191.953095 347.428189,191.953095 L457.142473,191.953095 L511.999614,191.953095 L511.999614,137.109315 L511.999614,27.4218899 C511.999614,12.2769419 499.719742,0 484.571044,0 C469.422346,0 457.142473,12.2769419 457.142473,27.4218899 L457.142473,27.4218899 Z" id="Replay" sketch:type="MSShapeGroup"></path>
            </g>
        </g>
    </g>
</svg>