<?xml version="1.0" encoding="UTF-8" standalone="no"?>
<svg width="512px" height="512px" viewBox="0 0 512 512" version="1.1" xmlns="http://www.w3.org/2000/svg" xmlns:xlink="http://www.w3.org/1999/xlink">
    <!-- Generator: Sketch 39.1 (31720) - http://www.bohemiancoding.com/sketch -->
    <title>rotate</title>
    <desc>Created with Sketch.</desc>
    <defs></defs>
    <g id="Page-1" stroke="none" stroke-width="1" fill="none" fill-rule="evenodd">
        <g id="rotate" fill="#000000">
            <g id="icon-rotate" transform="translate(0.000000, 28.000000)">
                <path d="M7.19249145,214.280502 C-0.108171342,214.280502 -2.21048143,218.802149 2.59114323,224.491613 L64.4742339,297.817112 C69.2336422,303.456553 76.9079515,303.506576 81.7095761,297.817112 L143.592667,224.491613 C148.352075,218.852172 146.200488,214.280502 138.991319,214.280502 L7.19249145,214.280502 L7.19249145,214.280502 Z" id="Path-2"></path>
                <path d="M286.89345,455.346068 C411.216364,455.346068 512,353.413378 512,227.673034 C512,101.932689 411.216364,0 286.89345,0 C169.802679,0 72.5267528,90.7796298 62.6135613,208.033057 C62.4027826,210.526151 61.5822137,220.02711 60.3482315,234.275863 L86.7241884,236.684126 C87.9673685,222.329169 88.7872016,212.836727 89.0003933,210.31509 C97.744387,106.890959 183.582756,26.7850628 286.89345,26.7850628 C396.590138,26.7850628 485.516876,116.725671 485.516876,227.673034 C485.516876,338.620396 396.590138,428.561005 286.89345,428.561005 C222.351865,428.561005 162.360255,395.71234 124.920181,342.206658 L103.303032,357.679928 C145.604571,418.133142 213.566644,455.346068 286.89345,455.346068 L286.89345,455.346068 Z" id="Oval-2"></path>
            </g>
        </g>
    </g>
</svg>