<?xml version="1.0" encoding="UTF-8" standalone="no"?>
<svg width="512px" height="512px" viewBox="0 0 512 512" version="1.1" xmlns="http://www.w3.org/2000/svg" xmlns:xlink="http://www.w3.org/1999/xlink">
    <!-- Generator: Sketch 39.1 (31720) - http://www.bohemiancoding.com/sketch -->
    <title>icon-rss</title>
    <desc>Created with Sketch.</desc>
    <defs></defs>
    <g id="Page-1" stroke="none" stroke-width="1" fill="none" fill-rule="evenodd">
        <g id="icon-rss" fill="#000000">
            <path d="M128.096,448.104505 C128.096,483.456028 99.4392747,512 64.0661618,512 C28.7825636,512 0.096,483.456028 0.096,448.104505 C0.096,412.842553 28.7825636,384 64.0661618,384 C99.4392747,384 128.096,412.842553 128.096,448.104505 L128.096,448.104505 Z M320,512 L232.940487,512 C231.798642,450.00886 207.202247,391.992292 163.441038,348.21029 C119.648967,304.335844 61.7224533,279.748892 0,278.608896 L0,192 C175.38432,194.372437 317.623694,336.625465 320,512 L320,512 Z M421.052416,512 C418.565575,280.793941 231.05078,93.114368 0,90.5995093 L0,0 C281.207609,2.51485867 509.480846,230.786901 512,512 L421.052416,512 L421.052416,512 Z" id="rss"></path>
        </g>
    </g>
</svg>