<?xml version="1.0" encoding="UTF-8" standalone="no"?>
<svg width="512px" height="512px" viewBox="0 0 512 512" version="1.1" xmlns="http://www.w3.org/2000/svg" xmlns:xlink="http://www.w3.org/1999/xlink" xmlns:sketch="http://www.bohemiancoding.com/sketch/ns">
    <!-- Generator: Sketch 3.5.2 (25235) - http://www.bohemiancoding.com/sketch -->
    <title>rtf</title>
    <desc>Created with Sketch.</desc>
    <defs></defs>
    <g id="Page-1" stroke="none" stroke-width="1" fill="none" fill-rule="evenodd" sketch:type="MSPage">
        <g id="rtf" sketch:type="MSArtboardGroup" fill="#555555">
            <g id="icon-rtf" sketch:type="MSLayerGroup" transform="translate(0.000000, 96.000000)">
                <path d="M503.355844,17.2972973 L187.844156,17.2972973 C183.06826,17.2972973 179.2,13.427027 179.2,8.64864865 C179.2,3.87027027 183.06826,0 187.844156,0 L503.355844,0 C508.131742,0 512,3.87027027 512,8.64864865 C512,13.427027 508.131742,17.2972973 503.355844,17.2972973" id="Fill-4" sketch:type="MSShapeGroup"></path>
                <path d="M123.733333,138.378378 L12.8,138.378378 C5.73013333,138.378378 0,132.570811 0,125.405405 L0,12.972973 C0,5.80756757 5.73013333,0 12.8,0 L123.733333,0 C130.8032,0 136.533333,5.80756757 136.533333,12.972973 L136.533333,125.405405 C136.533333,132.570811 130.8032,138.378378 123.733333,138.378378" id="Fill-5" sketch:type="MSShapeGroup"></path>
                <path d="M503.355844,77.8378378 L187.844156,77.8378378 C183.06826,77.8378378 179.2,73.9675676 179.2,69.1891892 C179.2,64.4108108 183.06826,60.5405405 187.844156,60.5405405 L503.355844,60.5405405 C508.131742,60.5405405 512,64.4108108 512,69.1891892 C512,73.9675676 508.131742,77.8378378 503.355844,77.8378378" id="Fill-6" sketch:type="MSShapeGroup"></path>
                <path d="M503.355844,138.378378 L187.844156,138.378378 C183.06826,138.378378 179.2,134.508108 179.2,129.72973 C179.2,124.951351 183.06826,121.081081 187.844156,121.081081 L503.355844,121.081081 C508.131742,121.081081 512,124.951351 512,129.72973 C512,134.508108 508.131742,138.378378 503.355844,138.378378" id="Fill-7" sketch:type="MSShapeGroup"></path>
                <path d="M503.466667,198.918919 L8.53333333,198.918919 C3.81866667,198.918919 0,195.048649 0,190.27027 C0,185.491892 3.81866667,181.621622 8.53333333,181.621622 L503.466667,181.621622 C508.181333,181.621622 512,185.491892 512,190.27027 C512,195.048649 508.181333,198.918919 503.466667,198.918919" id="Fill-8" sketch:type="MSShapeGroup"></path>
                <path d="M503.466667,259.459459 L8.53333333,259.459459 C3.81866667,259.459459 0,255.589189 0,250.810811 C0,246.032432 3.81866667,242.162162 8.53333333,242.162162 L503.466667,242.162162 C508.181333,242.162162 512,246.032432 512,250.810811 C512,255.589189 508.181333,259.459459 503.466667,259.459459" id="Fill-9" sketch:type="MSShapeGroup"></path>
                <path d="M503.466667,320 L8.53333333,320 C3.81866667,320 0,316.12973 0,311.351351 C0,306.572973 3.81866667,302.702703 8.53333333,302.702703 L503.466667,302.702703 C508.181333,302.702703 512,306.572973 512,311.351351 C512,316.12973 508.181333,320 503.466667,320" id="Fill-10" sketch:type="MSShapeGroup"></path>
            </g>
        </g>
    </g>
</svg>