<?xml version="1.0" encoding="UTF-8" standalone="no"?>
<svg width="512px" height="512px" viewBox="0 0 512 512" version="1.1" xmlns="http://www.w3.org/2000/svg" xmlns:xlink="http://www.w3.org/1999/xlink" xmlns:sketch="http://www.bohemiancoding.com/sketch/ns">
    <!-- Generator: Sketch 3.5.2 (25235) - http://www.bohemiancoding.com/sketch -->
    <title>rtfd</title>
    <desc>Created with Sketch.</desc>
    <defs></defs>
    <g id="Page-1" stroke="none" stroke-width="1" fill="none" fill-rule="evenodd" sketch:type="MSPage">
        <g id="rtfd" sketch:type="MSArtboardGroup" fill="#555555">
            <g id="icon-rtfd" sketch:type="MSLayerGroup" transform="translate(0.000000, 96.000000)">
                <path d="M503.466667,17.2972973 L153.6,17.2972973 C148.885333,17.2972973 145.066667,13.427027 145.066667,8.64864865 C145.066667,3.87027027 148.885333,0 153.6,0 L503.466667,0 C508.181333,0 512,3.87027027 512,8.64864865 C512,13.427027 508.181333,17.2972973 503.466667,17.2972973" id="Fill-4" sketch:type="MSShapeGroup"></path>
                <path d="M503.466667,77.8378378 L153.6,77.8378378 C148.885333,77.8378378 145.066667,73.9675676 145.066667,69.1891892 C145.066667,64.4108108 148.885333,60.5405405 153.6,60.5405405 L503.466667,60.5405405 C508.181333,60.5405405 512,64.4108108 512,69.1891892 C512,73.9675676 508.181333,77.8378378 503.466667,77.8378378" id="Fill-5" sketch:type="MSShapeGroup"></path>
                <path d="M503.466667,138.378378 L153.6,138.378378 C148.885333,138.378378 145.066667,134.508108 145.066667,129.72973 C145.066667,124.951351 148.885333,121.081081 153.6,121.081081 L503.466667,121.081081 C508.181333,121.081081 512,124.951351 512,129.72973 C512,134.508108 508.181333,138.378378 503.466667,138.378378" id="Fill-6" sketch:type="MSShapeGroup"></path>
                <path d="M503.466667,198.918919 L153.6,198.918919 C148.885333,198.918919 145.066667,195.048649 145.066667,190.27027 C145.066667,185.491892 148.885333,181.621622 153.6,181.621622 L503.466667,181.621622 C508.181333,181.621622 512,185.491892 512,190.27027 C512,195.048649 508.181333,198.918919 503.466667,198.918919" id="Fill-7" sketch:type="MSShapeGroup"></path>
                <path d="M503.466667,259.459459 L8.53333333,259.459459 C3.81866667,259.459459 0,255.589189 0,250.810811 C0,246.032432 3.81866667,242.162162 8.53333333,242.162162 L503.466667,242.162162 C508.181333,242.162162 512,246.032432 512,250.810811 C512,255.589189 508.181333,259.459459 503.466667,259.459459" id="Fill-8" sketch:type="MSShapeGroup"></path>
                <path d="M503.466667,320 L8.53333333,320 C3.81866667,320 0,316.12973 0,311.351351 C0,306.572973 3.81866667,302.702703 8.53333333,302.702703 L503.466667,302.702703 C508.181333,302.702703 512,306.572973 512,311.351351 C512,316.12973 508.181333,320 503.466667,320" id="Fill-9" sketch:type="MSShapeGroup"></path>
                <path d="M17.0666667,147.027027 L17.0666667,51.8918919 C17.0666667,32.7851654 32.3480299,17.2972973 51.2,17.2972973 C70.0519701,17.2972973 85.3333333,32.7851654 85.3333333,51.8918919 L85.3333333,177.297297 C85.3333333,189.238618 75.7821035,198.918919 64,198.918919 C52.2178965,198.918919 42.6666667,189.238618 42.6666667,177.297297 L42.6666667,60.5405405 C42.6666667,55.7646249 46.4877632,51.8918919 51.2,51.8918919 C55.9122368,51.8918919 59.7333333,55.7646249 59.7333333,60.5405405 L59.7333333,147.027027 L76.8,147.027027 L76.8,60.5405405 C76.8,46.2115914 65.3378965,34.5945946 51.2,34.5945946 C37.0621035,34.5945946 25.6,46.2115914 25.6,60.5405405 L25.6,177.297297 C25.6,198.791652 42.7922368,216.216216 64,216.216216 C85.2077632,216.216216 102.4,198.791652 102.4,177.297297 L102.4,51.8918919 C102.4,23.2321319 79.4776299,0 51.2,0 C22.9223701,0 0,23.2321319 0,51.8918919 L0,147.027027 L17.0666667,147.027027 L17.0666667,147.027027 Z" id="Shape" sketch:type="MSShapeGroup"></path>
            </g>
        </g>
    </g>
</svg>