<?xml version="1.0" encoding="UTF-8" standalone="no"?>
<svg width="512px" height="512px" viewBox="0 0 512 512" version="1.1" xmlns="http://www.w3.org/2000/svg" xmlns:xlink="http://www.w3.org/1999/xlink">
    <!-- Generator: Sketch 39.1 (31720) - http://www.bohemiancoding.com/sketch -->
    <title>icon-s3</title>
    <desc>Created with Sketch.</desc>
    <defs></defs>
    <g id="Page-1" stroke="none" stroke-width="1" fill="none" fill-rule="evenodd">
        <g id="icon-s3" fill="#000000">
            <g id="s3" transform="translate(12.000000, 0.000000)">
                <path d="M244,28.3426106 L483.481481,63.9994433 L483.481481,85.0278319 C483.481481,117.027554 375.940741,141.713053 244,141.713053 C112.059259,141.713053 4.51851852,116.113276 4.51851852,85.0278319 L4.51851852,62.1708878 L244,28.3426106 L244,28.3426106 Z" id="Shape"></path>
                <path d="M244,181.026997 C344.311111,181.026997 430.162963,166.398553 465.407407,145.370164 L477.155556,125.256053 L481.674074,106.970498 L481.674074,129.827442 L403.051852,468.110214 C403.051852,489.138603 331.659259,505.595602 243.096296,505.595602 C154.533333,505.595602 83.1407407,489.138603 83.1407407,468.110214 L4.51851852,129.827442 L4.51851852,106.970498 L22.5925926,145.370164 C60.5481481,167.31283 145.496296,181.026997 244,181.026997 L244,181.026997 Z" id="Shape"></path>
                <path d="M244,5.48566657 C375.940741,5.48566657 483.481481,31.0854439 483.481481,62.1708878 C483.481481,94.1706095 375.940741,118.856109 244,118.856109 C112.059259,118.856109 4.51851852,93.2563317 4.51851852,62.1708878 C4.51851852,31.0854439 112.059259,5.48566657 244,5.48566657 L244,5.48566657 Z" id="Shape"></path>
                <path d="M244,158.170053 C366.903704,158.170053 469.022222,136.227387 481.674074,107.884776 L403.051852,446.167548 C403.051852,467.195936 331.659259,483.652936 243.096296,483.652936 C154.533333,483.652936 83.1407407,467.195936 83.1407407,446.167548 L4.51851852,107.884776 C18.9777778,136.227387 121.096296,158.170053 244,158.170053 L244,158.170053 Z" id="Shape"></path>
            </g>
        </g>
    </g>
</svg>