<?xml version="1.0" encoding="UTF-8" standalone="no"?>
<svg width="512px" height="512px" viewBox="0 0 512 512" version="1.1" xmlns="http://www.w3.org/2000/svg" xmlns:xlink="http://www.w3.org/1999/xlink">
    <!-- Generator: Sketch 39.1 (31720) - http://www.bohemiancoding.com/sketch -->
    <title>icon-salesforce</title>
    <desc>Created with Sketch.</desc>
    <defs></defs>
    <g id="Page-1" stroke="none" stroke-width="1" fill="none" fill-rule="evenodd">
        <g id="icon-salesforce" fill="#000000">
            <g id="salesforce" transform="translate(0.000000, 76.000000)">
                <path d="M212.73105,39.1048588 C229.214395,21.8943094 252.168147,11.2182775 277.555794,11.2182775 C311.305476,11.2182775 340.74228,30.0704978 356.423114,58.0639201 C370.051847,51.9648075 385.130813,48.570029 400.998513,48.570029 C461.863489,48.570029 511.211435,98.4497187 511.211435,159.976198 C511.211435,221.510718 461.863489,271.390408 400.998513,271.390408 C393.568516,271.390408 386.310478,270.637928 379.285159,269.222575 C365.483336,293.894745 339.171684,310.57109 308.969059,310.57109 C296.330834,310.57109 284.37818,307.649628 273.72329,302.439705 C259.734573,335.431664 227.118731,358.569003 189.116959,358.569003 C149.53653,358.569003 115.801784,333.474066 102.856302,298.276362 C97.1987023,299.473438 91.3312672,300.10644 85.3205569,300.10644 C38.1978024,300.10644 0,261.430094 0,213.718238 C0,181.734946 17.1528486,153.817346 42.6596986,138.880322 C37.4079364,126.765961 34.4936946,113.40972 34.4936946,99.360737 C34.4936946,44.4894021 78.9498625,0 133.781187,0 C165.975153,0 194.586562,15.3368156 212.73105,39.1048588 L212.73105,39.1048588 Z M74.039726,185.943092 C73.7164305,186.78633 74.1520548,186.959803 74.2575381,187.103405 C75.2193909,187.80304 76.1881176,188.307374 77.1729114,188.872596 C82.3868535,191.642414 87.3153485,192.44774 92.4616557,192.44774 C102.950329,192.44774 109.464327,186.862152 109.464327,177.864554 L109.464327,177.691081 C109.464327,169.37129 102.108839,166.345284 95.2188181,164.162517 L94.3177264,163.87531 C89.1186634,162.181942 84.6326948,160.720636 84.6326948,157.287947 L84.6326948,157.114474 C84.6326948,154.178077 87.2557189,152.017137 91.3198108,152.017137 C95.8355943,152.017137 101.19284,153.523247 104.641315,155.436041 C104.641315,155.436041 105.66277,156.090871 106.030759,155.105179 C106.233692,154.569826 107.977406,149.864239 108.164271,149.351863 C108.360302,148.802725 108.014094,148.387999 107.65411,148.169722 C103.709249,145.768677 98.2625874,144.127006 92.6279001,144.127006 L91.583505,144.135048 C81.9810157,144.135048 75.2789923,149.946954 75.2789923,158.273639 L75.2789923,158.447112 C75.2789923,167.218391 82.6723288,170.072073 89.5990382,172.052648 L90.7110683,172.398444 C95.7599257,173.949358 100.110625,175.290037 100.110625,178.843353 L100.110625,179.023719 C100.110625,182.276042 97.2777936,184.701212 92.7253498,184.701212 C90.9518214,184.701212 85.3091006,184.671343 79.215848,180.808993 C78.4798409,180.37129 78.0590957,180.063405 77.4881733,179.71646 C77.1878188,179.528053 76.4357445,179.205233 76.1055752,180.190925 L74.039726,185.943092 L74.039726,185.943092 Z M227.555515,185.943092 C227.232219,186.78633 227.667872,186.959803 227.773327,187.103405 C228.73518,187.80304 229.703906,188.307374 230.6887,188.872596 C235.902642,191.642414 240.831137,192.44774 245.977444,192.44774 C256.466118,192.44774 262.980116,186.862152 262.980116,177.864554 L262.980116,177.691081 C262.980116,169.37129 255.624628,166.345284 248.735767,164.162517 L247.833515,163.87531 C242.63448,162.181942 238.149643,160.720636 238.149643,157.287947 L238.149643,157.114474 C238.149643,154.178077 240.771536,152.017137 244.8356,152.017137 C249.351383,152.017137 254.708629,153.523247 258.157104,155.436041 C258.157104,155.436041 259.178558,156.090871 259.546576,155.105179 C259.749481,154.569826 261.493194,149.864239 261.68122,149.351863 C261.876091,148.802725 261.529883,148.387999 261.169899,148.169722 C257.225038,145.768677 251.78525,144.127006 246.143689,144.127006 L245.099294,144.135048 C235.496804,144.135048 228.794809,149.946954 228.794809,158.273639 L228.794809,158.447112 C228.794809,167.218391 236.194991,170.072073 243.115958,172.052648 L244.226857,172.398444 C249.275714,173.949358 253.634447,175.290037 253.634447,178.843353 L253.634447,179.023719 C253.634447,182.276042 250.801616,184.701212 246.241139,184.701212 C244.46761,184.701212 238.832923,184.671343 232.731637,180.808993 C231.99563,180.37129 231.559977,180.07834 231.003962,179.71646 C230.815936,179.595833 229.929752,179.250037 229.629398,180.190925 L227.555515,185.943092 L227.555515,185.943092 Z M341.109138,158.890558 C340.252768,155.977137 338.90799,153.409513 337.127588,151.27155 C335.347186,149.125544 333.085306,147.401158 330.403812,146.151236 C327.728032,144.901314 324.573065,144.261419 321.026037,144.261419 C317.473238,144.261419 314.310266,144.901314 311.635646,146.151236 C308.959866,147.401158 306.699117,149.125544 304.917583,151.278443 C303.130279,153.417555 301.792403,155.985179 300.936034,158.890558 C300.079636,161.789044 299.644011,164.958652 299.644011,168.316668 C299.644011,171.674684 300.079636,174.852334 300.936034,177.742778 C301.792403,180.649306 303.130279,183.21693 304.917583,185.362936 C306.699117,187.507792 308.967899,189.225286 311.642519,190.444189 C314.317139,191.664242 317.473238,192.282309 321.026037,192.282309 C324.573065,192.282309 327.721158,191.664242 330.403812,190.444189 C333.078404,189.225286 335.339181,187.507792 337.127588,185.362936 C338.90799,183.224972 340.252768,180.657348 341.109138,177.742778 C341.966667,174.844293 342.40232,171.674684 342.40232,168.316668 C342.40232,164.958652 341.966667,161.789044 341.109138,158.890558 L341.109138,158.890558 Z M332.357304,168.316668 C332.357304,173.399071 331.410358,177.411917 329.546282,180.242622 C327.698217,183.043458 324.911268,184.414006 321.026037,184.414006 C317.135063,184.414006 314.361833,183.043458 312.544743,180.242622 C310.703579,177.411917 309.771541,173.399071 309.771541,168.316668 C309.771541,163.242308 310.703579,159.236354 312.536737,156.436667 C314.361833,153.665701 317.135063,152.316981 321.026037,152.316981 C324.911268,152.316981 327.698217,153.665701 329.546282,156.436667 C331.410358,159.236354 332.357304,163.242308 332.357304,168.316668 L332.357304,168.316668 Z M412.991279,183.050351 C412.704672,182.199071 411.871215,182.52304 411.871215,182.52304 C410.600974,183.012439 409.249351,183.457035 407.799118,183.682204 C406.342011,183.916565 404.733567,184.029149 403.005893,184.029149 C398.775585,184.029149 395.401646,182.764293 392.99072,180.271342 C390.578634,177.771499 389.218949,173.736825 389.233856,168.277608 C389.248764,163.316981 390.443336,159.582151 392.591756,156.728469 C394.7264,153.897764 397.978816,152.4445 402.306574,152.4445 C405.913232,152.4445 408.670395,152.866119 411.555953,153.770244 C411.555953,153.770244 412.247238,154.071236 412.570533,153.167111 C413.344389,151.029148 413.907278,149.516145 414.725827,147.174839 C414.959707,146.503925 414.388784,146.22591 414.177817,146.143194 C413.042875,145.698599 410.368255,144.967946 408.340225,144.658912 C406.45434,144.374003 404.238313,144.222359 401.7735,144.222359 C398.099179,144.222359 394.82385,144.855361 392.020834,146.105283 C389.218949,147.347163 386.851585,149.07155 384.965728,151.217555 C383.087876,153.36356 381.660556,155.930035 380.713611,158.836563 C379.759791,161.735049 379.286319,164.912699 379.286319,168.28565 C379.286319,175.558862 381.239839,181.438549 385.109032,185.738601 C388.986229,190.067374 394.800909,192.258184 402.389116,192.258184 C406.875085,192.258184 411.473411,191.347166 414.786588,190.044398 C414.786588,190.044398 415.417112,189.735364 415.13967,188.997818 L412.991279,183.050351 L412.991279,183.050351 Z M457.774165,157.240845 C457.030124,154.425075 455.188989,151.586328 453.987515,150.291602 C452.078716,148.228312 450.207738,146.789983 448.359701,145.991549 C445.947615,144.953011 443.047178,144.268312 439.86927,144.268312 C436.173196,144.268312 432.814165,144.893273 430.086789,146.173064 C427.359441,147.452855 425.068878,149.207111 423.265563,151.391027 C421.469122,153.566902 420.11747,156.156354 419.253067,159.100793 C418.388664,162.021106 417.953011,165.20565 417.953011,168.571707 C417.953011,171.997504 418.403571,175.190089 419.297789,178.050663 C420.200012,180.949149 421.642212,183.486904 423.587699,185.60304 C425.541219,187.726069 428.043881,189.381526 431.041768,190.548732 C434.023645,191.701004 437.64521,192.302988 441.80101,192.288053 C450.357944,192.265077 454.865694,190.353432 456.721736,189.321787 C457.051934,189.13338 457.360322,188.817453 456.977397,187.898393 L455.030778,182.462152 C454.738429,181.656826 453.91988,181.950925 453.91988,181.950925 C451.793269,182.741317 448.78848,184.156669 441.755128,184.141735 C437.15683,184.134842 433.754236,182.779228 431.619564,180.648157 C429.433352,178.479175 428.351109,175.287739 428.171117,170.777452 L457.795946,170.800428 C457.795946,170.800428 458.577807,170.792386 458.660349,170.024971 C458.690164,169.709044 459.674958,163.925859 457.774165,157.240845 L457.774165,157.240845 Z M428.306415,163.444501 C428.727132,160.620689 429.500987,158.27249 430.703593,156.442412 C432.513782,153.664552 435.278978,152.128573 439.171083,152.128573 C443.062057,152.128573 445.62432,153.664552 447.473517,156.442412 C448.697904,158.279383 449.231006,160.718339 449.441945,163.452542 L428.306415,163.444501 L428.306415,163.444501 Z M220.469435,157.240845 C219.725422,154.425075 217.884259,151.586328 216.681653,150.291602 C214.773986,148.228312 212.911042,146.789983 211.054971,145.991549 C208.63488,144.953011 205.742448,144.268312 202.572574,144.268312 C198.868466,144.268312 195.509435,144.893273 192.782087,146.173064 C190.054711,147.452855 187.763016,149.207111 185.960833,151.391027 C184.164392,153.566902 182.81274,156.156354 181.948337,159.100793 C181.083934,162.021106 180.648281,165.20565 180.648281,168.571707 C180.648281,171.997504 181.098841,175.190089 181.993059,178.050663 C182.895282,180.949149 184.337482,183.486904 186.282968,185.60304 C188.236489,187.726069 190.73915,189.381526 193.737038,190.548732 C196.718914,191.701004 200.34048,192.302988 204.49512,192.288053 C213.053214,192.265077 217.560964,190.353432 219.417034,189.321787 C219.747204,189.13338 220.055592,188.817453 219.672667,187.898393 L217.726048,182.462152 C217.433699,181.656826 216.614018,181.950925 216.614018,181.950925 C214.488539,182.741317 211.48259,184.156669 204.450426,184.141735 C199.860105,184.134842 196.449506,182.779228 194.314862,180.648157 C192.128622,178.479175 191.046379,175.287739 190.866387,170.777452 L220.491216,170.800428 C220.491216,170.800428 221.273077,170.792386 221.355619,170.024971 C221.385434,169.709044 222.369068,163.925859 220.469435,157.240845 L220.469435,157.240845 Z M191.001685,163.444501 C191.422402,160.620689 192.196257,158.27249 193.39083,156.442412 C195.217086,153.664552 197.974248,152.128573 201.866353,152.128573 C205.757327,152.128573 208.327623,153.664552 210.175661,156.442412 C211.393174,158.279383 211.926276,160.718339 212.136055,163.452542 L191.001685,163.444501 L191.001685,163.444501 Z M138.74408,162.024553 C137.541474,161.934945 135.986917,161.89014 134.122841,161.89014 C131.583491,161.89014 129.126711,162.206067 126.82008,162.831028 C124.506604,163.45484 122.424688,164.419853 120.637412,165.699645 C118.834069,166.99437 117.390709,168.642935 116.33944,170.600533 C115.28704,172.55813 114.753938,174.861525 114.753938,177.436042 C114.753938,180.071447 115.204498,182.353014 116.113595,184.219855 C117.015846,186.094737 118.314742,187.661735 119.975913,188.865703 C121.621046,190.070821 123.65708,190.95197 126.008405,191.486174 C128.337948,192.020377 130.974748,192.2915 133.860307,192.2915 C136.902916,192.2915 139.923745,192.035312 142.860899,191.539019 C145.768239,191.041578 149.330175,190.318967 150.321842,190.085756 C151.305476,189.859437 152.395725,189.558445 152.395725,189.558445 C153.131732,189.370037 153.072131,188.587688 153.072131,188.587688 L153.057223,161.437503 C153.057223,155.475101 151.471721,151.062464 148.353443,148.322515 C145.24317,145.596353 140.659752,144.218912 134.739617,144.218912 C132.515529,144.218912 128.946719,144.519904 126.798299,144.949565 C126.797168,144.949565 120.329024,146.20638 117.669311,148.299539 C117.669311,148.299539 117.083481,148.661419 117.398743,149.48168 L119.494407,155.128156 C119.758101,155.858808 120.471167,155.610662 120.471167,155.610662 C120.471167,155.610662 120.697013,155.519905 120.959547,155.362516 C126.654996,152.259539 133.867181,152.350296 133.867181,152.350296 C137.068001,152.350296 139.532814,153.005127 141.192854,154.269983 C142.808171,155.519905 143.627852,157.386746 143.627852,161.347895 L143.627852,162.60471 C141.087371,162.235937 138.74408,162.024553 138.74408,162.024553 L138.74408,162.024553 Z M126.95535,182.887217 C125.790593,181.961264 125.633542,181.728053 125.249485,181.126068 C124.656781,180.21505 124.355267,178.920324 124.355267,177.263718 C124.355267,174.658183 125.21967,172.776407 127.000072,171.519593 C126.985165,171.519593 129.555462,169.290872 135.595987,169.373587 C139.841202,169.426433 143.64276,170.058287 143.64276,170.058287 L143.64276,183.558131 C143.64276,183.558131 139.877891,184.363458 135.640709,184.619646 C129.615063,184.988419 126.932438,182.880324 126.95535,182.887217 L126.95535,182.887217 Z M377.732894,146.7245 C377.958739,146.054735 377.485267,145.730766 377.290396,145.656092 C376.785948,145.467685 374.261534,144.932333 372.324052,144.804813 C368.597032,144.578494 366.531154,145.203455 364.683117,146.0398 C362.841954,146.868103 360.805919,148.215675 359.678982,149.743612 L359.670948,146.122515 C359.670948,145.625074 359.317838,145.226432 358.822584,145.226432 L351.226371,145.226432 C350.729957,145.226432 350.376847,145.625074 350.376847,146.122515 L350.376847,190.415468 C350.376847,190.91291 350.775811,191.311552 351.279098,191.311552 L359.063337,191.311552 C359.558591,191.311552 359.956395,190.91291 359.956395,190.415468 L359.956395,168.287948 C359.956395,165.313639 360.287724,162.355415 360.941189,160.495467 C361.579746,158.650453 362.451023,157.182255 363.533267,156.128782 C364.615482,155.074161 365.846743,154.336615 367.199526,153.923038 C368.574091,153.501419 370.099992,153.357816 371.166168,153.357816 C372.721885,153.357816 374.419745,153.7645 374.419745,153.7645 C374.998672,153.825388 375.313934,153.47155 375.508834,152.959174 C376.013253,151.60356 377.462354,147.530975 377.732894,146.7245 L377.732894,146.7245 Z M304.663054,126.198441 C303.716109,125.905491 302.859739,125.709041 301.732802,125.5057 C300.590957,125.294316 299.238174,125.189773 297.705398,125.189773 C292.348153,125.189773 288.12585,126.710817 285.157749,129.706953 C282.21259,132.681261 280.207473,137.213376 279.199767,143.168886 L278.839783,145.17933 L272.114846,145.17933 C272.114846,145.17933 271.288263,145.148312 271.123179,146.044395 L270.019182,152.218181 C269.93664,152.80638 270.192301,153.175153 270.981035,153.175153 L277.532853,153.175153 L270.883585,190.338497 C270.364259,193.326591 269.770396,195.788524 269.110057,197.656513 C268.463466,199.500378 267.824909,200.877819 267.044208,201.879594 C266.28526,202.843459 265.571034,203.56607 264.331739,203.980796 C263.309125,204.319699 262.13062,204.477088 260.845472,204.477088 C260.131246,204.477088 259.177427,204.356462 258.471206,204.214007 C257.765014,204.078446 257.397025,203.919908 256.870796,203.701631 C256.870796,203.701631 256.103843,203.407532 255.796614,204.176096 C255.555861,204.809099 253.813279,209.619229 253.602341,210.214321 C253.392534,210.802519 253.684883,211.2609 254.060906,211.396462 C254.932183,211.705496 255.578774,211.908838 256.765341,212.186854 C258.418479,212.578603 259.80795,212.60158 261.108006,212.60158 C263.835354,212.60158 266.321948,212.217872 268.380924,211.472284 C270.454807,210.718655 272.25815,209.408994 273.85856,207.646697 C275.578201,205.735052 276.66845,203.731501 277.70484,200.999595 C278.734328,198.296409 279.605604,194.938393 280.311797,191.023197 L286.984005,153.175153 L296.743546,153.175153 C296.743546,153.175153 297.570129,153.205022 297.735213,152.308939 L298.84037,146.135152 C298.914878,145.548103 298.667251,145.17933 297.878517,145.17933 L288.404423,145.17933 C288.449146,144.967946 288.876765,141.624865 289.967013,138.485126 C290.432453,137.137554 291.303758,136.061105 292.04777,135.316666 C292.76887,134.586013 293.61036,134.066745 294.527491,133.764603 C295.466431,133.463611 296.533739,133.313115 297.705398,133.313115 C298.599616,133.313115 299.470893,133.418807 300.139265,133.554368 C301.056396,133.749669 301.41754,133.855361 301.657133,133.923141 C302.618986,134.224133 302.746251,133.938076 302.942282,133.471653 L305.20419,127.236979 C305.43691,126.567214 304.872861,126.281157 304.663054,126.198441 L304.663054,126.198441 Z M172.288537,190.415468 C172.288537,190.91291 171.935427,191.319594 171.439042,191.319594 L163.580266,191.319594 C163.085012,191.319594 162.73193,190.91291 162.73193,190.415468 L162.73193,127.043976 C162.73193,126.546535 163.085012,126.147893 163.580266,126.147893 L171.439042,126.147893 C171.935427,126.147893 172.288537,126.546535 172.288537,127.043976 L172.288537,190.415468 L172.288537,190.415468 Z" id="SalesforceOverlay"></path>
            </g>
        </g>
    </g>
</svg>