<?xml version="1.0" encoding="UTF-8" standalone="no"?>
<svg width="512px" height="512px" viewBox="0 0 512 512" version="1.1" xmlns="http://www.w3.org/2000/svg" xmlns:xlink="http://www.w3.org/1999/xlink">
    <!-- Generator: Sketch 39.1 (31720) - http://www.bohemiancoding.com/sketch -->
    <title>icon-savo</title>
    <desc>Created with Sketch.</desc>
    <defs></defs>
    <g id="Page-1" stroke="none" stroke-width="1" fill="none" fill-rule="evenodd">
        <g id="icon-savo" fill="#000000">
            <g id="savo" transform="translate(0.000000, 180.000000)">
                <path d="M418.632374,1.84958107 C462.247744,-7.94470322 505.853128,22.2732447 511.380477,66.157655 C516.560753,107.288553 488.7409,144.035202 447.152197,150.996245 C406.764513,157.755912 366.627351,129.607619 359.703393,89.6430597 C359.283909,87.2224349 359.077499,87.2997996 358.772042,84.86027 C368.305283,84.1517542 387.765448,82.0770656 387.908603,83.023123 C392.175841,111.163197 420.46345,129.200757 448.305774,121.529554 C471.02858,115.268807 486.056712,92.6628819 482.797399,69.6468071 C479.495636,46.3257909 459.311368,28.8052335 435.634737,28.707422 C409.445373,28.5989254 388.936502,48.055161 387.255242,74.6006634 C377.637105,74.3096951 368.018138,74.0187269 358.4,73.7277588 C359.581043,38.3077275 384.829901,9.44023357 418.632374,1.84958107 L418.632374,1.84958107 Z" id="Fill-4"></path>
                <path d="M125.027807,46.6423461 L92.2995374,46.6423461 C92.1638408,46.0009608 92.0141368,45.4959008 91.9537298,44.9826284 C90.742966,34.6054929 85.2345592,28.6416784 74.3613217,26.1911109 C66.5950986,24.4418786 58.7728461,24.0788924 51.0320113,26.3093689 C46.1162924,27.7260005 42.1128049,30.4360787 39.7315484,34.7935559 C35.8926477,41.8192283 38.5523011,49.2374512 46.2003369,52.7014238 C56.1131927,57.19112 66.9873057,58.7941723 77.4762153,61.5453122 C83.9178644,63.2345941 90.4234225,64.710355 96.8755771,66.3667875 C102.838349,67.8967498 108.183044,70.6528171 113.237961,73.9336542 C138.968664,90.6351267 133.815695,126.009038 112.304719,140.155645 C101.477005,147.276581 89.3019556,150.521284 76.345994,151.549471 C60.4467292,152.810889 44.8039749,151.635701 30.1356099,145.298224 C10.9087142,136.992245 0.654428191,122.825107 0.0030844895,102.802556 C-0.0188020596,102.142283 0.0810006042,101.479545 0.137905632,100.602466 L32.5396283,100.602466 C33.5332777,101.459015 33.0727846,102.629276 33.1839683,103.66239 C34.13472,112.484105 38.4787622,119.347173 47.1064399,123.13307 C59.8855583,128.741289 73.0778944,128.871044 86.1275305,123.997831 C92.9526321,121.449536 97.3421983,116.795593 97.3597074,109.351912 C97.3710886,104.617487 95.4284385,100.910429 91.4232,98.0648469 C85.7213161,94.0145121 79.0564242,92.0566859 72.307488,90.3518005 C60.7942876,87.442162 49.1042442,85.1262768 37.8493051,81.3559835 C34.9795407,80.3951375 32.1517988,79.3020726 29.3704561,78.133454 C-2.82991043,64.6011306 -0.972180137,27.2225831 22.8272533,11.3522012 C37.7573816,1.3955383 54.5872625,-1.01807372 72.3214953,0.352568834 C81.502465,1.06211657 90.469822,2.82366737 98.854121,6.62845283 C116.091967,14.4507239 125.581975,28.8330264 125.027807,46.6423461" id="Fill-6"></path>
                <path d="M152.26983,152 L117.76,152 C134.550889,103.825746 151.290219,55.7971695 168.088841,7.6 L205.589065,7.6 C205.630312,7.63109971 205.964583,7.74895118 206.032468,7.94946241 C213.314249,29.3976162 227.84,70.9333333 227.84,70.9333333 L193.817398,70.9333333 C193.817398,70.9333333 189.348993,57.6983432 187.11565,50.9243376 L186.338835,50.9243376 C184.131272,57.6271414 181.922849,64.3291269 179.714426,71.0311121 C175.971278,80.2603573 172.790977,89.6622877 170.166649,99.2352667 C164.2125,116.790229 158.258351,134.345191 152.26983,152 L152.26983,152 Z" id="Fill-8"></path>
                <polygon id="Fill-10" points="186.129231 76 427.52 77.286588 180.48 91.2"></polygon>
                <path d="M299.767007,88.6666667 L332.8,87.4 C332.8,87.4 318.607944,123.986376 311.434092,144.4 L274.996585,144.4 C268.706391,126.094989 262.353608,110.140323 256,91.6530955 C266.540483,90.8910301 287.622269,89.9333333 287.622269,89.9333333 C287.622269,89.9333333 291.263137,97.9047469 293.083983,103.439951 C293.355753,103.447672 293.62752,103.455393 293.899287,103.463114 C295.855194,97.6383714 299.767007,88.6666667 299.767007,88.6666667 L299.767007,88.6666667 Z" id="Fill-12"></path>
                <path d="M304.64,70.9333333 C304.64,70.9333333 316.288253,30.2036877 323.431798,7.6 L355.84,7.6 C348.290207,30.5135268 335.862438,70.9333333 335.862438,70.9333333 L304.64,70.9333333 L304.64,70.9333333 Z" id="Fill-14"></path>
                <path d="M246.476875,70.9333333 C246.476875,70.9333333 232.409486,30.1310623 225.28,7.6 L257.873802,7.6 C260.578514,16.304957 263.313457,25.0729334 266.027156,33.8475434 C270.371853,47.8958746 276.48,70.9333333 276.48,70.9333333 L246.476875,70.9333333 L246.476875,70.9333333 Z" id="Fill-16"></path>
                <path d="M238.777923,92.4666667 C238.777923,92.4666667 250.204304,126.496219 256,144.4 L225.798639,144.4 C220.521331,127.474275 209.92,93.7333333 209.92,93.7333333 L238.777923,92.4666667 L238.777923,92.4666667 Z" id="Fill-18"></path>
            </g>
        </g>
    </g>
</svg>