<svg width="512" height="512" viewBox="0 0 512 512" fill="none" xmlns="http://www.w3.org/2000/svg">
<path fill-rule="evenodd" clip-rule="evenodd" d="M318.02 374.605C289.523 394.516 254.663 406.226 217.017 406.226C120.726 406.226 42.6667 329.616 42.6667 235.113C42.6667 140.61 120.726 64 217.017 64C313.308 64 391.368 140.61 391.368 235.113C391.368 265.095 383.511 293.276 369.707 317.781L457.985 404.42C473.116 419.27 473.116 443.346 457.985 458.196C442.855 473.046 418.323 473.046 403.192 458.196L318.02 374.605ZM313.879 235.113C313.879 287.615 270.512 330.176 217.017 330.176C163.522 330.176 120.156 287.615 120.156 235.113C120.156 182.611 163.522 140.05 217.017 140.05C270.512 140.05 313.879 182.611 313.879 235.113Z" fill="#A7A7A7"/>
</svg>
