<svg width="512" height="512" viewBox="0 0 512 512" fill="none" xmlns="http://www.w3.org/2000/svg">
<path fill-rule="evenodd" clip-rule="evenodd" d="M321.05 351.216C294.131 371.783 260.492 384 224 384C135.634 384 64 312.366 64 224C64 135.634 135.634 64 224 64C312.366 64 384 135.634 384 224C384 260.491 371.784 294.128 351.219 321.046L435.42 405.247C443.751 413.578 443.751 427.086 435.42 435.417C427.089 443.748 413.581 443.748 405.25 435.417L321.05 351.216ZM346.667 224C346.667 291.747 291.747 346.667 224 346.667C156.253 346.667 101.333 291.747 101.333 224C101.333 156.253 156.253 101.333 224 101.333C291.747 101.333 346.667 156.253 346.667 224Z" fill="#A7A7A7"/>
</svg>
