<?xml version="1.0" encoding="UTF-8" standalone="no"?>
<svg width="512px" height="512px" viewBox="0 0 512 512" version="1.1" xmlns="http://www.w3.org/2000/svg" xmlns:xlink="http://www.w3.org/1999/xlink">
    <!-- Generator: Sketch 39.1 (31720) - http://www.bohemiancoding.com/sketch -->
    <title>search</title>
    <desc>Created with Sketch.</desc>
    <defs></defs>
    <g id="Page-1" stroke="none" stroke-width="1" fill="none" fill-rule="evenodd">
        <g id="search" fill="#000000">
            <g id="icon-search" transform="translate(32.000000, 32.000000)">
                <path d="M447.127125,422.663312 L336.063996,311.106623 C397.279111,236.324083 393.107411,125.638756 323.538836,55.7584645 C249.523578,-18.5850348 129.526841,-18.5872748 55.5115832,55.7584645 C-18.5036748,130.101964 -18.5036748,250.63771 55.5104654,324.982329 C125.460216,395.244541 236.476396,399.089508 310.937664,336.542991 L421.901307,448 L447.127125,422.663312 L447.127125,422.663312 Z M80.7374014,299.643402 C20.6546377,239.293209 20.6546377,141.448705 80.7374014,81.0973921 C140.820165,20.7471989 238.230254,20.7483189 298.313018,81.0973921 C358.393546,141.447585 358.394664,239.293209 298.313018,299.642282 C238.228018,359.993595 140.819047,359.995835 80.7374014,299.643402 L80.7374014,299.643402 Z" id="Shape"></path>
            </g>
        </g>
    </g>
</svg>