<svg width="512" height="512" viewBox="0 0 512 512" fill="none" xmlns="http://www.w3.org/2000/svg">
<path fill-rule="evenodd" clip-rule="evenodd" d="M238.555 488.891L233.956 488.319C232.783 488.174 231.804 487.352 231.458 486.221L214.373 430.479C214.086 429.544 213.36 428.808 212.432 428.498C204.84 425.96 197.468 422.906 190.376 419.367C189.497 418.929 188.461 418.937 187.595 419.399L136.276 446.799C135.23 447.357 133.954 447.247 133.019 446.518L129.33 443.643C121.906 437.861 114.802 431.589 108.253 425.061C101.597 418.384 95.3248 411.28 89.5862 403.877L86.7422 400.206C86.0192 399.272 85.9109 398.002 86.4655 396.959L113.834 345.523C114.293 344.659 114.301 343.625 113.865 342.749C110.326 335.639 107.274 328.253 104.752 320.694C104.442 319.762 103.704 319.035 102.765 318.749L47.1138 301.808C45.9834 301.464 45.1602 300.488 45.0113 299.316L44.4241 294.693C42.0774 276.048 42.0774 257.125 44.4454 238.458L45.0329 233.834C45.1817 232.663 46.0038 231.687 47.1332 231.343L102.922 214.316C103.857 214.031 104.592 213.308 104.904 212.383C107.439 204.866 110.474 197.538 114.008 190.472C114.448 189.593 114.44 188.555 113.977 187.688L86.5148 136.263C85.9566 135.217 86.066 133.941 86.7941 133.006L89.6502 129.339C95.3461 122 101.618 114.896 108.274 108.261C114.93 101.584 122.055 95.2905 129.436 89.5732L133.108 86.7292C134.041 86.0062 135.312 85.8979 136.354 86.4526L187.985 113.929C188.848 114.388 189.879 114.397 190.754 113.963C197.737 110.504 204.981 107.513 212.412 105.018C213.34 104.707 214.064 103.971 214.35 103.035L231.437 47.0831C231.783 45.9506 232.763 45.1275 233.938 44.982L238.555 44.4105C257.115 42.0852 276.208 42.0852 294.768 44.4105L299.4 44.982C300.578 45.1274 301.56 45.954 301.904 47.0904L318.847 103.071C319.131 104.01 319.858 104.75 320.789 105.062C328.237 107.557 335.482 110.549 342.481 114.024C343.358 114.46 344.391 114.451 345.254 113.991L396.963 86.4354C398.008 85.8785 399.283 85.9884 400.217 86.7159L403.886 89.5732C411.268 95.2905 418.393 101.584 425.07 108.261C431.726 114.917 437.998 122.021 443.673 129.339L446.514 133.007C447.238 133.942 447.346 135.215 446.789 136.258L419.217 187.86C418.754 188.726 418.746 189.763 419.185 190.642C422.678 197.643 425.688 204.905 428.185 212.354C428.497 213.284 429.234 214.01 430.172 214.295L486.202 231.342C487.336 231.687 488.161 232.667 488.306 233.843L488.877 238.458C491.245 257.104 491.267 276.027 488.92 294.693L488.333 299.315C488.184 300.488 487.36 301.464 486.229 301.807L430.326 318.792C429.386 319.077 428.647 319.806 428.336 320.739C425.838 328.249 422.825 335.555 419.329 342.599C418.893 343.476 418.902 344.509 419.363 345.373L446.873 396.953C447.431 397.999 447.321 399.274 446.593 400.208L443.737 403.877C437.998 411.301 431.705 418.405 425.07 425.061C418.521 431.589 411.438 437.861 403.993 443.643L400.305 446.518C399.369 447.247 398.092 447.357 397.046 446.798L345.664 419.336C344.798 418.873 343.761 418.865 342.883 419.304C335.753 422.862 328.346 425.934 320.766 428.475C319.836 428.786 319.11 429.524 318.825 430.463L301.903 486.199C301.559 487.33 300.583 488.154 299.41 488.303L294.789 488.891C285.488 490.064 276.037 490.661 266.672 490.661C257.285 490.661 247.835 490.064 238.555 488.891ZM341.333 266.667C341.333 307.84 307.819 341.333 266.667 341.333C225.493 341.333 192 307.84 192 266.667C192 225.493 225.493 192 266.667 192C307.819 192 341.333 225.493 341.333 266.667Z" fill="#A7A7A7"/>
</svg>
