<?xml version="1.0" encoding="UTF-8" standalone="no"?>
<svg width="512px" height="512px" viewBox="0 0 512 512" version="1.1" xmlns="http://www.w3.org/2000/svg" xmlns:xlink="http://www.w3.org/1999/xlink">
    <!-- Generator: Sketch 3.7.2 (28276) - http://www.bohemiancoding.com/sketch -->
    <title>512</title>
    <desc>Created with Sketch.</desc>
    <defs></defs>
    <g id="Page-1" stroke="none" stroke-width="1" fill="none" fill-rule="evenodd">
        <g id="512" fill="#000000">
            <path d="M169.792453,283.530713 C173.772107,275.191582 176,265.855967 176,256 C176,246.250296 173.819889,237.009785 169.920563,228.739363 L351.390018,105.631944 C363.127863,119.324389 380.550783,128 400,128 C435.346224,128 464,99.346224 464,64 C464,28.653776 435.346224,0 400,0 C364.653776,0 336,28.653776 336,64 C336,71.6234694 337.332911,78.9356207 339.778396,85.716117 L156.52919,210.030905 C145.009301,198.869643 129.306896,192 112,192 C76.653776,192 48,220.653776 48,256 C48,291.346224 76.653776,320 112,320 C129.198885,320 144.813243,313.215835 156.313018,302.177563 L339.49838,427.076674 C337.231339,433.633096 336,440.672751 336,448 C336,483.346224 364.653776,512 400,512 C435.346224,512 464,483.346224 464,448 C464,412.653776 435.346224,384 400,384 C380.258409,384 362.604495,392.938407 350.86453,406.988947 L169.792453,283.530713 Z" id="ShareFilled"></path>
        </g>
    </g>
</svg>