<?xml version="1.0" encoding="UTF-8" standalone="no"?>
<svg width="512px" height="512px" viewBox="0 0 512 512" version="1.1" xmlns="http://www.w3.org/2000/svg" xmlns:xlink="http://www.w3.org/1999/xlink">
    <!-- Generator: Sketch 3.7.2 (28276) - http://www.bohemiancoding.com/sketch -->
    <title>512</title>
    <desc>Created with Sketch.</desc>
    <defs></defs>
    <g id="Page-1" stroke="none" stroke-width="1" fill="none" fill-rule="evenodd">
        <g id="512" fill="#000000">
            <path d="M400,105 L400,105 C422.643675,105 441,86.6436747 441,64 C441,41.3563253 422.643675,23 400,23 C377.356325,23 359,41.3563253 359,64 C359,86.6436747 377.356325,105 400,105 L400,105 Z M156.313018,302.177563 C144.813243,313.215835 129.198885,320 112,320 C76.653776,320 48,291.346224 48,256 C48,220.653776 76.653776,192 112,192 C129.306896,192 145.009301,198.869643 156.52919,210.030905 L339.778396,85.716117 C337.332911,78.9356207 336,71.6234694 336,64 C336,28.653776 364.653776,0 400,0 C435.346224,0 464,28.653776 464,64 C464,99.346224 435.346224,128 400,128 C380.550783,128 363.127863,119.324389 351.390018,105.631944 L169.920563,228.739363 C173.819889,237.009785 176,246.250296 176,256 C176,265.855967 173.772107,275.191582 169.792453,283.530713 L350.86453,406.988947 C362.604495,392.938407 380.258409,384 400,384 C435.346224,384 464,412.653776 464,448 C464,483.346224 435.346224,512 400,512 C364.653776,512 336,483.346224 336,448 C336,440.672751 337.231339,433.633096 339.49838,427.076674 L156.313018,302.177563 Z M112,297 C134.643675,297 153,278.643675 153,256 C153,233.356325 134.643675,215 112,215 C89.3563253,215 71,233.356325 71,256 C71,278.643675 89.3563253,297 112,297 Z M400,489 C422.643675,489 441,470.643675 441,448 C441,425.356325 422.643675,407 400,407 C377.356325,407 359,425.356325 359,448 C359,470.643675 377.356325,489 400,489 Z" id="Share"></path>
        </g>
    </g>
</svg>