<?xml version="1.0" encoding="UTF-8" standalone="no"?>
<svg width="512px" height="512px" viewBox="0 0 512 512" version="1.1" xmlns="http://www.w3.org/2000/svg" xmlns:xlink="http://www.w3.org/1999/xlink">
    <!-- Generator: Sketch 39.1 (31720) - http://www.bohemiancoding.com/sketch -->
    <title>shareuser</title>
    <desc>Created with Sketch.</desc>
    <defs></defs>
    <g id="Page-1" stroke="none" stroke-width="1" fill="none" fill-rule="evenodd">
        <path d="M355.8,336.5a122.62,122.62,0,0,0-4.37-13.66c-7.14-18.44-18.59-32.67-36.05-39.35l-8.18-3.12,5.93-16.1.18-17.39s-7.58-5.2-9.94-21.65c-4.73,1.24-6.33-5-6.59-9s-2.8-15.9,3-14.83c-1.2-8-2.12-15.3-1.7-19.15,1.45-13.5,11.76-27.6,37.8-28.63,22.13,1,36.5,15.14,37.95,28.65.41,3.84-.44,11.1-1.62,19.16,5.78-1.1,3.3,11,3,14.83s-1.84,10.27-6.58,9c-2.35,16.45-9.93,21.7-9.93,21.7l.19,17.47s35.16,12.52,53.38,19.23c21.65,8,20.88,41.25,20.88,41.25a10.71,10.71,0,0,1-9.81,11.54c-.33,0-.65,0-1,0l-66.6,0Zm-114-56s38.73,14.55,65.23,24.7S335.92,361,335.92,361c.88,6.28-3.9,10-10.46,10l-222.2,1.43A10.77,10.77,0,0,1,92,361s-.62-45.62,26.32-55.77c22.69-8.54,66.47-24.47,66.47-24.47l.23-22.25s-9.43-6.68-12.36-27.62c-5.9,1.58-7.86-6.42-8.2-11.5-.32-4.91-3.41-20.27,3.78-18.88-1.47-10.26-2.52-19.5-2-24.4,1.8-17.19,19.69-35.15,47.24-36.46,32.41,1.3,45.26,19.26,47.05,36.45.53,4.9-.63,14.15-2.1,24.38,7.2-1.37,4.07,14,3.72,18.88-.31,5.08-2.31,13.05-8.2,11.47-2.94,20.94-12.37,27.57-12.37,27.57l.22,22.14Z"/>
    </g>
</svg>