<?xml version="1.0" encoding="UTF-8" standalone="no"?>
<svg width="512px" height="512px" viewBox="0 0 512 512" version="1.1" xmlns="http://www.w3.org/2000/svg" xmlns:xlink="http://www.w3.org/1999/xlink">
    <!-- Generator: Sketch 39.1 (31720) - http://www.bohemiancoding.com/sketch -->
    <title>icon-sharepoint</title>
    <desc>Created with Sketch.</desc>
    <defs></defs>
    <g id="Page-1" stroke="none" stroke-width="1" fill="none" fill-rule="evenodd">
        <g id="icon-sharepoint" fill="#000000">
            <g id="share-point-overlay" transform="translate(0.000000, 16.000000)">
                <path d="M463.462295,190.121518 C460.064655,190.121518 456.747912,190.477473 453.552513,191.140848 C441.207754,159.493032 417.108785,133.823675 386.578566,119.366962 C386.829345,117.360661 387.007314,115.330087 387.007314,113.259065 C387.007314,86.4490245 365.270513,64.7275547 338.469608,64.7275547 C327.111785,64.7275547 316.684266,68.6592615 308.416679,75.2040168 L308.416679,151.3222 C316.684266,157.866955 327.111785,161.798662 338.469608,161.798662 C355.029057,161.798662 369.630818,153.490299 378.383781,140.837647 C403.404971,153.174793 422.989937,174.694015 432.802642,201.051016 C421.897837,209.949945 414.932676,223.484401 414.932676,238.653028 C414.932676,253.999628 422.067719,267.655436 433.182854,276.554365 C423.50767,303.38867 403.728555,325.320478 378.383781,337.827517 C369.622728,325.16677 355.020967,316.866498 338.461518,316.866498 C327.111785,316.866498 316.67618,320.798209 308.416679,327.334873 L308.416679,403.461144 C316.67618,410.005899 327.111785,413.937606 338.461518,413.937606 C365.270513,413.937606 386.999227,392.208045 386.999227,365.398009 C386.999227,363.326986 386.829345,361.296413 386.578566,359.298199 C417.505175,344.647329 441.814477,318.476398 454.005531,286.262281 C457.071496,286.860938 460.226447,287.192625 463.462295,287.192625 C490.271286,287.192625 512,265.463065 512,238.653028 C512,211.842988 490.271286,190.121518 463.462295,190.121518 L463.462295,190.121518 Z M0.598633305,51.2335447 L0,428.766455 L281.785656,480 L281.785656,0 L0.598633305,51.2335447 L0.598633305,51.2335447 Z M159.373559,334.324574 C136.399044,350.997927 106.305667,343.951595 82.1096216,334.000977 C81.7941243,319.924496 81.4624499,305.856101 80.9932546,291.698717 C96.5253193,303.186422 119.491744,320.086294 138.008881,304.391822 C152.335592,280.364723 124.191813,265.074747 107.92359,253.425243 C72.9845324,232.310521 71.6821025,174.548398 105.577603,151.977484 C125.397166,139.438086 149.585121,143.410242 171.427092,146.47633 C171.742586,159.743821 172.07426,173.100297 172.397844,186.3597 C154.196204,180.615846 130.979001,169.055332 116.013209,187.5651 C105.577603,214.844354 138.583243,225.110478 154.527878,239.348761 C185.664817,259.492694 188.334392,311.276355 159.373559,334.324574 L159.373559,334.324574 L159.373559,334.324574 Z" id="SharePointOverlay"></path>
            </g>
        </g>
    </g>
</svg>