<?xml version="1.0" encoding="UTF-8" standalone="no"?>
<svg width="512px" height="512px" viewBox="0 0 512 512" version="1.1" xmlns="http://www.w3.org/2000/svg" xmlns:xlink="http://www.w3.org/1999/xlink">
    <!-- Generator: Sketch 39.1 (31720) - http://www.bohemiancoding.com/sketch -->
    <title>icon-sharefile</title>
    <desc>Created with Sketch.</desc>
    <defs></defs>
    <g id="Page-1" stroke="none" stroke-width="1" fill="none" fill-rule="evenodd">
        <g id="icon-sharefile" fill="#000000">
            <g id="sharefile" transform="translate(52.000000, 0.000000)">
                <path d="M211.595743,512 L198.574467,512 C196.807914,511.67262 195.054381,511.155255 193.273724,511.044696 C147.766533,508.199179 106.7647,493.308244 70.7001051,465.676343 C35.9756186,439.070592 13.5529804,404.673207 3.8032995,362.065576 C-3.13595721,331.74487 3.41374329,305.368821 24.9791479,282.765685 C27.9187005,279.685098 27.1233191,277.308646 25.1592763,274.262407 C12.2117861,254.176336 4.53357579,232.192538 1.38893764,208.61907 C0.988533,205.618984 1.18385207,202.52981 0,199.647799 L0,177.106918 C0.3472335,175.362684 0.868085571,173.633477 1.01674329,171.874213 C4.33933864,132.525349 19.7098716,98.176267 46.0801284,68.8666843 C81.2538521,29.7722112 125.902724,8.43136366 178.124553,1.78180389 C184.942276,0.913440914 191.888043,1.96105509 198.574467,0 L207.255319,0 C212.164339,1.69378743 217.301233,0.730967771 222.31551,1.25370149 C254.952257,4.66059703 285.71502,13.9860809 313.81602,30.8208969 C359.71602,58.3186249 390.994214,96.820597 403.736619,149.180913 C411.036128,179.179604 405.89598,205.986081 384.224233,228.772762 C380.424191,232.767865 380.413339,235.713207 383.233533,239.906885 C396.51198,259.654843 403.46751,281.676211 406.665319,304.994213 C407.051619,307.816119 406.897533,310.716376 408,313.425576 L408,335.966457 C407.644086,337.887799 407.135171,339.795185 406.952872,341.733701 C403.367681,379.965184 389.184257,413.907456 363.408638,442.556913 C331.406681,478.127495 290.998405,499.246157 243.789767,508.03388 C233.116661,510.021771 222.277533,510.297626 211.595743,512 L211.595743,512 L211.595743,512 Z M203.136672,54.8687726 C185.639009,54.6521234 168.712561,57.4664485 152.280077,62.9503086 C95.7396261,81.8172306 53.9778536,128.731952 58.6411406,193.789637 C60.5723904,220.722004 72.3470299,243.319194 91.9859314,261.638053 C115.913838,283.958528 143.541037,301.550208 171.070316,319.154757 C175.347355,321.889715 177.718166,324.90997 178.436265,330.082794 C180.76138,346.838971 196.936001,357.405564 214.528323,354.156862 C230.971689,351.120523 241.690938,334.971399 238.172255,318.840507 C236.241005,309.992112 230.719264,304.093184 223.308706,299.274295 C191.840769,278.811443 160.228121,258.539505 130.928621,235.043533 C119.605513,225.963469 111.776066,214.547434 108.296555,200.555173 C102.389651,176.803939 107.396754,154.884586 122.234192,135.715211 C144.406019,107.071082 174.569415,95.8062738 210.626656,98.8157989 C256.483761,102.642597 297.454538,133.728881 302.739089,175.413936 C304.127411,186.364493 318.479587,194.043827 330.311889,191.815102 C342.693644,189.484489 351.146533,178.784903 349.512315,167.145779 C346.619249,146.545646 339.149938,127.674434 325.884703,111.440581 C294.365625,72.866944 252.199109,56.4625591 203.136672,54.8687726 L203.136672,54.8687726 L203.136672,54.8687726 Z M204.718095,449.816686 C225.033704,450.07085 244.50161,446.242256 263.246948,438.987235 C314.382571,419.198661 353.693808,374.462025 349.392155,311.520805 C347.521537,284.155476 335.532832,261.357648 315.593737,242.763769 C291.382369,220.186862 263.382976,202.50455 235.568574,184.66888 C232.089598,182.438217 230.171098,179.98234 229.747791,175.767669 C228.534446,163.658803 219.387035,153.656199 207.535444,150.85929 C194.769765,147.846817 181.770124,152.410032 174.775171,162.359011 C164.3883,177.133952 168.446199,195.183035 184.48736,205.479486 C213.356227,224.010094 241.91387,242.973963 269.389839,263.493939 C283.455916,273.998442 295.242217,286.152349 299.597194,303.52151 C306.387564,330.599428 299.50252,354.7689 280.886678,375.17734 C258.931146,399.244932 230.838167,408.715604 198.211744,406.131035 C151.177548,402.404326 110.181777,370.60984 105.107496,329.246014 C103.751599,318.191353 89.3242378,310.715407 77.4639437,313.049026 C65.0584596,315.489887 56.7990206,326.22389 58.5096699,337.890915 C61.6088634,359.038263 69.475464,378.277749 83.3543709,394.773947 C114.858859,432.223386 156.493405,448.194088 204.718095,449.816686 L204.718095,449.816686 L204.718095,449.816686 Z" id="ShareFileOverlay"></path>
            </g>
        </g>
    </g>
</svg>