<?xml version="1.0" encoding="UTF-8" standalone="no"?>
<svg width="512px" height="512px" viewBox="0 0 512 512" version="1.1" xmlns="http://www.w3.org/2000/svg" xmlns:xlink="http://www.w3.org/1999/xlink" xmlns:sketch="http://www.bohemiancoding.com/sketch/ns">
    <!-- Generator: Sketch 3.5.2 (25235) - http://www.bohemiancoding.com/sketch -->
    <title>skype</title>
    <desc>Created with Sketch.</desc>
    <defs></defs>
    <g id="Page-1" stroke="none" stroke-width="1" fill="none" fill-rule="evenodd" sketch:type="MSPage">
        <g id="skype" sketch:type="MSArtboardGroup" fill="#000000">
            <path d="M497.907741,254.809268 C497.907741,222.094513 491.518378,190.355123 478.893725,160.477006 C466.715022,131.614882 449.290238,105.695042 427.073439,83.4408874 C404.889066,61.1867323 379.015417,43.7199026 350.238982,31.5118133 C320.440891,18.8729488 288.777892,12.4681796 256.141897,12.4681796 C240.760412,12.4681796 225.354598,13.9149385 210.362309,16.8003415 C211.092064,17.2636307 211.943435,17.6619029 212.770486,18.1251921 L207.686561,17.3286588 C208.537943,17.1660996 209.397419,16.9872889 210.248789,16.816604 C189.677977,5.85207469 166.544937,0 143.128103,0 C104.897361,0 68.9531699,14.9227965 41.9200258,42.029305 C14.8949878,69.1276768 0,105.15861 0,143.481591 C0,167.873381 6.25962428,191.850648 18.0085832,213.040054 C18.1626416,212.162241 18.2680496,211.276302 18.4383247,210.398489 L19.3140234,215.478419 C18.8599578,214.681886 18.4626499,213.852839 18.0085832,213.040054 C15.6247366,226.768056 14.3679467,240.796788 14.3679467,254.809268 C14.3679467,287.532139 20.7573053,319.263413 33.3819629,349.149646 C45.5444455,378.019906 62.9773438,403.923483 85.1698126,426.177639 C107.386622,448.431794 133.227846,465.923012 162.036706,478.098587 C191.834796,490.761829 223.505902,497.174735 256.141897,497.174735 C270.347676,497.174735 284.58589,495.874272 298.483557,493.403393 C297.672729,492.94823 296.845677,492.533706 296.018625,492.054165 L301.183623,492.964492 C300.291711,493.135177 299.391692,493.240834 298.483557,493.403393 C319.897633,505.546454 344.141519,512 368.896227,512 C407.118863,512 443.04683,497.101581 470.079983,469.986947 C497.121231,442.904826 512,406.865778 512,368.542786 C512,344.069727 505.707944,320.011181 493.877907,298.740496 C493.877907,298.740496 497.907741,269.56138 497.907741,254.809268 L497.907741,254.809268 Z M257.106787,403.232618 C171.215336,403.232618 132.78999,360.902572 132.78999,329.179434 C132.78999,312.907399 144.774089,301.503979 161.290749,301.503979 C198.045768,301.503979 188.526601,354.408397 257.106787,354.408397 C292.21582,354.408397 311.60282,335.299736 311.60282,315.744036 C311.60282,303.982985 305.81348,290.945848 282.696652,285.231944 L206.300039,266.115157 C144.774089,250.647791 133.608936,217.307188 133.608936,185.966059 C133.608936,120.894192 194.729466,96.4617615 252.128275,96.4617615 C305.002652,96.4617615 367.331324,125.754671 367.331324,164.792916 C367.331324,181.520104 352.882294,191.249188 336.373751,191.249188 C305.002652,191.249188 310.775768,147.724347 247.587619,147.724347 C216.232733,147.724347 198.864714,161.956278 198.864714,182.324763 C198.864714,202.652607 223.627528,209.146793 245.130794,214.056037 L301.678233,226.638011 C363.617709,240.47167 379.323529,276.722054 379.323529,310.867306 C379.323529,363.747335 338.830565,403.232618 257.106787,403.232618 L257.106787,403.232618 L257.106787,403.232618 Z" id="icon-skype" sketch:type="MSShapeGroup"></path>
        </g>
    </g>
</svg>