<?xml version="1.0" encoding="UTF-8" standalone="no"?>
<svg width="512px" height="512px" viewBox="0 0 512 512" version="1.1" xmlns="http://www.w3.org/2000/svg" xmlns:xlink="http://www.w3.org/1999/xlink">
    <!-- Generator: Sketch 39.1 (31720) - http://www.bohemiancoding.com/sketch -->
    <title>icon-smb</title>
    <desc>Created with Sketch.</desc>
    <defs></defs>
    <g id="Page-1" stroke="none" stroke-width="1" fill="none" fill-rule="evenodd">
        <g id="icon-smb" fill="#000000">
            <g id="smb" transform="translate(0.000000, 148.000000)">
                <path d="M10.5644879,174.058623 C19.0128383,178.251354 35.0104334,184.242979 49.1976681,184.242979 C61.5725167,184.242979 67.9108045,178.251354 67.9108045,171.063815 C67.9108045,163.872256 63.0811509,158.781084 49.4993948,152.188486 C32.2948924,143.801017 18.1076579,131.516275 18.1076579,113.241918 C18.1076579,82.9863197 44.9714679,62.913069 83.0032193,62.913069 C100.207722,62.913069 113.789478,66.2073582 121.032946,70.4041081 L110.770185,100.959187 C104.431897,97.9643787 94.1691361,94.3706091 81.1908338,94.3706091 C69.7211654,94.3706091 61.8742437,99.4617816 61.8742437,107.252301 C61.8742437,113.241918 67.9108045,118.33711 79.9839263,124.027244 C95.9815216,132.117247 112.884297,143.801017 112.884297,164.171737 C112.884297,197.723633 84.2101265,215.700517 45.2731947,215.700517 C26.5600582,215.700517 8.75210214,210.904806 0,204.31623 L10.5644879,174.058623 L10.5644879,174.058623 Z M121.6364,212.7037 L140.047809,113.84289 C143.368829,95.2670426 145.782643,79.0910613 147.595029,66.2073582 L185.021302,66.2073582 L182.305761,89.8763895 L182.909215,89.8763895 C196.189244,71.0010611 214.298927,62.913069 233.31379,62.913069 C256.85658,62.913069 267.119341,77.5936556 268.326248,90.4753506 C281.606277,71.6020332 300.017687,62.913069 319.03255,62.913069 C341.971888,62.913069 355.253942,77.2941751 355.253942,102.159121 C355.253942,108.450226 354.047033,119.834516 352.536374,127.323544 L336.540806,212.7037 L294.584579,212.7037 L309.375269,132.716208 C310.582175,126.724583 311.487354,120.433477 311.487354,114.741332 C311.487354,104.554965 306.959428,97.3654176 296.698692,97.3654176 C282.209731,97.3654176 268.024522,116.837696 262.289688,146.198872 L249.914839,212.7037 L207.958614,212.7037 L223.051029,132.117247 C224.257936,126.125621 225.163116,120.433477 225.163116,115.340293 C225.163116,105.453407 221.844122,97.3654176 211.279634,97.3654176 C196.49097,97.3654176 181.098854,118.035618 175.663722,146.795822 L163.592625,212.7037 L121.6364,212.7037 L121.6364,212.7037 Z M438.654063,0 L421.147833,83.5832727 L421.749262,83.5832727 C432.617503,70.7015805 449.216526,62.913069 467.328233,62.913069 C498.112466,62.913069 512,87.7780117 512,113.84289 C512,161.476409 480.606239,216 414.206091,216 C379.191609,216 361.685379,201.01993 361.685379,174.957065 C361.685379,165.96862 363.196038,156.982189 365.006399,148.295236 L394.887478,0 L438.654063,0 L438.654063,0 Z M408.167506,150.990564 C407.564052,155.784267 406.357146,160.877448 406.658873,167.168554 C406.9606,177.65239 413.298887,183.344535 423.259921,183.344535 C448.31337,183.344535 466.421029,148.592709 466.421029,122.829321 C466.421029,108.749707 460.386492,97.6648982 447.104438,97.6648982 C431.408569,97.6648982 416.016452,113.543407 410.885072,139.007314 L408.167506,150.990564 L408.167506,150.990564 L408.167506,150.990564 Z" id="SMBOverlay"></path>
            </g>
        </g>
    </g>
</svg>