<?xml version="1.0" encoding="UTF-8" standalone="no"?>
<svg width="31px" height="24px" viewBox="0 0 31 24" version="1.1" xmlns="http://www.w3.org/2000/svg" xmlns:xlink="http://www.w3.org/1999/xlink">
    <!-- Generator: sketchtool 3.6.1 (26313) - http://www.bohemiancoding.com/sketch -->
    <title>StartComment</title>
    <desc>Created with sketchtool.</desc>
    <defs></defs>
    <g id="Search" stroke="none" stroke-width="1" fill="none" fill-rule="evenodd">
        <g id="Search---Comments" transform="translate(-640.000000, -427.000000)" fill="#777777">
            <g id="Comments" transform="translate(510.000000, 329.000000)">
                <g id="Profile" transform="translate(0.000000, 74.000000)">
                    <path d="M159.000977,24.5927734 L159.000977,26.2675781 C156.631173,27.1334679 154.774095,28.4949451 153.429688,30.3520508 C152.08528,32.2091564 151.413086,34.1402895 151.413086,36.1455078 C151.413086,36.5784527 151.481445,36.8974599 151.618164,37.1025391 C151.70931,37.2392585 151.811848,37.3076172 151.925781,37.3076172 C152.039714,37.3076172 152.210611,37.2278654 152.438477,37.0683594 C153.167647,36.5442682 154.090489,36.2822266 155.207031,36.2822266 C156.505866,36.2822266 157.656571,36.8120064 158.65918,37.871582 C159.661789,38.9311576 160.163086,40.1900969 160.163086,41.6484375 C160.163086,43.1751378 159.587734,44.5195254 158.437012,45.6816406 C157.28629,46.8437558 155.890633,47.4248047 154.25,47.4248047 C152.335928,47.4248047 150.683926,46.6386797 149.293945,45.0664062 C147.903964,43.4941328 147.208984,41.3864064 147.208984,38.7431641 C147.208984,35.6669768 148.154613,32.9098429 150.045898,30.4716797 C151.937184,28.0335165 154.92218,26.0739006 159.000977,24.5927734 L159.000977,24.5927734 Z M142.560547,24.5927734 L142.560547,26.2675781 C140.190743,27.1334679 138.333666,28.4949451 136.989258,30.3520508 C135.64485,32.2091564 134.972656,34.1402895 134.972656,36.1455078 C134.972656,36.5784527 135.041015,36.8974599 135.177734,37.1025391 C135.268881,37.2392585 135.371419,37.3076172 135.485352,37.3076172 C135.599284,37.3076172 135.770181,37.2278654 135.998047,37.0683594 C136.727217,36.5442682 137.65006,36.2822266 138.766602,36.2822266 C140.065436,36.2822266 141.216141,36.8120064 142.21875,37.871582 C143.221359,38.9311576 143.722656,40.1900969 143.722656,41.6484375 C143.722656,43.1751378 143.147304,44.5195254 141.996582,45.6816406 C140.84586,46.8437558 139.450204,47.4248047 137.80957,47.4248047 C135.895498,47.4248047 134.243497,46.6386797 132.853516,45.0664062 C131.463535,43.4941328 130.768555,41.3864064 130.768555,38.7431641 C130.768555,35.6669768 131.714183,32.9098429 133.605469,30.4716797 C135.496754,28.0335165 138.48175,26.0739006 142.560547,24.5927734 L142.560547,24.5927734 Z" id="StartComment"></path>
                </g>
            </g>
        </g>
    </g>
</svg>