<?xml version="1.0" encoding="UTF-8"?>
<svg width="20px" height="20px" viewBox="0 0 20 20" version="1.1" xmlns="http://www.w3.org/2000/svg" xmlns:xlink="http://www.w3.org/1999/xlink">
    <!-- Generator: Sketch 62 (91390) - https://sketch.com -->
    <title>Certified Label ON</title>
    <desc>Created with Sketch.</desc>
    <g id="Certified-Label-ON" stroke="none" stroke-width="1" fill="none" fill-rule="evenodd">
        <path d="M19.0180974,5.67849037 L19.1354546,5.93263357 L17.3083637,6.74610686 C15.5112881,2.70980906 10.7824047,0.894560778 6.74610686,2.69163634 C2.70980906,4.4887119 0.894560778,9.21759535 2.69163634,13.2538931 C4.4887162,17.2902006 9.2176241,19.1054778 13.2352171,17.3169615 C14.9428273,16.5142221 16.1797341,15.3836299 17.1639886,13.5322448 L17.325729,13.2169393 L19.1180892,14.1043203 C17.9022556,16.5600994 16.2878499,18.0919012 14.0673855,19.1354975 C9.02201999,21.3818389 3.11089286,19.1127454 0.864545424,14.0673664 C-1.38179903,9.02199419 0.887261324,3.11088988 5.93263357,0.864545424 C10.892491,-1.34372539 16.6889824,0.811641181 19.0180974,5.67849037 Z M10,3 L12.0572484,7.16844052 L16.6573956,7.83688104 L13.3286978,11.0815595 L14.1144968,15.663119 L10,13.5 L5.88550323,15.663119 L6.67130219,11.0815595 L3.34260439,7.83688104 L7.94275162,7.16844052 L10,3 Z" id="Combined-Shape" fill="#FFC81D"></path>
    </g>
</svg>