<?xml version="1.0" encoding="UTF-8" standalone="no"?>
<svg width="512px" height="512px" viewBox="0 0 512 512" version="1.1" xmlns="http://www.w3.org/2000/svg" xmlns:xlink="http://www.w3.org/1999/xlink">
    <!-- Generator: Sketch 39.1 (31720) - http://www.bohemiancoding.com/sketch -->
    <title>stop</title>
    <desc>Created with Sketch.</desc>
    <defs></defs>
    <g id="Page-1" stroke="none" stroke-width="1" fill="none" fill-rule="evenodd">
        <g id="stop" fill="#000000">
            <path d="M39.3846154,433.122062 C39.3846154,455.004646 57.0143468,472.615385 78.8779382,472.615385 L433.122062,472.615385 C455.004646,472.615385 472.615385,454.985653 472.615385,433.122062 L472.615385,78.8779382 C472.615385,56.9953536 454.985653,39.3846154 433.122062,39.3846154 L78.8779382,39.3846154 C56.9953536,39.3846154 39.3846154,57.0143468 39.3846154,78.8779382 L39.3846154,433.122062 L39.3846154,433.122062 Z M78.8779382,0 L433.122062,0 C476.685145,0 512,35.1918336 512,78.8779382 L512,433.122062 C512,476.685145 476.808166,512 433.122062,512 L78.8779382,512 C35.3148554,512 0,476.808166 0,433.122062 L0,78.8779382 C0,35.3148554 35.1918336,0 78.8779382,0 L78.8779382,0 Z" id="icon-stop"></path>
        </g>
    </g>
</svg>