<?xml version="1.0" encoding="UTF-8" standalone="no"?>
<svg width="512px" height="512px" viewBox="0 0 512 512" version="1.1" xmlns="http://www.w3.org/2000/svg" xmlns:xlink="http://www.w3.org/1999/xlink">
    <!-- Generator: Sketch 3.7.2 (28276) - http://www.bohemiancoding.com/sketch -->
    <title>512</title>
    <desc>Created with Sketch.</desc>
    <defs></defs>
    <g id="Page-1" stroke="none" stroke-width="1" fill="none" fill-rule="evenodd">
        <g id="512" fill="#000000">
            <path d="M442.146909,0.0002 L69.8530909,0.0002 C31.2552727,0.0002 0,31.2671091 0,69.8532909 L0,442.147109 C0,480.744927 31.2785455,512.0002 69.8530909,512.0002 L442.146909,512.0002 C480.744727,512.0002 512,480.721655 512,442.147109 L512,69.8532909 C512,31.2554727 480.733091,0.0002 442.146909,0.0002 Z M488.727273,442.147109 C488.727273,467.875109 467.886545,488.727473 442.146909,488.727473 L69.8530909,488.727473 C44.1250909,488.727473 23.2727273,467.875109 23.2727273,442.147109 L23.2727273,69.8532909 C23.2727273,44.1136545 44.1134545,23.2729273 69.8530909,23.2729273 L442.146909,23.2729273 C467.874909,23.2729273 488.727273,44.1136545 488.727273,69.8532909 L488.727273,442.147109 Z M104.727273,407.2706 L337.454545,407.2706 L337.454545,383.997873 L104.727273,383.997873 L104.727273,407.2706 Z M104.727273,267.634236 L337.454545,267.634236 L337.454545,244.361509 L104.727273,244.361509 L104.727273,267.634236 Z M104.727273,337.452418 L407.272727,337.452418 L407.272727,314.179691 L104.727273,314.179691 L104.727273,337.452418 Z M395.601455,104.725145 L116.398545,104.725145 C109.975273,104.725145 104.727273,109.914964 104.727273,116.3266 L104.727273,186.2146 C104.727273,192.544782 109.952,197.816055 116.398545,197.816055 L395.601455,197.816055 C402.024727,197.816055 407.272727,192.626236 407.272727,186.2146 L407.272727,116.3266 C407.272727,109.996418 402.048,104.725145 395.601455,104.725145 Z M128,174.543327 L384,174.543327 L384,127.997873 L128,127.997873 L128,174.543327 Z" id="Story"></path>
        </g>
    </g>
</svg>