<svg xmlns="http://www.w3.org/2000/svg" viewBox="0 0 512 512"><path fill="#000000" fill-rule="evenodd" d="M420.1 393.85H512v26.25h-91.9V512h-26.25v-91.9h-91.9v-26.25h91.9v-91.9h26.25v91.9zm-183.8 0v26.25H65.75A65.65 65.65 0 0 1 0 354.47V65.63A65.6 65.6 0 0 1 65.63 0h288.84a65.63 65.63 0 0 1 65.63 65.74V236.3h-26.25V65.74a39.37 39.37 0 0 0-39.38-39.48H65.63a39.34 39.34 0 0 0-39.37 39.37v288.84a39.4 39.4 0 0 0 39.48 39.38H236.3zm-144.4-91.9h236.3v26.26H91.9v-26.26zm0-78.77h144.4v26.26H91.9v-26.26zm26.25-78.77h183.8v-26.26h-183.8v26.26zM105.03 91.9h210.05c7.25 0 13.13 5.88 13.13 13.13v52.5c0 7.26-5.88 13.14-13.13 13.14H105.03a13.13 13.13 0 0 1-13.13-13.13v-52.51c0-7.25 5.88-13.13 13.13-13.13z"/></svg>