<?xml version="1.0" encoding="UTF-8" standalone="no"?>
<svg width="512px" height="512px" viewBox="0 0 512 512" version="1.1" xmlns="http://www.w3.org/2000/svg" xmlns:xlink="http://www.w3.org/1999/xlink">
    <!-- Generator: Sketch 39.1 (31720) - http://www.bohemiancoding.com/sketch -->
    <title>subscription</title>
    <desc>Created with Sketch.</desc>
    <defs></defs>
    <g id="Page-1" stroke="none" stroke-width="1" fill="none" fill-rule="evenodd">
        <g id="subscription" fill="#000000">
            <path d="M35.965911,159.584548 L44.4431575,167.953352 L52.920404,159.584548 L136.840863,76.7376092 L119.88637,60 L35.965911,142.846939 L52.920404,142.846939 L16.954493,107.341108 L0,124.078717 L35.965911,159.584548 L35.965911,159.584548 Z M35.965911,301.607872 L44.4431575,309.976676 L52.920404,301.607872 L136.840863,218.760933 L119.88637,202.023323 L35.965911,284.870262 L52.920404,284.870262 L16.954493,249.364431 L0,266.102041 L35.965911,301.607872 L35.965911,301.607872 Z M35.965911,443.631195 L44.4431575,452 L52.920404,443.631195 L136.840863,360.784256 L119.88637,344.046647 L35.965911,426.893586 L52.920404,426.893586 L16.954493,391.387755 L0,408.125364 L35.965911,443.631195 L35.965911,443.631195 Z M200.295438,103.874635 L512,103.874635 L512,127.545189 L200.295438,127.545189 L200.295438,103.874635 L200.295438,103.874635 Z M200.295438,245.897959 L512,245.897959 L512,269.568513 L200.295438,269.568513 L200.295438,245.897959 L200.295438,245.897959 Z M200.295438,387.921283 L512,387.921283 L512,411.591836 L200.295438,411.591836 L200.295438,387.921283 L200.295438,387.921283 Z" id="icon-subscription"></path>
        </g>
    </g>
</svg>