<?xml version="1.0" encoding="UTF-8" standalone="no"?>
<svg width="512px" height="512px" viewBox="0 0 512 512" version="1.1" xmlns="http://www.w3.org/2000/svg" xmlns:xlink="http://www.w3.org/1999/xlink">
    <!-- Generator: Sketch 3.8.1 (29687) - http://www.bohemiancoding.com/sketch -->
    <title>512</title>
    <desc>Created with Sketch.</desc>
    <defs></defs>
    <g id="Page-1" stroke="none" stroke-width="1" fill="none" fill-rule="evenodd">
        <g id="512" fill="#000000">
            <path d="M256,512 C397.384896,512 512,397.384896 512,256 C512,114.615104 397.384896,0 256,0 C114.615104,0 0,114.615104 0,256 C0,397.384896 114.615104,512 256,512 L256,512 Z M256,480 C379.711784,480 480,379.711776 480,256 C480,132.288224 379.711784,32 256,32 C132.288216,32 32,132.288224 32,256 C32,379.711776 132.288216,480 256,480 L256,480 Z M368,191.466673 L345.599999,168 L222.399999,297.06667 L166.399999,238.400003 L144,261.866677 L222.399999,344 L368,191.466673 L368,191.466673 Z" id="subscribe"></path>
        </g>
    </g>
</svg>