<?xml version="1.0" encoding="UTF-8" standalone="no"?>
<svg width="512px" height="512px" viewBox="0 0 512 512" version="1.1" xmlns="http://www.w3.org/2000/svg" xmlns:xlink="http://www.w3.org/1999/xlink">
    <!-- Generator: Sketch 39.1 (31720) - http://www.bohemiancoding.com/sketch -->
    <title>icon-sugarsync</title>
    <desc>Created with Sketch.</desc>
    <defs></defs>
    <g id="Page-1" stroke="none" stroke-width="1" fill="none" fill-rule="evenodd">
        <g id="icon-sugarsync">
            <g id="SugarSyncOverlay" transform="translate(16.000000, 0.000000)">
                <path d="M323.806297,315.616438 C313.962946,315.616438 305.651507,317.639094 301.055771,321.611163 C283.129138,337.082509 312.691785,361.850186 347.3934,375.067876 C357.856035,379.051215 372.12672,383.197941 383.458525,385.434694 C380.943363,385.372718 378.439068,385.282571 375.951068,385.158621 C383.458525,386.989715 390.042487,388.409519 394.116723,389.260274 C394.350313,388.381349 394.594765,387.496788 394.84465,386.612228 C399.94016,368.374521 393.763621,344.716768 371.643245,329.904616 C357.274776,320.292774 338.766887,315.616438 323.806297,315.616438" id="Fill-1" fill="#FFFFFF"></path>
                <path d="M234.609241,157.808219 C215.004318,157.808219 197.853315,170.624505 187.826087,195.997771 L188.04292,195.997771 L188.286197,195.997771 C189.846341,195.931566 191.411773,195.90398 192.99836,195.90398 C229.986985,195.90398 273.009929,213.773954 280.488041,252.493151 L299.130435,199.043226 C294.524045,190.46961 290.874895,183.821472 290.874895,183.821472 C290.874895,183.821472 290.605175,182.513913 289.610914,180.456025 C289.658512,180.75395 289.700821,181.057392 289.737841,181.355317 C270.138207,159.998519 254.203587,157.808219 234.609241,157.808219 L234.609241,157.808219 Z M240,182.361412 C240,188.164766 235.334548,192.876712 229.575631,192.876712 C223.79068,192.876712 219.130435,188.164766 219.130435,182.361412 C219.130435,176.542315 223.79068,171.835616 229.575631,171.835616 C235.334548,171.835616 240,176.542315 240,182.361412 L240,182.361412 Z" id="Fill-2" fill="#FFFFFF"></path>
                <path d="M418.985857,292.358554 C381.831082,259.4388 324.37701,239.245726 281.452229,253.286093 C273.532509,212.550737 226.212042,194.785488 187.747118,196.548156 C197.891419,171.039365 215.233523,158.157481 235.062237,158.157481 C254.874908,158.157481 270.987075,160.358043 290.805094,181.814917 C288.393349,162.347973 261.618168,136.767123 228.388495,136.767123 C190.346027,136.767123 156.271441,163.17942 141.854448,200.877223 C117.699566,205.655271 28.7002986,251.057815 0,283.02972 C34.4221766,261.83891 103.828023,219.911814 149.870424,219.911814 C185.902214,219.911814 212.720175,251.684172 221.13187,279.182892 C243.703877,353.048636 305.965397,381.46749 379.194741,383.213529 C368.039753,381.012967 353.991739,376.933334 343.692359,373.014447 C309.532212,360.010619 280.430847,335.64368 298.077761,320.422659 C309.484084,310.578327 344.114815,312.906379 367.563819,328.581924 C389.339043,343.154417 395.419207,366.429387 390.403203,384.372014 C363.237652,481.446211 405.1464,520.058603 477.734035,510.618912 C488.26871,405.762371 460.953426,329.546403 418.985857,292.358554" id="Fill-3" fill="#DDDDDD" opacity="0.699999988"></path>
                <path d="M148.938132,220.931507 C103.182144,220.931507 34.208048,262.862177 0,284.054795 C34.0433053,262.973047 103.814544,221.358352 149.565217,220.931507 L148.938132,220.931507" id="Fill-4" fill="#CCCCCC"></path>
                <path d="M144.946112,203.39726 C120.486218,208.08836 29.0498443,252.664696 0,284.054795 C34.8414101,263.249602 105.092561,222.085471 151.695721,222.085471 L152.334417,222.085471 L153.043478,222.085471 L144.946112,203.39726" id="Fill-5" fill="#CCCCCC"></path>
                <path d="M416.948706,92.8002472 L459.743523,42.0821918 C505.12247,114.979385 450.000998,247.675014 394.744883,273.534247 C394.471391,273.369367 394.197398,273.205141 393.922911,273.041572 C415.753558,235.240299 427.491301,157.783708 416.948699,92.8002651 L416.948706,92.8002472 Z M281.73913,253.043175 C287.383225,251.207575 293.275056,249.95981 299.33384,249.244425 C302.761518,248.843652 306.240045,248.611183 309.763457,248.540874 C300.013998,248.710183 290.573519,250.145955 281.743389,253.038128 L281.73913,253.043175 Z" id="Combined-Shape" fill="#FFFFFF"></path>
                <path d="M311.66737,270.027397 C307.421245,270.027397 303.238733,270.260774 299.130435,270.738381 C303.201626,270.266201 307.352332,270.032824 311.556049,270.032824 C338.591301,270.038252 367.847683,279.563267 392.900351,294.575342 C392.942758,294.553633 392.99577,294.531923 393.043478,294.510214 C368.017318,279.508994 338.723826,270.027397 311.66737,270.027397" id="Fill-8" fill="#DDDDDD"></path>
                <path d="M281.73913,253.039523 L370.51937,0 C438.194751,49.4707852 428.934024,213.218198 393.636497,273.534247 C358.749969,252.347508 315.723606,241.906382 281.73913,253.039523" id="Fill-9-Copy" fill="#DDDDDD" opacity="0.699999988"></path>
            </g>
        </g>
    </g>
</svg>