<svg xmlns="http://www.w3.org/2000/svg" viewBox="0 0 512 512">
  <path d="M256.08,467.78A211.44,211.44,0,0,1,47.35,287.62L22.88,316.56A12.19,12.19,0,0,1,5.8,318.41,12.26,12.26,0,0,1,4,301.14l43.58-52.38a12.14,12.14,0,0,1,9.19-4.46,12.44,12.44,0,0,1,1.64.06A12.08,12.08,0,0,1,66,248l50.6,33.18a12.21,12.21,0,0,1-6.08,21.73,12.1,12.1,0,0,1-9-2.52l-.07-.06L71.29,282.66A187,187,0,0,0,256.08,443.33c77.12,0,147.29-48.49,174.6-120.65a12.22,12.22,0,0,1,15.75-7.1,12.21,12.21,0,0,1,7.1,15.74C422.63,412.94,343.28,467.78,256.08,467.78Z"/>
  <path d="M455.1,268.68c-.33,0-.83,0-1.68-.11a12.06,12.06,0,0,1-4.23-1.35,11.77,11.77,0,0,1-1.88-1.23l-.13-.11-48-44.17a12.21,12.21,0,0,1-1.83-17.06l.09-.1a12.21,12.21,0,0,1,17-1.88l.13.08.21.2,25.76,25.17A187,187,0,0,0,256.06,69.67c-77.66,0-148,48.94-175,121.79A12.22,12.22,0,0,1,58.13,183C88.7,100.57,168.24,45.22,256.06,45.22A211.43,211.43,0,0,1,465,226.45l25.37-20.74a12.22,12.22,0,0,1,18.83,15.52l-.32.36-44.47,42.75c-.23.26-.45.47-.67.68l-.2.2a13.25,13.25,0,0,1-4.07,2.62,13,13,0,0,1-1.58.5,16.58,16.58,0,0,1-2.13.3h-.13A3,3,0,0,1,455.1,268.68Z"/>
</svg>
