<?xml version="1.0" encoding="UTF-8"?>
<svg width="512px" height="512px" viewBox="0 0 512 512" version="1.1" xmlns="http://www.w3.org/2000/svg" xmlns:xlink="http://www.w3.org/1999/xlink">
    <!-- Generator: Sketch 39.1 (31720) - http://www.bohemiancoding.com/sketch -->
    <title>tag</title>
    <desc>Created with Sketch.</desc>
    <defs></defs>
    <g id="Page-1" stroke="none" stroke-width="1" fill="none" fill-rule="evenodd">
        <g id="warning" fill="#000000">
            <path d="M438.66,234.05c20.23,20.9,20.23,53.72-.13,74.1L308.18,438.52a52.65,52.65,0,0,1-74.22,0L79.58,284.12c-14.75-14.76-22.48-34.4-21.28-54.75l5.11-117.13c.62-13,6-24.89,15.46-35.07A55.56,55.56,0,0,1,114,62.31l115.59-4.1a72.85,72.85,0,0,1,54.07,21.3l155,154.54ZM267.2,96a49.57,49.57,0,0,0-36.87-14.5L115,85.56a32,32,0,0,0-19.63,8,30.83,30.83,0,0,0-8.66,19.7L81.54,230.56c-.81,13.78,4.38,27,14.5,37.1l154.38,154.4a29.4,29.4,0,0,0,41.3,0L422.07,291.7a29.38,29.38,0,0,0,0-41.3L267.19,96Zm-92.65,43.66a34.92,34.92,0,1,1-34.92,34.9,34.93,34.93,0,0,1,34.92-34.9"/>
        </g>
    </g>
</svg>