<?xml version="1.0" encoding="UTF-8" standalone="no"?>
<svg width="512px" height="512px" viewBox="0 0 512 512" version="1.1" xmlns="http://www.w3.org/2000/svg" xmlns:xlink="http://www.w3.org/1999/xlink">
    <!-- Generator: Sketch 3.8.1 (29687) - http://www.bohemiancoding.com/sketch -->
    <title>toc</title>
    <desc>Created with Sketch.</desc>
    <defs></defs>
    <g id="Page-1" stroke="none" stroke-width="1" fill="none" fill-rule="evenodd">
        <g id="toc" fill="#000000">
            <path d="M51.2,154 C79.4769792,154 102.4,131.166522 102.4,103 C102.4,74.8334777 79.4769792,52 51.2,52 C22.9230208,52 0,74.8334777 0,103 C0,131.166522 22.9230208,154 51.2,154 L51.2,154 Z M51.2,128.5 C65.3384832,128.5 76.8,117.083261 76.8,103 C76.8,88.9167389 65.3384832,77.5 51.2,77.5 C37.0615168,77.5 25.6,88.9167389 25.6,103 C25.6,117.083261 37.0615168,128.5 51.2,128.5 L51.2,128.5 Z M51.2,307 C79.4769792,307 102.4,284.166522 102.4,256 C102.4,227.833478 79.4769792,205 51.2,205 C22.9230208,205 0,227.833478 0,256 C0,284.166522 22.9230208,307 51.2,307 L51.2,307 Z M51.2,281.5 C65.3384832,281.5 76.8,270.083261 76.8,256 C76.8,241.916739 65.3384832,230.5 51.2,230.5 C37.0615168,230.5 25.6,241.916739 25.6,256 C25.6,270.083261 37.0615168,281.5 51.2,281.5 L51.2,281.5 Z M51.2,460 C79.4769792,460 102.4,437.166522 102.4,409 C102.4,380.833478 79.4769792,358 51.2,358 C22.9230208,358 0,380.833478 0,409 C0,437.166522 22.9230208,460 51.2,460 L51.2,460 Z M51.2,434.5 C65.3384832,434.5 76.8,423.083261 76.8,409 C76.8,394.916739 65.3384832,383.5 51.2,383.5 C37.0615168,383.5 25.6,394.916739 25.6,409 C25.6,423.083261 37.0615168,434.5 51.2,434.5 L51.2,434.5 Z M153.6,90.25 L512,90.25 L512,115.75 L153.6,115.75 L153.6,90.25 L153.6,90.25 Z M153.6,243.25 L512,243.25 L512,268.75 L153.6,268.75 L153.6,243.25 L153.6,243.25 Z M153.6,396.25 L512,396.25 L512,421.75 L153.6,421.75 L153.6,396.25 L153.6,396.25 Z" id="icon-toc"></path>
        </g>
    </g>
</svg>