<svg xmlns="http://www.w3.org/2000/svg" viewBox="0 0 512 512"><path fill="#000000" fill-rule="evenodd" d="M345 40.15C345 17.98 325.3 0 301 0h-88c-24.3 0-44 17.98-44 40.15l.01 15.42H59v23.67h23.79l31.2 402.65s6.92 30.11 33 30.11h220c26.1 0 33.01-30.11 33.01-30.11l31.22-402.65H455V55.57H345.01L345 40.15zM212.95 21.86h88c12.15 0 22 9 22 20.08l.05 13.27h-132l-.05-13.27c0-11.1 9.86-20.08 22-20.08zM367 491.91H147s-9.15-4.55-11-20.07c-1.84-15.52-30.3-393.38-30.3-393.38h302.63c.01 0-28.48 377.86-30.32 393.38-1.85 15.52-11.01 20.07-11.01 20.07zm-21.99-367.73h-22l-11 319.38h22l11-319.38zm-143 319.38l-11-319.38H169l11 319.38h22.01zM246 124.18h22v319.38h-22V124.18z"/></svg>