<?xml version="1.0" encoding="UTF-8" standalone="no"?>
<svg width="512px" height="512px" viewBox="0 0 512 512" version="1.1" xmlns="http://www.w3.org/2000/svg" xmlns:xlink="http://www.w3.org/1999/xlink" xmlns:sketch="http://www.bohemiancoding.com/sketch/ns">
    <!-- Generator: Sketch 3.5.2 (25235) - http://www.bohemiancoding.com/sketch -->
    <title>twitter</title>
    <desc>Created with Sketch.</desc>
    <defs></defs>
    <g id="Page-1" stroke="none" stroke-width="1" fill="none" fill-rule="evenodd" sketch:type="MSPage">
        <g id="twitter" sketch:type="MSArtboardGroup" fill="#000000">
            <path d="M451.67104,119.362059 C473.35424,106.841018 490.01216,87.0178724 497.856,63.3957748 C477.55776,74.9898781 455.0784,83.40874 431.15008,87.9423522 C411.99104,68.2843857 384.6912,56 354.47808,56 C296.46848,56 249.4336,101.289255 249.4336,157.154474 C249.4336,165.080278 250.36288,172.801463 252.15488,180.207101 C164.85376,175.986578 87.45216,135.716588 35.64544,74.5165572 C26.60352,89.4560175 21.42208,106.831155 21.42208,125.369895 C21.42208,160.465316 39.96672,191.426491 68.15232,209.565855 C50.93376,209.040762 34.73664,204.489892 20.57472,196.91415 C20.56448,197.338178 20.56448,197.759738 20.56448,198.186223 C20.56448,247.198018 56.77312,288.079398 104.82688,297.375884 C96.0128,299.685833 86.7328,300.923392 77.15328,300.923392 C70.38464,300.923392 63.80288,300.28735 57.39008,299.108957 C70.75584,339.29513 109.55008,368.542956 155.51488,369.356487 C119.5648,396.48912 74.27328,412.658745 25.05728,412.658745 C16.57856,412.658745 8.2176,412.180487 0,411.243687 C46.48704,439.946694 101.70112,456.695652 161.02144,456.695652 C354.23232,456.695652 459.8912,302.55539 459.8912,168.884167 C459.8912,164.498477 459.7888,160.134969 459.584,155.796114 C480.11008,141.534594 497.91744,123.718171 512,103.434026 C493.16352,111.478163 472.91648,116.916529 451.67104,119.362059 L451.67104,119.362059 Z" id="icon-twitter" sketch:type="MSShapeGroup"></path>
        </g>
    </g>
</svg>