<?xml version="1.0" encoding="UTF-8" standalone="no"?>
<svg width="512px" height="512px" viewBox="0 0 512 512" version="1.1" xmlns="http://www.w3.org/2000/svg" xmlns:xlink="http://www.w3.org/1999/xlink" xmlns:sketch="http://www.bohemiancoding.com/sketch/ns">
    <!-- Generator: Sketch 3.5.2 (25235) - http://www.bohemiancoding.com/sketch -->
    <title>txt</title>
    <desc>Created with Sketch.</desc>
    <defs></defs>
    <g id="Page-1" stroke="none" stroke-width="1" fill="none" fill-rule="evenodd" sketch:type="MSPage">
        <g id="txt" sketch:type="MSArtboardGroup" fill="#555555">
            <g id="icon-txt" sketch:type="MSLayerGroup" transform="translate(0.000000, 108.000000)">
                <path d="M503.466667,16 L8.53333333,16 C3.81866667,16 0,12.42 0,8 C0,3.58 3.81866667,0 8.53333333,0 L503.466667,0 C508.181333,0 512,3.58 512,8 C512,12.42 508.181333,16 503.466667,16" id="Fill-4" sketch:type="MSShapeGroup"></path>
                <path d="M503.466667,72 L8.53333333,72 C3.81866667,72 0,68.42 0,64 C0,59.58 3.81866667,56 8.53333333,56 L503.466667,56 C508.181333,56 512,59.58 512,64 C512,68.42 508.181333,72 503.466667,72" id="Fill-5" sketch:type="MSShapeGroup"></path>
                <path d="M503.466667,128 L8.53333333,128 C3.81866667,128 0,124.42 0,120 C0,115.58 3.81866667,112 8.53333333,112 L503.466667,112 C508.181333,112 512,115.58 512,120 C512,124.42 508.181333,128 503.466667,128" id="Fill-6" sketch:type="MSShapeGroup"></path>
                <path d="M503.466667,184 L8.53333333,184 C3.81866667,184 0,180.42 0,176 C0,171.58 3.81866667,168 8.53333333,168 L503.466667,168 C508.181333,168 512,171.58 512,176 C512,180.42 508.181333,184 503.466667,184" id="Fill-7" sketch:type="MSShapeGroup"></path>
                <path d="M503.466667,240 L8.53333333,240 C3.81866667,240 0,236.42 0,232 C0,227.58 3.81866667,224 8.53333333,224 L503.466667,224 C508.181333,224 512,227.58 512,232 C512,236.42 508.181333,240 503.466667,240" id="Fill-8" sketch:type="MSShapeGroup"></path>
                <path d="M8.53333333,296 C3.81866667,296 0,292.42 0,288 C0,283.58 3.81866667,280 8.53333333,280 L503.466667,280 C508.181333,280 512,283.58 512,288 C512,292.42 508.181333,296 503.466667,296 L8.53333333,296 L8.53333333,296 Z" id="Fill-9" sketch:type="MSShapeGroup"></path>
            </g>
        </g>
    </g>
</svg>