<?xml version="1.0" encoding="UTF-8" standalone="no"?>
<svg width="512px" height="512px" viewBox="0 0 512 512" version="1.1" xmlns="http://www.w3.org/2000/svg" xmlns:xlink="http://www.w3.org/1999/xlink">
    <!-- Generator: Sketch 39.1 (31720) - http://www.bohemiancoding.com/sketch -->
    <title>icon-underline</title>
    <desc>Created with Sketch.</desc>
    <defs></defs>
    <g id="Page-1" stroke="none" stroke-width="1" fill="none" fill-rule="evenodd">
        <g id="icon-underline" fill="#222222">
            <path d="M425.826868,0 L425.826868,273.771921 C425.826868,305.027223 419.071692,332.375202 405.56114,355.816679 C392.050588,379.258156 372.514021,397.29721 346.950881,409.934384 C321.38774,422.571558 290.819349,428.890052 255.244772,428.890052 C202.368924,428.890052 161.254677,414.999014 131.900798,387.216524 C102.546938,359.434033 87.8702071,321.233682 87.8702071,272.614324 L87.8702071,0 L157.852605,0 L157.852605,267.694533 C157.852605,302.615579 166.017133,328.371876 182.346449,344.964198 C198.675765,361.556517 223.752539,369.852554 257.577529,369.852554 C323.283558,369.852554 356.136075,335.607289 356.136075,267.115733 L356.136075,0 L425.826868,0 L425.826868,0 Z M44,482.371077 L468,482.371077 L468,512.005586 L44,512.005586 L44,482.371077 L44,482.371077 Z" id="underline"></path>
        </g>
    </g>
</svg>