<?xml version="1.0" encoding="UTF-8"?>
<svg width="511px" height="512px" viewBox="0 0 511 512" version="1.1" xmlns="http://www.w3.org/2000/svg" xmlns:xlink="http://www.w3.org/1999/xlink">
    <!-- Generator: Sketch 49.3 (51167) - http://www.bohemiancoding.com/sketch -->
    <title>Unlink</title>
    <desc>Created with Sketch.</desc>
    <defs></defs>
    <g id="Page-1" stroke="none" stroke-width="1" fill="none" fill-rule="evenodd">
        <g id="unlink" transform="translate(-1.000000, 0.000000)" fill="#F26724">
            <g id="Unlink" transform="translate(1.000000, 0.000000)">
                <path d="M88.1362847,462.468471 C103.735063,478.068809 124.223826,485.859866 144.712589,485.859866 C165.201352,485.859866 185.708328,478.050584 201.307106,462.450246 L280.466581,383.227501 L258.575476,361.321418 L179.416001,440.544164 C160.274943,459.689205 129.168448,459.689205 110.018284,440.562388 L72.5101881,402.983069 C53.3873425,383.84714 53.3873425,352.701138 72.5284003,333.565209 L152.54385,253.476791 L130.652745,231.570709 L50.6372951,311.659127 C35.521141,326.776511 27.1981501,346.887461 27.1981501,368.274139 C27.1799379,389.66993 35.5029288,409.771768 50.6190829,424.898264 L88.1362847,462.468471 Z" id="Fill-1"></path>
                <path d="M425.680917,49.5606888 C410.582975,34.4341927 390.485775,26.0963951 369.104613,26.0963951 C347.72345,26.1055075 327.644462,34.4341927 312.54652,49.5515764 L222.960542,139.189734 L244.851647,161.095817 L334.437625,71.4576587 C343.68944,62.1812894 356.010016,57.0783751 369.104613,57.0783751 C382.208315,57.0783751 394.519785,62.1904018 403.789812,71.4576587 L441.31612,109.009641 C450.586147,118.28601 455.685573,130.596791 455.685573,143.718571 C455.685573,156.840351 450.577041,169.151131 441.31612,178.427501 L355.591135,264.229361 L377.48224,286.135443 L463.207225,200.333583 C478.305167,185.216199 486.64637,165.114362 486.64637,143.718571 C486.64637,122.32278 478.323379,102.21183 463.207225,87.1035586 L425.680917,49.5606888 Z" id="Fill-3"></path>
                <polygon id="Fill-5" points="142.595417 121.538207 120.704312 143.444289 48.3197884 71.0193548 70.2108935 49.1132725"></polygon>
                <polygon id="Fill-7" points="0.0009106117 186.801748 100.359426 184.350526 101.115233 215.314282 0.756718319 217.765503"></polygon>
                <polygon id="Fill-9" points="184.191249 100.577075 185.894093 0.851548832 216.85489 1.38006496 215.152046 101.105591"></polygon>
                <polygon id="Fill-12" points="439.909225 462.877615 367.524701 390.461793 389.4067 368.537486 461.80033 440.96242"></polygon>
                <polygon id="Fill-14" points="326.687409 410.810575 324.237864 511.246865 293.295278 510.49054 295.75393 410.054251"></polygon>
                <polygon id="Fill-16" points="409.869966 295.981334 509.490886 294.2591 510.028147 325.231968 410.407227 326.963314"></polygon>
            </g>
        </g>
    </g>
</svg>