<?xml version="1.0" encoding="UTF-8" standalone="no"?>
<svg width="512px" height="512px" viewBox="0 0 512 512" version="1.1" xmlns="http://www.w3.org/2000/svg" xmlns:xlink="http://www.w3.org/1999/xlink">
    <!-- Generator: Sketch 39.1 (31720) - http://www.bohemiancoding.com/sketch -->
    <title>icon-unordered-list</title>
    <desc>Created with Sketch.</desc>
    <defs></defs>
    <g id="Page-1" stroke="none" stroke-width="1" fill="none" fill-rule="evenodd">
        <g id="icon-unordered-list" fill="#222222">
            <path d="M136.533333,69.7391304 L512,69.7391304 L512,122.956522 L136.533333,122.956522 L136.533333,69.7391304 L136.533333,69.7391304 Z M136.533333,389.043478 L512,389.043478 L512,442.26087 L136.533333,442.26087 L136.533333,389.043478 L136.533333,389.043478 Z M136.533333,229.391304 L512,229.391304 L512,282.608696 L136.533333,282.608696 L136.533333,229.391304 L136.533333,229.391304 Z M42.6666667,140.695652 C66.2308164,140.695652 85.3333333,120.840455 85.3333333,96.3478261 C85.3333333,71.8551976 66.2308164,52 42.6666667,52 C19.1025169,52 0,71.8551976 0,96.3478261 C0,120.840455 19.1025169,140.695652 42.6666667,140.695652 L42.6666667,140.695652 Z M42.6666667,300.347826 C66.2308164,300.347826 85.3333333,280.492628 85.3333333,256 C85.3333333,231.507372 66.2308164,211.652174 42.6666667,211.652174 C19.1025169,211.652174 0,231.507372 0,256 C0,280.492628 19.1025169,300.347826 42.6666667,300.347826 L42.6666667,300.347826 Z M42.6666667,460 C66.2308164,460 85.3333333,440.144802 85.3333333,415.652174 C85.3333333,391.159545 66.2308164,371.304348 42.6666667,371.304348 C19.1025169,371.304348 0,391.159545 0,415.652174 C0,440.144802 19.1025169,460 42.6666667,460 L42.6666667,460 Z" id="unordered-list"></path>
        </g>
    </g>
</svg>