<svg xmlns="http://www.w3.org/2000/svg" viewBox="0 0 512 512"><g fill="none" fill-rule="evenodd"><path fill="#000000" d="M332.8 409.48a989.86 989.86 0 0 1-9.42 7.64c-3.2 2.54-6.48 5.1-9.78 7.64h53.01c-.16-13.77-1.6-28-3.07-36.27l-.94-4.59c-2.2 1.95-4.43 3.97-6.72 5.98-2.18 1.91-4.4 3.85-6.67 5.8 0 0 1.02 6.9 1.49 13.78l-17.9.02zm-111.48-.19h-206c.31-16.73 2.44-28.46 3.88-30.66 1.31-1.23 2.63-2.58 4.5-4.51 8.94-9.18 21.17-21.75 66.6-28.35 28.06-4.06 47.42-13.44 57.53-27.9 7.99-11.44 7.5-22.18 6.99-25.6l-1.9-35.14-7.35-4.07c-.18-.09-17.69-10.33-24.33-28.93l-2.32-6.52-6.46-2.57c-5.96-2.35-7.43-3.3-7.37-3.2-.2-.6-.23-1.27-.42-2.56a59.25 59.25 0 0 0-.62-3.98c-1.26-8.68-1.22-16.71-.8-21.06a19.84 19.84 0 0 0 8.7-6.31c2.74-3.44 5.64-9.36 4.11-18.18-.59-14.43-.3-40.01.57-48.47.61-6.12 5.96-24.51 16.81-26.54a321.07 321.07 0 0 1 13.17-2.33c1.09 0 2.21 0 5.6-.49 5.91-.82 9.36-2.94 11.81-4.45.03-.02.84-.28 3.97-.28l27.08-4.07c1.92.87 5.54 4.62 7.58 6.72 4.77 4.93 10.17 10.52 18.15 11.64 5.38.81 9.45-.05 12.12-.6 1.6-.33 2.57-.52 4.14-.52 1.64 0 3.6.22 5.98.65 2.68.5 5.59 2.61 6.18 21.36.08 2.63.17 4.91.35 6.71 1 9.9 1.38 34.85-.03 41.07-2.18 9.65.73 15.87 3.53 19.38a18.78 18.78 0 0 0 10.25 6.54c.8 3.47 1.55 10.75.5 20-.11.41-.17.57-.17.57-.64.79-4.43 3.02-7.2 4.65a338 338 0 0 0-7.02 4.23l-4.6 2.81-1.78 5.05c-7.08 19.8-22.08 32.68-22.66 33.17l-4.8 3.97-.7 6.22c-.2 1.93-1.96 18.57-2.17 24.11-2.07 16.51 2.73 44.53 54.92 53.97l8.54 1.59a1309.18 1309.18 0 0 1 11.37-13.82l-4.36-.74c-2.41-.42-4.87-.82-7.5-1.2-23.65-3.43-51.15-12.84-47.77-38.17l.07-.83c.08-3.35 1.3-15.75 2.1-23.25l.12-.13c1.9-1.62 18.92-16.5 27.22-39.72h.02c2.53-1.58 4.77-2.9 6.75-4.07 8.72-5.14 12.7-7.49 14.58-15.21l.16-.9c.37-3.06 3.27-30.05-6.98-35.99l-1.77-1.02h-2.05c-1.3 0-2.4-.48-3.12-1.37-1.05-1.32-1.24-3.49-.56-6.46 2.07-9.17 1.22-37.12.32-45.99-.15-1.5-.21-3.43-.29-5.65-.37-12.19-1.02-32.6-18.67-35.92-7.36-1.36-12.47-.8-15.96-.07-2 .4-3.93.86-6.9.44-2.81-.4-5.84-3.51-9.35-7.15-4.93-5.12-10.54-10.92-17.73-11.48l-.87-.07-27.64 4.26c-6.15.06-8.81.98-11.79 2.8-1.47.9-2.74 1.7-5.48 2.08-2.12.3-2.82.33-3.49.33-1.13 0-2.1 0-15.97 2.6-20.92 3.91-28.29 30.89-29.22 40.03-.94 9.25-1.26 36.05-.61 51.2l.13 1.12c.53 2.75.22 4.88-.94 6.34a5.44 5.44 0 0 1-3.84 1.9l-4.32.42-1.87 3.93c-3.27 6.9-2.4 23.43-.98 33.19.24 1.25.4 2.42.6 3.93 1.23 9.19 4.46 12.46 17.26 17.5 8.73 24.43 31.01 37 31.26 37.15l1.52 27.35c.25 1.78.68 8.16-4.33 15.33-7.59 10.85-23.47 18.11-47.2 21.54-50.56 7.33-64.88 22.06-75.83 33.31-1.22 1.25-2.36 2.43-3.52 3.51-8.42 7.9-8.9 37.31-8.72 49.6l.11 7.53H220.1c1.28-1.78 2.6-3.55 4.05-5.34l1.42-2.31 1.92-3.1c.9-1.46 1.82-2.92 2.75-4.39l-8.92-.16zm25.11 7.87c-25.75 25.77-26.09 42.43-24.07 44.44 1.95 1.95 16.12 2.38 43.48-25.01l-19.41-19.43z"/><path stroke="#000000" stroke-width="15.28" d="M357 289.46l35.09 35.12-1.44 1.45a921.57 921.57 0 0 1-18.47 18.06 965.4 965.4 0 0 1-62.59 54.82 660.9 660.9 0 0 1-46.9 34.4l-12.5-12.5c2.1-3.3 4.3-6.63 6.58-10.02a705.69 705.69 0 0 1 33.35-45.08c15.8-19.82 32.74-39.41 49.7-57.9A1107.56 1107.56 0 0 1 357 289.46z"/><path stroke="#000000" stroke-width="15.28" d="M391.62 324.59l-34.7-34.73a2025.87 2025.87 0 0 1 33.17-35.82l4.34-4.54c4.13-4.29 8.04-8.28 11.7-11.94 34.41-34.45 71.56-57.55 90-57.55 3 0 4.86.64 5.9 1.68 3.24 3.25 1.47 13.75-7.42 29.5-9.94 17.61-27.33 39.28-49.68 61.65a1432.9 1432.9 0 0 1-17.85 17.7 2921.07 2921.07 0 0 1-35.46 34.05z"/><path stroke="#000000" stroke-linecap="round" stroke-width="15.28" d="M496.1 221.25s8.22 4.83 8.22 11.83c0 23.4-72.93 77.52-72.93 92.24 0 5.62 2.36 7.77 2.36 7.77"/></g></svg>