<?xml version="1.0" encoding="UTF-8"?>
<svg width="512px" height="498px" viewBox="0 0 512 498" version="1.1" xmlns="http://www.w3.org/2000/svg" xmlns:xlink="http://www.w3.org/1999/xlink">
    <!-- Generator: Sketch 49.3 (51167) - http://www.bohemiancoding.com/sketch -->
    <title>user-bulk-upload</title>
    <desc>Created with Sketch.</desc>
    <defs>
        <polygon id="path-1" points="274.941543 351.079362 288.416461 363.245263 340.864614 308.341495 340.864614 406.515236 359.226306 406.515236 359.226306 308.317308 411.747036 363.245263 425.17357 351.079362 350.081748 272.472646"></polygon>
    </defs>
    <g id="Page-1" stroke="none" stroke-width="1" fill="none" fill-rule="evenodd">
        <g id="icon-user-bulk-upload" transform="translate(0.000000, -7.000000)">
            <g id="user-bulk-upload" transform="translate(0.000000, 7.000000)">
                <mask id="mask-2" fill="white">
                    <use xlink:href="#path-1"></use>
                </mask>
                <use id="Clip-7" fill="#F07B49" xlink:href="#path-1"></use>
                <path d="M212.983533,339.489104 C212.983533,412.879765 274.289216,472.527947 350.067233,472.527947 C425.860786,472.527947 487.150933,412.888215 487.150933,339.489104 C487.150933,266.095265 425.866146,206.474447 350.067233,206.474447 C274.283855,206.474447 212.983533,266.103713 212.983533,339.489104 Z M316.451173,185.041908 C318.248237,167.754224 316.416275,152.604866 310.320257,145.988501 C309.655611,145.25279 309.083182,144.733788 308.535316,144.342541 L302.835598,140.272201 L303.369337,133.289684 C304.261373,121.619846 303.806079,100.862974 302.906331,91.5009665 L302.666393,86.132578 C302.352244,74.845535 301.470471,67.6491836 298.710556,60.3642004 C295.1735,51.0279003 289.43294,45.4715707 279.896049,43.5410249 C276.343449,42.8189505 273.218839,42.4839067 270.299107,42.4839067 C269.319227,42.4839067 268.449961,42.5114092 266.878363,42.5828635 C264.255187,42.7021288 263.429885,42.728386 261.989718,42.6990012 L256.575487,42.5885308 L252.971383,38.5475621 C250.496088,35.7722294 249.277476,34.4792988 247.632567,32.9677069 C242.070151,27.8561152 236.136694,25.0846981 228.046048,24.8658688 L205.914643,28.9151781 L204.787299,28.9151781 C200.677368,28.9151781 197.551692,29.3083386 195.31133,29.9722346 C193.920233,30.3844646 193.132713,30.8057541 192.689429,31.1951254 L189.172164,34.2846215 L184.490251,34.2846215 C182.361455,34.2846215 180.369223,34.6009254 168.001612,37.0825689 C158.155726,39.0863029 150.299575,45.5314617 144.330989,55.7202991 C139.338823,64.2423123 136.12428,74.8604379 135.314433,83.4404832 C134.478738,92.3672834 134.223161,114.371323 134.734335,132.088154 L134.923759,138.653435 L129.60289,142.505638 C128.879045,143.029688 128.245329,143.598735 127.605497,144.314723 C122.557716,149.8871 120.613539,163.88311 123.599677,185.665313 L124.107708,189.486809 C125.31052,199.479923 128.14277,203.954073 137.751293,209.19685 L141.480319,211.231549 L143.182262,215.123107 C148.835587,228.049656 157.613136,238.396498 167.475968,246.161787 L171.165111,249.066353 L172.010066,253.684438 C174.673552,268.241655 174.111322,282.155739 167.386705,292.669625 C162.379492,300.586284 154.25261,305.882519 141.182677,307.926836 C90.8430765,315.847914 75.4021012,320.961989 60.718278,332.899801 C45.5775439,345.258732 26.5254181,400.776996 25.6538506,431.44801 L25.4988643,437.452421 L223.074393,437.452421 C201.204668,410.543266 188.138397,376.514651 188.138397,339.489104 C188.138397,263.484416 243.199401,200.121807 316.451173,185.041908 Z M341.654192,181.844217 C344.440635,181.705121 347.245567,181.634725 350.067233,181.634725 C439.438184,181.634725 511.996069,252.22256 511.996069,339.489104 C511.996069,426.759605 439.434062,497.367669 350.067233,497.367669 C311.531656,497.367669 276.11588,484.232664 248.296725,462.292143 L0.00429230565,462.292143 L0.333145039,449.551876 L0.817859561,430.774909 C1.28200675,414.440488 6.38304458,390.420706 14.0045289,368.211552 C22.6674057,342.967761 33.2721565,323.236071 45.0243673,313.643122 C63.9734522,298.237652 82.9969764,291.937031 137.331167,283.387398 C143.366144,282.443442 145.225128,281.231955 146.421383,279.34091 C148.448613,276.171264 149.022165,269.684957 148.208775,262.466957 C137.915419,253.592767 128.78195,242.460053 122.165459,228.859477 C107.861463,219.985684 101.431114,208.85848 99.4693658,192.68584 L98.9779065,188.988231 C95.0951786,160.666895 97.9609206,140.036594 109.131375,127.705702 C109.422562,109.648974 109.723861,90.2432394 110.5783,81.1162604 C111.716303,69.0594526 115.985861,54.9564521 122.892111,43.1669496 C132.179931,27.311924 145.615784,16.2891962 163.079247,12.7352584 C172.64457,10.8158759 177.022106,9.98976978 180.214403,9.65467576 C186.131876,6.04640174 193.845102,4.21755257 203.616411,4.08342297 L225.868168,0.0120933409 L226.995512,0.0120933409 C242.355231,0.0120933409 254.340721,5.39364865 264.445725,14.6796595 C265.577187,15.7194178 266.53826,16.6533063 267.545659,17.6946297 C268.533279,17.659831 269.358686,17.6441844 270.299107,17.6441844 C274.939191,17.6441844 279.713837,18.1561572 284.836102,19.1972739 C303.393308,22.9537876 315.57054,34.7402181 321.944878,51.5657165 C325.962758,62.1711842 327.110239,71.4905038 327.49385,85.1920233 L327.67042,89.4729197 C328.530769,98.7341325 328.995345,116.050388 328.485847,129.039844 C335.989406,137.212456 339.874602,148.10859 341.314497,161.090003 C342.060632,167.816809 342.116081,174.813453 341.654192,181.844217 Z" id="Combined-Shape" fill="#F26724" fill-rule="nonzero"></path>
            </g>
        </g>
    </g>
</svg>