<?xml version="1.0" encoding="UTF-8" standalone="no"?>
<svg width="512px" height="512px" viewBox="0 0 512 512" version="1.1" xmlns="http://www.w3.org/2000/svg" xmlns:xlink="http://www.w3.org/1999/xlink">
    <!-- Generator: Sketch 39.1 (31720) - http://www.bohemiancoding.com/sketch -->
    <title>user-crm</title>
    <desc>Created with Sketch.</desc>
    <defs></defs>
    <g id="Page-1" stroke="none" stroke-width="1" fill="none" fill-rule="evenodd">
        <g id="user-crm" fill="#000000">
            <g id="icon-user-crm" transform="translate(256.431872, 260.079778) rotate(1.000000) translate(-256.431872, -260.079778) translate(20.431872, 4.079778)">
                <path d="M33.0887957,261.017212 L11.7517805,263.294598 C24.756657,388.946422 135.604717,480.101337 259.337852,466.894798 L257.095242,445.226916 C145.146214,457.175689 44.8551126,374.702195 33.0887957,261.017212 L33.0887957,261.017212 Z M262.134163,463.388095 L260.548398,448.066588 L222.359588,495.957124 L239.032903,509.668275 L277.221711,461.777739 L283.972603,453.311809 L275.635946,446.456234 L228.476694,407.675243 L214.974911,424.607105 L262.134163,463.388095 L262.134163,463.388095 Z" id="Combined-Shape"></path>
                <path d="M353.158348,409.261419 L365.46417,427.108476 C467.378719,354.640564 492.146993,211.994516 420.785657,108.499612 L403.211122,120.996256 C467.77614,214.634503 445.36675,343.695212 353.158348,409.261419 L353.158348,409.261419 Z M416.409779,107.716062 L403.982707,116.552523 L463.74342,127.25335 L467.468963,105.797113 L407.70825,95.0962867 L397.143948,93.2046299 L395.281177,103.932748 L384.743751,164.620151 L405.872354,168.403465 L416.409779,107.716062 L416.409779,107.716062 Z" id="Combined-Shape"></path>
                <path d="M322.824044,51.9529316 L331.891126,32.2069918 C219.133122,-21.1882686 85.1002517,28.3521838 32.5203309,142.858689 L51.9647526,152.066373 C99.5370618,48.4652482 220.804898,3.64293418 322.824044,51.9529316 L322.824044,51.9529316 Z M34.040057,147.098849 L47.7893394,153.609664 L27.0346616,95.7024184 L6.87398353,103.154091 L27.6286614,161.061337 L31.2976047,171.297988 L41.3779437,167.572152 L98.4009524,146.495638 L91.0630657,126.022336 L34.040057,147.098849 L34.040057,147.098849 Z" id="Combined-Shape"></path>
            </g>
        </g>
    </g>
</svg>