<svg xmlns="http://www.w3.org/2000/svg" viewBox="0 0 512 512"><g fill="none" fill-rule="evenodd" stroke="#000000" stroke-width="17.61"><path d="M167.51 472.26c-.07-8.88-.29-17.9 1.26-26.67 1.75-9.88 6.24-15.7 13.64-22.15 13.8-12.04 30.89-17.94 48.63-21.44 31.77-6.25 70.36-11.1 70.33-51.59-.01-7.03-.26-14.4-1.02-21.4-.73-6.58-5.1-7.64-10.21-11.46a60.1 60.1 0 0 1-15.74-17.7c-2.02-3.4-3.39-8.37-5.96-11.37-2.3-2.68-5.5-2.98-8.41-4.58-6.4-3.49-7.91-8.89-8.44-15.92-.36-4.8-1.66-16.3.77-20.67 1.61-2.9 5.71-3.12 8.17-5.48 2.58-2.48 3.49-5.73 3.92-9.17 1.13-9.1-.8-19.09-.94-28.25-.27-16.56-.28-41.19 15.07-51.86 6.67-4.65 14.8-4.52 22.44-6.11 8.79-1.83 16.67-4.41 25.62-5.64 6.6-.91 14.51-4.48 21.2-2.62 7.02 1.96 10.52 9.48 15.95 13.7 12.48 9.68 33.74-6.14 38.89 14.43 1.62 6.48 1.33 13.7 1.71 20.32.6 10.6 1.2 21.24.66 31.86-.35 6.98-3.77 17.73 1.42 23.72 5 5.74 10.95 3.71 12.45 12.55.94 5.53.98 13.03-1.17 18.32-2.56 6.3-8.95 7.57-14.24 10.86-6.66 4.16-7.62 10.86-11 17.45-4.44 8.62-10.93 14.61-17.34 21.6-6.2 6.76-5.39 17.66-6.15 26.36-.9 10.27-.26 20.4 6.18 28.9 11.27 14.89 31.85 18.75 49.06 21.99 20.3 3.81 40.3 7.54 57.38 19.91 7.12 5.16 13.51 11.25 16.36 19.74 3.48 10.34 3.72 21.58 4.21 32.37h-334.7z"/><path d="M132.12 419.43h-43.8c-.08-8.88-.3-17.9 1.26-26.67 1.75-9.88 6.23-15.7 13.63-22.15 13.8-12.04 30.9-17.95 48.63-21.44 31.78-6.25 70.35-11.1 70.33-51.6 0-7.03-.25-14.4-1.01-21.39-.74-6.58-5.1-7.64-10.22-11.46a60.2 60.2 0 0 1-15.73-17.7c-2.03-3.41-3.39-8.38-5.96-11.37-2.3-2.68-5.5-2.98-8.41-4.58-6.4-3.5-7.91-8.89-8.44-15.92-.36-4.81-1.66-16.3.76-20.68 1.62-2.9 5.72-3.11 8.18-5.47 2.57-2.48 3.49-5.73 3.92-9.18 1.13-9.09-.8-19.08-.94-28.24-.28-16.57-.29-41.2 15.06-51.86 6.68-4.65 14.8-4.52 22.45-6.11 8.78-1.83 16.67-4.41 25.6-5.65 6.61-.9 14.53-4.47 21.2-2.61 7.04 1.95 10.54 9.47 15.97 13.69 12.47 9.68 33.74-6.13 38.88 14.44"/><path d="M52.85 366.6H9.05c-.07-8.87-.3-17.89 1.27-26.67 1.75-9.87 6.23-15.7 13.63-22.15 13.8-12.03 30.9-17.94 48.63-21.44 31.78-6.25 70.35-11.1 70.33-51.59 0-7.03-.25-14.4-1.02-21.39-.73-6.59-5.1-7.64-10.21-11.46a60.2 60.2 0 0 1-15.73-17.7c-2.03-3.41-3.4-8.38-5.97-11.37-2.3-2.69-5.5-2.99-8.4-4.58-6.4-3.5-7.91-8.9-8.44-15.93-.36-4.8-1.67-16.3.75-20.67 1.62-2.9 5.73-3.12 8.19-5.47 2.57-2.49 3.48-5.74 3.92-9.18 1.12-9.1-.8-19.09-.95-28.24-.27-16.57-.28-41.2 15.07-51.87 6.68-4.64 14.8-4.51 22.44-6.1 8.8-1.84 16.67-4.42 25.61-5.65 6.6-.9 14.53-4.47 21.2-2.61 7.04 1.95 10.53 9.47 15.97 13.69 12.47 9.68 33.74-6.13 38.88 14.44"/></g></svg>