<?xml version="1.0" encoding="UTF-8" standalone="no"?>
<svg width="22px" height="20px" viewBox="0 0 22 20" version="1.1" xmlns="http://www.w3.org/2000/svg" xmlns:xlink="http://www.w3.org/1999/xlink">
    <!-- Generator: sketchtool 3.8.3 (29802) - http://www.bohemiancoding.com/sketch -->
    <title>179F66A9-86AA-484E-8B23-E22A14E7169E</title>
    <desc>Created with sketchtool.</desc>
    <defs></defs>
    <g id="Page-1" stroke="none" stroke-width="1" fill="none" fill-rule="evenodd">
        <g id="Company---Web" transform="translate(-1797.000000, -963.000000)" fill="#000">
            <g id="unsplash" transform="translate(1465.000000, 627.000000)">
                <g id="Group-2" transform="translate(191.000000, 326.000000)">
                    <path d="M154.352839,22.1103305 L154.334244,20.2074817 C154.334244,20.2074817 155.121748,19.6377825 155.367668,17.8380306 C155.859044,17.9735675 156.025935,17.288773 156.052433,16.8514999 C156.081721,16.4288915 156.343447,15.1112954 155.74143,15.2290569 C155.864623,14.3496226 155.960852,13.5541767 155.917154,13.1333458 C155.766998,11.6557717 154.694525,10.1124289 151.98754,10 C149.686394,10.1128733 148.192276,11.6566605 148.041656,13.134679 C147.998422,13.5555099 148.086749,14.350067 148.209477,15.2312788 C147.60839,15.1121841 147.866862,16.4320022 147.89336,16.8541662 C147.922182,17.2914393 148.08489,17.9784557 148.578125,17.8429188 C148.822651,19.6426707 149.610619,20.2168138 149.610619,20.2168138 L149.591094,22.129439 C149.591094,22.129439 145.935105,23.499014 144.040298,24.2331492 C141.789854,25.1050745 141.963565,28.0366993 141.963565,28.0366993 C141.867627,29.1305218 142.685561,30.0108242 143.796538,30.0028662 L160.321375,29.8844983 C161.429637,29.8765598 162.22521,28.9783148 162.021708,27.8883754 C162.021708,27.8883754 162.014035,25.1050745 159.800565,24.2331492 C157.587095,23.3612239 154.352839,22.1103305 154.352839,22.1103305 Z" id="PersonalWebsiteIcon"></path>
                </g>
            </g>
        </g>
    </g>
</svg>