<?xml version="1.0" encoding="UTF-8" standalone="no"?>
<svg width="512px" height="512px" viewBox="0 0 512 512" version="1.1" xmlns="http://www.w3.org/2000/svg" xmlns:xlink="http://www.w3.org/1999/xlink">
    <!-- Generator: Sketch 39.1 (31720) - http://www.bohemiancoding.com/sketch -->
    <title>Artboard</title>
    <desc>Created with Sketch.</desc>
    <defs></defs>
    <g id="Page-1" stroke="none" stroke-width="1" fill="none" fill-rule="evenodd">
        <g id="Artboard" fill="#000000">
            <path d="M256,26.9473684 C382.502275,26.9473684 485.052632,129.497725 485.052632,256 C485.052632,382.502275 382.502275,485.052632 256,485.052632 C129.497725,485.052632 26.9473684,382.502275 26.9473684,256 C26.9473684,129.497725 129.497725,26.9473684 256,26.9473684 L256,26.9473684 Z M256,-8.97527666e-15 C114.615104,-3.29093478e-14 -3.29093478e-14,114.615104 -5.68434189e-14,256 C-8.077749e-14,397.384896 114.615104,512 256,512 C397.384896,512 512,397.384896 512,256 C512,114.615104 397.384896,3.88928655e-14 256,-5.68434189e-14 L256,-8.97527666e-15 Z" id="a"></path>
            <path d="M408.522105,449.212632 C394.025366,440.451363 377.88197,434.764484 361.094737,432.505263 C353.145263,430.618947 345.061053,428.867368 337.381053,426.711579 L335.629474,426.711579 C330.509474,424.421053 326.332632,422.804211 322.155789,421.456842 C315.189713,419.20943 308.636454,415.841783 302.753684,411.486316 L301.541053,410.273684 L296.421053,404.210526 C285.517836,394.818108 278.623639,381.608248 277.153684,367.292632 L277.153684,366.349474 L279.04,314.475789 L285.372632,308.143158 C295.96091,294.142649 303.614101,278.148853 307.873684,261.12 L318.517895,225.414737 C322.155789,205.743158 331.991579,148.884211 318.517895,130.155789 C315.490774,125.439012 310.583734,122.249436 305.044211,121.397895 L296.421053,121.263158 L290.762105,118.029474 C285.055139,114.611756 280.14071,110.018833 276.345263,104.555789 L275.267368,103.208421 C269.947599,102.561153 264.592652,102.246156 259.233684,102.265263 L256,102.265263 C236.001179,100.462823 216.240759,107.675377 202.105263,121.936842 C188.631579,137.431579 187.688421,176.774737 188.631579,189.305263 C189.709474,213.557895 191.326316,241.044211 192,245.086316 C195.82039,254.86644 200.322686,264.366285 205.473684,273.515789 L205.473684,273.515789 L207.764211,276.884211 C214.302698,287.307095 219.765141,298.367414 224.067368,309.894737 L228.244211,313.802105 L228.244211,323.368421 C228.843124,339.860568 228.438165,356.373877 227.031579,372.816842 C224.872061,384.633463 218.910615,395.420841 210.054737,403.536842 C201.702873,410.158399 192.068364,414.975653 181.76,417.684211 L172.058947,421.322105 L170.576842,421.322105 C162.357895,423.612632 153.869474,425.498947 145.650526,427.250526 C129.170476,429.63602 113.403462,435.565887 99.4357895,444.631579 L80.8421053,424.690526 C94.3157895,411.216842 116.412632,406.905263 139.722105,401.785263 C147.267368,400.168421 155.082105,398.416842 162.627368,396.395789 L172.328421,392.757895 C179.257308,390.841799 185.784103,387.692506 191.595789,383.461053 C196.273421,379.299949 199.446711,373.71117 200.623158,367.562105 C201.597261,353.526906 201.867074,339.451694 201.431579,325.389474 L200.488421,324.581053 L199.410526,321.077895 C195.583089,310.976648 190.610274,301.347471 184.589474,292.378947 L184.589474,292.378947 C176.180421,279.463923 169.477761,265.515146 164.648421,250.88 C163.435789,244.412632 161.549474,207.090526 160.741053,191.326316 C160.741053,185.263158 158.854737,131.503158 180.951579,105.498947 C196.985263,86.0968421 222.181053,76.2610526 255.865263,76.2610526 L258.964211,76.2610526 C281.195789,76.2610526 290.088421,79.2252632 297.364211,89.0610526 C298.924582,91.3305859 300.888361,93.2943652 303.157895,94.8547368 L304.101053,94.8547368 C318.471096,95.1882588 331.805478,102.406872 339.941053,114.256842 C355.166316,134.332632 356.648421,169.364211 345.195789,231.477895 L345.195789,232.825263 L334.416842,269.204211 C329.138587,290.051401 319.545288,309.559307 306.256842,326.467368 L304.909474,365.945263 C305.833896,373.295478 309.489268,380.02906 315.149474,384.808421 L316.227368,385.751579 L321.077895,390.871579 C324.755363,393.130964 328.690923,394.940417 332.8,396.261053 C336.437895,397.608421 340.614737,399.36 346.273684,401.515789 C351.932632,403.671579 360.690526,405.153684 367.966316,406.770526 C391.68,412.294737 414.046316,417.414737 427.789474,430.08 L408.522105,449.212632 Z" id="Shape"></path>
        </g>
    </g>
</svg>