<svg xmlns="http://www.w3.org/2000/svg" viewBox="0 0 512 512">
  <path d="M11,375.4c-.29-19.88,2-41.13,6.53-45.39,1.43-1.34,2.87-2.83,4.42-4.4,10-10.3,23.75-24.4,73.4-31.6,26.79-3.88,45-12.48,54.15-25.56,6.82-9.74,6.23-18.73,5.83-21.5l-1.73-32-3.82-2.12c-.2-.1-20.77-11.89-28.73-34.14l-1.2-3.37L116.54,174c-12-4.72-12.2-6.36-12.93-11.8-.2-1.4-.4-2.88-.7-4.49-1.74-11.91-1.53-25.39.39-29.43a13.58,13.58,0,0,0,9.42-4.93c1.89-2.36,3.82-6.5,2.55-13-.65-15.27-.34-42.55.6-51.79.66-6.46,6.62-31.2,23.81-34.4,12-2.25,14.35-2.56,15.08-2.56H155a28.53,28.53,0,0,0,4.52-.42A20.3,20.3,0,0,0,168.19,18c1.55-1,2.78-1.71,8.67-1.71h.62l27.63-4.35c4.44.34,9.13,5.2,13.28,9.49,4.44,4.59,8.63,8.92,14.24,9.71a22.84,22.84,0,0,0,3.38.24,30.7,30.7,0,0,0,6.43-.78,26.67,26.67,0,0,1,5.87-.7,43.14,43.14,0,0,1,7.64.8c10,1.88,12.3,12.28,12.84,29.6.08,2.52.16,4.7.33,6.4,1,10,1.58,37.19-.19,45-1.25,5.53-.53,10,2.13,13.35a11.88,11.88,0,0,0,9.4,4.4h.6c2.62,1.86,4.42,15.27,2.73,29.4-1.11,4.56-2.5,5.54-11.41,10.78-2.1,1.24-4.48,2.64-7.15,4.3l-2.36,1.45L262,178c-8.29,23.18-25.66,37.56-25.84,37.71l-2.52,2.06-.34,3.22c-.21,2-2.1,19.93-2.23,24.72v.06c-2,15.13,2.78,40.54,56.13,48.27,50.16,7.27,64.25,21.53,74.52,32,1.43,1.45,2.78,2.81,4.11,4.06,4.6,4.32,8,25.49,8.75,45.37Z" fill="none" stroke="#000" stroke-width="15.81"/>
  <polyline points="418.28 332.07 461.6 375.39 504.92 332.07" fill="none" stroke="#000" stroke-width="15.81"/>
  <path d="M461.6,11.7V375.4" fill="none" stroke="#000" stroke-width="15.81"/>
  <polyline points="418.28 55.03 461.6 11.71 504.92 55.03" fill="none" stroke="#000" stroke-width="15.81"/>
  <polyline points="331.53 419.87 374.85 463.19 331.53 506.52" fill="none" stroke="#000" stroke-width="15.81"/>
  <path d="M374.85,463.2H11.23" fill="none" stroke="#000" stroke-width="15.81"/>
  <polyline points="54.55 419.87 11.23 463.19 54.55 506.52" fill="none" stroke="#000" stroke-width="15.81"/>
</svg>
