<?xml version="1.0" encoding="UTF-8"?>
<svg width="512px" height="512px" viewBox="0 0 512 512" version="1.1" xmlns="http://www.w3.org/2000/svg" xmlns:xlink="http://www.w3.org/1999/xlink">
    <!-- Generator: Sketch 46 (44423) - http://www.bohemiancoding.com/sketch -->
    <title>vcard</title>
    <desc>Created with Sketch.</desc>
    <defs></defs>
    <g id="Page-1" stroke="none" stroke-width="1" fill="none" fill-rule="evenodd">
        <g id="vcard" fill="#000000">
            <path d="M279.272727,308.272727 C272.849455,308.272727 267.636364,313.485818 267.636364,319.909091 C267.636364,326.332364 272.849455,331.545455 279.272727,331.545455 L442.181818,331.545455 C448.605091,331.545455 453.818182,326.332364 453.818182,319.909091 C453.818182,313.485818 448.605091,308.272727 442.181818,308.272727 L279.272727,308.272727 Z M145.454545,285 C164.352,285 181.300364,290.154909 192.727273,297.544 C203.328,304.397818 208.186182,312.275636 208.907636,319.909091 L82.0014545,319.909091 C82.7229091,312.275636 87.5810909,304.397818 98.1818182,297.544 C109.608727,290.154909 126.557091,285 145.454545,285 L145.454545,285 Z M145.454545,261.727273 C122.443636,261.727273 101.550545,267.621091 85.6378182,277.907636 C69.7250909,288.194182 58.1818182,303.612364 58.1818182,321.730182 L58.1818182,331.545455 C58.1818182,337.968727 63.3949091,343.181818 69.8181818,343.181818 L221.090909,343.181818 C227.514182,343.181818 232.727273,337.968727 232.727273,331.545455 L232.727273,321.730182 C232.727273,303.612364 221.184,288.194182 205.271273,277.907636 C189.358545,267.621091 168.465455,261.727273 145.454545,261.727273 L145.454545,261.727273 Z M279.272727,244.272727 C272.849455,244.272727 267.636364,249.485818 267.636364,255.909091 C267.636364,262.332364 272.849455,267.545455 279.272727,267.545455 L442.181818,267.545455 C448.605091,267.545455 453.818182,262.332364 453.818182,255.909091 C453.818182,249.485818 448.605091,244.272727 442.181818,244.272727 L279.272727,244.272727 Z M145.454545,191.909091 C155.234909,191.909091 162.909091,199.583273 162.909091,209.363636 C162.909091,219.144 155.234909,226.818182 145.454545,226.818182 C135.674182,226.818182 128,219.144 128,209.363636 C128,199.583273 135.674182,191.909091 145.454545,191.909091 L145.454545,191.909091 Z M279.272727,180.272727 C272.849455,180.272727 267.636364,185.485818 267.636364,191.909091 C267.636364,198.332364 272.849455,203.545455 279.272727,203.545455 L442.181818,203.545455 C448.605091,203.545455 453.818182,198.332364 453.818182,191.909091 C453.818182,185.485818 448.605091,180.272727 442.181818,180.272727 L279.272727,180.272727 Z M145.454545,168.636364 C123.101091,168.636364 104.727273,187.010182 104.727273,209.363636 C104.727273,231.717091 123.101091,250.090909 145.454545,250.090909 C167.808,250.090909 186.181818,231.717091 186.181818,209.363636 C186.181818,187.010182 167.808,168.636364 145.454545,168.636364 L145.454545,168.636364 Z M46.5454545,116.272727 L465.454545,116.272727 C478.551273,116.272727 488.727273,126.454545 488.727273,139.545455 L488.727273,372.272727 C488.727273,385.369455 478.551273,395.545455 465.454545,395.545455 L46.5454545,395.545455 C33.4545455,395.545455 23.2727273,385.369455 23.2727273,372.272727 L23.2727273,139.545455 C23.2727273,126.454545 33.4545455,116.272727 46.5454545,116.272727 L46.5454545,116.272727 Z M46.5454545,93 C20.9629091,93 0,113.962909 0,139.545455 L0,372.272727 C0,397.855273 20.9629091,418.818182 46.5454545,418.818182 L465.454545,418.818182 C491.037091,418.818182 512,397.855273 512,372.272727 L512,139.545455 C512,113.962909 491.037091,93 465.454545,93 L46.5454545,93 Z" id="Page-1"></path>
        </g>
    </g>
</svg>