<?xml version="1.0" encoding="UTF-8" standalone="no"?>
<svg width="512px" height="512px" viewBox="0 0 512 512" version="1.1" xmlns="http://www.w3.org/2000/svg" xmlns:xlink="http://www.w3.org/1999/xlink" xmlns:sketch="http://www.bohemiancoding.com/sketch/ns">
    <!-- Generator: Sketch 3.5.2 (25235) - http://www.bohemiancoding.com/sketch -->
    <title>video</title>
    <desc>Created with Sketch.</desc>
    <defs></defs>
    <g id="Page-1" stroke="none" stroke-width="1" fill="none" fill-rule="evenodd" sketch:type="MSPage">
        <g id="video" sketch:type="MSArtboardGroup" fill="#000000">
            <g id="icon-video" sketch:type="MSLayerGroup" transform="translate(0.000000, 64.000000)">
                <path d="M8.98245614,17.9534884 L503.017544,17.9534884 L494.035088,8.97674419 L494.035088,341.116279 L503.017544,332.139535 L8.98245614,332.139535 L17.9649123,341.116279 L17.9649123,8.97674419 L8.98245614,17.9534884 L8.98245614,17.9534884 Z M8.98245614,0 L0,0 L0,8.97674419 L0,341.116279 L0,350.093023 L8.98245614,350.093023 L503.017544,350.093023 L512,350.093023 L512,341.116279 L512,8.97674419 L512,0 L503.017544,0 L8.98245614,0 L8.98245614,0 Z" id="Shape" sketch:type="MSShapeGroup"></path>
                <path d="M321.630316,182.434372 L216.185263,255.110093 C210.229895,259.216953 202.105263,254.953 202.105263,247.717744 L202.105263,102.375279 C202.105263,95.1400233 210.229895,90.8760698 216.185263,94.9829302 L321.630316,167.658651 C326.804211,171.226907 326.804211,178.866116 321.630316,182.434372 L321.630316,182.434372 L321.630316,182.434372 Z" id="Path" sketch:type="MSShapeGroup"></path>
                <rect id="Rectangle-80" sketch:type="MSShapeGroup" x="85.3333333" y="368.046512" width="341.333333" height="17.9534884" rx="8"></rect>
            </g>
        </g>
    </g>
</svg>