<?xml version="1.0" encoding="UTF-8" standalone="no"?>
<svg width="512px" height="512px" viewBox="0 0 512 512" version="1.1" xmlns="http://www.w3.org/2000/svg" xmlns:xlink="http://www.w3.org/1999/xlink" xmlns:sketch="http://www.bohemiancoding.com/sketch/ns">
    <!-- Generator: Sketch 3.5.2 (25235) - http://www.bohemiancoding.com/sketch -->
    <title>play</title>
    <desc>Created with Sketch.</desc>
    <defs></defs>
    <g id="Page-1" stroke="none" stroke-width="1" fill="none" fill-rule="evenodd" sketch:type="MSPage">
        <g id="play" sketch:type="MSArtboardGroup" fill="#000000">
            <path d="M12.3017539,200.401611 C5.51316171,200.401611 0,205.878876 0,212.635424 L0,311.071593 C0,317.705119 5.50768284,323.305408 12.3017539,323.305408 L75.974601,323.305408 L182.27408,421.190458 C197.273805,435.002839 207.987125,430.154044 207.987125,409.330967 L208.987063,102.085672 C209.443494,81.8235939 197.76289,76.8597622 183.354134,91.2336364 L73.9212333,200.401611 L12.3017539,200.401611 Z M257.46904,205.399622 C257.934268,205.588109 259.385688,206.299883 261.483213,207.566922 C265.227678,209.828818 269.011553,212.716656 272.525245,216.237003 C282.456571,226.18714 288.307793,239.032818 288.307793,255.999999 C288.307793,272.967182 282.456571,285.81286 272.525245,295.762997 C269.011553,299.283344 265.227678,302.171182 261.483213,304.433078 C259.385688,305.700117 257.934268,306.411891 257.46904,306.600378 C248.076649,310.405696 243.54375,321.113649 247.344528,330.51726 C251.145307,339.920872 261.840486,344.459184 271.232879,340.653866 C278.622487,337.659973 288.589011,331.639555 298.479612,321.730222 C314.987621,305.190947 325,283.209931 325,255.999999 C325,228.790069 314.987621,206.809053 298.479612,190.269778 C288.589011,180.360445 278.622487,174.340027 271.232879,171.346134 C261.840486,167.540816 251.145307,172.079128 247.344528,181.48274 C243.54375,190.886351 248.076649,201.594304 257.46904,205.399622 L257.46904,205.399622 Z M292.92671,122.99541 C295.130864,123.983739 299.595678,126.354701 305.558032,130.177863 C315.734637,136.703273 325.950111,144.829424 335.46719,154.60215 C362.496025,182.357029 378.585679,217.493568 378.585679,261.374866 C378.585679,304.9575 362.771078,337.733077 336.229375,362.033412 C326.903676,370.571586 316.884426,377.426415 306.902728,382.715797 C301.067686,385.807834 296.719657,387.632804 294.625678,388.338654 C284.856146,391.631822 279.661428,402.060187 283.022951,411.63106 C286.384473,421.201933 297.029298,426.291018 306.798829,422.99785 C310.741137,421.668955 316.95661,419.060174 324.703211,414.955187 C337.357589,408.249531 349.974415,399.617527 361.775718,388.812808 C395.596884,357.847737 416,315.562519 416,261.374866 C416,207.485878 395.871935,163.530271 362.537904,129.300827 C350.92798,117.379039 338.507378,107.498763 326.047908,99.5095423 C318.428618,94.6239246 312.32993,91.3853237 308.497797,89.6670168 C299.103383,85.4546156 288.002,89.5006047 283.702163,98.7039862 C279.402326,107.907368 283.532297,118.783009 292.92671,122.99541 L292.92671,122.99541 Z M343.196437,50.9642026 C343.931884,51.2764919 345.641407,52.0684236 348.184148,53.3585729 C352.615167,55.6068075 357.603813,58.3920404 363.009672,61.7314118 C378.582705,71.3513682 394.194197,83.4068229 408.746059,98.0160761 C450.17097,139.604367 474.900834,193.08469 474.900834,260.473649 C474.900834,327.695749 450.324301,379.305592 409.170559,418.044748 C394.725155,431.642606 379.222814,442.643072 363.758214,451.22771 C358.39125,454.206995 353.440185,456.661229 349.045661,458.615778 C346.532217,459.733681 344.850668,460.40736 344.142158,460.663848 C334.529114,464.143859 329.607161,474.62256 333.148669,484.068681 C336.690176,493.514802 347.354047,498.351289 356.96709,494.871277 C362.324725,492.931763 371.039331,489.055775 382.005968,482.968026 C400.032572,472.96118 418.021431,460.196279 434.834483,444.369688 C482.99061,399.038992 512,338.120311 512,260.473649 C512,182.993847 483.143941,120.590296 435.258982,72.5164805 C418.55239,55.7439968 400.672681,41.9369883 382.754511,30.8683657 C371.85872,24.1376893 363.209115,19.7490062 357.912811,17.5000595 C348.508647,13.5068102 337.590693,17.7608456 333.526879,27.0017135 C329.463064,36.2425815 333.792274,46.9709532 343.196437,50.9642026 L343.196437,50.9642026 Z" id="Volume" sketch:type="MSShapeGroup"></path>
        </g>
    </g>
</svg>