<?xml version="1.0" encoding="UTF-8" standalone="no"?>
<svg width="512px" height="512px" viewBox="0 0 512 512" version="1.1" xmlns="http://www.w3.org/2000/svg" xmlns:xlink="http://www.w3.org/1999/xlink" xmlns:sketch="http://www.bohemiancoding.com/sketch/ns">
    <!-- Generator: Sketch 3.5.2 (25235) - http://www.bohemiancoding.com/sketch -->
    <title>play</title>
    <desc>Created with Sketch.</desc>
    <defs></defs>
    <g id="Page-1" stroke="none" stroke-width="1" fill="none" fill-rule="evenodd" sketch:type="MSPage">
        <g id="play" sketch:type="MSArtboardGroup" fill="#000000">
            <path d="M12.3017539,200.401611 C5.51316171,200.401611 0,205.878876 0,212.635424 L0,311.071593 C0,317.705119 5.50768284,323.305408 12.3017539,323.305408 L75.974601,323.305408 L182.27408,421.190458 C197.273805,435.002839 207.987125,430.154044 207.987125,409.330967 L208.987063,102.085672 C209.443494,81.8235939 197.76289,76.8597622 183.354134,91.2336364 L73.9212333,200.401611 L12.3017539,200.401611 Z M340.985564,256 L288.748746,203.784684 C281.083007,196.122099 281.066582,183.568354 288.802555,175.835566 C296.592462,168.048866 309.056927,168.078696 316.763181,175.781778 L369,227.997095 L421.236819,175.781778 C428.943073,168.078696 441.407538,168.048866 449.197445,175.835566 C456.933418,183.568354 456.916993,196.122099 449.251254,203.784684 L397.014436,256 L449.251254,308.215317 C456.916993,315.877901 456.933418,328.431646 449.197445,336.164434 C441.407538,343.951135 428.943073,343.921304 421.236819,336.218221 L369,284.002905 L316.763181,336.218221 C309.056927,343.921304 296.592462,343.951135 288.802555,336.164434 C281.066582,328.431646 281.083007,315.877901 288.748746,308.215317 L340.985564,256 Z" id="Mute" sketch:type="MSShapeGroup"></path>
        </g>
    </g>
</svg>