<?xml version="1.0" encoding="UTF-8"?>
<svg width="512px" height="512px" viewBox="0 0 512 512" version="1.1" xmlns="http://www.w3.org/2000/svg" xmlns:xlink="http://www.w3.org/1999/xlink">
    <!-- Generator: Sketch 39.1 (31720) - http://www.bohemiancoding.com/sketch -->
    <title>web</title>
    <desc>Created with Sketch.</desc>
    <defs></defs>
    <g id="Page-1" stroke="none" stroke-width="1" fill="none" fill-rule="evenodd">
        <g id="web" fill="#038AC6">
            <path d="M449.65888,137.9328 L391.23968,137.9328 L390.6816,136.0896 C381.896669,107.099607 368.303287,79.7916892 350.46912,55.30624 L344.44288,47.03232 L353.67424,51.45088 C391.873143,69.740334 424.223365,98.3071737 447.09888,133.94944 L449.65888,137.92768 L449.65888,137.9328 Z M465.25952,168.84224 C474.544981,191.040203 480.198038,214.587691 482.00192,238.58176 L482.20672,241.36192 L408.29952,241.36192 L408.20736,238.87872 C407.328174,215.845585 404.509021,192.927546 399.77984,170.368 L399.1296,167.25504 L464.5888,167.25504 L465.2544,168.84224 L465.25952,168.84224 Z M482.05312,273.46944 C480.236683,297.467489 474.564378,321.01594 465.2544,343.20896 L464.5888,344.79616 L399.1296,344.79616 L399.77984,341.67808 C404.509023,319.120262 407.328178,296.203923 408.20736,273.17248 L408.29952,270.68928 L482.26304,270.68928 L482.05312,273.46944 L482.05312,273.46944 Z M447.14496,378.27072 C438.443467,391.727707 428.345467,404.228359 417.01888,415.5648 L416.29184,416.44032 C398.135193,434.671095 376.991361,449.658799 353.77664,460.75392 L344.5504,465.17248 L350.57152,456.89856 C368.408686,432.414932 382.00233,405.106488 390.784,376.1152 L391.3472,374.27712 L449.72544,374.27712 L447.14496,378.27072 L447.14496,378.27072 Z M298.10176,468.18816 C290.797889,473.485255 282.659025,477.522671 274.0224,480.13312 L270.68928,481.14688 L270.68928,374.0672 L360.5504,374.0672 L359.34208,377.50784 C353.849079,393.130708 346.83336,408.175663 338.39616,422.4256 C328.248504,440.282653 314.532164,455.858629 298.10176,468.18304 L298.10176,468.18816 Z M270.63808,270.63808 L378.98752,270.63808 L378.88,273.32608 C377.93792,296.6528 374.784,320.01536 369.50528,342.75328 L369.03936,344.75008 L273.22368,344.75008 L273.22368,342.21056 L270.63808,342.21056 L270.63808,270.63296 L270.63808,270.63808 Z M270.63808,167.20384 L369.04448,167.20384 L369.50528,169.20064 C374.789511,191.999854 377.928107,215.243633 378.88,238.62784 L378.98752,241.31072 L270.6432,241.31072 L270.6432,167.20384 L270.63808,167.20384 Z M270.63808,30.90944 L273.9712,31.91296 C282.590211,34.5238581 290.714166,38.552094 298.0096,43.83232 C314.460667,56.1698175 328.194488,71.7632815 338.3552,89.64096 C346.768814,103.8695 353.763917,118.890365 359.23968,134.48704 L360.448,137.92768 L270.63808,137.92768 L270.63808,30.90432 L270.63808,30.90944 Z M241.36192,241.36192 L133.0176,241.36192 L133.12512,238.67392 C134.072197,215.292977 137.209121,192.052308 142.49472,169.25696 L142.96064,167.25504 L238.77632,167.25504 L238.77632,169.78944 L241.36192,169.84064 L241.36192,241.36704 L241.36192,241.36192 Z M241.36192,344.79616 L142.96064,344.79616 L142.49984,342.79936 C137.209833,319.983729 134.069492,296.722576 133.12,273.32096 L133.01248,270.63808 L241.3568,270.63808 L241.3568,344.79616 L241.36192,344.79616 Z M241.36192,481.09056 L238.0288,480.08704 C229.410669,477.473921 221.287069,473.445862 213.9904,468.16768 C197.53767,455.834051 183.803447,440.241873 173.6448,422.36416 C165.231799,408.134235 158.238368,393.111563 152.76544,377.51296 L151.55712,374.07232 L241.36192,374.07232 L241.36192,481.09568 L241.36192,481.09056 Z M158.27456,460.70272 C120.565169,442.59818 88.561896,414.470442 65.7664,379.39712 L64.49152,379.39712 L64.49152,367.82592 L68.59264,374.22592 L120.71424,374.22592 L121.27232,376.05888 C130.056519,405.051366 143.648047,432.362497 161.47968,456.85248 L167.52128,465.14688 L158.27456,460.70272 L158.27456,460.70272 Z M46.7456,343.20896 C37.4589741,321.013163 31.8058608,297.467168 30.0032,273.47456 L29.7984,270.68928 L103.70048,270.68928 L103.79776,273.1776 C104.66816,296.13568 107.49952,319.1808 112.22016,341.6832 L112.87552,344.79616 L47.4112,344.79616 L46.7456,343.20896 L46.7456,343.20896 Z M29.952,238.53056 C31.7673366,214.532879 37.4378901,190.984523 46.7456,168.79104 L47.4112,167.20384 L112.87552,167.20384 L112.22016,170.32192 C107.491689,192.879718 104.674237,215.79614 103.79776,238.82752 L103.69536,241.31072 L29.7472,241.31072 L29.96224,238.53056 L29.952,238.53056 Z M64.85504,133.89824 C73.7329276,120.090445 84.0792614,107.284132 95.71328,95.70304 C113.869262,77.4764707 135.011266,62.4922986 158.22336,51.39968 L167.4496,46.99136 L161.4336,55.26016 C143.597934,79.7446989 130.004421,107.052879 121.22112,136.04352 L120.65792,137.87648 L62.28992,137.87648 L64.84992,133.89824 L64.85504,133.89824 Z M213.89824,43.81184 C221.20271,38.5157368 229.341401,34.4784062 237.9776,31.86688 L241.31072,30.85312 L241.31072,137.9328 L151.45472,137.9328 L152.66304,134.49216 C158.154095,118.867727 165.168103,103.82105 173.60384,89.56928 C183.751469,71.7136453 197.467872,56.1393408 213.89824,43.81696 L213.89824,43.81184 Z M256,0 C114.8416,0 0,114.8416 0,256 C0,397.1584 114.8416,512 256,512 C397.1584,512 512,397.1584 512,256 C512,114.8416 397.1584,0 256,0 L256,0 Z" id="Shape"></path>
        </g>
    </g>
</svg>