<?xml version="1.0" encoding="UTF-8" standalone="no"?>
<svg width="512px" height="512px" viewBox="0 0 512 512" version="1.1" xmlns="http://www.w3.org/2000/svg" xmlns:xlink="http://www.w3.org/1999/xlink">
    <!-- Generator: Sketch 39.1 (31720) - http://www.bohemiancoding.com/sketch -->
    <title>icon-webdav</title>
    <desc>Created with Sketch.</desc>
    <defs></defs>
    <g id="Page-1" stroke="none" stroke-width="1" fill="none" fill-rule="evenodd">
        <g id="icon-webdav" fill="#000000">
            <g id="WebDAVOverlay">
                <path d="M182.857143,10.893617 C135.223,25.41663 93.6406254,53.7568648 62.1714286,91.1366569 C79.0894841,102.483609 101.386889,112.310395 127.745703,119.829787 C140.790627,74.659145 159.699042,36.7635823 182.857143,10.893617" id="Fill-1"></path>
                <path d="M376.685714,268.70922 L270.628571,268.70922 L270.628571,349.204843 C304.751535,350.002093 337.070174,353.56314 366.284314,359.489362 C372.201435,331.559055 375.88969,300.944674 376.685714,268.70922" id="Fill-2"></path>
                <path d="M108.766473,268.70922 L0,268.70922 C2.52503294,316.890521 18.082494,361.643902 43.1970688,399.432624 C63.3973325,386.673148 89.9237537,375.872487 120.685714,367.656364 C113.897991,336.995535 109.635301,303.777372 108.766473,268.70922" id="Fill-3"></path>
                <path d="M120.685714,142.768611 C91.251494,133.938046 65.7400327,122.507069 45.9098086,108.93617 C19.2079931,147.427682 2.59713709,193.422466 0,243.29078 L108.376366,243.29078 C109.242079,207.643468 113.624748,173.811027 120.685714,142.768611" id="Fill-4"></path>
                <path d="M403.599334,243.29078 L512,243.29078 C509.429339,193.422466 492.760642,147.427682 466.106957,108.93617 C446.218167,122.507069 420.755105,133.938046 391.314286,142.768611 C398.349776,173.811027 402.733429,207.643468 403.599334,243.29078" id="Fill-5"></path>
                <path d="M366.01897,148.879433 C336.884435,155.689253 304.671932,159.829623 270.628571,160.646802 L270.628571,243.29078 L376.685714,243.29078 C375.88969,209.677507 372.095301,177.889267 366.01897,148.879433" id="Fill-6"></path>
                <path d="M449.828571,91.1366569 C418.386271,53.7568648 376.777,25.41663 329.142857,10.893617 C352.327855,36.7635823 371.290064,74.659145 384.308089,119.829787 C410.6938,112.310395 432.937413,102.483609 449.828571,91.1366569" id="Fill-7"></path>
                <path d="M270.628571,0 L270.628571,134.35461 C303.392519,133.595851 334.331708,130.04594 362.057143,124.219752 C342.856326,56.7172648 309.574909,9.07801418 270.628571,0" id="Fill-8"></path>
                <path d="M145.691749,359.489362 C174.913199,353.56314 207.239926,350.002093 241.371429,349.204843 L241.371429,268.70922 L135.314286,268.70922 C136.08397,300.944674 139.773145,331.559055 145.691749,359.489362" id="Fill-9"></path>
                <path d="M329.142857,501.106383 C378.63255,486.308312 421.667068,456.978319 453.485714,418.253145 C436.379494,407.793359 412.95258,398.930483 384.899452,392.170213 C371.854614,437.442734 352.704255,475.396063 329.142857,501.106383" id="Fill-10"></path>
                <path d="M58.5142857,418.253145 C90.3129136,456.978319 133.410546,486.308312 182.857143,501.106383 C159.31755,475.396063 140.189949,437.442734 127.115386,392.170213 C99.0830932,398.930483 75.6242074,407.793359 58.5142857,418.253145" id="Fill-11"></path>
                <path d="M270.628571,377.64539 L270.628571,512 C309.661226,502.849917 342.974512,454.636021 362.057143,386.470618 C334.354801,381.408292 303.426843,378.349241 270.628571,377.64539" id="Fill-12"></path>
                <path d="M391.314286,367.656364 C422.096472,375.872487 448.589784,386.673148 468.839793,399.432624 C493.94872,361.643902 509.50268,316.890521 512,268.70922 L403.257991,268.70922 C402.389358,303.777372 398.127627,336.995535 391.314286,367.656364" id="Fill-13"></path>
                <path d="M153.6,124.219752 C181.344406,130.04594 212.247154,133.595851 245.028571,134.35461 L245.028571,0 C206.121058,9.07801418 172.822326,56.7172648 153.6,124.219752" id="Fill-14"></path>
                <path d="M241.371429,512 L241.371429,377.64539 C208.536316,378.349241 177.626301,381.408292 149.942857,386.470618 C168.976919,454.636021 202.381427,502.849917 241.371429,512" id="Fill-15"></path>
                <path d="M135.314286,243.29078 L241.371429,243.29078 L241.371429,160.646802 C207.319548,159.829623 175.152066,155.689253 145.957157,148.879433 C139.905849,177.889267 136.11051,209.677507 135.314286,243.29078" id="Fill-16"></path>
            </g>
        </g>
    </g>
</svg>