<svg xmlns="http://www.w3.org/2000/svg" viewBox="0 0 512 512">
  <path d="M342.09,170.2,284,242.78a31.68,31.68,0,0,0-14.46-14.45l72.59-58.13M227.44,270.4a31.63,31.63,0,0,0,14.45,14.46L169.31,343l58.13-72.58m224.43-210L234,234.89,59.54,452.76,277.39,278.28,451.87,60.43ZM255.7,271a14.4,14.4,0,1,1,14.39-14.4A14.4,14.4,0,0,1,255.7,271Zm0-158.06,7.44,46.76c-2.47-.19-5-.29-7.44-.29s-5,.1-7.45.29l7.45-46.76M158.8,249.14q-.28,3.69-.28,7.45c0,2.48.09,5,.28,7.45L112,256.59l46.77-7.45M255.7,4.42,231.24,158a100.87,100.87,0,0,0-35.9,16.92l-93.55-72.26L174,196.23a101.19,101.19,0,0,0-16.91,35.9L3.52,256.59l153.6,24.47c.77,3.1,1.87,6.07,2.92,9.06l17.22-17.21A80.16,80.16,0,0,1,272,178.14l17.21-17.21c-3-1-6-2.15-9.07-2.92L255.7,4.42Zm96.9,244.72,46.76,7.45L352.6,264c.19-2.46.29-5,.29-7.45s-.1-5-.29-7.45M248.25,353.49c2.48.19,5,.28,7.45.28s5-.09,7.45-.28l-7.45,46.77-7.45-46.77M351.36,223.07l-17.21,17.2a80.16,80.16,0,0,1-78.45,96.44A79.65,79.65,0,0,1,239.39,335l-17.22,17.22c3,1.05,6,2.15,9.07,2.91l24.46,153.6,24.47-153.6a101.08,101.08,0,0,0,35.9-16.9l93.55,72.24L337.37,317a100.94,100.94,0,0,0,16.91-35.9l153.6-24.46-153.6-24.46c-.77-3.11-1.87-6.08-2.92-9.06Z"/>
</svg>