<?xml version="1.0" encoding="UTF-8" standalone="no"?>
<svg width="512px" height="512px" viewBox="0 0 512 512" version="1.1" xmlns="http://www.w3.org/2000/svg" xmlns:xlink="http://www.w3.org/1999/xlink" xmlns:sketch="http://www.bohemiancoding.com/sketch/ns">
    <!-- Generator: Sketch 3.3.3 (12072) - http://www.bohemiancoding.com/sketch -->
    <title>wheelbarrow</title>
    <desc>Created with Sketch.</desc>
    <defs></defs>
    <g id="Page-1" stroke="none" stroke-width="1" fill="none" fill-rule="evenodd" sketch:type="MSPage">
        <g id="wheelbarrow" sketch:type="MSArtboardGroup" fill="#000000">
            <path d="M333.820637,122.159936 L299.119742,230.292694 L172.309285,300.745702 C172.309285,300.745702 15.7775327,169.664792 3.80445167,160.304468 C-4.6538537,153.692426 3.63211948,151.586757 3.63211948,151.586757 C3.63211948,151.586757 320.320613,115.448874 328.34408,114.779991 C336.367547,114.109087 333.820637,122.159936 333.820637,122.159936 L333.820637,122.159936 Z M155.918744,365.967722 C156.253062,368.204505 156.427229,370.493919 156.427229,372.827867 C156.427229,398.108585 136.157907,418.606027 111.148063,418.606027 C86.1382208,418.606027 65.8729015,398.108585 65.8729015,372.827867 C65.8729015,347.539051 86.1382208,327.041607 111.148063,327.041607 C122.486873,327.041607 132.842746,331.262147 140.786318,338.227552 L167.249546,323.521456 C153.616549,307.67774 133.543413,297.645612 111.148063,297.645612 C70.0909226,297.645612 36.793179,331.304655 36.793179,372.827867 C36.793179,414.338932 70.0909226,448 111.148063,448 C152.205204,448 185.498944,414.338932 185.498944,372.827867 C185.498944,365.328061 184.399896,358.093431 182.377969,351.259601 L155.918744,365.967722 L155.918744,365.967722 Z M288.334027,375.825984 L234.850015,321.664466 L277.859242,297.748019 L298.876818,368.416964 L288.334027,375.825984 L288.334027,375.825984 Z M475.400059,67.5868596 L366.803913,129.084562 C363.323653,130.998525 360.699456,134.148674 359.471364,137.91995 L327.710981,233.951942 L117.061181,351.047646 C114.957023,350.394147 112.724855,350.040084 110.412682,350.040084 C97.9517473,350.040084 87.8469892,360.259353 87.8469892,372.863995 C87.8469892,385.468636 97.9517473,395.687905 110.412682,395.687905 C120.843464,395.687905 129.606122,388.511555 132.184315,378.779881 L206.323876,337.548743 L275.473064,407.523724 C278.49929,410.62127 282.49759,412.164983 286.535892,412.164983 C289.620124,412.164983 292.76836,411.236328 295.456561,409.350688 L326.08686,387.789266 C331.615274,383.888504 334.059457,376.813314 332.107311,370.26416 L305.899345,282.146993 L348.108511,258.671608 C351.594772,256.71718 354.156965,253.597379 355.381057,249.826102 L383.849192,163.841406 C385.897346,164.770062 388.003504,165.603628 390.265674,165.603628 C392.643852,165.603628 395.090035,165.051289 397.350205,163.871754 L497.725733,109.323802 C528.87607,91.4446339 503.348156,51.9473927 475.400059,67.5868596 L475.400059,67.5868596 L475.400059,67.5868596 Z" id="icon-wheelbarrow" sketch:type="MSShapeGroup"></path>
        </g>
    </g>
</svg>