<?xml version="1.0" encoding="UTF-8" standalone="no"?>
<svg width="512px" height="512px" viewBox="0 0 512 512" version="1.1" xmlns="http://www.w3.org/2000/svg" xmlns:xlink="http://www.w3.org/1999/xlink" xmlns:sketch="http://www.bohemiancoding.com/sketch/ns">
    <!-- Generator: Sketch 3.5.2 (25235) - http://www.bohemiancoding.com/sketch -->
    <title>zip</title>
    <desc>Created with Sketch.</desc>
    <defs></defs>
    <g id="Page-1" stroke="none" stroke-width="1" fill="none" fill-rule="evenodd" sketch:type="MSPage">
        <g id="zip" sketch:type="MSArtboardGroup" fill="#000000">
            <g id="icon-zip" sketch:type="MSLayerGroup" transform="translate(208.000000, 0.000000)">
                <path d="M74.6666667,112 L53.3333333,112 C50.3866667,112 48,109.494 48,106.4 L48,89.6 C48,86.506 50.3866667,84 53.3333333,84 L74.6666667,84 C77.6133333,84 80,86.506 80,89.6 L80,106.4 C80,109.494 77.6133333,112 74.6666667,112" id="Fill-4" sketch:type="MSShapeGroup"></path>
                <path d="M74.6666667,168 L53.3333333,168 C50.3866667,168 48,165.494 48,162.4 L48,145.6 C48,142.506 50.3866667,140 53.3333333,140 L74.6666667,140 C77.6133333,140 80,142.506 80,145.6 L80,162.4 C80,165.494 77.6133333,168 74.6666667,168" id="Fill-5" sketch:type="MSShapeGroup"></path>
                <path d="M42.6666667,84 L21.3333333,84 C18.3866667,84 16,81.494 16,78.4 L16,61.6 C16,58.506 18.3866667,56 21.3333333,56 L42.6666667,56 C45.6133333,56 48,58.506 48,61.6 L48,78.4 C48,81.494 45.6133333,84 42.6666667,84" id="Fill-6" sketch:type="MSShapeGroup"></path>
                <path d="M42.6666667,140 L21.3333333,140 C18.3866667,140 16,137.494 16,134.4 L16,117.6 C16,114.506 18.3866667,112 21.3333333,112 L42.6666667,112 C45.6133333,112 48,114.506 48,117.6 L48,134.4 C48,137.494 45.6133333,140 42.6666667,140" id="Fill-7" sketch:type="MSShapeGroup"></path>
                <path d="M42.6666667,196 L21.3333333,196 C18.3866667,196 16,193.494 16,190.4 L16,173.6 C16,170.506 18.3866667,168 21.3333333,168 L42.6666667,168 C45.6133333,168 48,170.506 48,173.6 L48,190.4 C48,193.494 45.6133333,196 42.6666667,196" id="Fill-8" sketch:type="MSShapeGroup"></path>
                <path d="M74.6666667,56 L53.3333333,56 C50.3866667,56 48,53.494 48,50.4 L48,33.6 C48,30.506 50.3866667,28 53.3333333,28 L74.6666667,28 C77.6133333,28 80,30.506 80,33.6 L80,50.4 C80,53.494 77.6133333,56 74.6666667,56" id="Fill-9" sketch:type="MSShapeGroup"></path>
                <path d="M42.6666667,28 L21.3333333,28 C18.3866667,28 16,25.494 16,22.4 L16,5.6 C16,2.506 18.3866667,0 21.3333333,0 L42.6666667,0 C45.6133333,0 48,2.506 48,5.6 L48,22.4 C48,25.494 45.6133333,28 42.6666667,28" id="Fill-10" sketch:type="MSShapeGroup"></path>
                <path d="M57.6,348 L38.4,348 C34.864,348 32,345.521538 32,342.461538 L32,281.538462 C32,278.478462 34.864,276 38.4,276 L57.6,276 C61.136,276 64,278.478462 64,281.538462 L64,342.461538 C64,345.521538 61.136,348 57.6,348" id="Fill-11" sketch:type="MSShapeGroup"></path>
                <path d="M85.0578037,218.33522 L11.6460389,218.33522 C5.40886248,218.33522 0.351921303,223.426587 0.351921303,229.706223 L0.351921303,292.246737 C0.351921303,298.526373 5.40886248,303.61774 11.6460389,303.61774 L22.9401566,303.61774 L22.9401566,275.190233 C22.9401566,268.910597 27.9970978,263.819231 34.2342742,263.819231 L62.4695684,263.819231 C68.7067448,263.819231 73.763686,268.910597 73.763686,275.190233 L73.763686,303.61774 L85.0578037,303.61774 C91.2949801,303.61774 96.3519213,298.526373 96.3519213,292.246737 L96.3519213,229.706223 C96.3519213,223.426587 91.2949801,218.33522 85.0578037,218.33522" id="Fill-12" sketch:type="MSShapeGroup"></path>
                <path d="M73.4117647,320 L73.4117647,348.235294 C73.4117647,354.472471 68.3548235,359.529412 62.1176471,359.529412 L33.8823529,359.529412 C27.6451765,359.529412 22.5882353,354.472471 22.5882353,348.235294 L22.5882353,320 L11.2941176,320 C5.05694118,320 0,325.056941 0,331.294118 L0,500.705882 C0,506.943059 5.05694118,512 11.2941176,512 L84.7058824,512 C90.9430588,512 96,506.943059 96,500.705882 L96,331.294118 C96,325.056941 90.9430588,320 84.7058824,320 L73.4117647,320" id="Fill-13" sketch:type="MSShapeGroup"></path>
            </g>
        </g>
    </g>
</svg>