<?xml version="1.0" encoding="UTF-8"?>
<svg width="512px" height="512px" viewBox="0 0 512 512" version="1.1" xmlns="http://www.w3.org/2000/svg" xmlns:xlink="http://www.w3.org/1999/xlink">
    <!-- Generator: Sketch 39.1 (31720) - http://www.bohemiancoding.com/sketch -->
    <title>zoomIn-fill</title>
    <desc>Created with Sketch.</desc>
    <defs></defs>
    <g id="Page-1" stroke="none" stroke-width="1" fill="none" fill-rule="evenodd">
        <g id="zoomIn-fill" fill="#F26724">
            <path d="M280.4,230.6 L280.4,154.273 C280.330107,140.294589 268.978585,128.999825 255,129 C240.8776,129 229.6,140.3157 229.6,154.273 L229.6,230.6 L153.273,230.6 C139.294589,230.669893 127.999825,242.021415 128,256 C128,270.1224 139.3157,281.4 153.273,281.4 L229.6,281.4 L229.6,357.727 C229.669893,371.705411 241.021415,383.000175 255,383 C269.1224,383 280.4,371.6843 280.4,357.727 L280.4,281.4 L356.727,281.4 C370.705411,281.330107 382.000175,269.978585 382,256 C382,241.8776 370.6843,230.6 356.727,230.6 L280.4,230.6 L280.4,230.6 Z M255,510 C114.7158,510 1,396.2842 1,256 C1,115.7158 114.7158,2 255,2 C395.2842,2 509,115.7158 509,256 C509,396.2842 395.2842,510 255,510 L255,510 Z" id="Shape"></path>
        </g>
    </g>
</svg>