<?xml version="1.0" encoding="UTF-8" standalone="no"?>
<svg width="512px" height="512px" viewBox="0 0 512 512" version="1.1" xmlns="http://www.w3.org/2000/svg" xmlns:xlink="http://www.w3.org/1999/xlink" xmlns:sketch="http://www.bohemiancoding.com/sketch/ns">
    <!-- Generator: Sketch 3.3.3 (12072) - http://www.bohemiancoding.com/sketch -->
    <title>zoomIn</title>
    <desc>Created with Sketch.</desc>
    <defs></defs>
    <g id="Page-1" stroke="none" stroke-width="1" fill="none" fill-rule="evenodd" sketch:type="MSPage">
        <g id="zoomIn" sketch:type="MSArtboardGroup" fill="#000000">
            <g id="icon-zoomIn" sketch:type="MSLayerGroup">
                <path d="M240,128 L240,384 L272,384 L272,128 L240,128 L240,128 Z" id="Shape" sketch:type="MSShapeGroup"></path>
                <path d="M128,272 L384,272 L384,240 L128,240 L128,272 L128,272 Z" id="Shape" sketch:type="MSShapeGroup"></path>
                <path d="M256,512 C324.151614,512 388.755627,482.5627 437.036422,431.849968 C484.466364,382.030947 512,315.879137 512,248.714175 C512,111.346563 397.378538,0 256,0 C114.621462,0 0,111.346563 0,248.714175 C0,315.879137 27.5336355,382.030947 74.963578,431.849968 C123.244373,482.5627 187.848386,512 256,512 L256,512 Z M256,480 C196.395606,480 139.877905,454.247289 97.6231485,409.864131 C56.101588,366.2511 32,308.345065 32,249.574902 C32,129.417392 132.282609,32 256,32 C379.717391,32 480,129.417392 480,249.574902 C480,308.345065 455.898412,366.2511 414.376852,409.864131 C372.122095,454.247289 315.604394,480 256,480 L256,480 Z" id="Shape" sketch:type="MSShapeGroup"></path>
            </g>
        </g>
    </g>
</svg>