<svg xmlns="http://www.w3.org/2000/svg" viewBox="0 0 200 120"><g fill="none" fill-rule="evenodd"><path fill="#F7F7F7" fill-opacity=".9" d="M144.97 115.82A46.83 46.83 0 0 0 148 99.2c0-26.07-21.27-47.2-47.5-47.2S53 73.13 53 99.2c0 5.92 1.1 11.58 3.1 16.8 1.5-.18 87.49 0 88.87-.18z"/><rect width="64" height="46" x="69" y="69" fill="#FFFFFF" stroke="#24283D" stroke-width="2" rx="6"/><path stroke="#E3E3E3" stroke-width="2" d="M69 74.5l27.07 21.15a8 8 0 0 0 9.86 0L131 76h0v34a3 3 0 0 1-3 3H70h0"/><line x1="70" x2="94" y1="113" y2="91" stroke="#24283D" stroke-width="2"/><line x1="108" x2="132" y1="91" y2="113" stroke="#24283D" stroke-width="2"/><rect width="64" height="46" x="69" y="69" stroke="#24283D" stroke-width="2" rx="6"/><path stroke="#24283D" stroke-width="2" d="M71 70a2.5 2.5 0 0 0 .23 3.74L97.3 94.11a6 6 0 0 0 7.38 0l26.08-20.37A2.5 2.5 0 0 0 131 70h0"/><rect width="140" height="2" x="30" y="114" fill="#24283D" rx="1"/><rect width="4" height="2" x="24" y="114" fill="#24283D" rx="1"/><rect width="2" height="2" x="20" y="114" fill="#24283D" rx="1"/><rect width="4" height="2" x="172" y="114" fill="#24283D" rx="1"/><rect width="2" height="2" x="178" y="114" fill="#24283D" rx="1"/><path fill="#EEEEEE" d="M178.1 47h-60.57a1.53 1.53 0 0 1-.88-2.77l2.35-1.68a10.08 10.08 0 0 1 3.4-1.55l7.04-1.77c1.57-.4 3.02-1.16 4.23-2.24l2.76-2.45a10.08 10.08 0 0 1 6.7-2.54h4.05c1.94 0 3.8.76 5.18 2.12a7.4 7.4 0 0 0 5.18 2.11h2.17c2.64 0 5.17 1.04 7.06 2.9l1.94 1.9a8.53 8.53 0 0 0 4.93 2.37l.2.03c1.74.21 3.4.88 4.81 1.95a.9.9 0 0 1-.54 1.62zM22.96 45h64.4a1.63 1.63 0 0 0 .95-2.96l-2.5-1.78a10.76 10.76 0 0 0-3.61-1.67l-7.47-1.88a10.76 10.76 0 0 1-4.52-2.4l-2.92-2.59A10.76 10.76 0 0 0 60.14 29h-4.28c-2.07 0-4.05.81-5.52 2.26a7.85 7.85 0 0 1-5.5 2.26h-2.29a10.7 10.7 0 0 0-7.54 3.09l-2.05 2.02a9.05 9.05 0 0 1-5.24 2.53l-.21.03c-1.87.23-3.63.95-5.13 2.08a.96.96 0 0 0 .58 1.73z"/></g></svg>